<?xml version="1.0" encoding="utf-8"?>
<!-- Generator: Adobe Illustrator 15.0.0, SVG Export Plug-In . SVG Version: 6.00 Build 0)  -->
<!DOCTYPE svg PUBLIC "-//W3C//DTD SVG 1.1//EN" "http://www.w3.org/Graphics/SVG/1.1/DTD/svg11.dtd">
<svg version="1.1" id="레이어_1" xmlns="http://www.w3.org/2000/svg" xmlns:xlink="http://www.w3.org/1999/xlink" x="0px"
	 y="0px" width="684px" height="126px" viewBox="0 0 684 126" enable-background="new 0 0 684 126" xml:space="preserve">
<g>
	<path d="M301.115,64.163c-1.3,35.35-29.938,62.616-64.447,61.349c-34.53-0.848-61.836-29.526-60.988-64.059
		c0.848-34.53,29.528-61.836,64.059-60.987c0.279,0.007,0.56,0.017,0.84,0.025C274.873,1.768,302.35,30.632,301.115,64.163z
		 M238.722,21.208c-23.933,0.106-42.124,18.532-42.188,42.732c-0.063,22.304,19.33,41.049,42.38,40.952
		c23.049-0.096,41.975-19.288,41.697-42.22C280.336,39.74,261.452,21.099,238.722,21.208z M82.837,16.594
		c8.724,0,16.85-0.181,24.943,0.202c1.258,0.064,2.973,2.6,3.483,4.261c5.325,17.627,10.48,35.309,15.688,52.979
		c0.671,2.301,1.438,4.569,2.565,8.137c6.273-21.302,12.206-41.082,17.883-60.945c1.002-3.505,2.461-4.89,6.21-4.729
		c7.231,0.298,14.496,0.085,22.665,0.085c-2.429,7.552-4.548,14.39-6.815,21.186c-7.36,21.993-14.849,43.946-22.079,66.037
		c-1.065,3.26-2.482,4.462-5.934,4.355c-8.158-0.255-16.327-0.224-24.496,0c-3.025,0.075-4.262-0.979-5.251-3.813
		c-9.33-28.246-18.8-56.451-28.216-84.666C83.284,18.981,83.21,18.289,82.837,16.594L82.837,16.594z M312.8,16.924h23.752v71.363
		h42.25v19.555h-66.035L312.8,16.924z M635.404,55.439c-2.005,0.46-4.041,0.763-6.093,0.904c-1.256-0.215-2.471-0.625-3.6-1.214
		c0.776-1.064,1.319-2.557,2.363-3.1c3.016-1.489,6.108-2.815,9.268-3.974c7.626-2.961,8.521-2.321,8.712,6.198
		c7.136-4.686,14.229-8.712,23.06-8.254c10.906,0.575,16.072,6.22,13.995,17.041c-2.279,11.825-5.251,23.507-7.903,35.255
		c-0.233,1.065-0.414,2.034-0.682,3.345c1.546,0.421,3.039,1.014,4.452,1.769c1.051,0.687,1.777,1.771,2.013,3.004
		c0,0.671-1.598,2.045-2.513,2.066c-7.925,0.158-15.849,0.085-23.784,0.085l-0.767-1.917c1.758-0.959,3.43-2.524,5.325-2.76
		c4.261-0.554,5.91-2.919,6.698-6.826c2.194-10.759,4.729-21.44,6.924-32.198c1.513-7.457-1.331-11.898-8.841-11.653
		c-5.933,0.191-11.801,2.801-17.627,4.59c-1.085,0.601-1.859,1.636-2.13,2.845c-3.195,13.591-6.284,27.204-9.149,39.697l6.008,6.082
		c-2.685,0.617-5.325,1.587-8.063,1.778c-5.123,0.352-10.268,0.362-15.412,0.309c-1.182,0-2.363-0.873-3.547-1.342
		c0.863-0.938,1.694-2.62,2.601-2.674c8.095-0.457,9.403-6.135,10.649-12.535C629.684,80.011,632.528,68.167,635.404,55.439z
		 M400.807,56.036l-9.319-1.161l-0.479-1.768c1.979-0.991,3.897-2.132,5.965-2.951c3.283-1.328,6.657-2.421,10.097-3.271
		c4.335-0.958,5.815,0.905,4.782,5.24c-3.035,12.783-6.113,25.478-8.979,38.258c-1.948,8.681,2.014,13.847,10.844,12.931
		c5.271-0.521,10.384-3.024,15.496-4.856c1.104-0.528,1.926-1.506,2.259-2.685c3.131-13.238,6.146-26.51,9.341-40.538
		c-2.599-0.14-4.634-0.117-6.625-0.427c-0.895-0.139-2.13-0.799-2.396-1.502c-0.029-0.982,0.459-1.91,1.289-2.438
		c4.813-1.746,9.586-3.738,14.612-4.688c4.261-0.799,4.782,2.003,3.866,5.741c-3.749,15.488-7.285,31.028-10.874,46.544
		c-0.234,1.065-0.267,2.066-0.512,4.08l10.991-0.82c-1.47,4.494-8.36,8.275-14.123,8.19c-4.964-0.074-6.656-3.195-7.094-8.052
		c-1.885,1.14-3.194,2.343-4.813,2.844c-5.976,1.906-11.961,4.803-18.042,5.091c-11.663,0.543-16.754-6.391-14.306-17.872
		c1.747-8.138,3.729-16.222,5.57-24.338C399.209,63.854,399.965,60.041,400.807,56.036L400.807,56.036z M0.548,36.076V16.904h73.087
		v19.172H0.548z M73.803,53v18.958H0.44V53H73.803z M549.014,85.826c0.648-21.589,18.606-39.93,39.195-40.016
		c12.345,0,20.588,6.604,22.94,18.534c4.495,22.793-18.17,48.163-41.229,46.15C556.566,109.333,548.588,99.929,549.014,85.826
		L549.014,85.826z M601.202,72.577c0.128-14.134-5.922-20.782-16.327-19.792c-3.69,0.351-7.269,1.468-10.503,3.281
		c-10.862,6.271-18.105,25.317-14.56,37.353c1.726,5.922,6.636,10.385,12.781,10.064c4.602-0.234,9.703-1.129,13.559-3.439
		c11.142-6.646,14.155-17.904,15.104-27.469L601.202,72.577L601.202,72.577z M0.548,88.702h73.076v18.99H0.548V88.702z
		 M498.018,101.718c-0.757,1.065-1.289,2.407-2.301,3.046c-5.624,3.591-11.62,6.124-18.522,5.263
		c-6.528-0.82-9.671-5.061-8.265-11.546c2.918-13.506,6.018-26.979,9.032-40.474c0.266-1.183,0.403-2.387,0.701-4.176h-11.599
		c2.13-7.765,8.361-5.613,13.548-6.55c0.384-8.725,5.081-14.507,13.899-19.396c-1.514,7.35-2.651,13.239-3.974,19.789h18.438
		c0.895,4.048-0.096,6.05-3.951,6.039h-3.195c-12.897,0.16-12.897,0.16-15.688,12.496c-2.13,9.5-4.378,18.99-6.392,28.512
		c-1.373,6.392,0.734,8.725,7.2,7.988c3.439-0.394,6.807-1.385,10.203-2.13L498.018,101.718z M524.571,101.526
		c2.249,0.427,4.467,1.011,6.635,1.745c1.065,0.459,1.801,1.736,2.695,2.643c-1.064,0.905-2.131,2.567-3.313,2.599
		c-8.521,0.225-16.979,0.171-25.468,0.075c-0.799,0-1.598-0.97-2.396-1.479c0.554-0.788,1.064-1.619,1.683-2.354
		c0.288-0.215,0.645-0.32,1.002-0.298c8.318-0.267,10.226-5.783,11.503-12.781c2.131-11.812,5.123-23.432,7.945-36.096
		c-2.674,0.415-4.804,0.895-6.955,1.001c-0.861,0-2.312-0.543-2.492-1.15c-0.124-0.988,0.28-1.972,1.064-2.588
		c5.145-2.333,10.247-4.878,15.625-6.486c3.739-1.129,4.879,1.533,3.633,6.711c-3.664,15.274-7.2,30.611-10.779,45.927
		C524.804,99.651,524.75,100.333,524.571,101.526z M544.699,19.512c-0.191,5.443-4.804,9.769-9.586,9.692
		c-3.897-0.074-5.899-2.311-6.039-5.985c-0.19-4.781,5.006-9.479,9.873-9.139C542.762,14.347,544.656,16.478,544.699,19.512
		L544.699,19.512z"/>
</g>
</svg>
