<?xml version="1.0" encoding="UTF-8"?>
<svg id="_레이어_1" data-name="레이어_1" xmlns="http://www.w3.org/2000/svg" version="1.1" viewBox="0 0 328 100">
  <!-- Generator: Adobe Illustrator 30.3.0, SVG Export Plug-In . SVG Version: 2.1.3 Build 182)  -->
  <path d="M26.5748.4872c-.9338,2.4765-16.5235,60.4102-20.2991,75.4316-1.0556,4.141-2.8013,11.0427-3.8974,15.3056-1.0962,4.3034-1.9893,8.0791-1.9893,8.3632,0,.4466,2.3547.0812,10.2308-1.5427,8.6068-1.7457,10.2714-2.1923,10.515-2.8825.1624-.406,1.2585-5.0748,2.3953-10.312,1.1774-5.2372,2.1923-9.6218,2.2735-9.703.1624-.203,2.9637-.5684,17.3761-2.4359l8.8504-1.0962.3654.812c.203.4872,1.2585,4.547,2.3547,9.094,1.0962,4.547,2.0299,8.3226,2.1111,8.4038s3.3697-.2842,7.2671-.812c3.8974-.5278,8.5256-1.0962,10.2714-1.2585,1.7051-.1624,3.2073-.3654,3.2885-.5278.0812-.1218-2.1923-7.9167-5.0748-17.2949-6.4551-20.8675-13.8034-45.5513-18.7158-62.6431L51.7864,0h-12.5043C29.6197,0,26.6966.1218,26.5748.4872ZM41.7992,27.0385c2.4765,10.6773,4.0192,17.1731,5.8868,25.0897.5684,2.3953.9744,4.5064.8526,4.5876-.1218.1218-1.8269.3654-3.7756.5684s-6.2115.6496-9.4188.9744c-3.2073.3654-5.8868.5684-5.9679.5278-.1218-.1218,1.5021-7.2671,5.9679-26.7137,3.4915-15.1838,3.6944-15.9145,3.8568-15.7115.0812.0812,1.2585,4.8718,2.5983,10.6773h0ZM86.7415,27.0791c-.1624,14.9402-.2842,34.3867-.2842,43.3184v16.1581l2.5577-.2436c1.3803-.1218,5.9274-.5278,10.1496-.9338l7.5919-.6902v-24.8461l3.6944-4.953c2.0299-2.7201,3.8568-4.8718,4.0598-4.75.1624.1218,1.2991,1.8269,2.4359,3.7756,1.1773,1.9487,4.2222,6.9017,6.7799,11.0427,2.5577,4.141,5.968,9.6218,7.5107,12.1795,1.5833,2.5577,3.0855,4.953,3.4103,5.2778.4466.4872,2.2735.5684,11.3675.4466,6.0085-.0406,11.0427-.2436,11.2457-.4466s-4.9124-8.4444-12.0171-19.3654c-16.0769-24.6432-17.3761-26.7137-17.3761-27.2414,0-.406,9.6218-13.1538,22.0043-29.2308,2.6389-3.4103,4.7906-6.2521,4.7906-6.3739S149.7906,0,143.7821,0h-10.8397l-9.8248,12.8697c-5.3996,7.1047-11.1239,14.7372-12.7885,16.9701l-2.9637,4.0598-.1218-16.9701L107.1624,0h-20.1773l-.2436,27.0791ZM164.406,41.1667v41.1667l8.8504.1624c4.8312.0812,9.0128,0,9.2158-.203.2842-.203.3654-11.4487.3248-32.6004-.0812-17.7414.0406-32.235.203-32.235.203,0,1.6645,4.8718,3.2479,10.8397,1.6239,6.0085,5.4808,20.2991,8.6474,31.7885,3.1261,11.4893,5.8055,21.3953,5.9274,21.9637.2436,1.2585.8932,1.3803,10.515,1.8269l5.6838.2842,4.75-17.8226c2.5983-9.8248,6.4957-24.6432,8.688-32.9658,2.1517-8.282,4.0598-15.1026,4.1816-15.1026.406,0,.812,23.4252.812,46.5256v20.7863l2.7607.2842c1.5021.1624,5.0748.5278,7.9167.8526,2.8825.3248,5.765.5684,6.4145.5684h1.1774v-36.0513c0-19.812-.1218-39.4209-.2842-43.6432L253.1944,0l-14.859.0812-14.859.1218-1.0962,4.2628c-1.0555,4.2222-9.3782,38.7308-11.8547,49.0021-.6902,2.9637-1.3397,5.3996-1.4615,5.3996-.2436,0-1.4615-4.9124-10.5962-42.141L194.3675,0h-29.9615v41.1667ZM263.7906.2436c-.2436.203.0812,88.3419.2842,88.5854.0812.0812,2.9231.4872,6.3333.9338,5.4808.6902,15.062,2.2329,26.0235,4.1816,4.5064.812,25.3739,4.9936,28.4188,5.7244,1.2585.2842,2.3953.406,2.5171.2842s.2436-22.6538.2436-50.0983V0h-19.8932v37.5534c0,24.6026-.1218,37.5534-.406,37.5534-.203,0-2.7201-.4466-5.562-.9744-2.8825-.5684-7.9979-1.5021-11.3675-2.1111l-6.2115-1.1368-.0812-25.3739c-.0406-13.9658-.1218-26.1453-.1624-27.0385-.0812-.8932-.1218-5.3996-.1218-10.0684L283.7649,0h-9.8654C268.4594,0,263.9124.1218,263.7906.2436Z" fill="#13983f"/>
</svg>