<?xml version="1.0" encoding="utf-8"?>
<!-- Generator: Adobe Illustrator 15.0.0, SVG Export Plug-In . SVG Version: 6.00 Build 0)  -->
<!DOCTYPE svg PUBLIC "-//W3C//DTD SVG 1.1//EN" "http://www.w3.org/Graphics/SVG/1.1/DTD/svg11.dtd">
<svg version="1.1" id="레이어_1" xmlns="http://www.w3.org/2000/svg" xmlns:xlink="http://www.w3.org/1999/xlink" x="0px"
	 y="0px" width="291px" height="27px" viewBox="4.5 -0.086 291 27" enable-background="new 4.5 -0.086 291 27" xml:space="preserve"
	>
<linearGradient id="SVGID_1_" gradientUnits="userSpaceOnUse" x1="-57.7766" y1="233.5737" x2="232.9758" y2="233.5737" gradientTransform="matrix(1 0 0 -1 62.3999 246.9873)">
	<stop  offset="0.27" style="stop-color:#FF00FE"/>
	<stop  offset="0.45" style="stop-color:#FF0014"/>
	<stop  offset="0.5" style="stop-color:#BE0041"/>
	<stop  offset="0.75" style="stop-color:#0000FE"/>
</linearGradient>
<path fill="url(#SVGID_1_)" d="M73.153,25.915h-6.178V1.093h6.178V25.915z M141.325,11.663v3.687
	c0,5.834-4.731,10.565-10.565,10.565H77.165V1.092h53.595C136.594,1.092,141.325,5.824,141.325,11.663L141.325,11.663z
	 M134.304,12.401c0-3.489-2.828-6.318-6.318-6.318c-0.002,0-0.004,0-0.006,0H83.777V20.93h38.011l-0.005-0.006h6.196
	c3.489,0.003,6.321-2.822,6.324-6.313c0-0.002,0-0.004,0-0.006L134.304,12.401L134.304,12.401z M207.786,20.922l0.015,0.006h-50.648
	v-5.282h52.929v-4.994h-52.929V6.083h53.602v-4.99h-60.213v24.822h60.804v-4.99h-3.559V20.922z M249.598,20.928v-5.282h16.116
	v-4.994h-16.116V6.083h16.556v-4.99h-23.168v24.822h23.739V20.93h-17.127V20.928z M35.964,25.812h-6.605l-2.192-4.61H13.422
	l-2.193,4.61H4.623L16.399,1.042h7.791L35.964,25.812z M24.766,16.147l-4.473-9.403l-4.474,9.403H24.766z M57.642,15.663
	c-0.989,3.299-4.026,5.561-7.472,5.561c-0.126,0-0.252-0.006-0.379-0.01H49.77c-0.126,0.004-0.252,0.01-0.379,0.01
	c-4.304,0.002-7.793-3.486-7.795-7.789c0-0.002,0-0.005,0-0.007c-0.002-4.303,3.485-7.793,7.789-7.795c0.002,0,0.004,0,0.006,0
	c0.126,0,0.252,0.005,0.379,0.011h0.021c0.126-0.006,0.252-0.011,0.379-0.011c3.249,0,6.157,2.014,7.3,5.056h7.057
	C63.334,4.828,58.41,0.44,52.511,0.44h-4.929c-7.173,0-12.986,5.813-12.986,12.986c0,7.175,5.813,12.988,12.986,12.988h4.929
	c6.066,0,11.106-4.646,12.107-10.754h-6.977V15.663z M275.243,25.721c4.613,0.464,9.346,0.412,13.964-0.047
	c3.872-0.385,6.124-3.352,6.168-6.78c0.055-4.362-1.464-6.565-5.428-7.54c-1.614-0.397-3.313-0.457-4.973-0.684
	c-2.396-0.329-4.835-0.493-7.175-1.06c-1.91-0.463-2.264-2.193-0.94-3.399c2.352-2.14,8.728-1.209,10.553,1.494
	c0.279,0.415,0.843,0.874,1.294,0.896c1.967,0.098,3.939,0.042,5.958,0.042c-0.631-3.817-1.529-5.498-4.061-6.53
	c-6.106-2.492-22.53-3.687-21.538,6.947c0.229,2.447,1.731,4.454,4.539,5.376c1.253,0.411,2.594,0.586,3.907,0.772
	c2.735,0.392,5.514,0.562,8.201,1.156c2.148,0.473,2.992,2.898,1.302,4.373c-1.736,1.514-4.934,1.541-7.007,0.903
	c-1.045-0.321-2.124-0.827-2.979-1.517c-0.325-0.26-2.022-2.769-2.088-2.769h-6.677C268.706,22.422,270.763,25.273,275.243,25.721
	L275.243,25.721z M221.302,4.059c-2.28-3.118-5.219-3.905-9.217-2.459c2.691,3.652,5.243,7.377,8.074,10.874
	c2.308,2.851,3.816,5.804,3.321,9.579c-0.156,1.203-0.023,2.447-0.023,3.63h6.21c0-1.985,0.111-3.83-0.031-5.653
	c-0.151-1.938,0.288-3.572,1.552-5.064c1.188-1.403,2.263-2.9,3.339-4.391c2.17-3.001,4.308-6.026,6.786-9.504
	c-2.843,0-6.964-0.87-8.772,1.922c-1.811,2.792-3.803,5.466-5.938,8.499C224.691,8.804,223.022,6.413,221.302,4.059L221.302,4.059z"
	/>
</svg>
