<?xml version="1.0" encoding="utf-8"?>
<!-- Generator: Adobe Illustrator 15.0.0, SVG Export Plug-In . SVG Version: 6.00 Build 0)  -->
<!DOCTYPE svg PUBLIC "-//W3C//DTD SVG 1.1//EN" "http://www.w3.org/Graphics/SVG/1.1/DTD/svg11.dtd">
<svg version="1.1" id="레이어_1" xmlns="http://www.w3.org/2000/svg" xmlns:xlink="http://www.w3.org/1999/xlink" x="0px"
	 y="0px" width="474px" height="147px" viewBox="0 0 474 147" enable-background="new 0 0 474 147" xml:space="preserve">
<g>
	<path fill="#191919" d="M142.318,57.206c-1.422-6.374-3.678-12.532-6.707-18.317c-3.942-7.573-9.187-14.393-15.492-20.15
		c-7.224-6.623-15.736-11.686-25.006-14.87c-2.657-0.899-5.36-1.654-8.1-2.263c-1.979,4.57-3.949,9.113-5.945,13.721
		c0.812,0.146,1.551,0.263,2.281,0.414c9.457,1.917,18.271,6.212,25.609,12.48c6.93,5.854,12.397,13.246,15.969,21.585
		c2.725,6.285,4.341,12.994,4.779,19.83c0.229,3.355,0.16,6.724-0.207,10.068c-0.379,3.728-1.103,7.412-2.16,11.007
		c-2.307,7.712-6.154,14.876-11.311,21.061c-5.359,6.453-12.066,11.658-19.649,15.25c-7.403,3.526-15.489,5.395-23.69,5.471
		c-7.988,0.078-15.905-1.521-23.236-4.699c-7.867-3.422-14.871-8.555-20.502-15.025c-3.479-3.972-6.401-8.396-8.689-13.153
		c-3.295-6.822-5.256-14.214-5.777-21.771c-0.291-3.996-0.185-8.012,0.317-11.987c0.473-3.78,1.321-7.504,2.53-11.117
		c3.497-10.395,9.346-19.233,17.713-26.393c8.052-6.894,17.863-11.412,28.336-13.05c0.72-0.117,1.486-0.13,2.196-0.363l6.479-14.92
		c-5.085,0.078-10.027,0.532-14.904,1.614c-15.803,3.436-29.979,12.119-40.22,24.635c-4.264,5.181-7.798,10.921-10.505,17.061
		c-3.694,8.332-5.818,17.273-6.265,26.375c-0.27,5.369,0.042,10.752,0.927,16.055c1.004,6.176,2.794,12.197,5.326,17.919
		c4.411,10.064,11.045,18.999,19.402,26.134c5.817,4.986,12.396,9.012,19.484,11.92c20.548,8.396,43.846,6.668,62.93-4.674
		c8.007-4.73,15.019-10.975,20.643-18.383c8.26-10.84,13.39-23.736,14.833-37.288c0.41-3.819,0.514-7.665,0.311-11.501
		C143.804,65.613,143.235,61.375,142.318,57.206z"/>
	<path fill="#191919" d="M56.75,35.31c0.537-1.243,1.071-2.49,1.646-3.823c-0.178,0.048-0.254,0.064-0.326,0.088
		c-7.294,2.521-13.772,6.966-18.75,12.866c-6.584,7.763-10.081,16.765-10.647,26.898c-0.281,5,0.306,10.013,1.732,14.813
		c2.671,9.007,7.607,16.539,14.992,22.4c6.875,5.53,15.311,8.771,24.12,9.266c5.667,0.369,11.351-0.43,16.695-2.35
		c8.646-3.027,16.102-8.732,21.282-16.287c4.42-6.354,6.96-13.412,7.753-21.107c1.25-12.033-2.434-24.059-10.206-33.33
		c-5.17-6.123-11.521-10.548-19.117-13.174c-3.53-1.232-7.213-1.973-10.944-2.2C69.503,42.031,64.03,54.694,58.562,67.358
		c-1.798,4.184-1.784,8.399,0.091,12.594c2.815,6.269,9.631,9.745,16.387,8.362c6.275-1.312,10.82-6.563,11.646-12.555
		c0.551-4.021-0.254-7.772-2.684-11.07c-3.242-4.401-7.595-6.566-13.134-6.174c-0.229,0.06-0.469,0.048-0.688-0.034l6.224-14.35
		c0.533,0.104,1.002,0.188,1.469,0.285c6.29,1.291,11.963,4.659,16.105,9.564c4.354,5.115,6.723,11.064,7.135,17.79
		c0.242,3.769-0.241,7.549-1.426,11.135c-1.861,5.615-5.041,10.344-9.701,14.037c-4.521,3.631-10.043,5.797-15.826,6.211
		c-3.411,0.275-6.843-0.084-10.122-1.057c-5.37-1.554-10.165-4.651-13.784-8.91c-4.625-5.371-7.019-11.625-7.294-18.68
		c-0.183-4.646,0.754-9.095,2.6-13.359C49.282,52.538,53.012,43.925,56.75,35.31L56.75,35.31L56.75,35.31z M240.245,51.917
		c-7.141-10.145-17.042-15.126-29.485-15.088c-7.531,0.024-15.06,0-22.59,0.012c-0.529,0-1.081-0.131-1.652,0.146v69.633
		c6.201,0,12.242,0.013,18.278,0c4.148-0.013,8.31,0.165,12.431-0.509c11.218-1.834,19.453-7.896,24.866-17.725
		c3.637-6.602,4.854-13.732,3.889-21.227C245.267,61.622,243.442,56.466,240.245,51.917L240.245,51.917z M204.32,91.156V52.251
		c15.574-1.237,23.502,6.95,23.482,19.487C227.777,84.596,219.701,92.236,204.32,91.156z M285.531,36.852
		c-8.759,23.236-17.519,46.472-26.279,69.708h18.83l4.694-11.984h24.541l4.4,11.945h18.897
		c-8.612-23.328-17.188-46.55-25.729-69.669H285.531z M287.69,80.544l7.44-22.402c2.517,7.69,4.911,15.004,7.333,22.402H287.69z
		 M447.937,58.884c-1.871,0.339-3.647,0.972-5.58,1.397l19.224-23.414h-19.984c-0.211,0.227-0.428,0.428-0.604,0.66
		c-3.498,4.668-6.996,9.338-10.49,14.01c-3.824,5.096-7.734,10.14-10.437,15.955c-3.061,6.604-5.127,13.445-3.678,20.802
		c1.607,8.166,5.947,14.441,13.697,17.998c8.055,3.695,16.41,3.976,24.819,1.509c8.201-2.402,14.354-7.334,17.332-15.515
		c2.474-6.783,2.215-13.646-0.61-20.275C467.519,62.411,458.46,56.986,447.937,58.884L447.937,58.884L447.937,58.884z
		 M444.368,95.092c-6.146,0.076-11.306-5.104-11.349-11.397s5.021-11.566,11.367-11.49c5.914,0.07,10.801,4.929,10.934,11.306
		C455.405,89.742,450.429,95.006,444.368,95.092L444.368,95.092z M382.733,36.884l-12.746,18.91l-12.762-18.86h-21.254l25.219,36.28
		v33.347h17.66v-1.342c0-10.26-0.006-20.519-0.018-30.777c-0.031-0.877,0.227-1.739,0.729-2.459
		c7.869-11.289,15.734-22.58,23.596-33.875c0.271-0.39,0.63-0.717,0.531-1.216L382.733,36.884z"/>
</g>
</svg>
