<?xml version="1.0" encoding="utf-8"?>
<!-- Generator: Adobe Illustrator 15.0.0, SVG Export Plug-In . SVG Version: 6.00 Build 0)  -->
<!DOCTYPE svg PUBLIC "-//W3C//DTD SVG 1.1//EN" "http://www.w3.org/Graphics/SVG/1.1/DTD/svg11.dtd">
<svg version="1.1" id="레이어_1" xmlns="http://www.w3.org/2000/svg" xmlns:xlink="http://www.w3.org/1999/xlink" x="0px"
	 y="0px" width="1551px" height="788px" viewBox="0 0 1551 788" enable-background="new 0 0 1551 788" xml:space="preserve">
<g>
	<path fill="#191919" d="M0.001,0h991c0.02,113.99-0.029,227.99,0.02,341.98c143.891,0.14,287.781-0.18,431.68,0.15
		c25.15,44.55,50.602,88.92,75.701,133.5c17.5,31,34.74,62.16,52.6,92.97v2.931c-44.08,71.21-83.57,145.17-127.49,216.47H255.001
		c-0.011-116.66,0.02-233.33-0.011-349.99c-84.999-0.04-169.989,0-254.989-0.01V0z M103.01,82.01c-0.02,86.66-0.02,173.32,0,259.98
		c26.66,0.03,53.32,0.03,79.98,0c0.05-33.33-0.03-66.65,0.02-99.98c25.64-0.03,51.28-0.04,76.92,0.021
		c2.41,33.24,1.99,66.64,2.08,99.96c26.99,0.03,53.979,0.03,80.979,0c0.021-86.66,0.021-173.32,0-259.98
		c-26.989-0.03-53.979-0.02-80.96,0c-0.8,32.01,1.771,63.96,0.95,95.98c-26.66,0.02-53.31,0.03-79.97,0
		c-0.06-32,0.04-63.99-0.02-95.98C156.331,81.98,129.671,81.98,103.01,82.01 M444.341,82.11
		C417.95,168.98,390.49,255.53,362.53,341.9c25.061,0.17,50.11,0.17,75.17,0c4.38-14.64,8.601-29.33,13.13-43.92
		c27.641,0.06,55.28-0.08,82.921,0.1c3.31,14.65,7.09,29.2,10.369,43.87c28.71,0.08,57.431,0.12,86.141-0.03
		c-26.58-86.69-54.12-173.1-80.4-259.89C514.68,82.01,479.51,81.88,444.341,82.11 M651.01,82.02c-0.03,86.65-0.01,173.31,0,259.97
		c23.99,0.03,47.979,0.02,71.979,0c-0.12-50.91-0.189-101.81,1.521-152.69c13.21,19.38,24.02,40.271,35.399,60.75
		c17.231,30.55,33.43,61.67,51.18,91.92c25.301,0.07,50.59,0.04,75.9,0.02c0.02-86.66,0.01-173.32,0-259.98
		c-22.66-0.03-45.32-0.02-67.98-0.01c-0.23,29.34,0.359,58.68-0.23,88.01c-0.988,16.45-0.68,32.93-1.08,49.4
		c-28.26-43.88-50.759-91.12-74.719-137.4C712.331,81.98,681.671,81.98,651.01,82.02 M734.45,432.55
		c-22.05,1.54-44.76,4.8-64.489,15.4c-42.091,21.62-70.221,67.76-70.73,115c2.09,20.569,2.88,42.01,11.681,61.109
		c12.789,29.28,37.76,52.631,67.13,64.87c18.52,8.08,39.029,9.23,58.949,10c19.82,0.79,39.79-2.319,58.25-9.62
		c37.67-14.659,69.119-47.55,77.35-87.71c10.85-44.5,1.6-95.149-29.49-129.71C814.24,444.81,773.881,430.6,734.45,432.55
		 M1272.369,433.5c-15.578,0.77-31.309,1.52-46.479,5.45c-56.061,14.979-96.57,72.76-91.75,130.59
		c-2.15,46.31,23.41,93.05,64.889,114.37c16.121,8.26,34.211,11.39,51.91,14.25c42.381,4.189,88.16-5.601,120.291-34.94
		c16.25-15.01,26.299-35.31,32.6-56.229c12.32-40.61,7.961-87.681-17.221-122.62c-13.34-16.91-30.629-31.021-50.5-39.521
		c-20.119-8.35-42.02-11.84-63.738-11.35 M367.01,438.01c-0.02,85.33-0.02,170.65,0,255.98c26.66,0.029,53.32,0.02,79.98,0
		c0.06-29.34-0.051-58.681,0.029-88.021c5.21,0.03,10.44,0.101,15.67,0.2c16.261,29.19,31.96,58.7,48.41,87.8
		c28.021,0.07,56.04,0.061,84.061-0.02c-19.57-33.87-39-67.851-56.99-102.601c14.35-11.27,27.81-24.34,36.84-40.34
		c8.14-16.08,3.71-34.42,2.41-51.439c-1.41-23.851-20.891-42.19-41.41-51.561c-19.65-10.18-42.52-9.34-64-9.979
		C437.01,437.93,402.01,438.01,367.01,438.01 M896.01,439.1c-0.029,84.971-0.01,169.931,0,254.891c27.66,0.029,55.32,0.02,82.98,0
		c0.07-29.431-0.07-58.851,0.039-88.28c4.801,0.58,9.92,0.14,14.602,1.7c2.08,2.09,3.01,5,4.49,7.53
		c12.719,26.829,27.549,52.579,40.969,79.05c28.291-0.25,56.621,0.819,84.881-1.01c-19.65-33.78-38.23-68.15-56.971-102.431
		c23.721-13.09,40.711-37.87,43.75-64.859c0.561-14.61-3.109-29.04-7.6-42.82c-7.42-16.72-22.779-28.68-39.24-35.8
		c-16.67-7.521-35.34-7.551-53.23-8.79C972.451,437.31,934.231,438.31,896.01,439.1"/>
	<path fill="#191919" d="M489.68,155.65c0.729-2.07,1.66-4.06,2.62-6.03c8.81,30.71,16.939,61.62,25.8,92.31
		c-17.38,0.14-34.76,0.1-52.13,0.03C473.66,213.13,480.45,184.04,489.68,155.65 M734.45,495.52
		c12.271-1.26,24.641,2.431,34.771,9.261c9.469,6.08,14.35,16.71,18.1,26.899c9.57,28.13,8.75,62.24-10.301,86.351
		c-20.959,27.5-71.08,21.529-84.57-10.41c-6.529-16.54-9.13-34.59-8.21-52.32c1.82-15.27,5.891-31.1,15.84-43.2
		C708.73,502.26,721.551,496.78,734.45,495.52 M978.971,495.23c14.34,1.84,29.34,1.8,42.709,8.1c6.711,3.42,11.33,10.75,10.93,18.33
		c-0.729,7.59-1.719,15.479-5.949,22.05c-12.74,12.06-31.641,9.39-47.641,12.15C978.959,535.65,979,515.44,978.971,495.23
		 M447.04,496.02c14.98,2.561,30.87,0.62,45.04,6.87c9.301,4.53,11.141,15.94,11.86,25.13c-0.04,10.08-8.33,17.36-16.93,20.95
		c-12.74,5-26.561,5.37-39.971,7.09C446.961,536.04,446.95,516.03,447.04,496.02 M1262.43,496.49c13.76-1.721,29.141-0.3,40.18,8.95
		c15.09,11.35,21.74,30.409,23.441,48.59c2.309,19.02-0.74,38.68-9.23,55.89c-4.25,8.9-12.131,15.67-20.811,20.08
		c-21.33,9.271-49.16,6.21-64.75-12.24c-7.23-9.229-9.221-21.069-11.709-32.189c-4.811-24.48-2.061-52.141,13.76-72.271
		C1240.59,504.46,1250.961,498.01,1262.43,496.49"/>
</g>
</svg>
