<?xml version="1.0" encoding="utf-8"?>
<!-- Generator: Adobe Illustrator 15.0.0, SVG Export Plug-In . SVG Version: 6.00 Build 0)  -->
<!DOCTYPE svg PUBLIC "-//W3C//DTD SVG 1.1//EN" "http://www.w3.org/Graphics/SVG/1.1/DTD/svg11.dtd">
<svg version="1.1" id="레이어_1" xmlns="http://www.w3.org/2000/svg" xmlns:xlink="http://www.w3.org/1999/xlink" x="0px"
	 y="0px" width="720px" height="140px" viewBox="0 0 720 140" enable-background="new 0 0 720 140" xml:space="preserve">
<path fill="#191919" d="M0,28v27.6h28v28h28v56h55.2v-56H138.4l0.16-13.84L138.8,56l13.84-0.24l13.76-0.16V0.4H111.2v56h-56v-56H0
	V28z M184.8,70v69.6h166.398V112.4H240V83.6h55.2V56.4H240V27.6h111.198V0.4H184.8V70z M368.8,70v69.6H424v-56h28.8v28H480v28
	h55.198V0.4H480v56h-28v-28h-28v-28h-55.2V70z M553.6,70v69.6h55.2v-56h56v56H720V0.4H553.6V70z M664.8,42v14.4h-56V27.6h56V42z"/>
</svg>
