<?xml version="1.0" encoding="utf-8"?>
<!-- Generator: Adobe Illustrator 15.0.0, SVG Export Plug-In . SVG Version: 6.00 Build 0)  -->
<!DOCTYPE svg PUBLIC "-//W3C//DTD SVG 1.1//EN" "http://www.w3.org/Graphics/SVG/1.1/DTD/svg11.dtd">
<svg version="1.1" id="_레이어_1" xmlns="http://www.w3.org/2000/svg" xmlns:xlink="http://www.w3.org/1999/xlink" x="0px"
	 y="0px" width="200px" height="55px" viewBox="0 0 200 55" enable-background="new 0 0 200 55" xml:space="preserve">
<path d="M23.579,0.299c-0.024,0.044-1.812,5.488-3.97,12.119c-2.168,6.631-3.989,12.212-4.053,12.402l-0.117,0.356h12.983
	l0.249-1.064c0.137-0.586,0.352-1.504,0.479-2.046l0.225-0.977h5.205l0.532,1.963c0.293,1.074,0.557,1.992,0.586,2.041
	c0.029,0.059,2.29,0.078,6.729,0.069l6.68-0.024l-3.97-12.446L41.157,0.241h-8.77C27.563,0.241,23.594,0.265,23.579,0.299
	 M33.311,11.642c0.669,3.496,1.216,6.387,1.216,6.44c0,0.063-0.757,0.093-2.5,0.093c-2.241,0-2.5-0.02-2.5-0.137
	c0-0.073,0.522-2.783,1.167-6.03C32.1,4.894,32.036,5.226,32.07,5.26C32.085,5.28,32.642,8.146,33.311,11.642 M50.293,12.711v12.466
	h43.95v-4.004H83.818V0.241H71.978l-0.02,10.444l-0.024,10.449l-4.893,0.024l-4.907,0.015V0.241H50.293V12.711z M95.913,12.702
	v12.476h9.36c9.258,0,11.152-0.039,13.242-0.298c4.141-0.503,6.367-1.67,7.051-3.706c0.156-0.43,0.156-0.874,0.156-8.838V3.952
	l-0.273-0.557c-0.293-0.601-0.889-1.211-1.543-1.602c-0.986-0.576-2.773-1.084-4.814-1.362c-0.908-0.117-2.334-0.142-12.1-0.166
	L95.913,0.231V12.702z M112.305,3.62c0.645,0.166,1.055,0.449,1.25,0.85c0.156,0.303,0.166,0.635,0.195,8.105
	c0.01,5.449-0.02,7.935-0.078,8.242c-0.117,0.576-0.391,0.894-0.977,1.118c-0.43,0.176-0.645,0.19-2.363,0.225l-1.914,0.034V3.493
	h1.699C111.367,3.493,111.934,3.527,112.305,3.62 M129.658,12.526c-2.197,6.748-4.033,12.358-4.072,12.461l-0.059,0.19h12.988
	l0.254-1.108c0.146-0.601,0.361-1.528,0.479-2.041l0.225-0.938h5.195l0.537,1.963c0.293,1.074,0.557,1.992,0.576,2.041
	c0.039,0.059,2.305,0.078,6.738,0.068l6.68-0.024l-3.984-12.446L151.25,0.241h-17.598L129.658,12.526z M143.398,11.642
	c0.674,3.496,1.221,6.396,1.221,6.44c0,0.063-0.791,0.093-2.529,0.093h-2.52l1.191-6.035c1.416-7.163,1.367-6.914,1.396-6.88
	C142.178,5.28,142.734,8.146,143.398,11.642 M153.096,0.465c0.088,0.132,2.236,3.389,4.805,7.251l4.658,7.012v10.449h12.002V15.08
	l4.971-7.383c2.715-4.053,4.961-7.397,4.961-7.412c0-0.029-2.48-0.044-5.488-0.044l-5.488,0.01l-1.836,3.101
	c-1.387,2.344-1.904,3.32-2.148,3.979c-0.176,0.483-0.352,0.898-0.381,0.933s-0.205-0.356-0.4-0.874
	c-0.254-0.703-0.781-1.709-2.09-4.019l-1.758-3.086l-5.977-0.029l-5.977-0.015L153.096,0.465z M76.646,29.025
	c-6.763,0.2-10.801,1.416-12.119,3.662c-0.488,0.84-0.483,0.713-0.454,8.77c0.029,7.979,0.005,7.49,0.483,8.76
	c0.264,0.723,0.947,1.621,1.626,2.129c1.758,1.328,3.711,1.895,8.13,2.285c1.533,0.146,7.422,0.146,9.092,0
	c1.919-0.156,4.014-0.479,5.044-0.762c1.777-0.488,3.54-1.543,4.272-2.539c0.493-0.664,0.64-0.957,0.918-1.855l0.234-0.732v-15.01
	l-0.195-0.479c-0.889-2.212-3.833-3.486-9.263-4.028c-1.143-0.112-2.144-0.161-5.015-0.234
	C78.965,28.972,77.725,28.991,76.646,29.025 M80.249,32.697c0.869,0.176,1.396,0.596,1.567,1.24
	c0.059,0.215,0.083,2.891,0.068,8.232c-0.024,6.514-0.044,7.939-0.142,8.115c-0.415,0.771-1.167,1.045-2.842,1.045
	c-0.669,0-1.304-0.039-1.563-0.117c-0.64-0.156-1.177-0.527-1.357-0.957c-0.161-0.332-0.166-0.625-0.166-8.252
	c0-6.943,0.015-7.939,0.122-8.213c0.361-0.859,1.128-1.172,2.852-1.182C79.351,32.6,80.01,32.639,80.249,32.697 M154.551,29.025
	c-4.766,0.142-8.203,0.767-10.332,1.865c-1.318,0.679-2.002,1.377-2.402,2.422c-0.146,0.4-0.156,0.752-0.156,7.92v7.51l0.195,0.654
	c0.479,1.68,1.387,2.754,3.027,3.594c1.738,0.898,3.33,1.279,6.68,1.582c1.934,0.195,6.328,0.254,8.447,0.137
	c5.576-0.313,8.057-0.996,9.805-2.754c0.713-0.713,1.123-1.445,1.416-2.549c0.156-0.576,0.195-0.957,0.234-2.939l0.029-2.266
	h-12.021v2.705c0,1.641-0.039,2.861-0.098,3.125c-0.117,0.557-0.547,1.025-1.074,1.182c-0.488,0.146-2.578,0.146-3.086,0
	c-0.547-0.156-0.957-0.615-1.074-1.182c-0.068-0.332-0.098-2.666-0.078-8.34c0.02-8.613,0-8.096,0.498-8.564
	c0.4-0.371,0.791-0.469,2.002-0.508c1.279-0.039,1.875,0.078,2.324,0.449c0.547,0.469,0.537,0.42,0.566,3.926l0.02,3.203h12.012
	l-0.02-3.242c-0.039-3.633-0.049-3.672-0.664-4.595c-0.82-1.235-2.734-2.192-5.391-2.71
	C162.656,29.113,158.828,28.898,154.551,29.025 M0,41.818v12.471l6.279-0.02l6.274-0.029l0.024-4.863l0.015-4.844h4.194
	c4.331,0,5.488-0.059,6.992-0.332c2.593-0.488,4.492-1.719,5.313-3.428c0.635-1.318,0.64-1.406,0.64-4.834v-2.578
	c0-0.313-0.068-0.605-0.2-0.884c-0.625-1.274-2.559-2.31-5.093-2.744c-1.895-0.317-2.119-0.327-13.365-0.361L0,29.343V41.818z
	 M16.348,32.619c0.518,0.137,1.011,0.645,1.191,1.23c0.425,1.367,0.41,4.473-0.034,5.84c-0.142,0.43-0.273,0.635-0.615,0.977
	c-0.625,0.625-0.952,0.693-2.813,0.693h-1.484v-8.882l1.685,0.015C15.298,32.502,16.123,32.551,16.348,32.619 M31.694,41.818v12.471
	h12.51V44.025h0.967c1.826,0,1.733-0.137,4.37,6.318l1.616,3.945h6.665c3.662,0,6.65-0.029,6.631-0.068
	c-0.117-0.293-4.678-8.613-4.971-9.063c-1.011-1.582-2.319-2.266-4.81-2.559c-0.986-0.107-1.23-0.176-0.713-0.215
	c2.163-0.137,4.111-0.566,5.322-1.152c1.045-0.508,2.036-1.465,2.451-2.344c0.181-0.371,0.278-0.791,0.283-1.211l0.02-1.953
	c0.024-2.5,0.015-2.617-0.161-3.086c-0.488-1.328-2.49-2.456-5.161-2.905c-1.953-0.327-1.992-0.327-13.613-0.361l-11.406-0.029
	V41.818z M48.247,32.551c1.069,0.088,1.704,0.498,1.929,1.279c0.107,0.352,0.122,0.83,0.098,2.461
	c-0.024,1.895-0.029,2.051-0.205,2.363c-0.244,0.449-0.576,0.723-1.167,0.957c-0.454,0.195-0.63,0.205-2.588,0.234l-2.109,0.029
	v-7.354l1.401-0.02C47.007,32.478,47.329,32.487,48.247,32.551 M101.566,39.084c-0.023,9.316-0.033,9.756-0.18,10.029
	c-0.518,0.977-1.279,1.172-4.741,1.172h-1.899v4.004h3.862c4.774,0,7.153-0.146,9.321-0.596c3.066-0.625,4.707-1.875,5.381-4.121
	c0.146-0.469,0.146-1.172,0.176-10.371l0.029-9.854h-11.924L101.566,39.084z M115.762,41.818v12.471h24.277v-4.004h-11.68v-6.514
	h10.176v-4.58h-10.176v-5.752h11.68v-4.092h-24.277V41.818z M172.734,31.394v2.046h7.578v20.85h12.012v-20.85H200v-4.092h-27.266
	V31.394z"/>
</svg>
