<?xml version="1.0" encoding="utf-8"?>
<!-- Generator: Adobe Illustrator 15.0.0, SVG Export Plug-In . SVG Version: 6.00 Build 0)  -->
<!DOCTYPE svg PUBLIC "-//W3C//DTD SVG 1.1//EN" "http://www.w3.org/Graphics/SVG/1.1/DTD/svg11.dtd">
<svg version="1.1" id="레이어_1" xmlns="http://www.w3.org/2000/svg" xmlns:xlink="http://www.w3.org/1999/xlink" x="0px"
	 y="0px" width="721px" height="494px" viewBox="0 0 721 494" enable-background="new 0 0 721 494" xml:space="preserve">
<path fill="#99ACCC" d="M216.01,114.951c-2.9,1.97-10.46,15.06-11.71,20.29c-0.19,0.79-0.63,1.77-0.97,2.17
	c-0.341,0.4-0.78,1.59-0.971,2.66c-0.189,1.06-0.64,2.47-0.989,3.14c-0.36,0.66-0.96,2.18-1.351,3.37
	c-0.39,1.2-0.939,2.83-1.229,3.63c-1.021,2.84-2.07,6.31-2.721,8.93c-0.359,1.46-0.989,3.53-1.399,4.591
	c-0.4,1.06-0.75,2.47-0.76,3.14c-0.011,0.66-0.44,2.51-0.95,4.1c-1.771,5.48-2.86,9.66-3.19,12.271c-0.189,1.43-0.609,3.28-0.95,4.1
	c-0.34,0.82-0.77,2.69-0.949,4.15c-0.19,1.46-0.761,4.27-1.271,6.25c-0.5,1.97-0.92,4.38-0.92,5.34c0,0.97-0.32,2.83-0.71,4.15
	c-3.12,10.52-1.43,12.93,5.67,8.1c4.13-2.81,13.39-12.88,13.39-14.56c0-0.25,0.471-1.061,1.051-1.79
	c0.58-0.73,1.409-2.011,1.85-2.841c2.33-4.359,2.98-5.64,4.32-8.609c0.81-1.78,1.47-3.48,1.47-3.771s0.43-1.33,0.95-2.31
	c0.52-0.98,1.359-2.98,1.87-4.45c0.51-1.46,1.199-3.41,1.52-4.34c0.83-2.36,2.86-9.47,3.45-12.07c0.27-1.2,0.8-3.149,1.18-4.35
	c0.38-1.19,1.011-4.23,1.391-6.76c0.39-2.521,0.939-5.78,1.229-7.24C227.6,125.621,222.93,110.25,216.01,114.951z M299.409,119.721
	c-1.659,1.69-3.17,3.681-3.35,4.431c-0.189,0.739-0.76,1.89-1.28,2.54c-0.51,0.659-0.939,1.569-0.939,2.029s-0.43,1.391-0.96,2.061
	c-0.53,0.68-0.97,1.649-0.97,2.17c0,0.52-0.431,1.5-0.96,2.18c-0.53,0.67-0.971,1.46-0.971,1.75c0,0.63-2.149,6.3-3.42,9.03
	c-0.51,1.09-0.92,2.47-0.92,3.07c0,0.59-0.33,1.649-0.72,2.359c-0.891,1.61-2.561,6.33-3.351,9.49c-0.33,1.33-0.96,3.22-1.399,4.21
	c-0.45,0.99-0.811,2.24-0.811,2.78s-0.439,1.79-0.97,2.779c-0.53,0.99-0.96,2.221-0.96,2.721s-0.53,2.569-1.18,4.59
	c-2.391,7.53-3.17,10.24-3.17,11.12c0,0.5-0.431,1.85-0.96,3.01c-0.521,1.16-0.96,2.6-0.96,3.19c-0.011,0.6-0.421,2.34-0.931,3.859
	c-1,3.061-2.17,7.5-3.14,11.96c-0.34,1.591-0.99,3.931-1.42,5.21c-0.44,1.271-0.8,2.811-0.8,3.44c0,0.62-0.351,2.08-0.771,3.24
	c-0.43,1.159-1.07,3.63-1.439,5.489c-0.37,1.86-0.99,4.57-1.4,6.021c-0.4,1.46-0.74,3.33-0.74,4.17s-0.31,2.28-0.689,3.19
	c-0.391,0.92-0.84,2.85-1.011,4.289c-0.17,1.439-0.71,3.92-1.189,5.511c-0.49,1.59-1.021,4.09-1.19,5.55
	c-0.18,1.46-0.62,3.74-0.989,5.07c-0.37,1.328-0.891,4.26-1.16,6.52c-0.261,2.26-0.84,6.061-1.28,8.45
	c-4.24,22.899,5.62,42.479,13.8,27.39c0.53-0.989,1.15-2.12,1.37-2.52c0.39-0.7,0.93-1.87,3.65-7.82c0.689-1.51,1.25-3,1.25-3.32
	c0-0.318,0.409-1.479,0.899-2.568c1.07-2.37,1.8-4.38,2.99-8.261c0.49-1.601,1.22-3.771,1.62-4.83
	c0.399-1.061,0.74-2.289,0.75-2.721c0.01-0.438,0.45-1.739,0.97-2.898c0.53-1.16,0.97-2.761,0.98-3.562
	c0.02-0.79,0.449-2.31,0.96-3.38c0.52-1.06,0.939-2.41,0.95-3.01c0.01-0.601,0.449-2.34,0.979-3.86c0.53-1.529,1.16-3.76,1.41-4.96
	c0.52-2.47,1.67-7,2.93-11.58c0.48-1.729,1.09-4.229,1.36-5.56c0.28-1.32,0.83-3.71,1.22-5.311c1.13-4.5,1.8-7.489,2.32-10.38
	c0.27-1.46,0.8-3.76,1.18-5.12c0.38-1.359,0.91-4.159,1.18-6.229c0.261-2.06,0.671-3.99,0.91-4.29c0.25-0.29,0.7-2.38,1.011-4.64
	c0.31-2.261,0.869-5.08,1.239-6.28c0.36-1.19,0.89-3.91,1.16-6.03c0.27-2.13,0.81-5.06,1.21-6.52c0.399-1.46,0.729-3.53,0.74-4.591
	c0-1.06,0.409-3.67,0.909-5.789c0.5-2.131,1.061-5.5,1.24-7.49c0.181-1.99,0.65-5.19,1.04-7.12
	C310.09,130.11,307,111.971,299.409,119.721z M299.409,119.721c-1.659,1.69-3.17,3.681-3.35,4.431c-0.189,0.739-0.76,1.89-1.28,2.54
	c-0.51,0.659-0.939,1.569-0.939,2.029s-0.43,1.391-0.96,2.061c-0.53,0.68-0.97,1.649-0.97,2.17c0,0.52-0.431,1.5-0.96,2.18
	c-0.53,0.67-0.971,1.46-0.971,1.75c0,0.63-2.149,6.3-3.42,9.03c-0.51,1.09-0.92,2.47-0.92,3.07c0,0.59-0.33,1.649-0.72,2.359
	c-0.891,1.61-2.561,6.33-3.351,9.49c-0.33,1.33-0.96,3.22-1.399,4.21c-0.45,0.99-0.811,2.24-0.811,2.78s-0.439,1.79-0.97,2.779
	c-0.53,0.99-0.96,2.221-0.96,2.721s-0.53,2.569-1.18,4.59c-2.391,7.53-3.17,10.24-3.17,11.12c0,0.5-0.431,1.85-0.96,3.01
	c-0.521,1.16-0.96,2.6-0.96,3.19c-0.011,0.6-0.421,2.34-0.931,3.859c-1,3.061-2.17,7.5-3.14,11.96c-0.34,1.591-0.99,3.931-1.42,5.21
	c-0.44,1.271-0.8,2.811-0.8,3.44c0,0.62-0.351,2.08-0.771,3.24c-0.43,1.159-1.07,3.63-1.439,5.489c-0.37,1.86-0.99,4.57-1.4,6.021
	c-0.4,1.46-0.74,3.33-0.74,4.17s-0.31,2.28-0.689,3.19c-0.391,0.92-0.84,2.85-1.011,4.289c-0.17,1.439-0.71,3.92-1.189,5.511
	c-0.49,1.59-1.021,4.09-1.19,5.55c-0.18,1.46-0.62,3.74-0.989,5.07c-0.37,1.328-0.891,4.26-1.16,6.52
	c-0.261,2.26-0.84,6.061-1.28,8.45c-4.24,22.899,5.62,42.479,13.8,27.39c0.53-0.989,1.15-2.12,1.37-2.52
	c0.39-0.7,0.93-1.87,3.65-7.82c0.689-1.51,1.25-3,1.25-3.32c0-0.318,0.409-1.479,0.899-2.568c1.07-2.37,1.8-4.38,2.99-8.261
	c0.49-1.601,1.22-3.771,1.62-4.83c0.399-1.061,0.74-2.289,0.75-2.721c0.01-0.438,0.45-1.739,0.97-2.898
	c0.53-1.16,0.97-2.761,0.98-3.562c0.02-0.79,0.449-2.31,0.96-3.38c0.52-1.06,0.939-2.41,0.95-3.01c0.01-0.601,0.449-2.34,0.979-3.86
	c0.53-1.529,1.16-3.76,1.41-4.96c0.52-2.47,1.67-7,2.93-11.58c0.48-1.729,1.09-4.229,1.36-5.56c0.28-1.32,0.83-3.71,1.22-5.311
	c1.13-4.5,1.8-7.489,2.32-10.38c0.27-1.46,0.8-3.76,1.18-5.12c0.38-1.359,0.91-4.159,1.18-6.229c0.261-2.06,0.671-3.99,0.91-4.29
	c0.25-0.29,0.7-2.38,1.011-4.64c0.31-2.261,0.869-5.08,1.239-6.28c0.36-1.19,0.89-3.91,1.16-6.03c0.27-2.13,0.81-5.06,1.21-6.52
	c0.399-1.46,0.729-3.53,0.74-4.591c0-1.06,0.409-3.67,0.909-5.789c0.5-2.131,1.061-5.5,1.24-7.49c0.181-1.99,0.65-5.19,1.04-7.12
	C310.09,130.11,307,111.971,299.409,119.721z M216.01,114.951c-2.9,1.97-10.46,15.06-11.71,20.29c-0.19,0.79-0.63,1.77-0.97,2.17
	c-0.341,0.4-0.78,1.59-0.971,2.66c-0.189,1.06-0.64,2.47-0.989,3.14c-0.36,0.66-0.96,2.18-1.351,3.37
	c-0.39,1.2-0.939,2.83-1.229,3.63c-1.021,2.84-2.07,6.31-2.721,8.93c-0.359,1.46-0.989,3.53-1.399,4.591
	c-0.4,1.06-0.75,2.47-0.76,3.14c-0.011,0.66-0.44,2.51-0.95,4.1c-1.771,5.48-2.86,9.66-3.19,12.271c-0.189,1.43-0.609,3.28-0.95,4.1
	c-0.34,0.82-0.77,2.69-0.949,4.15c-0.19,1.46-0.761,4.27-1.271,6.25c-0.5,1.97-0.92,4.38-0.92,5.34c0,0.97-0.32,2.83-0.71,4.15
	c-3.12,10.52-1.43,12.93,5.67,8.1c4.13-2.81,13.39-12.88,13.39-14.56c0-0.25,0.471-1.061,1.051-1.79
	c0.58-0.73,1.409-2.011,1.85-2.841c2.33-4.359,2.98-5.64,4.32-8.609c0.81-1.78,1.47-3.48,1.47-3.771s0.43-1.33,0.95-2.31
	c0.52-0.98,1.359-2.98,1.87-4.45c0.51-1.46,1.199-3.41,1.52-4.34c0.83-2.36,2.86-9.47,3.45-12.07c0.27-1.2,0.8-3.149,1.18-4.35
	c0.38-1.19,1.011-4.23,1.391-6.76c0.39-2.521,0.939-5.78,1.229-7.24C227.6,125.621,222.93,110.25,216.01,114.951z M719.56,235.431
	c-0.97-3.38-3.449-8.97-4.17-9.42c-0.25-0.16-0.8-1.02-1.229-1.93c-1.22-2.57-6.359-7.52-10.479-10.08
	c-4.149-2.59-4.37-3.08-2.811-6.34c2.021-4.21,5.37-14.7,5.36-16.8c-0.011-0.75,0.311-1.98,0.71-2.75
	c0.399-0.771,0.939-2.88,1.189-4.7c0.26-1.82,0.8-4.6,1.2-6.19c0.39-1.58,0.949-5.37,1.229-8.43c0.271-3.05,0.71-7.18,0.96-9.17
	c0.711-5.65,0.591-22.6-0.188-28.19c-0.381-2.689-0.83-6.699-1-8.92c-0.181-2.21-0.62-4.89-0.99-5.93
	c-0.37-1.05-0.82-3.04-0.99-4.43c-0.18-1.38-0.64-3.271-1.04-4.2c-0.399-0.93-0.909-2.561-1.119-3.62
	c-0.521-2.56-2.479-8.13-3.16-8.98c-0.29-0.369-0.689-1.31-0.87-2.09c-0.189-0.77-0.76-1.939-1.279-2.6
	c-0.51-0.65-0.931-1.5-0.931-1.891c0-0.39-0.439-1.26-0.97-1.93c-0.53-0.68-0.971-1.51-0.971-1.85s-0.811-1.66-1.811-2.95
	c-0.989-1.29-2.439-3.26-3.199-4.39c-2.36-3.48-10.841-11.71-12.07-11.71c-0.16,0-1.34-0.75-2.609-1.671
	c-4.301-3.079-12.859-6.27-19.181-7.149c-15.85-2.19-30.01,2.19-41.521,12.85c-3.069,2.841-3.449,2.811-6.851-0.439
	c-4.63-4.42-11.539-8.601-17.779-10.761c-2.641-0.909-4.159-1.26-10.859-2.51c-2.811-0.52-8.82-0.52-11.59,0.01
	c-1.2,0.23-3.48,0.641-5.07,0.931c-1.601,0.28-3.76,0.95-4.811,1.49c-1.05,0.54-2.141,0.979-2.42,0.979
	c-0.649,0-5.029,2.22-6.021,3.05c-2.939,2.471-5.62,3.21-7.41,2.04c-0.59-0.38-1.939-0.91-3-1.17
	c-1.069-0.27-2.909-0.859-4.109-1.33c-3.859-1.5-34.09-1.29-37.569,0.26c-1.71,0.771-3.32,0.771-4.83,0.011
	c-3.399-1.71-27.91-1.761-31.66-0.07c-1.3,0.59-2.659,1.07-3.029,1.07c-1.261,0-6.67,2.979-10.239,5.649
	c-2.37,1.771-4.141,2.09-5.312,0.96c-3.34-3.21-12.01-7.21-17.688-8.159c-5.602-0.94-5.48-0.711-3.75-7.391
	c0.409-1.59,1.01-4.53,1.34-6.52c0.319-1.99,0.83-4.21,1.12-4.931c0.77-1.93,1.18-9.46,0.649-11.97
	c-1.41-6.59-1.971-8.04-5.74-14.85c-2.329-4.211-12.71-13.141-15.279-13.16c-0.311,0-1.21-0.35-2-0.77
	c-3-1.591-27.601-2.931-30.42-1.66l-0.011,0.01c-0.529,0.24-1.75,0.449-2.699,0.47c-4.891,0.09-15.801,6.761-19.271,11.78
	c-0.76,1.109-1.68,2.34-2.03,2.74c-2.33,2.649-5.189,8.739-5.239,11.14c-0.011,0.64-0.341,2.04-0.74,3.1
	c-0.4,1.061-1.021,3.45-1.391,5.311c-0.369,1.859-1,4.25-1.409,5.31c-0.41,1.07-0.75,2.51-0.761,3.21
	c-0.01,0.7-0.449,2.22-0.979,3.38c-0.521,1.16-0.96,2.65-0.97,3.32c0,0.67-0.41,1.97-0.91,2.9c-0.49,0.92-1.05,2.33-1.23,3.13
	c-1.09,4.79-4.06,6.399-8.17,4.43c-5.68-2.729-8.399-3.38-18.76-4.5c-3.4-0.37-12.5,1.04-14.87,2.31c-0.93,0.49-1.97,0.9-2.319,0.9
	c-0.351,0-1.311,0.35-2.131,0.771c-1.239,0.64-3.59,0.8-13.399,0.899c-10.95,0.11-12.08,0.21-14.23,1.16
	c-1.279,0.57-2.56,1.03-2.83,1.03c-0.899,0-6.42,2.79-7.069,3.569c-0.351,0.431-0.88,0.78-1.181,0.79c-0.3,0-1.09,0.431-1.75,0.95
	c-1.449,1.13-2.569,1.221-3.359,0.26c-1.76-2.119-14.32-9.43-16.2-9.43c-0.33,0-1.56-0.43-2.74-0.95
	c-3.479-1.54-14.229-2.7-18.7-2.02c-2.02,0.3-4.26,0.56-4.989,0.55c-1.601,0-9.771,2.66-11.17,3.64c-0.551,0.391-1.29,0.7-1.641,0.7
	c-0.35,0-1.22,0.41-1.95,0.91c-0.72,0.49-2.5,1.68-3.96,2.65c-1.46,0.96-3.96,2.939-5.55,4.39c-3.54,3.24-4.09,3.271-6.93,0.45
	c-3.74-3.72-6.44-5.55-14.41-9.78c-1.7-0.899-6.71-2.439-9.57-2.939c-1.59-0.271-3.87-0.71-5.069-0.96
	c-2.79-0.601-9.271-0.601-12.07,0c-1.19,0.25-3.47,0.71-5.07,1.01c-1.59,0.3-3.649,0.95-4.58,1.45
	c-0.92,0.489-1.899,0.899-2.17,0.899c-0.689,0-5.09,2.271-6.01,3.101c-0.42,0.38-1.3,0.92-1.97,1.199
	c-0.66,0.28-1.641,0.83-2.17,1.21c-0.86,0.62-1.21,0.591-3.141-0.31c-1.189-0.55-2.819-1.18-3.62-1.38
	c-0.79-0.21-2.42-0.76-3.619-1.22c-3.82-1.48-33.561-1.311-37.181,0.21c-7.609,3.21-11.29,5.52-15,9.449
	c-2.649,2.801-6.24,7.771-6.25,8.641c0,0.32-0.43,1.24-0.96,2.029c-0.53,0.801-0.96,1.83-0.96,2.291
	c-0.01,0.47-0.439,2.1-0.97,3.619c-0.521,1.53-1.17,4.09-1.43,5.681c-0.82,4.989-2.011,10.529-2.79,12.989
	c-1.94,6.061-0.351,17.54,3.329,23.95c1.551,2.71,1.58,2.94,0.721,5.351c-0.46,1.3-1.04,3.729-1.28,5.39
	c-0.51,3.4-1.75,9.76-2.49,12.68c-0.26,1.061-0.7,3.13-0.97,4.591c-0.27,1.46-0.89,4.39-1.39,6.52c-0.49,2.12-1.04,4.73-1.21,5.79
	c-0.181,1.06-0.73,3.31-1.24,5c-0.5,1.69-0.92,3.86-0.92,4.83s-0.44,3.14-0.971,4.82c-0.529,1.68-0.96,3.77-0.96,4.64
	c0,0.88-0.43,2.95-0.96,4.61c-0.529,1.67-0.97,3.72-0.97,4.569c0,0.851-0.54,3.351-1.21,5.57c-0.66,2.22-1.2,4.729-1.2,5.58
	c0,0.85-0.33,2.33-0.729,3.29c-0.4,0.95-0.91,3.31-1.141,5.25c-0.229,1.93-0.77,4.92-1.199,6.649c-1.5,6.07-3.21,13.95-3.221,14.811
	c0,0.49-0.439,2.26-0.96,3.939c-0.529,1.69-0.96,3.92-0.96,4.971c0,1.05-0.33,2.67-0.72,3.608c-0.39,0.95-0.94,3.53-1.21,5.75
	c-0.28,2.21-0.811,4.75-1.17,5.63c-0.37,0.892-0.83,2.91-1.021,4.512c-0.189,1.59-0.649,3.648-1.029,4.568
	c-0.38,0.91-0.82,2.98-0.98,4.58c-0.17,1.61-0.7,4.09-1.189,5.53c-0.49,1.439-0.891,3.5-0.9,4.59c0,1.08-0.43,3.32-0.94,4.97
	c-0.52,1.65-1.08,4.15-1.25,5.562c-0.159,1.398-0.649,3.64-1.09,4.96c-1.09,3.34-1.08,15,0.021,18.109
	c0.42,1.189,0.92,3.101,1.09,4.221c0.18,1.13,0.51,2.17,0.74,2.31c0.22,0.13,0.659,1.062,0.989,2.05
	c0.7,2.171,3.931,7.841,5.42,9.512c0.58,0.659,1.721,2.09,2.511,3.18c1.72,2.35,9.149,8.399,11.54,9.399
	c0.92,0.391,1.81,0.921,1.97,1.181c0.82,1.319,9.87,4.43,16.25,5.59c11.729,2.12,27.76-2.09,34.31-9.01
	c2.24-2.37,1.98-2.42,5.7,1.189c2.74,2.659,9.03,7.079,10.08,7.079c0.2,0,1.101,0.54,2,1.21c0.9,0.66,2.03,1.2,2.51,1.2
	c0.48,0,1.681,0.44,2.67,0.971c1,0.529,2.37,0.971,3.061,0.971c0.68,0,2.42,0.35,3.86,0.779c3.64,1.079,13.979,1.079,16.5-0.011
	c0.979-0.42,2.569-0.77,3.529-0.77c3.351,0,14.55-5.471,19.55-9.54c1.7-1.392,2.95-1.37,4.66,0.04c1.55,1.29,8.08,5.148,8.7,5.148
	c0.23,0,0.94,0.37,1.58,0.82c1.76,1.229,8.99,3.53,11.11,3.53c3.54,0,4.319,1.528,2.699,5.39c-0.369,0.91-0.84,3.05-1.02,4.771
	c-0.19,1.71-0.63,3.819-0.98,4.681c-0.35,0.859-0.85,3.149-1.119,5.069c-0.271,1.931-0.82,4.439-1.221,5.58
	c-0.399,1.141-0.859,3.21-1.029,4.591c-0.16,1.38-0.61,3.529-1,4.76c-0.391,1.24-0.9,3.74-1.141,5.561
	c-0.229,1.811-0.78,4.71-1.21,6.439c-1.27,5.069-2.62,11.149-3.109,14c-0.25,1.46-0.79,3.84-1.211,5.3
	c-0.409,1.45-0.75,3.24-0.75,3.979c0,0.75-0.43,2.921-0.96,4.841c-0.54,1.92-0.97,4.188-0.97,5.06s-0.49,2.94-1.08,4.601
	c-4.689,13.091,3.36,34.171,15.271,39.931c1.18,0.569,2.41,1.359,2.729,1.74c0.32,0.39,1.021,0.699,1.55,0.699
	c0.54,0,1.65,0.42,2.48,0.931c5.18,3.189,42.75,3.3,46.8,0.14c0.32-0.25,1.28-0.68,2.14-0.97c4.471-1.5,13.07-8.681,15.04-12.54
	c0.521-1.03,1.29-2.149,1.71-2.5c0.421-0.34,0.761-1.09,0.761-1.66c0-0.56,0.439-1.68,0.96-2.47c0.529-0.801,0.96-1.82,0.97-2.28
	c0-0.449,0.34-1.83,0.76-3.06c0.41-1.23,1.04-3.9,1.4-5.931c0.35-2.04,0.99-4.899,1.41-6.359s0.77-3.44,0.77-4.4
	c0-0.97,0.311-2.489,0.681-3.38c0.38-0.899,0.819-2.72,0.989-4.05c0.311-2.33,1.46-7.761,3.03-14.24
	c0.42-1.729,1.03-4.66,1.36-6.521c0.319-1.859,0.939-4.681,1.37-6.261c0.43-1.579,0.779-3.71,0.779-4.729
	c0-1.021,0.32-2.471,0.71-3.23c0.391-0.75,0.91-2.859,1.16-4.68c0.24-1.82,0.91-5.271,1.48-7.66c0.569-2.39,1.47-6.109,1.989-8.279
	c0.521-2.16,0.94-4.721,0.94-5.689c0-0.979,0.32-2.391,0.72-3.16c0.391-0.76,0.91-3.149,1.15-5.319
	c0.53-4.681,0.32-4.421,3.649-4.62c4.671-0.271,16.19-4.359,19.061-6.761c0.689-0.569,1.91-1.38,2.7-1.79
	c0.8-0.409,2.79-1.96,4.42-3.449c3.14-2.84,4.81-3.37,6.029-1.891c0.79,0.971,6.271,4.561,8.63,5.66
	c0.931,0.439,2.23,1.09,2.891,1.46c8.68,4.79,23.56,5.62,34.29,1.92c1.189-0.41,2.71-0.87,3.38-1.021
	c0.66-0.149,1.78-0.681,2.49-1.17c0.699-0.489,1.47-0.899,1.71-0.899c0.239,0,1.18-0.54,2.08-1.2c1.96-1.46,4.399-1.58,6.199-0.311
	c2.021,1.431,6.229,3.439,7.189,3.439c0.479,0,1.301,0.301,1.83,0.66c3.78,2.62,21.261,3.771,26.58,1.74
	c0.681-0.25,1.88-0.46,2.67-0.46s2.29-0.44,3.33-0.971c1.04-0.529,2.279-0.971,2.76-0.971c0.471-0.01,2.681-0.979,4.891-2.18
	c4.851-2.601,4.78-2.59,8.221-0.471c2.5,1.54,5.061,2.689,9,4.021c6.859,2.33,18.899,2.86,23.659,1.05
	c0.7-0.27,1.92-0.479,2.711-0.479c0.779,0,2.239-0.41,3.22-0.9c0.989-0.5,2.45-1.05,3.239-1.25c0.801-0.189,2.711-1.109,4.24-2.04
	c2.561-1.55,2.92-1.649,4.351-1.119c13.271,4.88,32.351,1.479,41.76-7.439c1.37-1.301,3.061-0.96,5.07,1
	c2.979,2.93,8.319,6.619,11.329,7.84c0.851,0.34,1.801,0.93,2.11,1.3c0.3,0.37,1.021,0.67,1.601,0.67c0.569,0,1.489,0.32,2.039,0.71
	c3.37,2.36,19.54,3.681,24.261,1.98c1.159-0.41,2.75-0.761,3.529-0.761c3,0,16.03-6.42,19.36-9.55c1.59-1.49,2.561-1.351,5.68,0.84
	c3.17,2.221,11.86,6.779,12.979,6.801c0.421,0.01,1.631,0.43,2.689,0.949c1.07,0.511,2.551,0.939,3.311,0.949
	c0.761,0.011,2.721,0.37,4.351,0.801c3.851,1.029,14.63,1.051,18.28,0.029c1.409-0.39,3.699-0.84,5.1-0.979
	c1.391-0.15,3.021-0.61,3.601-1.021c0.591-0.409,1.521-0.75,2.07-0.75c1.1,0,8.069-3.46,11.05-5.479
	c1.029-0.7,2.12-1.29,2.409-1.301c0.301-0.011,1.19-0.561,1.99-1.239c0.79-0.671,3.42-2.812,5.84-4.761
	c4.881-3.931,14.74-14.739,17.86-19.569c0.771-1.2,2.21-3.229,3.21-4.511c1-1.29,1.819-2.58,1.819-2.869
	c0-0.301,0.53-1.091,1.17-1.771c0.649-0.68,1.859-2.54,2.681-4.13c0.83-1.59,2.359-4.311,3.399-6.04
	c2.87-4.72,11.58-22.43,11.58-23.529c0-0.529,0.439-1.511,0.971-2.189c0.529-0.681,0.96-1.49,0.96-1.811
	c0-0.319,0.42-1.381,0.93-2.341c1.5-2.83,3.42-7.37,3.42-8.08c0-0.619,0.521-1.89,3.19-7.81c0.64-1.4,1.149-2.931,1.149-3.4
	c0-0.46,0.311-1.279,0.689-1.819s0.84-1.841,1.029-2.88c0.189-1.051,0.689-2.561,1.109-3.359
	C720.829,250.37,720.76,239.59,719.56,235.431z M316.78,218.771c-1.02,5.67-2.13,10.81-2.87,13.279c-0.37,1.19-0.8,2.931-0.97,3.86
	c-0.42,2.31-2.06,8.75-3.189,12.549c-0.521,1.73-1.15,4.01-1.41,5.07c-1.4,5.83-2.15,8.42-2.971,10.278
	c-0.489,1.132-0.899,2.61-0.899,3.28s-0.41,2.13-0.91,3.25c-0.51,1.11-1.07,2.78-1.26,3.71c-0.19,0.932-0.63,2.15-0.98,2.71
	c-0.359,0.562-0.79,1.86-0.979,2.9c-0.181,1.03-0.601,2.31-0.931,2.84c-0.33,0.54-0.96,2.21-1.399,3.72
	c-0.44,1.521-1.01,2.892-1.28,3.051c-0.26,0.159-0.479,0.659-0.479,1.109s-0.54,1.9-1.19,3.23c-0.649,1.33-1.189,2.738-1.2,3.14
	c-0.01,0.4-0.449,1.44-0.979,2.3c-0.54,0.87-0.97,1.99-0.97,2.48c0,0.479-0.4,1.398-0.9,2.04c-0.49,0.63-1.061,1.688-1.26,2.35
	c-0.21,0.67-0.65,1.54-1,1.94c-0.34,0.39-0.771,1.3-0.95,2.01s-0.74,1.67-1.25,2.13c-0.5,0.46-0.92,1.22-0.92,1.69
	c0,0.47-0.51,1.47-1.13,2.22s-1.761,2.45-2.53,3.78c-6.811,11.75-17.41,14.72-24.811,6.948c-2.85-3-7.26-11.52-7.26-14.05
	c0-9.359-5.55-9.74-5.77-0.39c-0.021,0.93-0.44,3-0.95,4.59c-0.5,1.6-1.06,4.21-1.26,5.8c-0.19,1.59-0.57,3.312-0.84,3.83
	c-0.271,0.51-0.761,2.68-1.091,4.83c-0.33,2.14-0.949,5.18-1.38,6.77c-0.43,1.58-0.779,3.44-0.779,4.142s-0.341,2.34-0.75,3.64
	c-0.41,1.312-1.051,4.11-1.421,6.24c-0.369,2.12-1.01,5.05-1.42,6.5c-0.42,1.46-0.76,3.36-0.76,4.24s-0.31,2.35-0.689,3.26
	c-0.381,0.91-0.83,2.69-0.99,3.97c-0.28,2.182-1.12,6.11-2.96,13.9c-0.44,1.858-1.01,4.68-1.26,6.27
	c-0.25,1.602-0.86,4.42-1.341,6.28c-0.489,1.86-1.02,4.45-1.17,5.76c-0.16,1.312-0.6,3.48-0.979,4.83
	c-0.38,1.352-0.9,3.642-1.15,5.102c-0.729,4.25-2.02,10.119-3.02,13.77c-0.51,1.86-0.931,4.2-0.931,5.2c0,1.01-0.31,2.59-0.699,3.51
	c-0.391,0.92-0.94,3.42-1.23,5.54c-0.29,2.13-0.84,4.76-1.229,5.851c-0.381,1.101-0.7,2.421-0.7,2.949c0,7.45-1.16,8.222-12.3,8.11
	c-9.44-0.08-10.33-0.28-9.391-2.01c0.24-0.46,0.44-1.84,0.44-3.07c0-1.22,0.31-2.82,0.689-3.55c0.38-0.73,0.91-2.97,1.19-4.98
	c0.28-2.01,0.74-4.26,1.02-5c0.28-0.738,0.74-2.988,1.021-5.01c0.28-2.02,0.82-4.41,1.2-5.31c0.38-0.9,0.81-2.86,0.96-4.352
	c0.16-1.489,0.569-3.489,0.93-4.43c0.35-0.95,0.91-3.561,1.23-5.8c0.329-2.24,0.89-4.91,1.25-5.94
	c0.359-1.029,0.659-2.45,0.659-3.16c0-0.699,0.32-2.47,0.73-3.92c0.4-1.449,0.96-4.05,1.24-5.779c0.279-1.729,0.93-4.521,1.439-6.21
	c0.51-1.681,0.931-3.881,0.931-4.869c0-0.99,0.399-2.98,0.89-4.41c0.49-1.44,1.03-3.99,1.2-5.66s0.529-3.44,0.79-3.93
	c0.27-0.5,0.779-2.722,1.149-4.932c0.63-3.8,1-5.52,2.99-13.688c0.46-1.86,1.021-4.9,1.26-6.761c0.24-1.859,0.73-4.141,1.09-5.069
	c0.36-0.931,0.811-2.88,1-4.34c0.19-1.46,0.761-4.271,1.261-6.25c0.51-1.98,0.92-4.012,0.92-4.512c0-0.51,0.42-2.369,0.92-4.14
	c0.5-1.76,1.14-4.51,1.43-6.11c1.2-6.71,2.43-12.738,3.16-15.43c0.42-1.58,0.77-3.479,0.77-4.21c0-0.73,0.44-2.43,0.971-3.78
	c1.14-2.88,1.24-5.1,0.26-5.47c-0.81-0.32-3.16,2.24-3.16,3.43c0,0.432-0.49,1.562-1.1,2.5c-1.29,2.021-1.681,2.682-3.96,6.65
	c-5.54,9.64-14.011,20.18-19.2,23.88c-1.61,1.15-3.63,2.69-4.49,3.42c-0.85,0.73-1.88,1.33-2.28,1.33c-0.409,0-1.68,0.43-2.84,0.95
	c-5.33,2.42-15.399,1.01-20.02-2.8c-1.9-1.57-6.471-7.17-6.471-7.932c0-0.3-0.42-1.43-0.93-2.51c-2.45-5.14-4.479-13.17-5.62-22.24
	c-1.449-11.528-1.6-13.1-1.63-16.97c-0.02-3.95-0.7-5.34-1.859-3.89c-0.811,1.02-2.511,4.62-2.511,5.33
	c0,0.778-3.1,7.979-5.37,12.488c-0.5,0.98-0.909,2.092-0.909,2.472c0,0.37-0.431,1.229-0.96,1.909
	c-0.53,0.671-0.971,1.529-0.971,1.899s-0.54,1.41-1.21,2.312c-0.66,0.898-1.2,2-1.2,2.438c0,0.44-0.439,1.19-0.97,1.67
	c-0.53,0.48-0.97,1.11-0.97,1.4s-0.87,1.899-1.93,3.569c-1.061,1.671-1.931,3.229-1.931,3.449c0,0.23-0.77,1.352-1.72,2.49
	c-0.95,1.13-2.13,2.83-2.62,3.78c-4.79,9.22-16.88,14.76-23.31,10.68c-9.17-5.81-12.351-29.729-7.091-53.25
	c0.521-2.319,0.94-4.819,0.931-5.56c-0.01-1.222,0.76-4.881,2.77-13.16c0.41-1.73,1.03-4.771,1.37-6.76
	c0.34-1.99,0.96-4.82,1.38-6.28s0.761-3.3,0.771-4.1c0.01-0.801,0.439-2.83,0.97-4.511c0.53-1.68,0.96-3.649,0.96-4.359
	c0-0.721,0.35-2.601,0.78-4.19c0.439-1.58,1.069-4.29,1.41-6.01c0.34-1.73,0.989-4.99,1.439-7.25c0.45-2.25,1.21-5.62,1.69-7.48
	c0.49-1.859,1.029-4.68,1.22-6.279c0.19-1.591,0.521-3.12,0.74-3.4c0.22-0.271,0.71-2.34,1.09-4.58c0.38-2.25,1.02-5.5,1.43-7.229
	c0.41-1.721,0.95-4.221,1.21-5.551c1.37-7.04,1.65-8.369,2.101-10.14c0.279-1.06,0.89-4,1.38-6.521
	c0.859-4.489,1.45-7.17,3.399-15.449c0.53-2.261,0.96-4.66,0.95-5.351c0-0.68,0.33-2.22,0.73-3.42c0.41-1.189,1.05-4,1.43-6.239
	c0.37-2.23,0.94-5.311,1.271-6.841c0.869-4.09-1.601-9.05-4.49-9.05c-2.28,0-6.75,7.07-11.891,18.83c-0.529,1.19-1.52,3.45-2.21,5
	c-0.699,1.561-1.27,3.15-1.27,3.521c0,0.38-0.36,1.25-0.811,1.93c-0.449,0.689-1.189,2.26-1.63,3.49
	c-1.72,4.72-2.08,5.67-2.899,7.54c-1.9,4.34-2.84,6.84-3.11,8.3c-0.17,0.85-0.6,1.79-0.97,2.09c-0.37,0.31-0.811,1.57-0.99,2.81
	c-0.18,1.24-0.65,2.62-1.04,3.07c-0.39,0.44-0.89,1.53-1.11,2.41c-0.56,2.24-4.52,13.47-5.17,14.65
	c-0.29,0.539-0.689,1.84-0.88,2.899c-0.189,1.061-0.68,2.57-1.09,3.37s-0.91,2.21-1.12,3.14c-0.529,2.37-2.319,7.74-3.069,9.181
	c-0.341,0.66-0.771,1.96-0.96,2.89c-0.181,0.93-0.721,2.78-1.2,4.11c-1.851,5.149-3.181,9.43-4.88,15.689
	c-0.32,1.2-0.99,3.19-1.48,4.44c-0.5,1.24-0.91,2.76-0.91,3.38c0,0.61-0.33,1.74-0.729,2.51c-0.681,1.32-1,2.4-2.92,9.95
	c-0.44,1.729-1.181,4.229-1.66,5.55c-0.47,1.33-1.101,3.34-1.391,4.47c-0.939,3.62-1.609,6.07-2.72,10.021
	c-1.05,3.77-1.7,6.2-2.7,10.14c-0.27,1.062-0.89,3.34-1.39,5.07c-0.96,3.35-1.59,5.74-2.72,10.38c-0.391,1.59-0.94,3.55-1.23,4.351
	c-0.28,0.789-0.8,2.96-1.149,4.819c-0.66,3.48-2.341,9.19-4.011,13.641c-2.81,7.489-10.399,8.779-16.899,2.851
	c-2.931-2.681-3.5-10.03-1.26-16.49c0.359-1.06,0.899-3.529,1.18-5.479c0.29-1.96,0.71-3.92,0.939-4.351
	c0.23-0.43,0.58-2.09,0.761-3.68c0.189-1.601,0.75-4.42,1.229-6.28c0.49-1.859,1.04-4.46,1.23-5.79
	c0.189-1.319,0.609-3.06,0.939-3.859c0.34-0.8,0.76-2.76,0.94-4.351c0.17-1.6,0.63-3.88,1-5.08c0.37-1.188,0.899-3.579,1.16-5.31
	c0.27-1.721,0.81-4.32,1.22-5.78c0.4-1.45,0.729-3.359,0.729-4.239c0-0.881,0.33-2.39,0.74-3.369c0.41-0.971,1.05-3.521,1.431-5.66
	c0.89-5.04,2.109-11.101,2.72-13.54c0.27-1.061,0.71-3.13,0.97-4.59c0.271-1.46,0.89-4.391,1.39-6.521
	c0.5-2.12,1.051-4.84,1.221-6.03c0.17-1.199,0.64-3.149,1.05-4.35c0.41-1.19,0.92-3.58,1.13-5.31c0.22-1.73,0.72-4.44,1.11-6.04
	c0.739-3,1.34-5.82,2.479-11.58c0.37-1.86,1.01-4.69,1.44-6.28c0.41-1.6,0.97-4.2,1.22-5.8c0.26-1.59,0.79-4.08,1.2-5.53
	c0.399-1.45,0.729-3.42,0.729-4.37c0-0.939,0.431-2.96,0.971-4.47c0.529-1.51,0.96-3.29,0.96-3.96c0-0.66,0.55-3.3,1.21-5.86
	c0.66-2.55,1.21-5.24,1.21-5.96c0-0.729,0.43-2.59,0.96-4.13s0.97-3.77,0.97-4.939c0-1.171,0.25-2.601,0.57-3.181
	c0.52-0.96,2.279-10.1,2.31-12c0.03-1.71-1.34-2.33-5.1-2.33c-4.17,0-4.58-0.399-3.63-3.58c0.71-2.35,1.26-4.75,2.04-8.89
	c1.229-6.53,18.819-6.49,22.979,0.05c3.68,5.78,4.73,14.87,2.811,24.25c-0.66,3.181-1.2,6.36-1.21,7.061
	c0,0.699-0.311,2-0.681,2.899c-0.37,0.891-0.819,2.82-1,4.28c-0.189,1.46-0.76,4.04-1.26,5.729c-0.51,1.681-0.93,3.75-0.93,4.591
	c0,0.84-0.41,3.05-0.91,4.899c-0.5,1.86-1.061,4.46-1.24,5.79c-0.18,1.32-0.63,3.28-1.01,4.34c-1.62,4.551-2.601,15.69-1.45,16.641
	c1.31,1.09,2.94-0.061,3.88-2.72c0.45-1.28,1.24-3.221,1.74-4.311c0.51-1.1,0.92-2.35,0.92-2.8s0.44-1.66,0.97-2.7
	c0.53-1.04,0.96-2.27,0.96-2.729s0.41-1.71,0.91-2.79c0.49-1.08,1.58-4.101,2.41-6.7c0.83-2.601,1.84-5.36,2.24-6.13
	c0.399-0.771,0.729-1.79,0.739-2.271c0.011-0.479,0.431-1.739,0.95-2.8c0.511-1.07,0.94-2.26,0.95-2.66
	c0.01-0.399,0.36-1.37,0.78-2.17c0.41-0.8,1.149-2.54,1.63-3.859c0.49-1.33,1.24-3.4,1.68-4.591c0.431-1.199,1.09-2.83,1.471-3.62
	c1.659-3.529,3.149-7.17,3.149-7.72c0-0.33,0.43-1.16,0.96-1.83s0.97-1.64,0.97-2.149c0-0.5,0.431-1.38,0.96-1.95
	c0.53-0.57,0.971-1.351,0.971-1.72c0-0.37,0.54-1.471,1.21-2.45c0.66-0.98,1.2-2.07,1.2-2.42c0-0.36,0.33-0.92,0.729-1.25
	c0.39-0.33,1.4-1.82,2.24-3.311c1.62-2.91,6.21-7.979,9.3-10.26v-0.01c4.25-3.15,16.71-0.061,16.71,4.14
	c0,0.34,0.41,1.141,0.92,1.78c0.5,0.64,1.16,2.14,1.47,3.32c0.301,1.189,0.87,2.979,1.25,3.979c1.011,2.62,0.98,18.41-0.039,22.811
	c-0.41,1.75-0.961,4.899-1.221,6.989c-0.26,2.091-0.779,4.53-1.14,5.41c-0.37,0.88-0.83,2.9-1.021,4.5
	c-0.199,1.59-0.76,4.17-1.25,5.73c-0.5,1.569-0.909,3.52-0.909,4.35s-0.431,2.92-0.96,4.64c-0.53,1.73-0.961,3.92-0.961,4.881
	c-0.01,0.949-0.43,2.96-0.949,4.47c-0.521,1.5-1.16,4.2-1.44,5.989c-0.27,1.79-0.83,4.44-1.229,5.891
	c-0.4,1.46-0.74,3.189-0.74,3.87c0,0.67-0.44,2.6-0.97,4.28c-0.53,1.689-0.961,3.779-0.961,4.649s-0.399,2.86-0.899,4.42
	c-0.49,1.561-1.05,4.08-1.24,5.61c-0.18,1.52-0.76,3.96-1.27,5.42c-0.511,1.46-0.931,3.31-0.931,4.12c0,0.8-0.439,3.03-0.97,4.95
	c-0.53,1.909-0.96,4.199-0.96,5.08c0,0.869-0.32,2.34-0.7,3.26s-0.95,3.46-1.27,5.66c-0.311,2.189-0.78,4.39-1.04,4.89
	c-0.25,0.49-0.771,2.66-1.141,4.82c-0.369,2.17-1,5.12-1.399,6.58c-0.4,1.449-0.73,3.3-0.73,4.119c0,0.811-0.41,2.671-0.92,4.12
	c-0.51,1.45-1.069,3.939-1.25,5.53c-0.18,1.6-0.62,3.771-0.99,4.83c-0.359,1.069-0.89,3.489-1.159,5.399
	c-0.28,1.909-0.75,4.08-1.04,4.83c-0.761,1.939-1.44,14.529-1.08,19.909c0.66,9.8,7.319,11.33,12.859,2.939
	c0.431-0.659,1.431-2.109,2.2-3.199c0.78-1.101,1.561-2.439,1.73-2.979s0.63-1.24,1.02-1.561c0.38-0.32,0.7-0.95,0.7-1.399
	c0-0.45,0.55-1.551,1.21-2.45s1.21-2,1.21-2.439c0-0.45,0.43-1.359,0.96-2.04c0.53-0.67,0.97-1.58,0.97-2.01
	c0-0.431,0.381-1.37,0.841-2.08c0.47-0.7,1.09-1.95,1.399-2.75c1.67-4.479,2.271-6,3.061-7.75c2.359-5.28,2.8-6.41,3.14-7.971
	c0.2-0.931,0.61-1.989,0.91-2.359c0.3-0.38,0.8-1.681,1.1-2.899c0.66-2.601,3.67-10.92,5.09-14.05c0.601-1.33,1.13-3.909,1.36-6.609
	c0.21-2.44,0.5-4.63,0.65-4.86c0.14-0.24,0.6-3.57,1.02-7.4s1.07-8.38,1.46-10.109c0.38-1.72,0.7-4.021,0.71-5.101
	c0.01-1.079,0.34-3.04,0.73-4.35c0.38-1.31,1.01-4.33,1.39-6.729c1.12-7.04,3.7-19.561,5.16-25.101c1.3-4.92,2.38-9.319,2.96-12.08
	c0.28-1.319,0.92-3.569,1.42-4.989c0.5-1.421,0.91-3.04,0.91-3.61s0.41-2.13,0.91-3.46c1.319-3.561,2.989-8.49,3.439-10.15
	c0.221-0.79,1.08-3.29,1.92-5.55c0.83-2.26,1.63-4.54,1.761-5.07c0.14-0.529,0.76-2.05,1.39-3.38c5.76-12.08,7.08-14.72,8.17-16.32
	c0.69-1,1.25-1.959,1.25-2.109s1.08-1.74,2.39-3.51c7.15-9.65,14.74-13.12,21.15-9.681c0.99,0.53,2.02,0.96,2.3,0.96
	c0.64,0,4.93,4.33,5.82,5.86c2.03,3.52,5.74,11.62,6.28,13.7c3.42,13.17,4.26,20.899,3.939,35.97c-0.229,10.35-1.46,20.56-3.3,27.28
	c-0.51,1.859-0.92,3.82-0.92,4.35c0,0.53-0.891,3.46-1.97,6.521c-1.08,3.05-2.141,6.09-2.37,6.76c-0.221,0.66-0.86,2.07-1.42,3.12
	c-0.551,1.05-1,2.16-1,2.47s-0.33,0.84-0.73,1.17c-0.39,0.33-0.72,0.93-0.72,1.34s-0.54,1.45-1.21,2.32
	c-0.66,0.87-1.21,1.7-1.21,1.85c0,0.811-6.16,8.25-8.67,10.471c-7.92,6.979-20.341,9.35-26.67,5.1
	c-2.881-1.94-3.521-0.79-4.011,7.17c-0.16,2.65-0.64,7.32-1.06,10.38c-1,7.219-1.15,37.06-0.21,40.799
	c0.34,1.33,0.82,4.011,1.06,5.96c0.25,1.94,0.78,4,1.181,4.57c0.39,0.569,0.72,1.479,0.72,2.021s0.54,1.79,1.21,2.76
	c0.66,0.979,1.2,1.971,1.2,2.189c0,0.801,3.649,3.95,5.42,4.69c7.09,2.949,19-4.561,26.08-16.45c0.46-0.771,1.109-1.82,1.449-2.33
	c3.28-4.99,12.931-24.22,12.931-25.779c0-0.311,0.439-1.381,0.97-2.37c0.53-0.99,0.96-2.141,0.96-2.551c0-0.409,0.34-1.22,0.74-1.8
	c0.42-0.59,1.05-1.99,1.42-3.13c0.37-1.13,1.33-3.87,2.14-6.09c0.801-2.21,1.601-5.36,1.78-7c0.17-1.64,0.72-4.22,1.22-5.74
	c0.5-1.51,0.91-3.359,0.91-4.1s0.41-2.86,0.92-4.72c1.04-3.87,2.21-9.381,3.17-14.971c0.36-2.13,0.891-4.46,1.17-5.189
	c0.28-0.721,0.65-2.79,0.82-4.59c0.17-1.79,0.61-3.891,0.98-4.67c0.37-0.78,0.899-2.841,1.17-4.591
	c0.46-2.95,0.899-5.02,3.39-15.989c0.51-2.271,0.93-4.711,0.93-5.42c0-0.721,0.42-2.66,0.92-4.33c0.511-1.66,1.141-4.33,1.421-5.92
	c0.47-2.801,0.939-4.99,2.979-13.811c0.53-2.29,0.96-4.63,0.96-5.2c0-0.569,0.44-2.609,0.97-4.53c0.53-1.92,0.96-4.289,0.96-5.289
	c0-0.99,0.421-2.86,0.931-4.16s1.16-4,1.439-6.01c0.28-2,0.73-4.15,0.99-4.78c0.271-0.62,0.69-2.54,0.93-4.271
	c1.261-9.069,3.181-10.979,11.101-10.989c7.66-0.011,11.939,6.21,9.04,13.13c-0.37,0.899-0.91,3.16-1.2,5.02
	c-0.29,1.87-0.76,4.01-1.04,4.75s-0.82,3.12-1.2,5.28c-0.38,2.17-0.8,4.24-0.93,4.6c-0.141,0.37-0.04,0.98,0.2,1.37
	c0.64,1.01,2.279-0.55,2.71-2.57c0.18-0.83,0.729-2.189,1.229-3.02c0.51-0.83,0.92-1.93,0.92-2.44c0-0.51,0.431-1.779,0.96-2.819
	c0.53-1.04,0.971-2.2,0.971-2.57s0.42-1.47,0.939-2.43c0.521-0.971,1.72-3.391,2.68-5.38c8.53-17.851,15.28-21.511,23.471-12.73
	c2.76,2.95,6.71,11.91,6.71,15.22c0,0.5,0.42,2.59,0.93,4.641c2.16,8.63,2.189,40.529,0.05,54.92c-0.51,3.45-1.06,8.12-1.22,10.38
	c-0.15,2.26-0.49,4.91-0.76,5.89c-0.261,0.98-0.79,4.13-1.181,7c-0.38,2.87-1.029,6.63-1.42,8.36c-0.399,1.72-0.74,3.899-0.74,4.83
	c-0.01,0.92-0.35,2.77-0.75,4.1C317.8,213.82,317.159,216.641,316.78,218.771z M682.56,248.57c-0.529,0.858-0.96,1.898-0.97,2.3
	c0,0.398-0.54,1.81-1.189,3.14c-0.65,1.33-1.189,2.74-1.2,3.142c-0.01,0.398-0.431,1.59-0.95,2.658c-0.51,1.062-1.5,3.342-2.21,5.07
	c-0.71,1.72-1.729,4.11-2.279,5.312c-0.899,1.979-1.771,3.92-3.221,7.238c-0.29,0.66-0.72,1.53-0.96,1.932
	c-0.239,0.398-0.67,1.27-0.96,1.93c-0.3,0.67-0.729,1.54-0.97,1.94c-0.24,0.39-0.681,1.26-0.979,1.93
	c-0.311,0.66-0.91,1.859-1.341,2.648c-0.43,0.802-0.96,1.78-1.18,2.182c-0.46,0.858-4.12,7.108-5.49,9.38
	c-3.359,5.58-10.96,15.7-13.84,18.45c-2.939,2.8-10.4,8.39-11.21,8.39c-0.37,0-1.62,0.42-2.78,0.95
	c-9.35,4.24-22.859-1.82-26.89-12.061c-3.25-8.25-5.32-16.211-6.21-23.899c-0.37-3.19-0.87-7.431-1.11-9.42
	c-0.239-1.99-0.45-5.29-0.46-7.34c-0.04-5.57-1.34-5.631-3.391-0.142c-1.141,3.03-1.449,3.75-3.851,9.03
	c-0.819,1.78-1.479,3.54-1.479,3.92c0,0.37-0.44,1.23-0.971,1.91c-0.529,0.67-0.971,1.59-0.971,2.04c0,0.438-0.43,1.359-0.96,2.04
	c-0.529,0.67-0.97,1.6-0.97,2.05s-0.41,1.2-0.92,1.66c-0.511,0.46-1.061,1.398-1.24,2.09c-0.17,0.69-0.729,1.79-1.25,2.44
	c-0.51,0.658-0.93,1.35-0.93,1.538c0,0.382-4.211,7.271-6.521,10.672c-0.8,1.17-1.56,2.38-1.689,2.68
	c-5.811,13.25-23.271,15.5-28.729,3.689c-0.71-1.54-1.51-3.189-1.771-3.689c-2.8-5.26-2.75-29.78,0.08-42.32
	c0.511-2.26,1.069-5.51,1.24-7.24c0.17-1.729,0.521-3.528,0.771-4.01c0.25-0.47,0.76-2.75,1.14-5.068
	c0.37-2.312,1.011-5.392,1.421-6.842c0.399-1.448,0.739-3.188,0.739-3.858c0.011-0.67,0.34-2.16,0.74-3.311
	c0.399-1.149,0.949-3.75,1.239-5.779c0.279-2.04,0.74-4.12,1.021-4.65c0.28-0.521,0.78-2.7,1.12-4.84
	c0.779-4.9,2.01-10.891,2.91-14.07c0.38-1.34,0.819-3.51,0.979-4.82c0.16-1.31,0.7-3.72,1.181-5.359
	c0.489-1.641,1.04-4.351,1.221-6.04c0.189-1.68,0.609-3.6,0.93-4.26c0.33-0.67,0.74-2.4,0.91-3.86c0.29-2.47,1.181-6.71,3.05-14.49
	c0.41-1.729,1.04-4.77,1.391-6.76c0.341-2,0.971-4.81,1.381-6.26c0.42-1.45,0.76-3.3,0.77-4.11c0-0.8,0.431-2.84,0.96-4.52
	c0.53-1.69,0.96-3.78,0.96-4.65s0.33-2.5,0.721-3.62c0.399-1.12,0.971-3.479,1.271-5.25c0.3-1.77,0.96-4.83,1.46-6.8
	c0.49-1.96,0.899-4.32,0.899-5.22c0-0.9,0.221-2.05,0.49-2.55c3.399-6.37-2.25-15.211-6.681-10.461
	c-1.68,1.811-9.271,16.73-10.47,20.57c-0.2,0.65-0.771,1.84-1.261,2.66c-0.5,0.81-0.909,1.92-0.92,2.45
	c-0.01,0.53-0.439,1.51-0.96,2.17s-0.95,1.59-0.95,2.069c-0.01,0.48-0.449,1.721-0.979,2.761c-0.529,1.04-0.96,2.25-0.96,2.689
	c0,0.44-0.43,1.591-0.949,2.55c-1.36,2.54-3.399,7.641-3.399,8.521c0,0.42-0.431,1.61-0.971,2.65c-0.529,1.04-0.96,2.359-0.96,2.939
	c0,0.57-0.431,1.83-0.961,2.79c-0.52,0.97-1.26,2.63-1.63,3.69c-1.42,3.979-1.93,5.37-2.8,7.569c-0.49,1.25-0.891,2.631-0.891,3.07
	c0,0.44-0.311,1.49-0.699,2.33c-0.9,1.96-2.561,6.65-3.439,9.73c-0.381,1.319-1.021,3.1-1.41,3.93
	c-0.399,0.84-0.729,1.82-0.739,2.18c-0.021,0.35-0.36,1.51-0.761,2.58c-0.399,1.061-1.029,3.021-1.391,4.34
	c-0.359,1.33-1.029,3.5-1.489,4.83c-2.811,8.061-4.431,13.26-4.811,15.45c-0.181,1.07-0.601,2.37-0.931,2.9
	c-0.33,0.529-0.75,1.84-0.939,2.899c-0.18,1.061-0.729,3.021-1.22,4.351c-1.101,3.02-2.79,8.56-3.381,11.1
	c-0.25,1.06-0.779,2.8-1.181,3.86c-0.409,1.068-0.75,2.369-0.76,2.898c-0.01,0.53-0.46,2.11-0.99,3.51
	c-0.529,1.392-0.959,3.092-0.959,3.771s-0.41,2.25-0.9,3.5c-0.899,2.28-1.989,6.13-3.22,11.43c-0.37,1.602-1.011,3.852-1.421,5.01
	c-0.409,1.16-0.739,2.632-0.739,3.24c0,0.62-0.409,2.17-0.899,3.45c-0.5,1.271-1.061,3.35-1.24,4.62
	c-0.189,1.27-0.63,3.01-0.979,3.859c-0.351,0.851-0.8,2.75-0.989,4.211c-0.189,1.46-0.63,3.198-0.979,3.88
	c-0.341,0.67-0.78,2.08-0.971,3.14c-0.189,1.05-0.76,2.72-1.25,3.7c-0.5,0.99-0.899,2.25-0.899,2.81c0,8.82-17.771,6.67-19.12-2.31
	c-0.55-3.71,1.86-18.45,3.681-22.41c0.62-1.35,0.319-3.78-0.49-3.78c-0.8,0-2.38,2.04-2.96,3.82c-0.3,0.95-0.771,2-1.029,2.33
	s-1.311,2.32-2.33,4.42c-1.021,2.11-2.08,3.97-2.359,4.14c-0.28,0.171-0.5,0.71-0.5,1.19c0,0.479-0.319,1.149-0.721,1.479
	c-0.399,0.33-1.42,1.82-2.271,3.32c-0.859,1.49-2.43,3.84-3.51,5.21c-1.07,1.36-2.601,3.4-3.399,4.521
	c-1.471,2.06-6.021,6.26-6.811,6.278c-0.24,0-0.979,0.432-1.641,0.95c-4.59,3.59-15.261-0.62-17.13-6.76
	c-0.2-0.66-0.66-1.54-1.03-1.96c-2.75-3.15-4.25-24.09-2.359-33.13c1.16-5.58-1.59-7.36-2.859-1.852
	c-0.341,1.45-2.439,6.99-3.2,8.42c-0.22,0.421-1.109,2.392-1.989,4.381c-0.87,1.989-2.221,4.711-2.99,6.029
	c-1.5,2.57-2.601,4.49-4.18,7.28c-0.54,0.939-1.431,2.189-1.971,2.771c-0.55,0.591-2.09,2.399-3.42,4.029
	c-2.641,3.24-10.08,9.83-11.109,9.83c-0.351,0-1.29,0.431-2.08,0.96c-1.221,0.812-2.271,0.96-6.641,0.96
	c-6.891,0.011-8.7-1.14-13.101-8.34c-3.12-5.08-5.061-17.09-4.439-27.5c0.471-7.84,0.46-8.1-0.189-8.74
	c-0.62-0.608-2.91,1.58-2.91,2.771c0,0.55-2.229,5.18-3.39,7.05c-0.25,0.399-0.78,1.49-1.19,2.42c-0.399,0.93-1.329,2.68-2.06,3.891
	c-0.73,1.21-2.051,3.42-2.931,4.909c-0.87,1.49-1.9,2.971-2.29,3.29c-0.38,0.32-0.7,0.83-0.71,1.12
	c-0.03,1.16-8.761,11.96-11.681,14.45c-9.25,7.88-19.05,6.04-24.54-4.62c-0.79-1.54-1.43-3.21-1.43-3.729
	c0-0.511-0.49-2.08-1.07-3.479c-1.47-3.5-1.63-32.37-0.21-37.32c0.45-1.59,0.95-4.31,1.101-6.04c0.14-1.72,0.68-4.38,1.189-5.909
	c0.5-1.529,0.92-3.391,0.92-4.119c0-0.74,0.33-2.53,0.73-3.99c0.4-1.45,1.03-4.271,1.4-6.26c0.369-1.99,1.01-4.88,1.439-6.42
	c0.42-1.54,0.771-3.5,0.771-4.36c0-0.859,0.43-2.8,0.96-4.31c0.54-1.511,0.97-3.33,0.97-4.04c0-1.2,0.71-4.62,2.7-12.98
	c0.449-1.859,1.01-4.68,1.26-6.279c0.25-1.591,0.79-4.08,1.2-5.54c0.41-1.45,0.939-4.11,1.16-5.9c0.22-1.78,0.63-3.64,0.909-4.11
	c0.271-0.479,0.801-2.71,1.171-4.97c0.869-5.32,2.069-10.979,3.229-15.21c0.51-1.86,0.93-4.08,0.93-4.93
	c0-0.86,0.351-2.601,0.78-3.87c0.44-1.271,1.09-4.04,1.45-6.17c1.16-6.87,2.13-11.521,3.1-14.761c0.521-1.75,0.94-3.75,0.94-4.46
	s0.42-2.869,0.939-4.8c0.521-1.92,1.08-4.59,1.25-5.92c0.181-1.32,0.601-3.28,0.95-4.34c3.19-9.84,2.16-10.86-7-10.86
	s-8.93,0.141-8.56-5.199c0.55-7.95,3.59-11.7,9.52-11.71c1.46-0.011,3.2-0.32,3.86-0.711c0.67-0.38,1.68-0.909,2.26-1.17
	c2.101-0.96,5.78-3.899,7.42-5.93c2.45-3.06,5.59-7.72,6.45-9.609c0.421-0.91,0.94-1.971,1.181-2.37c0.229-0.4,0.859-1.71,1.391-2.9
	c0.54-1.2,1.55-3.39,2.25-4.88c0.7-1.48,1.271-3.04,1.271-3.45c0-0.399,0.431-1.69,0.949-2.84c0.521-1.16,0.96-2.771,0.971-3.57
	c0-0.81,0.311-1.899,0.689-2.439c0.38-0.54,0.83-1.841,1.011-2.88c0.17-1.051,0.72-3.211,1.21-4.811
	c0.489-1.59,1.029-3.66,1.199-4.58c0.46-2.55,1.79-6.93,2.311-7.609l-0.01-0.021c0.311-0.41,1.979-0.6,5.239-0.6
	c5.689,0,5.74,0.06,4.511,4.739c-0.471,1.771-1.12,4.86-1.45,6.851s-0.949,4.92-1.391,6.5c-0.43,1.58-0.779,3.6-0.779,4.49
	c0,0.89-0.301,2.199-0.67,2.92c-0.37,0.71-0.91,2.899-1.221,4.85c-0.3,1.96-0.97,5.101-1.5,6.99c-0.521,1.899-0.949,4.13-0.949,4.96
	c0,0.84-0.32,2.41-0.7,3.5c-0.391,1.09-0.859,3.35-1.04,5.01c-0.189,1.67-0.729,4.18-1.21,5.58c-1.601,4.66-2.05,4.57,22.431,4.39
	c20.439-0.159,21.771,0.03,23.85,3.38c0.431,0.7,1.15,1.711,1.591,2.24c3.431,4.09,3.3,21.34-0.25,32.79
	c-0.399,1.3-0.729,3.21-0.729,4.24s-0.33,2.65-0.729,3.62c-0.399,0.96-0.921,3.41-1.149,5.45c-0.221,2.04-0.65,4.159-0.95,4.72
	c-0.3,0.55-0.771,2.6-1.04,4.55c-0.271,1.94-0.93,4.79-1.45,6.32c-0.529,1.53-0.96,3.62-0.96,4.64c0,1.03-0.319,2.78-0.71,3.891
	c-0.39,1.119-0.93,3.71-1.18,5.76c-0.261,2.05-0.721,4.38-1.03,5.16c-0.3,0.79-0.85,3.17-1.2,5.29
	c-0.359,2.13-0.989,5.05-1.398,6.51c-0.421,1.45-0.771,3.29-0.771,4.1c-0.01,0.811-0.438,2.66-0.949,4.12
	c-0.521,1.46-0.939,3.42-0.95,4.35c-0.01,0.931-0.449,3.211-0.979,5.07c-0.529,1.85-0.97,4.07-0.97,4.93
	c0,0.851-0.351,2.591-0.79,3.86c-0.431,1.271-1.07,4.05-1.41,6.17c-0.34,2.13-0.96,5.061-1.38,6.521
	c-0.41,1.46-0.75,3.25-0.761,3.97c0,0.72-0.351,2.32-0.771,3.55c-0.42,1.24-1.04,4.01-1.39,6.179
	c-0.801,4.971-1.98,10.62-3.181,15.312c-0.521,2.01-0.939,4.31-0.939,5.13c0,0.81-0.351,2.42-0.78,3.58
	c-2.14,5.85-3.239,22.33-1.88,28.04c2.49,10.369,12.08,8.05,19.28-4.682c0.449-0.789,1.449-2.528,2.22-3.858
	c1.511-2.602,5.78-11.19,5.78-11.62c0-0.25,1.659-4.05,3.149-7.21c0.38-0.79,1-2.32,1.38-3.38c0.38-1.062,1.271-3.45,1.979-5.312
	c0.7-1.859,1.58-4.359,1.939-5.55c0.66-2.14,1.49-4.609,3.181-9.42c0.47-1.33,1.42-4.37,2.12-6.76c0.699-2.391,1.5-5,1.779-5.79
	c0.29-0.8,0.811-2.65,1.16-4.11c0.359-1.46,0.97-3.63,1.359-4.83c1.681-5.06,3.66-12.31,4.931-18.09c0.409-1.85,0.939-3.6,1.189-3.9
	c0.239-0.289,0.649-1.96,0.89-3.71c0.25-1.739,0.71-3.659,1.03-4.25c0.319-0.59,0.87-2.63,1.229-4.51
	c0.359-1.899,0.989-4.63,1.399-6.08s0.739-3.229,0.739-3.939c0-0.721,0.431-2.681,0.961-4.36c0.529-1.689,0.96-3.74,0.97-4.57
	c0-0.83,0.341-2.46,0.75-3.619c0.42-1.171,0.979-3.86,1.271-5.98c0.28-2.12,0.681-4.08,0.899-4.35c0.21-0.261,0.631-1.891,0.94-3.62
	c0.3-1.72,0.76-4,1.02-5.07c0.261-1.06,0.7-3.34,0.971-5.07c0.279-1.72,0.851-4.33,1.271-5.79s1.05-4.18,1.399-6.039
	c1.33-7.131,2.21-11.221,3.109-14.48c0.511-1.86,0.931-3.98,0.931-4.72c0-0.73,0.439-2.9,0.971-4.811
	c0.529-1.92,0.96-4.069,0.96-4.779c0-6.24,3.59-9.471,10.58-9.5c8.579-0.04,11.359,4.34,8.989,14.149
	c-0.391,1.59-0.71,3.58-0.72,4.41c-0.011,0.83-0.33,2.27-0.721,3.19c-0.381,0.92-0.899,3.31-1.149,5.3s-0.67,4.029-0.95,4.54
	c-0.271,0.52-0.729,2.58-1,4.6c-0.279,2.01-0.74,4.25-1.021,4.98c-0.271,0.72-0.819,3.199-1.22,5.5
	c-0.391,2.3-1.041,5.359-1.439,6.819c-0.4,1.45-0.73,3.221-0.73,3.92c0,0.71-0.31,2.19-0.71,3.301c-0.39,1.109-0.84,3.14-1.01,4.529
	c-0.16,1.38-0.71,3.92-1.2,5.65c-0.489,1.72-1.04,4.33-1.229,5.79c-0.181,1.46-0.619,3.49-0.979,4.5
	c-0.351,1.01-0.779,3.3-0.96,5.069c-0.17,1.78-0.601,3.79-0.95,4.48c-0.34,0.69-0.76,2.43-0.93,3.86
	c-0.17,1.439-0.71,4.13-1.2,5.989c-0.489,1.86-1.109,4.58-1.37,6.04c-1.09,6.13-2.1,11.021-2.76,13.341
	c-0.391,1.359-0.899,3.989-1.13,5.85c-0.229,1.85-0.67,3.82-0.96,4.37c-0.301,0.55-0.771,2.649-1.051,4.66
	c-0.279,2.01-0.8,4.369-1.17,5.239c-0.359,0.88-0.819,2.99-1.01,4.71c-0.189,1.71-0.631,3.92-0.971,4.91
	c-0.351,0.99-0.771,3.169-0.939,4.83c-0.16,1.67-0.631,3.9-1.029,4.96c-0.41,1.062-0.94,3.24-1.19,4.83
	c-0.449,2.88-1.699,8.74-3.14,14.73c-0.42,1.729-0.95,5.198-1.189,7.729c-0.24,2.521-0.58,6.061-0.75,7.87
	c-1.32,13.87,9.75,17.41,15.1,4.83c0.359-0.84,0.859-1.66,1.101-1.812c0.78-0.479,5.83-10.01,8.851-16.688
	c0.54-1.2,1.391-2.98,1.891-3.96c0.489-0.98,0.899-2.13,0.899-2.55s0.37-1.33,0.819-2.021c0.78-1.2,2.03-4.35,3.11-7.859
	c0.279-0.909,0.92-2.431,1.43-3.369c0.5-0.94,0.92-2.11,0.92-2.591c0-0.471,0.431-1.721,0.96-2.761c0.54-1.04,0.98-2.17,0.99-2.52
	c0.01-0.34,0.43-1.49,0.95-2.55c0.51-1.061,0.938-2.261,0.949-2.66c0.011-0.4,0.561-1.811,1.21-3.141s1.2-2.909,1.2-3.529
	c0.01-0.62,0.279-1.591,0.59-2.17c0.319-0.58,0.939-3.12,1.391-5.65c1.2-6.69,2.311-11.98,3.101-14.72c0.38-1.33,0.829-3.61,1-5.07
	c0.17-1.46,0.729-4.04,1.229-5.729c0.51-1.681,0.92-3.86,0.92-4.841c0-0.979,0.431-3.01,0.96-4.529
	c0.54-1.511,0.971-3.351,0.971-4.101s0.34-2.54,0.76-4c0.431-1.45,1.069-4.27,1.431-6.26c0.93-5.1,2.14-11.01,2.699-13.28
	c0.271-1.06,0.7-3.01,0.96-4.34c1.62-8.229,2.811-13.69,3.83-17.66c0.521-2.01,0.95-4.29,0.95-5.069c0-0.78,0.439-2.79,0.97-4.48
	c0.53-1.68,0.96-3.84,0.96-4.79c0-0.96,0.41-3.05,0.91-4.67c0.511-1.61,1.141-4.34,1.42-6.07c0.28-1.72,0.649-3.609,0.819-4.18
	c0.601-2-1.21-3.06-5.229-3.06c-5.03,0-5.37-0.79-3.15-7.471c0.521-1.58,1.08-3.92,1.229-5.18c0.471-4.04,0.41-4.01,9.391-3.97
	c12.271,0.05,14.229,1.439,16.771,11.859c1.261,5.19,1.29,9.75,0.09,15.511c-0.51,2.449-1.079,5.77-1.26,7.359
	s-0.529,3.28-0.779,3.76c-0.261,0.471-0.771,2.641-1.15,4.83c-0.38,2.181-1.021,5.15-1.43,6.601c-0.4,1.46-0.729,3.17-0.729,3.81
	c0,0.65-0.41,2.61-0.921,4.37c-0.5,1.75-1.06,4.36-1.229,5.8c-0.18,1.44-0.51,2.971-0.739,3.4s-0.66,2.62-0.95,4.87
	c-0.3,2.25-0.779,5.2-1.069,6.56c-0.681,3.18-0.21,5.82,1.101,6.23c1.909,0.609,3.271-1.75,5.521-9.61
	c0.37-1.29,0.91-2.62,1.189-2.96s0.811-1.67,1.181-2.96c1.1-3.86,2.21-7.06,3.199-9.25c0.511-1.13,0.931-2.39,0.931-2.8
	c0-0.4,0.34-1.4,0.76-2.21c0.42-0.82,1.061-2.49,1.41-3.721c1.05-3.64,2.189-6.939,3.12-9c0.489-1.06,1.14-2.739,1.449-3.729
	c0.311-1,0.771-1.93,1.021-2.08c0.24-0.16,0.45-0.76,0.45-1.34s0.391-1.71,0.859-2.5c0.471-0.8,1.46-3.08,2.2-5.07
	c0.739-2,1.55-4.01,1.8-4.47c0.771-1.44,1.29-2.49,1.859-3.74c0.511-1.13,1.561-3.13,2.54-4.83c0.221-0.399,0.729-1.42,1.12-2.26
	c0.391-0.85,1.58-2.79,2.649-4.31c1.061-1.521,1.931-2.95,1.931-3.181c0-0.62,4.28-5.06,7.17-7.439
	c5.149-4.24,17.939-1.141,17.939,4.35c0,0.36,0.311,0.9,0.681,1.2c0.359,0.31,0.92,1.56,1.229,2.79c0.311,1.229,0.88,2.85,1.271,3.6
	c1.16,2.261,0.989,19.181-0.261,24.8c-0.529,2.391-0.979,5.11-1,6.04c-0.01,0.931-0.35,2.561-0.75,3.62
	c-0.399,1.061-1.029,3.78-1.39,6.03c-0.37,2.26-1.011,5.3-1.431,6.75s-0.761,3.22-0.761,3.92c0,0.71-0.31,2.18-0.699,3.271
	c-0.381,1.09-0.851,3.34-1.03,5.01c-0.18,1.66-0.71,4.01-1.17,5.2c-0.47,1.189-1.01,3.58-1.21,5.31
	c-0.189,1.73-0.561,3.68-0.819,4.35c-0.261,0.66-0.78,2.94-1.149,5.07c-0.37,2.12-1,5.05-1.4,6.5c-0.399,1.45-0.729,3.32-0.729,4.15
	s-0.399,2.68-0.899,4.12c-0.489,1.43-1.05,3.88-1.239,5.42c-0.19,1.55-0.631,3.5-0.979,4.35c-0.351,0.84-0.78,2.73-0.961,4.19
	c-0.18,1.46-0.67,3.85-1.08,5.31c-0.409,1.46-0.92,3.85-1.13,5.31c-0.199,1.461-0.72,3.851-1.14,5.311s-0.771,3.46-0.771,4.45
	c0,0.989-0.43,2.87-0.949,4.189c-0.521,1.32-1.08,3.55-1.25,4.971c-0.17,1.409-0.609,3.56-0.989,4.77
	c-0.391,1.21-0.891,3.6-1.12,5.31c-0.24,1.712-0.78,4.312-1.2,5.771s-0.771,3.479-0.771,4.479s-0.351,2.632-0.771,3.62
	c-0.43,0.99-1.06,3.432-1.41,5.42c-0.35,1.99-0.97,5.142-1.38,7c-0.67,3.092-0.93,9.092-0.83,19.25
	c0.08,7.48,5.812,10.04,10.75,4.82c1.42-1.5,5.71-7.75,5.71-8.32c0-0.188,0.54-1.09,1.21-1.988c0.66-0.9,1.2-1.99,1.2-2.432
	c0-0.438,0.44-1.188,0.971-1.67c0.529-0.479,0.971-1.358,0.971-1.938c0-0.59,0.43-1.62,0.96-2.301
	c0.529-0.671,0.97-1.591,0.97-2.039c0-0.45,0.391-1.312,0.859-1.91c0.471-0.602,1.471-2.7,2.211-4.66c0.75-1.96,1.77-4.44,2.279-5.5
	c0.51-1.061,0.931-2.21,0.931-2.55c0-0.352,0.409-1.44,0.92-2.44c0.51-1,1.08-2.609,1.26-3.59c0.181-0.97,0.63-2.01,0.99-2.32
	c0.359-0.3,0.81-1.34,0.979-2.31c0.181-0.97,0.73-2.562,1.221-3.55c0.5-0.99,0.899-2.142,0.899-2.57c0-0.42,0.41-1.79,0.9-3.03
	c2.89-7.259,3.449-9,3.46-10.849c0-1.12,0.33-3.561,0.729-5.42c0.399-1.86,0.931-5.771,1.17-8.69s0.659-6.069,0.931-7
	c0.27-0.93,0.72-3.76,1-6.28c0.29-2.52,0.739-5.46,1.02-6.52c0.271-1.06,0.79-3.78,1.16-6.04c0.36-2.25,1-5.3,1.42-6.76
	s0.761-3.47,0.761-4.48c0.01-1,0.319-2.56,0.699-3.47c0.37-0.9,0.94-3.34,1.25-5.41c0.32-2.069,0.87-4.529,1.24-5.46
	c0.359-0.939,0.859-2.89,1.109-4.35s0.79-3.53,1.2-4.59c0.41-1.061,0.76-2.58,0.779-3.38c0.011-0.801,0.46-2.4,0.979-3.551
	c0.53-1.16,0.971-2.68,0.979-3.38c0.011-0.7,0.351-2.149,0.75-3.21c0.41-1.06,1.03-3.02,1.391-4.34c0.721-2.64,1.851-6.03,3.16-9.42
	c0.46-1.2,1.409-3.641,2.101-5.44c0.699-1.8,1.271-3.68,1.271-4.17c0-0.489,0.319-1.17,0.72-1.5c0.399-0.33,0.729-0.83,0.729-1.1
	c0-0.43,2.11-5.24,3.34-7.59c0.211-0.4,1.101-2.13,1.99-3.86c8.109-15.83,19.351-24.15,26.391-19.54c0.59,0.39,1.42,0.71,1.84,0.71
	c1.979,0,6.95,5.891,9.601,11.36c0.771,1.59,1.8,3.689,2.29,4.67c0.5,0.979,0.899,2.22,0.899,2.76c0,0.53,0.409,2.01,0.909,3.28
	c0.5,1.27,1.062,3.51,1.24,4.97c0.189,1.46,0.76,4.46,1.271,6.68c1.261,5.44,1.37,28.891,0.17,35.631
	c-0.431,2.359-1.05,6.13-1.391,8.39c-0.619,4.11-1.859,9.59-2.77,12.31c-0.271,0.801-0.891,2.761-1.37,4.351
	c-1.561,5.13-2.53,7.71-3.2,8.49c-0.359,0.42-0.649,0.939-0.649,1.149c0,0.51-3.109,6.72-4.5,8.99
	c-9.141,14.939-25.149,21.89-35.931,15.6c-2.55-1.5-3.09-0.5-3.55,6.66c-0.21,3.271-0.74,8.54-1.16,11.7
	c-0.979,7.179-1.199,34.049-0.33,38.919c0.32,1.72,0.86,4.87,1.221,7c0.359,2.12,1,4.51,1.439,5.31c0.439,0.802,0.79,1.82,0.8,2.28
	c0,1.05,2.891,5.58,4.41,6.94c5.101,4.528,13.17,2.83,20.61-4.352c3.35-3.22,7.81-8.58,7.81-9.37c0-0.27,0.521-1.108,1.141-1.858
	c1.449-1.73,7.551-12.46,7.569-13.3c0-0.342,0.431-1.172,0.95-1.83c0.521-0.66,0.95-1.432,0.96-1.71c0-0.28,0.979-2.5,2.18-4.94
	c1.19-2.45,2.171-4.66,2.171-4.92c0-0.45,0.939-2.7,2.92-7.021c0.489-1.06,1.13-2.84,1.409-3.96c0.66-2.549,2.432-4.009,4.87-4.009
	C683.731,244.59,684.361,245.63,682.56,248.57z M638.21,208c3.18-3.85,5.14-6.67,8.25-11.92c1.399-2.37,5.68-11.33,5.68-11.9
	c0-0.29,0.41-1.319,0.899-2.279c2.931-5.71,8.461-24.53,9.511-32.421c0.16-1.199,0.649-3.8,1.101-5.8
	c3.729-16.779-1.109-33.899-8.131-28.72h-0.01c-0.899,0.66-2.189,2.05-2.87,3.07c-0.67,1.02-1.79,2.699-2.479,3.74
	c-1.351,2.02-3.55,6.56-5.25,10.81c-0.59,1.46-1.479,3.46-1.989,4.44c-0.5,0.979-0.92,2.17-0.92,2.63s-0.41,1.72-0.9,2.8
	c-1.159,2.51-2.88,7.649-3.449,10.28c-0.25,1.13-0.78,2.689-1.189,3.479c-0.4,0.79-0.74,1.86-0.74,2.38
	c0,0.521-0.41,2.101-0.92,3.521s-1.25,3.88-1.649,5.479c-0.399,1.59-0.989,3.87-1.301,5.07c-0.949,3.57-2.3,9.25-2.819,11.83
	c-0.489,2.41-1.38,6.41-2.739,12.31c-0.4,1.73-0.931,4.771-1.181,6.76c-0.25,1.99-0.71,4.351-1.021,5.24
	C620.05,220.3,628.43,219.82,638.21,208z M395.72,179.61c0-0.83,0.42-2.83,0.931-4.42c0.51-1.601,1.08-3.96,1.26-5.261
	c0.17-1.29,0.74-3.729,1.24-5.409c0.51-1.69,0.92-3.761,0.93-4.591c0-0.83,0.431-2.899,0.96-4.58c0.53-1.68,0.96-3.76,0.96-4.6
	c0-0.85,0.36-2.85,0.79-4.43c0.431-1.58,1.061-4.4,1.41-6.261c0.351-1.859,0.971-4.56,1.391-6.02c0.42-1.45,0.75-3.08,0.75-3.62
	s0.41-2.72,0.93-4.84c3.15-13.101,4.48-12.36-21.05-11.83c-13.17,0.271-12.489,0.04-13.16,4.35c-0.27,1.73-0.819,4.32-1.22,5.771
	c-0.41,1.45-0.729,3.33-0.729,4.17s-0.33,2.3-0.729,3.25c-0.391,0.95-1.03,3.53-1.42,5.73c-0.381,2.21-1.03,5.31-1.44,6.909
	c-0.409,1.591-0.75,3.57-0.75,4.4c-0.01,0.84-0.31,2.25-0.68,3.14c-0.37,0.9-0.83,2.83-1.011,4.29c-0.189,1.46-0.76,4.271-1.26,6.24
	c-0.511,1.979-0.931,4.16-0.931,4.85c0,0.69-0.449,2.54-1,4.12c-0.561,1.57-1.189,4.28-1.41,6.021c-0.23,1.729-0.76,4.67-1.19,6.53
	c-0.43,1.859-1.21,5.229-1.739,7.489c-0.53,2.25-0.95,4.61-0.94,5.23c0,0.63-0.43,2.58-0.96,4.35c-0.53,1.771-1.16,4.521-1.4,6.11
	c-0.239,1.59-0.779,4.09-1.199,5.55s-0.771,3.53-0.771,4.59c-0.01,1.061-0.33,2.54-0.72,3.29s-0.93,3.03-1.18,5.07
	c-0.261,2.04-0.7,4.359-0.99,5.16c-0.28,0.789-0.811,3.08-1.19,5.069c-0.37,1.99-1.02,4.811-1.43,6.271
	c-0.42,1.46-0.76,3.43-0.77,4.37c0,0.939-0.44,2.938-0.971,4.448c-0.529,1.512-0.96,3.24-0.96,3.852
	c0.01,1.09-1.279,7.398-2.75,13.41c-0.42,1.729-0.96,4.33-1.21,5.79s-0.8,4.278-1.229,6.26c-1.051,4.91-1.021,14.24,0.05,16.319
	c0.43,0.83,0.79,1.949,0.79,2.479c0,5.7,8.609,6.94,12.81,1.84c3.38-4.1,6.021-7.7,6.021-8.18c0-0.3,0.41-0.99,0.92-1.54
	c1.06-1.15,2.97-4.62,6.68-12.1c1.449-2.92,2.93-5.86,3.3-6.521c0.7-1.28,1.37-2.7,2.42-5.07c2.561-5.828,3.101-7.22,3.101-7.96
	c0-0.47,0.38-1.358,0.859-1.988c0.99-1.33,3.479-7.342,3.479-8.41c0-0.392,0.44-1.53,0.971-2.521c0.529-0.99,0.96-2.1,0.96-2.47
	c0-0.36,0.42-1.45,0.92-2.42c0.96-1.81,2.24-6.56,3.04-11.17c0.25-1.46,0.87-4.311,1.38-6.33c0.521-2.03,0.939-4.48,0.939-5.45
	c0-0.979,0.33-2.57,0.74-3.54c0.41-0.979,0.95-3.3,1.21-5.18c0.271-1.87,0.8-4.38,1.189-5.58c0.391-1.19,0.91-3.61,1.149-5.38
	c0.25-1.76,0.681-3.63,0.95-4.15c0.279-0.52,0.729-2.55,1-4.52c0.271-1.96,0.819-4.761,1.229-6.21
	C395.39,182.32,395.72,180.451,395.72,179.61z M299.409,119.721c-1.659,1.69-3.17,3.681-3.35,4.431
	c-0.189,0.739-0.76,1.89-1.28,2.54c-0.51,0.659-0.939,1.569-0.939,2.029s-0.43,1.391-0.96,2.061c-0.53,0.68-0.97,1.649-0.97,2.17
	c0,0.52-0.431,1.5-0.96,2.18c-0.53,0.67-0.971,1.46-0.971,1.75c0,0.63-2.149,6.3-3.42,9.03c-0.51,1.09-0.92,2.47-0.92,3.07
	c0,0.59-0.33,1.649-0.72,2.359c-0.891,1.61-2.561,6.33-3.351,9.49c-0.33,1.33-0.96,3.22-1.399,4.21
	c-0.45,0.99-0.811,2.24-0.811,2.78s-0.439,1.79-0.97,2.779c-0.53,0.99-0.96,2.221-0.96,2.721s-0.53,2.569-1.18,4.59
	c-2.391,7.53-3.17,10.24-3.17,11.12c0,0.5-0.431,1.85-0.96,3.01c-0.521,1.16-0.96,2.6-0.96,3.19c-0.011,0.6-0.421,2.34-0.931,3.859
	c-1,3.061-2.17,7.5-3.14,11.96c-0.34,1.591-0.99,3.931-1.42,5.21c-0.44,1.271-0.8,2.811-0.8,3.44c0,0.62-0.351,2.08-0.771,3.24
	c-0.43,1.159-1.07,3.63-1.439,5.489c-0.37,1.86-0.99,4.57-1.4,6.021c-0.4,1.46-0.74,3.33-0.74,4.17s-0.31,2.28-0.689,3.19
	c-0.391,0.92-0.84,2.85-1.011,4.289c-0.17,1.439-0.71,3.92-1.189,5.511c-0.49,1.59-1.021,4.09-1.19,5.55
	c-0.18,1.46-0.62,3.74-0.989,5.07c-0.37,1.328-0.891,4.26-1.16,6.52c-0.261,2.26-0.84,6.061-1.28,8.45
	c-4.24,22.899,5.62,42.479,13.8,27.39c0.53-0.989,1.15-2.12,1.37-2.52c0.39-0.7,0.93-1.87,3.65-7.82c0.689-1.51,1.25-3,1.25-3.32
	c0-0.318,0.409-1.479,0.899-2.568c1.07-2.37,1.8-4.38,2.99-8.261c0.49-1.601,1.22-3.771,1.62-4.83
	c0.399-1.061,0.74-2.289,0.75-2.721c0.01-0.438,0.45-1.739,0.97-2.898c0.53-1.16,0.97-2.761,0.98-3.562
	c0.02-0.79,0.449-2.31,0.96-3.38c0.52-1.06,0.939-2.41,0.95-3.01c0.01-0.601,0.449-2.34,0.979-3.86c0.53-1.529,1.16-3.76,1.41-4.96
	c0.52-2.47,1.67-7,2.93-11.58c0.48-1.729,1.09-4.229,1.36-5.56c0.28-1.32,0.83-3.71,1.22-5.311c1.13-4.5,1.8-7.489,2.32-10.38
	c0.27-1.46,0.8-3.76,1.18-5.12c0.38-1.359,0.91-4.159,1.18-6.229c0.261-2.06,0.671-3.99,0.91-4.29c0.25-0.29,0.7-2.38,1.011-4.64
	c0.31-2.261,0.869-5.08,1.239-6.28c0.36-1.19,0.89-3.91,1.16-6.03c0.27-2.13,0.81-5.06,1.21-6.52c0.399-1.46,0.729-3.53,0.74-4.591
	c0-1.06,0.409-3.67,0.909-5.789c0.5-2.131,1.061-5.5,1.24-7.49c0.181-1.99,0.65-5.19,1.04-7.12
	C310.09,130.11,307,111.971,299.409,119.721z M190.64,215.331c4.13-2.811,13.39-12.88,13.39-14.561c0-0.25,0.471-1.06,1.051-1.789
	c0.58-0.73,1.409-2.011,1.85-2.841c2.33-4.359,2.98-5.64,4.32-8.609c0.81-1.78,1.47-3.48,1.47-3.771s0.43-1.33,0.95-2.31
	c0.52-0.98,1.359-2.98,1.87-4.45c0.51-1.46,1.199-3.41,1.52-4.34c0.83-2.36,2.86-9.47,3.45-12.07c0.27-1.2,0.8-3.15,1.18-4.35
	c0.38-1.19,1.011-4.23,1.391-6.76c0.39-2.521,0.939-5.78,1.229-7.24c3.29-16.62-1.38-31.99-8.3-27.29
	c-2.9,1.97-10.46,15.06-11.71,20.29c-0.19,0.79-0.63,1.77-0.97,2.17c-0.341,0.399-0.78,1.59-0.971,2.66
	c-0.189,1.06-0.64,2.47-0.989,3.14c-0.36,0.66-0.96,2.18-1.351,3.37c-0.39,1.2-0.939,2.83-1.229,3.63
	c-1.021,2.84-2.07,6.31-2.721,8.93c-0.359,1.46-0.989,3.53-1.399,4.591c-0.4,1.06-0.75,2.47-0.76,3.14
	c-0.011,0.66-0.44,2.51-0.95,4.1c-1.771,5.48-2.86,9.66-3.19,12.271c-0.189,1.43-0.609,3.279-0.95,4.1
	c-0.34,0.82-0.77,2.69-0.949,4.15c-0.19,1.46-0.761,4.27-1.271,6.25c-0.5,1.97-0.92,4.38-0.92,5.34c0,0.97-0.32,2.83-0.71,4.15
	C181.85,217.75,183.54,220.161,190.64,215.331z M655.52,114.96h-0.01c-0.899,0.66-2.189,2.05-2.87,3.07
	c-0.67,1.02-1.79,2.7-2.479,3.74c-1.351,2.02-3.55,6.56-5.25,10.81c-0.59,1.46-1.479,3.46-1.989,4.44
	c-0.5,0.979-0.92,2.17-0.92,2.63s-0.41,1.72-0.9,2.8c-1.159,2.51-2.88,7.649-3.449,10.28c-0.25,1.13-0.78,2.689-1.189,3.479
	c-0.4,0.79-0.74,1.86-0.74,2.38c0,0.521-0.41,2.101-0.92,3.521s-1.25,3.88-1.649,5.479c-0.399,1.59-0.99,3.87-1.301,5.07
	c-0.949,3.57-2.3,9.25-2.819,11.83c-0.489,2.41-1.38,6.41-2.739,12.31c-0.4,1.73-0.931,4.771-1.181,6.76
	c-0.25,1.99-0.71,4.351-1.021,5.24c-4.04,11.5,4.34,11.021,14.12-0.8c3.18-3.85,5.14-6.67,8.25-11.92
	c1.399-2.37,5.68-11.33,5.68-11.9c0-0.29,0.41-1.319,0.9-2.279c2.93-5.71,8.46-24.53,9.51-32.42c0.16-1.2,0.649-3.801,1.101-5.801
	C667.38,126.9,662.539,109.78,655.52,114.96z M386.22,113.75c-13.17,0.271-12.489,0.04-13.16,4.35
	c-0.271,1.73-0.819,4.32-1.22,5.771c-0.41,1.45-0.729,3.33-0.729,4.17s-0.33,2.3-0.729,3.25c-0.391,0.95-1.03,3.53-1.42,5.73
	c-0.381,2.21-1.03,5.31-1.44,6.909c-0.409,1.591-0.75,3.57-0.75,4.4c-0.01,0.84-0.31,2.25-0.68,3.14c-0.37,0.9-0.83,2.83-1.011,4.29
	c-0.189,1.46-0.76,4.271-1.26,6.24c-0.511,1.979-0.931,4.16-0.931,4.85c0,0.69-0.449,2.54-1,4.12c-0.561,1.57-1.189,4.28-1.41,6.021
	c-0.23,1.729-0.76,4.67-1.19,6.53c-0.43,1.859-1.21,5.229-1.739,7.489c-0.53,2.25-0.95,4.61-0.94,5.23c0,0.63-0.43,2.58-0.96,4.35
	c-0.53,1.771-1.16,4.521-1.4,6.11c-0.239,1.59-0.779,4.09-1.199,5.55s-0.771,3.53-0.771,4.59c-0.01,1.061-0.33,2.54-0.72,3.29
	s-0.93,3.03-1.18,5.07c-0.261,2.04-0.7,4.359-0.99,5.16c-0.28,0.789-0.811,3.08-1.19,5.069c-0.37,1.99-1.02,4.811-1.43,6.271
	c-0.42,1.46-0.76,3.43-0.77,4.37c0,0.939-0.44,2.938-0.971,4.448c-0.529,1.512-0.96,3.24-0.96,3.852
	c0.01,1.09-1.28,7.398-2.75,13.41c-0.42,1.729-0.96,4.33-1.21,5.79s-0.8,4.278-1.229,6.26c-1.051,4.91-1.021,14.24,0.05,16.319
	c0.43,0.83,0.79,1.949,0.79,2.479c0,5.7,8.609,6.94,12.81,1.84c3.38-4.1,6.021-7.7,6.021-8.18c0-0.3,0.41-0.99,0.92-1.54
	c1.06-1.15,2.97-4.62,6.68-12.1c1.449-2.92,2.93-5.86,3.3-6.521c0.7-1.28,1.37-2.7,2.42-5.07c2.561-5.828,3.101-7.22,3.101-7.96
	c0-0.47,0.38-1.358,0.859-1.988c0.99-1.33,3.479-7.342,3.479-8.41c0-0.392,0.439-1.53,0.971-2.521c0.529-0.99,0.96-2.1,0.96-2.47
	c0-0.36,0.42-1.45,0.92-2.42c0.96-1.81,2.24-6.56,3.04-11.17c0.25-1.46,0.87-4.311,1.38-6.33c0.521-2.03,0.939-4.48,0.939-5.45
	c0-0.979,0.33-2.57,0.74-3.54c0.41-0.979,0.95-3.3,1.21-5.18c0.271-1.87,0.8-4.38,1.189-5.58c0.391-1.19,0.91-3.61,1.149-5.38
	c0.25-1.76,0.681-3.63,0.95-4.15c0.279-0.52,0.729-2.55,1-4.52c0.271-1.96,0.819-4.761,1.229-6.21c0.399-1.46,0.729-3.33,0.729-4.17
	c0-0.83,0.42-2.83,0.931-4.421c0.51-1.6,1.08-3.96,1.26-5.26c0.17-1.29,0.74-3.729,1.24-5.41c0.51-1.689,0.92-3.76,0.93-4.59
	c0-0.83,0.431-2.899,0.96-4.58c0.53-1.68,0.96-3.76,0.96-4.6c0-0.85,0.36-2.85,0.79-4.43c0.431-1.58,1.061-4.4,1.41-6.261
	c0.351-1.859,0.971-4.56,1.391-6.02c0.42-1.45,0.75-3.08,0.75-3.62s0.409-2.72,0.93-4.84
	C410.42,112.479,411.75,113.221,386.22,113.75z M216.01,114.951c-2.9,1.97-10.46,15.06-11.71,20.29c-0.19,0.79-0.63,1.77-0.97,2.17
	c-0.341,0.4-0.78,1.59-0.971,2.66c-0.189,1.06-0.64,2.47-0.989,3.14c-0.36,0.66-0.96,2.18-1.351,3.37
	c-0.39,1.2-0.939,2.83-1.229,3.63c-1.021,2.84-2.07,6.31-2.721,8.93c-0.359,1.46-0.989,3.53-1.399,4.591
	c-0.4,1.06-0.75,2.47-0.76,3.14c-0.011,0.66-0.44,2.51-0.95,4.1c-1.771,5.48-2.86,9.66-3.19,12.271c-0.189,1.43-0.609,3.28-0.95,4.1
	c-0.34,0.82-0.77,2.69-0.949,4.15c-0.19,1.46-0.761,4.27-1.271,6.25c-0.5,1.97-0.92,4.38-0.92,5.34c0,0.97-0.32,2.83-0.71,4.15
	c-3.12,10.52-1.43,12.93,5.67,8.1c4.13-2.81,13.39-12.88,13.39-14.56c0-0.25,0.471-1.061,1.051-1.79
	c0.58-0.73,1.409-2.011,1.85-2.841c2.33-4.359,2.98-5.64,4.32-8.609c0.81-1.78,1.47-3.48,1.47-3.771s0.43-1.33,0.95-2.31
	c0.52-0.98,1.359-2.98,1.87-4.45c0.51-1.46,1.199-3.41,1.52-4.34c0.83-2.36,2.86-9.47,3.45-12.07c0.27-1.2,0.8-3.149,1.18-4.35
	c0.38-1.19,1.011-4.23,1.391-6.76c0.39-2.521,0.939-5.78,1.229-7.24C227.6,125.621,222.93,110.25,216.01,114.951z M299.409,119.721
	c-1.659,1.69-3.17,3.681-3.35,4.431c-0.189,0.739-0.76,1.89-1.28,2.54c-0.51,0.659-0.939,1.569-0.939,2.029s-0.43,1.391-0.96,2.061
	c-0.53,0.68-0.97,1.649-0.97,2.17c0,0.52-0.431,1.5-0.96,2.18c-0.53,0.67-0.971,1.46-0.971,1.75c0,0.63-2.149,6.3-3.42,9.03
	c-0.51,1.09-0.92,2.47-0.92,3.07c0,0.59-0.33,1.649-0.72,2.359c-0.891,1.61-2.561,6.33-3.351,9.49c-0.33,1.33-0.96,3.22-1.399,4.21
	c-0.45,0.99-0.811,2.24-0.811,2.78s-0.439,1.79-0.97,2.779c-0.53,0.99-0.96,2.221-0.96,2.721s-0.53,2.569-1.18,4.59
	c-2.391,7.53-3.17,10.24-3.17,11.12c0,0.5-0.431,1.85-0.96,3.01c-0.521,1.16-0.96,2.6-0.96,3.19c-0.011,0.6-0.421,2.34-0.931,3.859
	c-1,3.061-2.17,7.5-3.14,11.96c-0.34,1.591-0.99,3.931-1.42,5.21c-0.44,1.271-0.8,2.811-0.8,3.44c0,0.62-0.351,2.08-0.771,3.24
	c-0.43,1.159-1.07,3.63-1.439,5.489c-0.37,1.86-0.99,4.57-1.4,6.021c-0.4,1.46-0.74,3.33-0.74,4.17s-0.31,2.28-0.689,3.19
	c-0.391,0.92-0.84,2.85-1.011,4.289c-0.17,1.439-0.71,3.92-1.189,5.511c-0.49,1.59-1.021,4.09-1.19,5.55
	c-0.18,1.46-0.62,3.74-0.989,5.07c-0.37,1.328-0.891,4.26-1.16,6.52c-0.261,2.26-0.84,6.061-1.28,8.45
	c-4.24,22.899,5.62,42.479,13.8,27.39c0.53-0.989,1.15-2.12,1.37-2.52c0.39-0.7,0.93-1.87,3.65-7.82c0.689-1.51,1.25-3,1.25-3.32
	c0-0.318,0.409-1.479,0.899-2.568c1.07-2.37,1.8-4.38,2.99-8.261c0.49-1.601,1.22-3.771,1.62-4.83
	c0.399-1.061,0.74-2.289,0.75-2.721c0.01-0.438,0.45-1.739,0.97-2.898c0.53-1.16,0.97-2.761,0.98-3.562
	c0.02-0.79,0.449-2.31,0.96-3.38c0.52-1.06,0.939-2.41,0.95-3.01c0.01-0.601,0.449-2.34,0.979-3.86c0.53-1.529,1.16-3.76,1.41-4.96
	c0.52-2.47,1.67-7,2.93-11.58c0.48-1.729,1.09-4.229,1.36-5.56c0.28-1.32,0.83-3.71,1.22-5.311c1.13-4.5,1.8-7.489,2.32-10.38
	c0.27-1.46,0.8-3.76,1.18-5.12c0.38-1.359,0.91-4.159,1.18-6.229c0.261-2.06,0.671-3.99,0.91-4.29c0.25-0.29,0.7-2.38,1.011-4.64
	c0.31-2.261,0.869-5.08,1.239-6.28c0.36-1.19,0.89-3.91,1.16-6.03c0.27-2.13,0.81-5.06,1.21-6.52c0.399-1.46,0.729-3.53,0.74-4.591
	c0-1.06,0.409-3.67,0.909-5.789c0.5-2.131,1.061-5.5,1.24-7.49c0.181-1.99,0.65-5.19,1.04-7.12
	C310.09,130.11,307,111.971,299.409,119.721z M386.22,113.75c-13.17,0.271-12.489,0.04-13.16,4.35
	c-0.271,1.73-0.819,4.32-1.22,5.771c-0.41,1.45-0.729,3.33-0.729,4.17s-0.33,2.3-0.729,3.25c-0.391,0.95-1.03,3.53-1.42,5.73
	c-0.381,2.21-1.03,5.31-1.44,6.909c-0.409,1.591-0.75,3.57-0.75,4.4c-0.01,0.84-0.31,2.25-0.68,3.14c-0.37,0.9-0.83,2.83-1.011,4.29
	c-0.189,1.46-0.76,4.271-1.26,6.24c-0.511,1.979-0.931,4.16-0.931,4.85c0,0.69-0.449,2.54-1,4.12c-0.561,1.57-1.189,4.28-1.41,6.021
	c-0.23,1.729-0.76,4.67-1.19,6.53c-0.43,1.859-1.21,5.229-1.739,7.489c-0.53,2.25-0.95,4.61-0.94,5.23c0,0.63-0.43,2.58-0.96,4.35
	c-0.53,1.771-1.16,4.521-1.4,6.11c-0.239,1.59-0.779,4.09-1.199,5.55s-0.771,3.53-0.771,4.59c-0.01,1.061-0.33,2.54-0.72,3.29
	s-0.93,3.03-1.18,5.07c-0.261,2.04-0.7,4.359-0.99,5.16c-0.28,0.789-0.811,3.08-1.19,5.069c-0.37,1.99-1.02,4.811-1.43,6.271
	c-0.42,1.46-0.76,3.43-0.77,4.37c0,0.939-0.44,2.938-0.971,4.448c-0.529,1.512-0.96,3.24-0.96,3.852
	c0.01,1.09-1.28,7.398-2.75,13.41c-0.42,1.729-0.96,4.33-1.21,5.79s-0.8,4.278-1.229,6.26c-1.051,4.91-1.021,14.24,0.05,16.319
	c0.43,0.83,0.79,1.949,0.79,2.479c0,5.7,8.609,6.94,12.81,1.84c3.38-4.1,6.021-7.7,6.021-8.18c0-0.3,0.41-0.99,0.92-1.54
	c1.06-1.15,2.97-4.62,6.68-12.1c1.449-2.92,2.93-5.86,3.3-6.521c0.7-1.28,1.37-2.7,2.42-5.07c2.561-5.828,3.101-7.22,3.101-7.96
	c0-0.47,0.38-1.358,0.859-1.988c0.99-1.33,3.479-7.342,3.479-8.41c0-0.392,0.439-1.53,0.971-2.521c0.529-0.99,0.96-2.1,0.96-2.47
	c0-0.36,0.42-1.45,0.92-2.42c0.96-1.81,2.24-6.56,3.04-11.17c0.25-1.46,0.87-4.311,1.38-6.33c0.521-2.03,0.939-4.48,0.939-5.45
	c0-0.979,0.33-2.57,0.74-3.54c0.41-0.979,0.95-3.3,1.21-5.18c0.271-1.87,0.8-4.38,1.189-5.58c0.391-1.19,0.91-3.61,1.149-5.38
	c0.25-1.76,0.681-3.63,0.95-4.15c0.279-0.52,0.729-2.55,1-4.52c0.271-1.96,0.819-4.761,1.229-6.21c0.399-1.46,0.729-3.33,0.729-4.17
	c0-0.83,0.42-2.83,0.931-4.421c0.51-1.6,1.08-3.96,1.26-5.26c0.17-1.29,0.74-3.729,1.24-5.41c0.51-1.689,0.92-3.76,0.93-4.59
	c0-0.83,0.431-2.899,0.96-4.58c0.53-1.68,0.96-3.76,0.96-4.6c0-0.85,0.36-2.85,0.79-4.43c0.431-1.58,1.061-4.4,1.41-6.261
	c0.351-1.859,0.971-4.56,1.391-6.02c0.42-1.45,0.75-3.08,0.75-3.62s0.409-2.72,0.93-4.84
	C410.42,112.479,411.75,113.221,386.22,113.75z M216.01,114.951c-2.9,1.97-10.46,15.06-11.71,20.29c-0.19,0.79-0.63,1.77-0.97,2.17
	c-0.341,0.4-0.78,1.59-0.971,2.66c-0.189,1.06-0.64,2.47-0.989,3.14c-0.36,0.66-0.96,2.18-1.351,3.37
	c-0.39,1.2-0.939,2.83-1.229,3.63c-1.021,2.84-2.07,6.31-2.721,8.93c-0.359,1.46-0.989,3.53-1.399,4.591
	c-0.4,1.06-0.75,2.47-0.76,3.14c-0.011,0.66-0.44,2.51-0.95,4.1c-1.771,5.48-2.86,9.66-3.19,12.271c-0.189,1.43-0.609,3.28-0.95,4.1
	c-0.34,0.82-0.77,2.69-0.949,4.15c-0.19,1.46-0.761,4.27-1.271,6.25c-0.5,1.97-0.92,4.38-0.92,5.34c0,0.97-0.32,2.83-0.71,4.15
	c-3.12,10.52-1.43,12.93,5.67,8.1c4.13-2.81,13.39-12.88,13.39-14.56c0-0.25,0.471-1.061,1.051-1.79
	c0.58-0.73,1.409-2.011,1.85-2.841c2.33-4.359,2.98-5.64,4.32-8.609c0.81-1.78,1.47-3.48,1.47-3.771s0.43-1.33,0.95-2.31
	c0.52-0.98,1.359-2.98,1.87-4.45c0.51-1.46,1.199-3.41,1.52-4.34c0.83-2.36,2.86-9.47,3.45-12.07c0.27-1.2,0.8-3.149,1.18-4.35
	c0.38-1.19,1.011-4.23,1.391-6.76c0.39-2.521,0.939-5.78,1.229-7.24C227.6,125.621,222.93,110.25,216.01,114.951z M655.52,114.96
	h-0.01c-0.899,0.66-2.189,2.05-2.87,3.07c-0.67,1.02-1.79,2.7-2.479,3.74c-1.351,2.02-3.55,6.56-5.25,10.81
	c-0.59,1.46-1.479,3.46-1.989,4.44c-0.5,0.979-0.92,2.17-0.92,2.63s-0.41,1.72-0.9,2.8c-1.159,2.51-2.88,7.649-3.449,10.28
	c-0.25,1.13-0.78,2.689-1.189,3.479c-0.4,0.79-0.74,1.86-0.74,2.38c0,0.521-0.41,2.101-0.92,3.521s-1.25,3.88-1.649,5.479
	c-0.399,1.59-0.99,3.87-1.301,5.07c-0.949,3.57-2.3,9.25-2.819,11.83c-0.489,2.41-1.38,6.41-2.739,12.31
	c-0.4,1.73-0.931,4.771-1.181,6.76c-0.25,1.99-0.71,4.351-1.021,5.24c-4.04,11.5,4.34,11.021,14.12-0.8
	c3.18-3.85,5.14-6.67,8.25-11.92c1.399-2.37,5.68-11.33,5.68-11.9c0-0.29,0.41-1.319,0.9-2.279c2.93-5.71,8.46-24.53,9.51-32.42
	c0.16-1.2,0.649-3.801,1.101-5.801C667.38,126.9,662.539,109.78,655.52,114.96z M299.409,119.721c-1.659,1.69-3.17,3.681-3.35,4.431
	c-0.189,0.739-0.76,1.89-1.28,2.54c-0.51,0.659-0.939,1.569-0.939,2.029s-0.43,1.391-0.96,2.061c-0.53,0.68-0.97,1.649-0.97,2.17
	c0,0.52-0.431,1.5-0.96,2.18c-0.53,0.67-0.971,1.46-0.971,1.75c0,0.63-2.149,6.3-3.42,9.03c-0.51,1.09-0.92,2.47-0.92,3.07
	c0,0.59-0.33,1.649-0.72,2.359c-0.891,1.61-2.561,6.33-3.351,9.49c-0.33,1.33-0.96,3.22-1.399,4.21
	c-0.45,0.99-0.811,2.24-0.811,2.78s-0.439,1.79-0.97,2.779c-0.53,0.99-0.96,2.221-0.96,2.721s-0.53,2.569-1.18,4.59
	c-2.391,7.53-3.17,10.24-3.17,11.12c0,0.5-0.431,1.85-0.96,3.01c-0.521,1.16-0.96,2.6-0.96,3.19c-0.011,0.6-0.421,2.34-0.931,3.859
	c-1,3.061-2.17,7.5-3.14,11.96c-0.34,1.591-0.99,3.931-1.42,5.21c-0.44,1.271-0.8,2.811-0.8,3.44c0,0.62-0.351,2.08-0.771,3.24
	c-0.43,1.159-1.07,3.63-1.439,5.489c-0.37,1.86-0.99,4.57-1.4,6.021c-0.4,1.46-0.74,3.33-0.74,4.17s-0.31,2.28-0.689,3.19
	c-0.391,0.92-0.84,2.85-1.011,4.289c-0.17,1.439-0.71,3.92-1.189,5.511c-0.49,1.59-1.021,4.09-1.19,5.55
	c-0.18,1.46-0.62,3.74-0.989,5.07c-0.37,1.328-0.891,4.26-1.16,6.52c-0.261,2.26-0.84,6.061-1.28,8.45
	c-4.24,22.899,5.62,42.479,13.8,27.39c0.53-0.989,1.15-2.12,1.37-2.52c0.39-0.7,0.93-1.87,3.65-7.82c0.689-1.51,1.25-3,1.25-3.32
	c0-0.318,0.409-1.479,0.899-2.568c1.07-2.37,1.8-4.38,2.99-8.261c0.49-1.601,1.22-3.771,1.62-4.83
	c0.399-1.061,0.74-2.289,0.75-2.721c0.01-0.438,0.45-1.739,0.97-2.898c0.53-1.16,0.97-2.761,0.98-3.562
	c0.02-0.79,0.449-2.31,0.96-3.38c0.52-1.06,0.939-2.41,0.95-3.01c0.01-0.601,0.449-2.34,0.979-3.86c0.53-1.529,1.16-3.76,1.41-4.96
	c0.52-2.47,1.67-7,2.93-11.58c0.48-1.729,1.09-4.229,1.36-5.56c0.28-1.32,0.83-3.71,1.22-5.311c1.13-4.5,1.8-7.489,2.32-10.38
	c0.27-1.46,0.8-3.76,1.18-5.12c0.38-1.359,0.91-4.159,1.18-6.229c0.261-2.06,0.671-3.99,0.91-4.29c0.25-0.29,0.7-2.38,1.011-4.64
	c0.31-2.261,0.869-5.08,1.239-6.28c0.36-1.19,0.89-3.91,1.16-6.03c0.27-2.13,0.81-5.06,1.21-6.52c0.399-1.46,0.729-3.53,0.74-4.591
	c0-1.06,0.409-3.67,0.909-5.789c0.5-2.131,1.061-5.5,1.24-7.49c0.181-1.99,0.65-5.19,1.04-7.12
	C310.09,130.11,307,111.971,299.409,119.721z"/>
</svg>
