<?xml version="1.0" encoding="utf-8"?>
<!-- Generator: Adobe Illustrator 15.0.0, SVG Export Plug-In . SVG Version: 6.00 Build 0)  -->
<!DOCTYPE svg PUBLIC "-//W3C//DTD SVG 1.1//EN" "http://www.w3.org/Graphics/SVG/1.1/DTD/svg11.dtd">
<svg version="1.1" id="레이어_1" xmlns="http://www.w3.org/2000/svg" xmlns:xlink="http://www.w3.org/1999/xlink" x="0px"
	 y="0px" width="320px" height="229px" viewBox="-0.027 -0.122 320 229" enable-background="new -0.027 -0.122 320 229"
	 xml:space="preserve">
<g>
	<path fill="#191919" d="M153.609,228.432c-20.814-2.664-38.211-14.963-53.155-37.575c-6.14-9.289-12.938-23.018-18.471-37.29
		c-0.776-2.007-1.984-5.023-2.679-6.701l-1.267-3.053l-4.343-0.227c-8.042-0.417-11.951-1.5-16.084-4.447
		c-8.033-5.732-9.462-16.356-3.43-25.476c3.762-5.684,10.275-10.599,17.294-13.051c6.205-2.166,13.459-2.602,19.177-1.15
		c8.869,2.248,14.754,7.197,18.986,15.959l1.253,2.594l5.55-2.872c10.987-5.687,18.541-11.463,24.868-19.015
		c8.093-9.666,12.805-20.381,15.013-34.149c0.694-4.351,0.975-16.319,0.474-20.324c-1.375-10.958-5.916-19.225-13.304-24.211
		c-11.217-7.574-27.675-7.058-40.051,1.253c-3.231,2.174-8.476,7.62-10.896,11.328c-3.696,5.658-5.326,9.768-9.227,23.261
		c-5.709,19.758-10.76,30.898-19.06,42.049c-7.872,9.793-17.034,19.688-29.348,19.826c-1.523-0.014-3.043-0.17-4.538-0.468
		c-3.013-0.576-8.34-0.584-20.515-0.028c-5.065,0.227-8.963,0.349-9.527,0.264c-0.952-0.14-0.181-0.42,5.63-3.805
		c9.808-5.718,12.224-7.455,17.484-12.594c5.426-5.295,9.456-10.63,13.479-17.827c2.233-3.997,4.009-7.926,8.955-19.8
		c7.653-18.385,10.289-23.839,14.813-30.671c3.294-4.969,5.083-7.206,8.946-11.177c8.705-8.946,19.216-14.848,30.595-17.167
		c7.698-1.568,20.664-2.288,29.259-1.625c13.881,1.074,26.909,5.083,37.117,11.424c12.82,7.959,21.929,20.971,25.123,35.886
		c0.604,2.815,0.717,4.343,0.734,9.836c0.011,4.09-0.139,7.39-0.402,8.887c-2.985,16.86-10.817,30.957-23.049,41.488
		c-12.832,11.046-30.325,19.707-49.521,24.52c-2.268,0.569-4.167,1.069-4.215,1.111c-0.119,0.099,2.968,11.038,5.646,19.993
		c5.232,17.495,9.071,27.629,14.517,38.353c7.361,14.485,14.734,21.866,23.572,23.606c6.23,1.228,12.495-1.247,18.162-7.178
		c4.434-4.64,7.945-9.988,11.047-16.828c2.877-6.342,12.926-32.527,22.62-58.936c8.841-24.086,11.622-30.989,16.875-41.914
		c6.383-13.266,14.037-25.053,21.265-32.734c9.76-10.375,22.229-16.623,34.739-17.405c2.537-0.156,3.47-0.068,5.87,0.55
		c3.41,0.879,5.202,0.89,19.937,0.113c10.998-0.575,12.477-0.428,8.244,0.816c-18.877,5.556-33.484,17.952-45.88,38.928
		c-6.321,10.701-10.219,19.315-23.077,51.047c-15.971,39.406-21.084,50.326-29.095,62.158c-1.727,2.54-3.532,5.026-5.414,7.455
		c-3.002,3.77-10.482,11.315-13.867,13.985c-9.179,7.239-18.575,11.356-29.358,12.858
		C167.271,228.818,157.263,228.902,153.609,228.432L153.609,228.432z M72.367,128.25c0-1.063-2.126-4.988-3.571-6.588
		c-1.905-2.108-4.192-3.336-6.636-3.557c-2.266-0.207-2.475-0.012-2.478,2.299c-0.006,2.318,0.521,3.85,1.813,5.281
		c2.047,2.264,4.131,3.061,8.097,3.101c2.46,0.025,2.777-0.037,2.777-0.538L72.367,128.25z"/>
</g>
</svg>
