<?xml version="1.0" encoding="utf-8"?>
<!-- Generator: Adobe Illustrator 15.0.0, SVG Export Plug-In . SVG Version: 6.00 Build 0)  -->
<!DOCTYPE svg PUBLIC "-//W3C//DTD SVG 1.1//EN" "http://www.w3.org/Graphics/SVG/1.1/DTD/svg11.dtd">
<svg version="1.1" id="Layer_1" xmlns="http://www.w3.org/2000/svg" xmlns:xlink="http://www.w3.org/1999/xlink" x="0px" y="0px"
	 width="721px" height="107px" viewBox="0 0 721 107" enable-background="new 0 0 721 107" xml:space="preserve">
<g>
	<path fill="#909090" d="M157.163,13.106c-0.645,0.776-1.228,1.702-2.013,2.408c-6,5.383-11.938,10.835-18.079,16.041
		c-4.438,3.769-8.436,8.038-13.234,11.374c-0.725,0.503-0.813,1.228-0.31,2.003c0.732,1.104,1.491,2.196,2.171,3.326
		c3.494,5.807,6.936,11.639,10.465,17.427c2.348,3.883,4.765,7.747,7.095,11.488c-0.221,1.111-0.962,1.228-1.765,1.244
		c-1.757,0-3.521-0.08-5.276,0c-1.421,0.062-3.415-0.168-3.424,1.835c0,2.1,2.038,1.588,3.335,1.588
		c8.886,0.045,17.771,0.026,26.665,0.019c1.11,0,2.091,0.158,2.55,1.465l-2.604,12.063c-9.301,0.468-9.908,0.645-10.271,2.807
		c0.741,1.19,1.994,1.12,3.158,1.12c7.933,0.053,15.874,0.089,23.806,0.105c2.136,0,4.28,0,6.406-0.124
		c1.066-0.053,1.924-0.573,1.959-1.835s-0.794-1.668-1.782-1.836c-0.848-0.097-1.703-0.149-2.559-0.158
		c-1.589-0.098-3.229,0.221-4.712-0.406c-0.501-0.551-0.698-1.313-0.529-2.037c1.394-9.716,3.547-19.288,5.223-28.959
		c0.212-1.244,0.795-1.934,2.215-1.826c1.985,0.158,3.988,0.158,5.975,0.247c4.43,0.193,7.633,3.158,8.162,7.553
		c0.616,5.25-0.406,10.403-1.051,15.573c-0.874,7.139,1.411,11.709,7.104,13.94c5.197,2.038,10.481,1.288,15.715,0.106
		c1.519-0.346,1.817-1.959,0.732-3.346h-3.054c-5.117,0.026-6.484-1.509-5.443-6.493c0.898-4.13,1.271-8.364,1.11-12.592
		c-0.404-8.867-4.667-13.658-12.547-16.509c3.31-0.785,6.759-1.633,9.988-3.265c6.494-3.282,11.383-7.871,12.697-15.397
		c0.582-3.369,0.104-6.521-2.003-9.309c-3.079-4.05-7.456-5.63-12.291-5.991c-13.387-0.997-26.788-0.494-40.191-0.406
		c-1.19,0.055-2.365,0.273-3.485,0.662c-0.908,0.282-1.746,0.813-1.465,2.038c0.564,0.706,1.359,0.769,2.102,0.813
		c1.711,0.08,3.423,0.133,5.135,0.124c1.712,0,2.197,0.847,1.933,2.354c-0.212,1.228-0.468,2.418-0.688,3.627l-7.668,40.934
		c-0.211,1.094-0.813,1.632-2.003,1.553c-1.297-0.089-2.479-0.769-3.202-1.854c-3.494-4.729-6.662-9.661-9.688-14.708
		c-3.997-6.671-8.339-13.13-12.415-19.747c-1.041-1.693-2.418-3.31-2.55-5.487c0.354-0.459,0.732-0.893,1.147-1.308
		c6.556-5.901,13.199-11.717,19.667-17.708c3.608-3.336,7.386-5.867,12.618-5.188c0.812,0.104,1.701-0.143,2.55-0.273
		c0.652-0.105,1.313-0.272,1.677-1.104c-0.229-1.279-1.2-1.535-2.224-1.632c-7.687-0.732-15.39-0.406-23.083-0.266
		c-1.466,0.026-2.152,0.813-1.854,2.639c3.088,1.924,6.829-0.212,10.094,1.234L157.163,13.106z M185.046,54.922
		c1.367-7.589,2.912-15.149,4.395-22.721c0.246-1.288,0.927-1.978,2.355-1.915c4.394,0.193,8.823-0.521,13.19,0.592
		c2.294,0.582,4.376,2.62,4.544,4.923c0.469,6.317-0.316,12.371-4.075,17.771c-1.422,2.038-3.381,3.159-5.621,3.874
		c-3.187,1.022-6.441,1.658-9.813,1.385h-1.562c-3.9,0.009-4.104-0.07-3.415-3.891h0.018L185.046,54.922z M513.104,81.568
		c2.038,0.133,4.076,0.3,6.123,0.3c15.777,0.026,31.554,0.026,47.348,0c5.091,0,6.573,0.813,7.297-5.611
		c0.089-0.812,0.406-1.562,0.573-2.347c0.865-4.228,1.738-8.444,2.551-12.671c0.158-0.813,0.089-1.817-0.943-2.146
		c-1.032-0.326-1.526,0.529-1.941,1.279c-1.518,2.735-2.921,5.551-4.535,8.224c-2.955,4.89-6.899,8.7-12.828,9.45
		c-6.045,0.776-12.15,0.265-18.229,0.345c-0.45,0-0.909-0.229-1.896-0.503c4.05-21.864,8.303-43.668,11.921-65.479
		c5.275,0,10.199,0.079,15.097-0.036c2.604-0.035,5.18,0.459,7.579,1.474c1.773,0.671,3.229,1.978,4.077,3.671
		c1.288,2.842,2.107,5.887,2.408,8.991c0.149,1.358,0.813,2.541,2.418,2.472c1.604-0.063,1.579-1.466,1.756-2.532
		c0.731-4.368,1.377-8.763,2.091-13.14c0.512-3.104-0.07-3.952-3.186-4.015c-4.563-0.088-9.123-0.062-13.693-0.07h-38.497
		c-1.262,0-2.586-0.069-3.592,0.785c-0.256,0.485-0.37,1.016-0.044,1.288c2.639,2.171,5.974,0.776,9.098,1.694
		c-0.15,1.227-0.229,2.364-0.433,3.477c-1.271,6.944-2.675,13.879-3.848,20.841c-2.215,13.086-5.048,26.057-7.536,39.09
		c-0.265,1.41-1.05,1.976-2.442,1.976c-2.092,0-4.191-0.026-6.247,0.459c-0.953,0.221-1.968,0.468-2.241,1.633
		c0.273,0.953,1.067,1.067,1.817,1.111L513.104,81.568z"/>
	<path fill="#909090" d="M90.784,79.821c0.521,1.861,2.205,1.5,3.493,1.509c9.928,0.062,19.861,0.053,29.779,0.035
		c1.147,0,2.55-0.098,2.471-1.658c-0.079-1.482-1.395-1.703-2.665-1.729c-1.94-0.044-3.891-0.142-5.832-0.186
		c-1.411-0.035-1.816-0.785-1.588-2.064c0.936-5.127,1.817-10.262,2.807-15.38c1.227-6.335,2.62-12.635,3.819-18.987
		c1.535-8.152,2.887-16.298,4.491-24.45c0.31-1.588,0-3.485,1.81-5.038c2.487,0,5.275,0.07,8.056-0.026
		c1.659-0.062,2.224-1.05,1.633-2.532c-0.563-0.591-1.2-0.556-1.809-0.556h-26.374c-1.703,0-3.433-0.035-5.082,0.503
		c-0.813,0.266-1.526,0.617-1.288,1.941c2.179,0.926,4.491,1.066,6.803,0.812c1.959-0.203,2.823,0.591,2.338,2.506
		c-0.715,2.851-1.094,5.771-1.632,8.646c-1.729,9.019-3.645,18.009-5.374,27.026c-1.632,8.452-3.176,16.933-4.641,25.42
		c-0.327,1.871-1.279,2.479-3.026,2.33c-2.092-0.114-4.183,0.019-6.238,0.405c-0.855,0.143-1.677,0.371-1.959,1.491L90.784,79.821z
		 M409.021,82.795c6.626,0.617,12.273-1.871,17.196-6.353l1.253,0.062c1.421,4.924,3.44,6.67,7.491,6.265
		c4.845-0.477,8.877-2.877,12.68-5.709c0.521-0.369,0.775-1.006,0.653-1.632c-0.478-0.813-1.14-0.706-1.846-0.38
		c-1.5,0.697-2.981,1.43-4.491,2.108c-1.968,0.899-3.369,0-3.078-2.038c0.405-2.867,0.883-5.719,1.446-8.56
		c1.228-6.221,2.629-12.415,3.829-18.645c0.813-4.244-0.203-6.009-3.979-8.117c-3.088-1.712-6.459-2.294-9.864-2.383
		c-7.845-0.211-15.309,0.715-20.471,7.765c-1.925,2.63-2.294,5.577-0.564,7.43c2.038,2.153,5.17,2.25,7.747,0.266
		c2.797-2.145,3.123-5.038,2.443-8.152c-0.379-1.721,0.31-2.938,1.772-3.38c3.238-0.953,6.53-1.604,9.9-0.194
		c1.481,0.618,2.206,1.571,1.933,3.046c-0.696,3.768-1.535,7.518-2.321,11.275c-0.229,1.05-0.926,1.5-1.957,1.446
		c-6.662-0.282-12.997,0.997-18.884,4.174c-3.997,2.153-7.306,4.968-8.709,9.538c-2.082,6.75,0.813,11.506,7.811,12.159
		L409.021,82.795z M413.485,68.571c1.368-4.271,4.051-6.893,8.718-7.271c1.544-0.133,3.045-0.662,4.589-0.927
		c1.535-0.265,2.523,0.538,2.408,2.012c-0.404,5.188-1.676,9.988-6.309,13.2c-1.43,0.997-3.019,1.006-4.605,1.156
		c-4.861,0.37-6.045-4.279-4.791-8.18L413.485,68.571z M369.403,43.627c4.041,0.636,4.209,0.653,3.573,4.624
		c-1.006,6.309-2.161,12.591-3.449,18.847c-0.715,3.229-1.156,6.521-1.314,9.83c-0.114,3.31,2.117,5.392,5.364,5.902
		c6.688,1.041,12.706-0.591,18.142-4.421c2.374-1.667,4.801-3.423,5.655-6.449c-1.015-1.253-1.86-1.289-3.468,0.07
		c-2.443,2.091-4.896,4.227-8.063,5.196c-4.023,1.228-5.047,0.45-4.8-3.688c0.034-0.564,0.104-1.13,0.202-1.687l4.649-26.416
		c0.203-1.2,0.785-1.862,2.109-1.783c1.233,0.114,2.47,0.114,3.695,0c1.535-0.202,3.266,0.193,4.571-1.253l-0.08-1.411
		c-2.038-1.491-4.209-1.729-6.485-1.633c-1.701,0.07-2.479-0.813-2.259-2.472c0.159-0.731,0.38-1.456,0.653-2.161
		c0.759-2.576,1.041-5.275,0.847-7.959c-3.724-0.979-7.253-0.74-10.772-0.149c-0.917,0.159-1.263,0.918-1.438,1.747
		c-0.503,2.355-1.059,4.712-1.473,7.086c-0.618,3.467-0.574,3.467-4.006,3.521c-0.521,0-1.033,0.098-1.555,0.142
		c-0.863,0.062-1.781,0.069-2.107,1.095c-0.345,1.094-0.564,2.214,0.405,3.176c0.477,0.063,0.927,0.159,1.402,0.238L369.403,43.627
		L369.403,43.627z M453.701,81.171c7.747,0.441,15.485,0.15,23.225,0.133c1.05,0,2.118-0.221,2.541-1.604
		c-0.636-1.774-2.145-1.668-3.557-1.694c-3.265-0.044-3.6-0.309-3.018-3.556c1.95-10.862,4.015-21.697,5.921-32.568
		c1.227-6.997,2.373-13.994,3.944-20.92c0.768-3.415,1.341-6.865,1.939-10.315c0.318-1.825-0.265-2.99-2.398-2.797
		c-1.519,0.143-3.026,0.222-4.544,0.362c-3.115,0.3-6.238,0.573-9.354,0.961c-0.997,0.124-2.171,0.38-1.712,1.906
		c1.535,1.174,3.627,0.433,5.25,1.721c-1.129,5.965-2.294,11.956-3.396,17.956c-2.718,14.762-5.418,29.532-8.108,44.303
		c-0.317,1.801-1.12,2.887-3.053,2.851c-1.184,0-2.373-0.07-3.557-0.044c-1.183,0.018-2.364,0.177-2.364,1.633
		c0,1.402,1.174,1.614,2.25,1.676h-0.009V81.171z M277.435,105.109c4.156-3.098,7.606-7.032,10.139-11.541
		c3.397-5.966,6.785-11.938,10.228-17.886c5.85-10.086,11.832-20.101,17.575-30.237c1.482-2.612,2.982-4.482,6.345-3.918
		c1.465,0.237,2.443-0.609,2.399-2.206c-0.563-1.016-1.5-1.263-2.443-1.279c-4.367-0.079-8.744-0.159-13.111-0.115
		c-2.038,0-2.595,0.971-1.985,3.036c1.791,1.535,4.376-0.247,6.247,1.253c-0.089,0.291-0.203,0.582-0.336,0.864
		c-3.854,6.953-7.72,13.915-11.585,20.868c-0.37,0.67-0.927,0.935-1.8,0.467c-0.133-0.317-0.335-0.741-0.494-1.182
		c-2.072-5.709-3.413-11.647-5.056-17.479c-1.066-3.803-0.979-4.015,2.903-4.076c1.632-0.026,3.264-0.115,3.236-2.374
		c-0.37-0.812-0.952-1.357-1.86-1.35c-7.032,0.062-14.064-0.256-21.088,0.229c-0.883,0.063-1.703,0.301-2.038,1.332
		c0.141,1.279,1.12,1.632,2.188,1.8c1.447,0.247,2.313,0.988,2.798,2.444c1.51,4.482,2.744,9.07,4.016,13.632
		c2.038,7.333,4.208,14.64,6.326,21.953c0.301,1.007,0.201,2.09-0.273,3.026c-1.959,4.121-4.535,7.861-7.006,11.656
		c-0.9,1.385-1.474,3.309-3.785,3.671c-0.38-0.406-0.776-0.813-1.165-1.228c-1.826-1.959-4.915-2.083-7.747-0.317
		c-2.585,1.633-3.775,4.668-2.753,7.076c1.65,3.829,6.291,4.757,10.147,1.889L277.435,105.109z M586.451,41.192
		c2.146-0.045,3.019,1.262,3.529,3.044c1.518,5.188,3.089,10.35,4.536,15.556c1.994,7.146,4.455,14.162,5.876,21.335
		c-2.896,6.066-6.503,11.766-10.747,16.978c-0.538-0.405-0.918-0.582-1.111-0.883c-2.188-3.44-6.883-3.009-9.627-0.168
		c-2.082,2.153-2.603,5.215-1.066,7.376c1.737,2.444,4.525,2.903,7.474,1.659c4.182-1.773,7.05-4.959,9.538-8.471
		c4.8-6.75,8.629-14.108,12.785-21.247c5.867-10.067,11.427-20.303,17.436-30.291c1.632-2.744,3-5.303,6.794-4.605
		c0.142,0,0.273-0.025,0.406-0.07c1.032-0.158,1.685-0.76,1.658-1.801c-0.027-1.041-0.813-1.553-1.729-1.553
		c-4.703-0.025-9.404,0-14.107,0.063c-0.856,0-1.729,0.484-1.747,1.553c-0.019,1.174,0.838,1.659,1.853,1.774
		c0.715,0.044,1.421,0.025,2.127-0.063c0.895-0.14,1.783,0.275,2.25,1.05c-0.229,0.759-0.521,1.5-0.864,2.225
		c-3.414,6.009-6.873,12-10.298,18.009c-0.593,1.04-1.532,1.836-2.655,2.25c-2.073-7.57-4.12-15.035-6.098-22.244
		c1.801-2.69,5.975,0.38,6.909-3.433c-0.529-0.971-1.395-1.015-2.25-1.041c-2.092-0.054-4.174-0.105-6.265-0.098
		c-4.845,0.026-9.688,0.07-14.532,0.15c-0.848,0-1.633,0.316-1.686,1.367c-0.115,0.775,0.424,1.5,1.19,1.614
		c0.132,0.019,0.266,0.019,0.396,0L586.451,41.192z M230.919,97.266c1.984-1.534,3.909-3.142,5.902-4.658
		c8.647-6.636,15.019-15.178,20.269-24.557c6.653-11.867,8.522-24.652,7.022-38.1c-1.227-10.854-5.072-20.437-13.332-27.944
		c-0.987-0.909-2.003-1.589-3.493-1.227c-0.521,1.227,0.265,2.038,0.838,2.912c1.262,1.888,2.788,3.635,3.812,5.646
		c2.718,5.303,3.336,11.047,3.345,16.906c-0.034,7.676-0.883,15.326-2.531,22.817c-1.801,8.487-3.346,16.993-6.813,25.05
		c-2.135,4.959-5.188,9.177-8.771,13.095c-2.373,2.594-5.108,4.809-7.711,7.155c-1.007,0.918-2.039,2.038-1.263,3.645
		c1.12,0.291,1.977-0.177,2.708-0.75L230.919,97.266z M656.457,82.415c6.884-1.861,11.833-6.354,15.425-12.405
		c0.449-0.759,0.405-1.525,0.148-2.409c-1.544-1.173-2.532-0.325-3.097,0.937c-0.521,1.059-1.165,2.056-1.933,2.956
		c-4.076,5.197-9.212,8.126-16.06,8.275c-5.806,0.133-7.42-3.731-6.962-7.589c0.529-4.357,1.447-8.682,2.259-13.006
		c0.212-1.155,1.051-1.737,2.295-1.667c7.686,0.441,15.379,0.221,23.064,0.203c2.038,0,3.309-1.095,3.538-3
		c0.44-3.601,0-7.146-2.003-10.253c-3.697-5.709-10.747-8.295-18.187-6.813c-11.224,2.241-21.309,12.688-22.791,24.045
		c-1.756,13.51,8.516,24.997,24.31,20.734L656.457,82.415z M651.438,42.621c2.038-2.179,7.977-2.929,10.438-1.183
		c1.632,1.164,1.729,3.221,1.481,5.057c-0.309,1.87-0.512,3.75-0.627,5.638c-0.035,1.244-0.696,1.897-1.994,1.871
		c-1.8-0.026-3.607,0-5.417,0v0.035h-5.409c-0.997,0-1.94-0.291-1.904-1.447c0.122-3.662,0.812-7.183,3.423-9.971H651.438
		L651.438,42.621z M322.552,67.15c-1.228,3.848-1.959,7.81-2.656,11.778c-0.142,0.813-0.15,1.659,0.662,2.162
		c0.812,0.503,1.588,0.229,2.303-0.158c0.909-0.504,1.765-1.111,2.674-1.693c0.317,0.079,0.626,0.176,0.927,0.291
		c0.521,0.229,1.031,0.477,1.525,0.759c7.791,4.481,15.424,3.671,22.703-1.023c5.903-3.829,7.95-12.494,6.529-19.13
		c-0.266-1.227-1.129-2.259-2.101-3.158c-1.633-1.509-3.608-2.294-5.683-2.798c-4.43-1.059-8.911-1.905-13.332-2.989
		c-2.859-0.697-3.671-3.441-1.959-5.887c2.674-3.803,6.503-5.082,10.933-4.693c1.905,0.168,3.804,0.547,5.364,1.984
		c2.064,1.897,3.336,4.076,3.529,6.9c0.07,0.988,0.557,1.738,1.633,1.879c0.988,0.194,1.959-0.388,2.241-1.35
		c1.138-3.063,1.075-6.425,2.319-9.469c0.079-0.272,0.079-0.572,0-0.847c-0.291-1.395-1.075-2.039-2.443-1.324
		c-0.776,0.406-1.42,1.068-2.26,1.722c-1.984-0.972-3.962-2.073-6.256-2.444c-11.038-1.844-20.515,2.444-22.791,14.268
		c-1.059,5.488,1.332,9.777,6.706,11.7c4.2,1.482,8.567,2.074,12.909,2.824c4.146,0.714,5.708,3.591,3.776,7.314
		c-0.893,1.721-2.269,2.894-3.785,3.962c-3.741,2.61-11.374,2.901-14.991-0.406c-2.895-2.647-3.539-6.026-4.015-9.573
		c-0.15-1.146-0.336-2.294-1.677-2.443c-1.352-0.15-2.393,0.528-2.814,1.86L322.552,67.15z M683.406,80.774
		c1.112-0.573,2.038-1.589,3.529-1.396c0.892,0.521,1.809,1.112,2.771,1.606c6.381,3.281,12.785,2.734,19.023-0.238
		c5.365-2.559,8.277-7.227,9.229-12.909c1.19-7.059,0.617-11.683-8.507-13.772c-4.35-0.997-8.727-1.854-13.085-2.807
		c-2.038-0.45-2.771-1.721-2.427-3.785c0.503-2.99,2.4-4.721,5.038-5.858c4.606-1.985,12.177-1.923,14.568,4.481
		c0.439,1.184,0.512,2.497,0.854,3.725c0.247,0.892,0.715,1.633,1.844,1.668c1.14,0.044,1.959-0.478,2.197-1.447
		c0.776-3.265,1.526-6.547,2.038-9.855c0.247-1.633-1.182-2.339-2.682-1.519c-0.785,0.406-1.456,1.077-2.577,1.244
		c-3.344-2.082-7.173-2.734-11.196-2.576c-8.621,0.344-14.965,5.356-17.064,13.509c-1.395,5.383,0.237,9.266,5.092,11.947
		c2.479,1.314,5.188,2.146,7.984,2.444c2.585,0.344,5.145,0.873,7.712,1.35c3.326,0.618,4.342,4.386,2.231,7.782
		c-2.682,4.306-6.864,5.409-11.506,5.497c-5.117,0.098-8.85-2.797-10.323-7.677c-0.635-2.092-0.6-4.288-1.05-6.389
		c-1.482-0.759-3.035-1.022-3.582,0.662c-1.377,4.146-2.276,8.426-2.683,12.776C680.679,80.986,681.825,81.577,683.406,80.774
		 M61.692,78.039c1.642,4.491,3.952,8.7,6.873,12.485c1.959,2.664,4.2,5.116,6.681,7.306c1.19-0.591,1.518-1.323,1.357-2.329
		c-0.203-1.227-0.882-2.188-1.632-3.105c-4.845-5.867-7.456-12.396-7.342-20.205c0.186-13.827,2.858-27.213,6.272-40.511
		c2.542-9.926,7.456-18.483,15.159-25.35c1.386-1.228,2.814-2.4,4.191-3.626c0.741-0.662,1.059-1.447,0.326-2.427
		c-0.839-0.229-1.526,0.132-2.232,0.563c-3.414,2.102-6.353,4.791-9.273,7.509c-3.645,3.452-6.895,7.301-9.688,11.472
		c-3.291,4.737-6.354,9.645-8.541,15.018c-3.459,8.506-5.532,17.313-5.338,26.56c0.158,5.684,1.236,11.304,3.194,16.642
		L61.692,78.039L61.692,78.039z M3.138,52.522c3.9-0.054,7.8-0.026,11.691-0.026h5.275c0.627,0.75,0.849,1.747,0.602,2.69
		c-0.997,5.304-1.969,10.614-2.921,15.927c-0.106,0.601-0.273,1.358,0.325,1.721c1.544,0.944,3.212,0.538,4.826,0.194
		c1.042-0.222,1.377-1.14,1.482-2.038c0.636-5.472,1.836-10.836,2.912-16.228c0.149-0.794,0.272-1.598,1.139-2.241
		c0.652-0.044,1.446-0.149,2.25-0.158c5.224-0.054,10.455-0.063,15.679-0.149c2.479-0.045,2.561-1.977,2.719-3.741
		c0.158-1.836-1.007-2.383-2.567-2.479c-4.782-0.327-9.582-0.345-14.374-0.054c-1.023,0.07-2.1,0.054-2.858-1.041
		c0.088-0.601,0.178-1.254,0.291-1.896c0.839-4.809,1.703-9.609,2.497-14.418c0.247-1.5,0.31-3.026-1.721-3.459
		c-2.417-0.521-4.104,0.186-4.518,2.224c-1.095,5.32-2.082,10.668-3.026,16.023c-0.282,1.605-0.927,2.444-2.674,2.427
		c-5.136-0.07-10.263-0.053-15.396-0.07c-3.415-0.009-4.076,0.636-4.271,4.007C0.403,51.604,1.153,52.548,3.138,52.522
		 M563.803,35.254c0-1.562-0.099-3.124-0.168-4.686c-0.035-0.706,0-1.475-1.228-1.633c-0.212,0.37-0.44,0.724-0.607,1.095
		c-3.036,6.882-7.156,12.528-15.362,13.632c-0.899,0.124-1.491,0.813-1.262,2.083c1.306,0.582,2.709,1.227,4.139,1.826
		c2.091,0.883,3.873,2.038,4.244,4.525c0.203,1.359,0.335,2.728,0.529,4.076c0.281,1.88-0.106,3.874,0.926,5.815
		c1.5-0.565,1.862-1.88,2.25-3.071c1.854-5.708,5.231-9.882,11.064-11.894c1.43-0.494,3.044-0.697,4.173-1.826
		c-0.369-1.184-0.404-1.191-1.632-1.633C566.821,42.216,563.865,39.957,563.803,35.254"/>
</g>
</svg>
