<?xml version="1.0" encoding="utf-8"?>
<!-- Generator: Adobe Illustrator 15.0.0, SVG Export Plug-In . SVG Version: 6.00 Build 0)  -->
<!DOCTYPE svg PUBLIC "-//W3C//DTD SVG 1.1//EN" "http://www.w3.org/Graphics/SVG/1.1/DTD/svg11.dtd">
<svg version="1.1" id="레이어_1" xmlns="http://www.w3.org/2000/svg" xmlns:xlink="http://www.w3.org/1999/xlink" x="0px"
	 y="0px" width="300px" height="28px" viewBox="0 0 300 28" enable-background="new 0 0 300 28" xml:space="preserve">
<g>
	<path fill="#191919" d="M249.657,0.128c0.995-0.006,1.305,0.013,1.48,0.085c0.127,0.055,0.357,0.085,0.51,0.079
		c0.182-0.013,0.315,0.012,0.382,0.072c0.097,0.085,0.104,0.255,0.066,3.609h-7.703V0.395l1.729-0.03
		c0.952-0.018,1.771-0.055,1.82-0.085c0.048-0.036,0.176-0.078,0.272-0.103c0.098-0.024,0.746-0.043,1.438-0.049H249.657z
		 M36.05,0.316c0.03-0.013,0.103,0.03,0.146,0.091c0.066,0.085,0.085,0.255,0.072,0.716c-0.006,0.333-0.023,1.098-0.036,1.698
		C36.214,3.5,36.182,3.938,36.14,3.974s-1.347,0.055-7.369,0.03l-0.17,0.164c-0.092,0.097-0.164,0.23-0.164,0.303
		c0,0.079-0.055,0.213-0.121,0.304c-0.073,0.097-0.122,0.212-0.122,0.261S28.116,5.29,28.018,5.49
		c-0.103,0.2-0.267,0.442-0.37,0.546c-0.103,0.103-0.182,0.218-0.182,0.255c0,0.042-0.115,0.291-0.249,0.546
		c-0.139,0.261-0.303,0.539-0.363,0.624c-0.066,0.085-0.121,0.194-0.115,0.243c0,0.048-0.055,0.17-0.121,0.272
		c-0.067,0.104-0.122,0.225-0.122,0.273c0.007,0.048-0.048,0.163-0.121,0.255c-0.066,0.097-0.121,0.242-0.121,0.333
		c0,0.098-0.036,0.225-0.091,0.291c-0.049,0.067-0.121,0.23-0.158,0.364c-0.036,0.134-0.085,0.255-0.109,0.273
		c-0.018,0.018-0.108,0.139-0.199,0.272c-0.092,0.134-0.17,0.297-0.17,0.364c0,0.066-0.055,0.188-0.122,0.272
		c-0.066,0.085-0.121,0.17-0.121,0.194c0,0.03-0.109,0.206-0.242,0.395c-0.14,0.206-0.243,0.424-0.243,0.516
		c0,0.103-0.042,0.193-0.109,0.224c-0.054,0.024-0.121,0.122-0.151,0.213c-0.024,0.085-0.085,0.2-0.133,0.248
		c-0.049,0.049-0.092,0.152-0.092,0.225c0.007,0.079-0.048,0.206-0.108,0.291c-0.067,0.085-0.134,0.213-0.158,0.285
		c-0.019,0.079-0.066,0.14-0.097,0.14c-0.037,0-0.079,0.061-0.098,0.134c-0.023,0.079-0.091,0.206-0.157,0.291
		c-0.061,0.085-0.109,0.236-0.109,0.334c0,0.108-0.049,0.23-0.121,0.303c-0.066,0.066-0.121,0.146-0.121,0.182
		c0,0.037-0.055,0.128-0.122,0.213c-0.066,0.084-0.121,0.176-0.121,0.212s-0.061,0.212-0.146,0.395
		c-0.079,0.182-0.194,0.376-0.249,0.425c-0.054,0.048-0.097,0.145-0.091,0.212c0,0.066-0.055,0.176-0.121,0.243
		c-0.066,0.066-0.127,0.182-0.121,0.254c0,0.079-0.055,0.213-0.121,0.304c-0.073,0.097-0.128,0.218-0.122,0.272
		c0,0.061-0.054,0.134-0.121,0.17c-0.066,0.037-0.121,0.085-0.121,0.121c0,0.037-0.055,0.134-0.121,0.225
		c-0.073,0.098-0.121,0.236-0.121,0.322c0,0.084-0.055,0.218-0.122,0.303c-0.066,0.085-0.121,0.213-0.121,0.285
		c0,0.078-0.042,0.158-0.097,0.182c-0.055,0.03-0.164,0.164-0.243,0.304c-0.078,0.146-0.146,0.321-0.146,0.394
		c0,0.079-0.049,0.188-0.109,0.256c-0.055,0.061-0.133,0.169-0.176,0.242c-0.042,0.066-0.103,0.193-0.146,0.279
		c-0.036,0.084-0.182,0.382-0.321,0.66c-0.134,0.273-0.297,0.528-0.357,0.559c-0.062,0.03-0.109,0.14-0.122,0.248
		c-0.012,0.17-0.042,0.207-0.224,0.249c-0.115,0.03-0.868,0.062-1.669,0.067c-0.8,0.012-1.729,0.036-2.062,0.061
		c-0.404,0.032-0.799,0.023-1.183-0.024c-0.334-0.049-1.207-0.073-2.093-0.073c-0.837,0-1.59-0.006-1.687-0.023
		c-0.115-0.019-0.212-0.104-0.327-0.285c-0.092-0.14-0.225-0.371-0.304-0.516c-0.079-0.14-0.14-0.322-0.14-0.406
		c0-0.086-0.103-0.285-0.242-0.455c-0.134-0.17-0.243-0.34-0.243-0.383c0-0.036-0.127-0.261-0.285-0.497
		c-0.157-0.236-0.321-0.461-0.363-0.503c-0.043-0.037-0.079-0.146-0.079-0.243c0.006-0.091-0.049-0.236-0.121-0.333
		c-0.067-0.092-0.121-0.213-0.121-0.273c0.006-0.055-0.055-0.158-0.122-0.225c-0.066-0.066-0.127-0.14-0.121-0.17
		c0-0.023-0.055-0.115-0.121-0.212c-0.073-0.091-0.121-0.23-0.121-0.315s-0.055-0.206-0.122-0.273
		c-0.066-0.066-0.127-0.17-0.121-0.23c0-0.055-0.036-0.139-0.078-0.182c-0.037-0.036-0.146-0.182-0.237-0.315
		s-0.17-0.291-0.17-0.352c0-0.055-0.108-0.292-0.242-0.528s-0.243-0.484-0.243-0.563c0-0.073-0.054-0.219-0.121-0.315
		c-0.066-0.097-0.121-0.225-0.121-0.272c0.006-0.049-0.055-0.158-0.121-0.243c-0.067-0.085-0.121-0.176-0.121-0.212
		c0-0.037-0.055-0.115-0.122-0.183c-0.066-0.066-0.127-0.182-0.121-0.261c0-0.072-0.055-0.206-0.121-0.303
		c-0.073-0.091-0.121-0.188-0.121-0.225c0.006-0.036-0.043-0.104-0.098-0.151c-0.055-0.049-0.163-0.219-0.242-0.383
		c-0.079-0.157-0.146-0.333-0.146-0.394c-0.006-0.055-0.109-0.225-0.243-0.376c-0.157-0.183-0.236-0.334-0.242-0.455
		c0-0.104-0.055-0.261-0.121-0.364c-0.067-0.104-0.122-0.236-0.115-0.304c0-0.066-0.043-0.163-0.098-0.212s-0.17-0.236-0.248-0.412
		c-0.079-0.17-0.146-0.389-0.146-0.485c0.006-0.091-0.037-0.206-0.092-0.255C4.03,8.868,3.915,8.711,3.836,8.565
		C3.757,8.426,3.69,8.262,3.69,8.201c0.006-0.055-0.049-0.176-0.122-0.272c-0.066-0.092-0.121-0.23-0.121-0.315
		c0-0.092-0.048-0.177-0.121-0.213C3.26,7.364,3.205,7.291,3.205,7.23c0.006-0.055-0.049-0.176-0.121-0.272
		C3.016,6.867,2.962,6.745,2.962,6.685c0-0.055-0.055-0.212-0.127-0.346C2.761,6.206,2.659,6.042,2.598,5.976
		c-0.061-0.067-0.225-0.34-0.364-0.606c-0.14-0.268-0.303-0.54-0.37-0.607C1.803,4.695,1.749,4.574,1.755,4.489
		c0-0.085-0.061-0.219-0.127-0.304S1.507,3.979,1.507,3.913s-0.043-0.17-0.104-0.23S1.246,3.543,1.178,3.5
		C1.106,3.452,1.052,3.307,1.015,3.063c-0.03-0.2-0.098-0.406-0.146-0.455C0.821,2.561,0.785,2.476,0.785,2.427
		S0.73,2.263,0.657,2.166C0.591,2.075,0.536,1.984,0.536,1.954C0.542,1.93,0.481,1.856,0.415,1.79
		C0.347,1.724,0.287,1.614,0.294,1.548c0-0.067-0.073-0.219-0.158-0.334C0.035,1.072-0.006,0.955,0.014,0.862
		c0.018-0.073,0.097-0.158,0.17-0.188c0.078-0.03,0.782-0.055,1.564-0.061c1.031,0,1.511-0.024,1.729-0.085
		c0.249-0.066,0.34-0.072,0.516-0.006c0.115,0.042,0.474,0.079,0.789,0.079c0.327,0.006,0.782-0.037,1.062-0.098
		c0.461-0.097,0.509-0.097,0.97,0.013c0.358,0.078,0.619,0.097,1.001,0.072c0.285-0.018,0.637-0.006,0.789,0.019
		c0.163,0.036,0.34,0.121,0.448,0.225c0.091,0.091,0.237,0.315,0.315,0.485c0.079,0.176,0.146,0.394,0.146,0.484
		C9.507,1.899,9.561,2.045,9.635,2.136c0.066,0.097,0.121,0.188,0.121,0.212C9.75,2.378,9.81,2.451,9.877,2.518
		c0.066,0.067,0.127,0.194,0.121,0.285c0,0.098,0.043,0.213,0.091,0.261c0.049,0.049,0.109,0.164,0.134,0.255
		c0.03,0.085,0.085,0.176,0.127,0.194c0.049,0.019,0.152,0.188,0.231,0.37c0.084,0.182,0.151,0.412,0.151,0.516
		c0,0.103,0.036,0.225,0.085,0.272c0.042,0.049,0.151,0.219,0.236,0.376c0.085,0.164,0.157,0.346,0.157,0.413
		c0,0.066,0.055,0.23,0.122,0.363l0.242,0.485c0.066,0.134,0.121,0.279,0.121,0.315c-0.006,0.043,0.049,0.151,0.122,0.243
		c0.072,0.103,0.121,0.267,0.121,0.394c0,0.128,0.055,0.31,0.121,0.413c0.066,0.103,0.121,0.225,0.121,0.272
		c-0.006,0.049,0.055,0.146,0.121,0.213c0.067,0.066,0.128,0.163,0.122,0.212c0,0.049,0.055,0.17,0.121,0.272
		c0.066,0.104,0.121,0.249,0.121,0.334s0.079,0.261,0.17,0.395c0.091,0.133,0.182,0.255,0.206,0.272
		c0.024,0.019,0.067,0.158,0.104,0.315c0.036,0.164,0.115,0.395,0.182,0.516c0.061,0.128,0.158,0.273,0.213,0.321
		c0.054,0.049,0.103,0.146,0.097,0.213c0,0.066,0.055,0.188,0.121,0.272s0.121,0.23,0.121,0.334s0.043,0.249,0.104,0.334
		c0.061,0.084,0.17,0.278,0.242,0.437c0.079,0.163,0.188,0.406,0.255,0.546c0.061,0.146,0.158,0.357,0.213,0.473
		s0.146,0.261,0.188,0.315c0.079,0.098,0.115,0.098,0.255,0.03c0.097-0.042,0.182-0.146,0.212-0.255
		c0.03-0.097,0.146-0.297,0.261-0.442c0.115-0.14,0.213-0.321,0.213-0.406s0.072-0.31,0.164-0.504
		c0.091-0.188,0.2-0.382,0.242-0.424c0.042-0.037,0.079-0.128,0.079-0.194c0-0.067,0.055-0.194,0.121-0.291
		c0.073-0.092,0.121-0.243,0.121-0.346c0-0.109,0.049-0.23,0.121-0.304c0.067-0.066,0.122-0.176,0.122-0.242
		c0-0.067,0.055-0.188,0.121-0.273s0.121-0.194,0.121-0.242c0-0.049,0.049-0.188,0.109-0.304c0.066-0.115,0.134-0.291,0.157-0.395
		c0.024-0.103,0.067-0.193,0.092-0.212c0.023-0.019,0.115-0.157,0.206-0.321c0.091-0.158,0.163-0.352,0.163-0.437
		s0.073-0.298,0.164-0.474c0.091-0.17,0.2-0.352,0.243-0.395c0.042-0.036,0.078-0.121,0.078-0.176c0-0.061,0.055-0.188,0.122-0.291
		c0.066-0.103,0.121-0.255,0.121-0.352c0-0.104,0.091-0.279,0.242-0.467c0.14-0.17,0.243-0.37,0.243-0.455s0.072-0.279,0.157-0.443
		c0.085-0.157,0.194-0.327,0.236-0.376c0.049-0.048,0.085-0.146,0.085-0.212s0.061-0.188,0.128-0.273
		c0.085-0.103,0.127-0.236,0.121-0.412c0-0.194,0.03-0.267,0.121-0.315c0.081-0.04,0.121-0.121,0.121-0.242
		c0-0.122,0.041-0.202,0.122-0.243c0.078-0.036,0.121-0.121,0.121-0.23c0-0.091,0.055-0.242,0.121-0.346
		c0.066-0.103,0.121-0.255,0.121-0.352c0-0.091,0.037-0.2,0.073-0.242c0.042-0.037,0.151-0.183,0.242-0.315
		c0.091-0.134,0.17-0.322,0.17-0.425c0-0.128,0.061-0.23,0.395-0.516h3.53c3.476,0,3.536,0,3.597-0.121
		c0.061-0.122,0.127-0.122,3.803-0.14C34.302,0.341,36.013,0.328,36.05,0.316 M220.592,0.341c0.219,0.012,0.418,0.042,0.442,0.066
		c0.03,0.024,0.055,0.813,0.055,1.747c0.006,0.934-0.012,1.734-0.03,1.776c-0.036,0.055-0.831,0.073-7.327,0.073l-0.206,0.212
		c-0.164,0.164-0.212,0.261-0.212,0.425c0,0.115-0.061,0.328-0.14,0.467c-0.079,0.146-0.243,0.37-0.364,0.504
		c-0.164,0.176-0.225,0.297-0.225,0.437s-0.072,0.291-0.242,0.504c-0.134,0.163-0.243,0.339-0.243,0.376
		c0,0.042-0.054,0.157-0.121,0.261c-0.066,0.103-0.121,0.248-0.121,0.333s-0.066,0.249-0.151,0.364s-0.2,0.23-0.243,0.255
		c-0.048,0.03-0.091,0.115-0.091,0.2s-0.072,0.297-0.164,0.467c-0.091,0.176-0.2,0.358-0.242,0.395
		c-0.043,0.042-0.079,0.115-0.079,0.151c0.006,0.043-0.048,0.151-0.121,0.243c-0.066,0.097-0.121,0.218-0.127,0.272
		c0,0.061-0.079,0.243-0.177,0.412c-0.097,0.164-0.261,0.468-0.363,0.668c-0.104,0.2-0.183,0.388-0.183,0.424
		c0,0.037-0.054,0.115-0.121,0.183c-0.066,0.066-0.121,0.146-0.121,0.182s-0.049,0.134-0.121,0.225
		c-0.067,0.097-0.121,0.225-0.121,0.291s-0.128,0.358-0.285,0.649c-0.152,0.297-0.315,0.601-0.364,0.686
		c-0.043,0.084-0.079,0.224-0.079,0.314c0,0.109-0.091,0.285-0.242,0.474c-0.134,0.163-0.243,0.352-0.243,0.406
		c0.007,0.061-0.048,0.182-0.121,0.272c-0.066,0.098-0.121,0.183-0.121,0.201c0,0.018-0.109,0.163-0.243,0.333
		c-0.169,0.212-0.242,0.358-0.242,0.497c0,0.128-0.042,0.243-0.121,0.304c-0.067,0.061-0.121,0.17-0.121,0.242
		c0.006,0.079-0.055,0.194-0.122,0.261c-0.066,0.067-0.127,0.158-0.121,0.194c0,0.042-0.055,0.151-0.121,0.243
		c-0.073,0.097-0.121,0.236-0.121,0.321s-0.049,0.224-0.122,0.315c-0.066,0.097-0.121,0.193-0.121,0.23
		c0,0.036-0.055,0.085-0.121,0.121c-0.085,0.043-0.121,0.121-0.121,0.255c0,0.108-0.043,0.267-0.091,0.352
		c-0.049,0.085-0.109,0.206-0.146,0.272c-0.031,0.067-0.152,0.213-0.273,0.316c-0.121,0.109-0.219,0.242-0.219,0.291
		s-0.054,0.164-0.121,0.254c-0.072,0.098-0.127,0.219-0.121,0.273c0,0.061-0.109,0.315-0.242,0.564
		c-0.164,0.303-0.243,0.527-0.243,0.68c0.006,0.145-0.036,0.266-0.097,0.32c-0.085,0.079-0.546,0.098-2.93,0.134
		c-1.553,0.024-2.966,0.042-3.13,0.042c-0.17,0.007-0.904-0.006-1.638-0.018c-0.801-0.012-1.401-0.049-1.504-0.091
		c-0.109-0.042-0.164-0.109-0.164-0.206c0.006-0.073-0.055-0.188-0.121-0.255c-0.067-0.067-0.128-0.17-0.122-0.23
		c0-0.055-0.108-0.243-0.242-0.407c-0.206-0.254-0.243-0.346-0.243-0.594c-0.006-0.182-0.048-0.357-0.133-0.498
		c-0.073-0.115-0.182-0.248-0.243-0.291c-0.061-0.036-0.108-0.115-0.108-0.163c0-0.049-0.037-0.128-0.079-0.17
		c-0.043-0.036-0.158-0.23-0.255-0.425c-0.104-0.2-0.23-0.4-0.291-0.455c-0.061-0.061-0.109-0.139-0.104-0.182
		c0-0.036-0.055-0.176-0.121-0.303c-0.066-0.122-0.121-0.311-0.121-0.407s-0.043-0.236-0.091-0.303
		c-0.055-0.067-0.219-0.31-0.364-0.546c-0.151-0.236-0.272-0.479-0.272-0.546c0-0.067-0.109-0.267-0.243-0.443
		c-0.134-0.169-0.242-0.364-0.242-0.425c0-0.055-0.037-0.157-0.092-0.224c-0.048-0.067-0.121-0.23-0.157-0.364
		c-0.036-0.133-0.085-0.255-0.109-0.272c-0.018-0.019-0.115-0.176-0.206-0.353c-0.091-0.169-0.164-0.363-0.164-0.424
		c0.007-0.055-0.042-0.146-0.097-0.194s-0.2-0.267-0.321-0.479c-0.122-0.212-0.237-0.394-0.268-0.406
		c-0.023-0.012-0.042-0.127-0.042-0.255c0-0.163-0.066-0.315-0.242-0.576c-0.134-0.188-0.243-0.4-0.243-0.467
		s-0.091-0.273-0.2-0.461c-0.103-0.188-0.212-0.352-0.242-0.364c-0.024-0.012-0.043-0.085-0.043-0.163
		c0.006-0.073-0.055-0.188-0.121-0.255c-0.066-0.067-0.127-0.194-0.121-0.291c0-0.092-0.109-0.358-0.243-0.589
		c-0.133-0.23-0.242-0.442-0.242-0.473c0.006-0.024-0.036-0.085-0.091-0.134c-0.049-0.049-0.109-0.164-0.122-0.261
		c-0.018-0.091-0.066-0.182-0.115-0.212c-0.048-0.024-0.157-0.17-0.242-0.334c-0.085-0.158-0.157-0.327-0.157-0.376
		s-0.109-0.23-0.243-0.395c-0.134-0.17-0.242-0.34-0.242-0.382c0.006-0.036-0.055-0.128-0.122-0.194
		c-0.066-0.066-0.127-0.188-0.121-0.272c0-0.085-0.109-0.31-0.242-0.504c-0.134-0.188-0.243-0.4-0.243-0.467
		c0-0.067-0.14-0.4-0.303-0.746c-0.17-0.34-0.328-0.661-0.352-0.71c-0.031-0.049-0.109-0.206-0.183-0.352
		c-0.072-0.14-0.133-0.315-0.133-0.395c0-0.072-0.098-0.236-0.213-0.363c-0.115-0.122-0.23-0.298-0.255-0.395
		c-0.024-0.091-0.146-0.279-0.272-0.425c-0.188-0.212-0.23-0.297-0.23-0.516c0-0.14,0.024-0.285,0.048-0.321
		c0.024-0.036,0.122-0.085,0.225-0.109c0.098-0.024,2.074-0.042,4.38-0.042c2.311,0.006,4.228,0.018,4.264,0.036
		c0.03,0.019,0.061,0.079,0.061,0.134c-0.006,0.061,0.049,0.176,0.109,0.261c0.066,0.085,0.14,0.218,0.164,0.303
		c0.023,0.085,0.066,0.164,0.085,0.182c0.023,0.019,0.115,0.177,0.206,0.347c0.091,0.176,0.163,0.382,0.163,0.454
		c-0.006,0.079,0.055,0.194,0.122,0.261c0.066,0.067,0.121,0.164,0.121,0.213c0,0.048,0.055,0.146,0.121,0.212
		c0.066,0.067,0.128,0.188,0.128,0.273s0.078,0.285,0.176,0.455c0.097,0.163,0.261,0.473,0.363,0.679
		c0.098,0.213,0.183,0.455,0.183,0.546c-0.007,0.098,0.055,0.225,0.121,0.291c0.066,0.067,0.121,0.146,0.121,0.183
		c0,0.036,0.049,0.133,0.121,0.224c0.067,0.098,0.122,0.23,0.122,0.304c0,0.079,0.054,0.249,0.121,0.382
		c0.066,0.134,0.121,0.298,0.121,0.364s0.055,0.176,0.121,0.242c0.067,0.067,0.121,0.177,0.121,0.243s0.055,0.176,0.122,0.242
		c0.072,0.073,0.121,0.194,0.121,0.304c0,0.103,0.049,0.248,0.115,0.333c0.061,0.085,0.225,0.364,0.364,0.619
		c0.133,0.261,0.248,0.552,0.248,0.655c0,0.103,0.067,0.297,0.146,0.437c0.079,0.146,0.194,0.304,0.249,0.352
		c0.055,0.049,0.097,0.151,0.091,0.225c0,0.079,0.055,0.242,0.115,0.364c0.066,0.127,0.146,0.297,0.182,0.382
		c0.037,0.085,0.092,0.194,0.122,0.242c0.03,0.049,0.108,0.213,0.182,0.364c0.066,0.151,0.127,0.358,0.127,0.455
		c0,0.127,0.067,0.249,0.243,0.425c0.127,0.133,0.236,0.285,0.236,0.333c0,0.049,0.055,0.164,0.128,0.255
		c0.066,0.098,0.121,0.236,0.121,0.321s0.024,0.207,0.061,0.273s0.121,0.121,0.194,0.121c0.108,0,0.176-0.072,0.303-0.334
		c0.098-0.182,0.17-0.376,0.17-0.424c0-0.049,0.066-0.206,0.146-0.353c0.079-0.139,0.194-0.297,0.249-0.346
		c0.055-0.048,0.097-0.157,0.097-0.242s0.049-0.249,0.109-0.364s0.146-0.278,0.182-0.363c0.037-0.085,0.092-0.194,0.122-0.243
		c0.023-0.048,0.108-0.218,0.182-0.382c0.066-0.158,0.127-0.382,0.127-0.497c0-0.128,0.104-0.413,0.249-0.716
		c0.14-0.273,0.304-0.601,0.364-0.729c0.061-0.121,0.115-0.261,0.115-0.303c-0.007-0.036,0.055-0.128,0.121-0.194
		s0.121-0.164,0.121-0.212c0-0.049,0.055-0.158,0.121-0.243c0.067-0.085,0.122-0.218,0.122-0.303s0.054-0.207,0.121-0.273
		c0.066-0.066,0.127-0.176,0.127-0.242c-0.006-0.067,0.049-0.176,0.109-0.243c0.061-0.066,0.164-0.267,0.236-0.442
		c0.073-0.17,0.134-0.395,0.134-0.497c0-0.104,0.036-0.219,0.072-0.262c0.043-0.036,0.152-0.182,0.243-0.314
		c0.091-0.134,0.17-0.298,0.17-0.364c-0.006-0.066,0.055-0.188,0.121-0.273s0.127-0.176,0.121-0.212c0-0.036,0.079-0.17,0.17-0.304
		c0.091-0.133,0.188-0.261,0.225-0.285c0.03-0.023,0.066-0.199,0.079-0.394c0.012-0.255,0.048-0.389,0.14-0.474
		c0.066-0.066,0.121-0.17,0.115-0.23c0-0.055,0.054-0.176,0.121-0.272c0.072-0.091,0.127-0.213,0.121-0.273
		c0-0.055,0.085-0.272,0.188-0.485c0.097-0.206,0.218-0.431,0.254-0.503c0.043-0.066,0.2-0.249,0.649-0.661l3.409-0.019
		c3.281-0.018,3.421-0.024,3.536-0.133c0.115-0.115,0.261-0.122,3.487-0.14C218.681,0.334,220.373,0.334,220.592,0.341
		 M63.277,0.364c2.075,0,3.791,0.024,3.828,0.049c0.036,0.024,0.066,0.704,0.072,1.753c0.019,1.662,0.012,1.717-0.104,1.777
		c-0.078,0.036-1.438,0.055-7.479,0.03L59.45,3.7c-0.133-0.261-0.14-0.327-0.151-1.691c-0.006-1.305,0-1.432,0.103-1.535
		C59.505,0.371,59.711,0.364,63.277,0.364 M126.79,1.602c1.098,0.013,1.631,0.037,1.759,0.092c0.097,0.042,0.467,0.091,0.818,0.108
		c0.576,0.03,0.68,0.055,1.122,0.261c0.268,0.128,0.595,0.249,0.729,0.268c0.133,0.018,0.255,0.061,0.272,0.091
		c0.019,0.03,0.267,0.176,0.559,0.334c0.297,0.151,0.612,0.278,0.715,0.278c0.122,0,0.203,0.041,0.243,0.121
		c0.036,0.067,0.121,0.122,0.194,0.122c0.078-0.007,0.193,0.055,0.261,0.121c0.066,0.066,0.176,0.121,0.242,0.121
		c0.067,0,0.34,0.151,0.606,0.346c0.261,0.194,0.589,0.461,0.729,0.595c0.133,0.133,0.321,0.279,0.412,0.315
		c0.091,0.042,0.164,0.103,0.164,0.14c0,0.036,0.146,0.206,0.315,0.382c0.176,0.176,0.601,0.619,0.946,0.982
		c0.533,0.576,0.637,0.655,0.728,0.595c0.055-0.036,0.097-0.098,0.085-0.134c-0.006-0.036-0.019-0.182-0.019-0.327
		c-0.012-0.23,0.013-0.273,0.255-0.479c0.225-0.194,0.31-0.225,0.552-0.23c0.23,0,0.304,0.024,0.353,0.121
		c0.036,0.079,0.121,0.122,0.224,0.122c0.109,0.006,0.207-0.043,0.37-0.273l0.249,0.14c0.14,0.072,0.291,0.121,0.34,0.104
		c0.048-0.019,0.091-0.055,0.091-0.092c0-0.036,0.066-0.072,0.151-0.091c0.091-0.018,0.243,0.019,0.376,0.104
		c0.213,0.121,0.285,0.127,0.929,0.097c0.424-0.024,0.788-0.079,0.922-0.134c0.133-0.054,0.406-0.097,0.637-0.097
		c0.297,0,0.479,0.036,0.637,0.121c0.182,0.098,0.346,0.122,0.788,0.122c0.31,0,0.595,0.023,0.638,0.048
		c0.061,0.03,0.061,0.249,0.023,0.922c-0.023,0.485-0.023,0.929,0,0.989c0.03,0.055,0.092,0.103,0.128,0.103
		c0.042,0,0.164-0.03,0.267-0.072c0.104-0.043,0.273-0.183,0.376-0.304c0.128-0.151,0.243-0.23,0.346-0.23
		c0.085,0,0.164-0.024,0.183-0.061c0.018-0.036,0.151-0.14,0.303-0.242c0.151-0.104,0.291-0.183,0.315-0.183
		c0.03,0.007,0.104-0.055,0.17-0.121s0.188-0.121,0.273-0.121c0.084,0,0.206-0.043,0.272-0.091c0.066-0.049,0.225-0.158,0.346-0.243
		c0.127-0.085,0.321-0.151,0.425-0.151c0.109-0.006,0.31-0.055,0.442-0.121c0.134-0.067,0.346-0.115,0.467-0.121
		c0.128,0,0.334-0.055,0.455-0.122c0.146-0.078,0.346-0.121,0.534-0.121c0.176,0,0.418-0.049,0.576-0.115
		c0.255-0.115,0.406-0.127,2.456-0.127c2.068,0,2.196,0.006,2.408,0.121c0.128,0.066,0.304,0.121,0.395,0.121
		c0.097,0,0.304,0.055,0.473,0.128c0.285,0.121,0.377,0.127,1.517,0.103c0.965-0.018,1.262-0.049,1.438-0.127
		c0.128-0.055,0.358-0.104,0.516-0.104c0.219-0.006,0.321,0.03,0.413,0.121c0.091,0.098,0.193,0.128,0.424,0.122
		c0.2,0,0.364-0.043,0.485-0.122c0.098-0.066,0.273-0.121,0.376-0.121c0.134,0,0.236,0.043,0.304,0.128
		c0.061,0.072,0.182,0.218,0.267,0.321c0.085,0.103,0.188,0.248,0.23,0.327c0.036,0.073,0.066,0.176,0.066,0.225
		s0.109,0.23,0.243,0.395c0.14,0.17,0.242,0.37,0.242,0.454c0,0.085,0.061,0.268,0.14,0.413c0.073,0.14,0.236,0.395,0.364,0.558
		c0.127,0.17,0.225,0.358,0.225,0.425s0.036,0.176,0.085,0.242c0.042,0.067,0.206,0.358,0.363,0.655
		c0.152,0.291,0.279,0.589,0.279,0.668c-0.006,0.072,0.055,0.188,0.121,0.254c0.067,0.067,0.121,0.176,0.121,0.243
		c0,0.066,0.055,0.176,0.122,0.242c0.085,0.079,0.121,0.194,0.121,0.334c0,0.121,0.049,0.279,0.121,0.382
		c0.066,0.091,0.121,0.23,0.121,0.315s0.037,0.17,0.085,0.2c0.049,0.024,0.158,0.17,0.243,0.334
		c0.085,0.157,0.157,0.333,0.157,0.394c0.006,0.055,0.109,0.225,0.243,0.377c0.133,0.151,0.236,0.309,0.242,0.352
		c0,0.036,0.055,0.146,0.121,0.242c0.073,0.091,0.122,0.219,0.122,0.285s0.066,0.182,0.151,0.261
		c0.085,0.073,0.17,0.134,0.194,0.134c0.03,0,0.121-0.079,0.218-0.17c0.091-0.092,0.164-0.225,0.164-0.304
		c0-0.072,0.061-0.248,0.14-0.394c0.072-0.14,0.182-0.322,0.242-0.406c0.055-0.085,0.104-0.225,0.104-0.322
		c0-0.091,0.072-0.291,0.157-0.454c0.085-0.158,0.194-0.328,0.236-0.377c0.049-0.048,0.085-0.133,0.085-0.182
		s0.062-0.146,0.128-0.212c0.066-0.067,0.121-0.188,0.121-0.273c-0.006-0.085,0.036-0.194,0.091-0.242
		c0.055-0.049,0.17-0.206,0.249-0.352c0.079-0.14,0.146-0.298,0.146-0.347c0-0.048,0.055-0.163,0.121-0.261
		c0.073-0.091,0.121-0.218,0.121-0.285c0-0.066,0.055-0.176,0.122-0.242c0.066-0.066,0.127-0.14,0.121-0.17
		c0-0.024,0.055-0.115,0.121-0.212c0.073-0.091,0.128-0.225,0.121-0.304c0-0.072,0.073-0.261,0.158-0.425
		c0.085-0.157,0.194-0.327,0.236-0.376c0.049-0.048,0.091-0.133,0.091-0.182s0.055-0.17,0.121-0.273
		c0.067-0.103,0.122-0.248,0.122-0.333s0.061-0.236,0.133-0.34c0.079-0.104,0.188-0.23,0.243-0.285
		c0.061-0.061,0.109-0.164,0.109-0.242c0-0.073,0.078-0.298,0.176-0.498c0.097-0.2,0.236-0.412,0.303-0.473
		c0.098-0.079,0.158-0.091,0.249-0.043c0.066,0.037,0.188,0.062,0.272,0.062s0.285-0.055,0.455-0.122
		c0.213-0.085,0.449-0.121,0.771-0.121c0.346,0,0.546,0.03,0.746,0.115c0.194,0.091,0.406,0.128,0.728,0.128
		c0.353,0,0.498-0.03,0.637-0.122c0.098-0.066,0.262-0.121,0.364-0.121c0.097-0.006,0.255,0.049,0.346,0.121
		c0.121,0.085,0.261,0.122,0.485,0.122c0.188-0.007,0.425-0.055,0.564-0.122c0.133-0.066,0.285-0.115,0.333-0.121
		c0.049,0,0.17,0.043,0.273,0.091c0.121,0.067,0.352,0.091,0.697,0.091c0.285,0,0.625-0.03,0.758-0.054
		c0.188-0.043,0.304-0.031,0.516,0.054c0.243,0.092,0.273,0.128,0.291,0.31c0.013,0.17-0.03,0.255-0.23,0.461
		c-0.133,0.146-0.242,0.304-0.242,0.352c0,0.049-0.109,0.207-0.242,0.353c-0.134,0.14-0.243,0.291-0.243,0.333
		c0,0.037-0.055,0.122-0.121,0.183c-0.066,0.055-0.121,0.17-0.121,0.255s-0.055,0.218-0.122,0.303
		c-0.066,0.085-0.121,0.176-0.121,0.212c0,0.037-0.055,0.116-0.121,0.183s-0.121,0.188-0.121,0.272
		c0.006,0.085-0.036,0.194-0.091,0.243c-0.049,0.048-0.109,0.157-0.128,0.242c-0.018,0.085-0.14,0.249-0.272,0.364
		c-0.188,0.17-0.23,0.255-0.23,0.425c0,0.121-0.055,0.285-0.128,0.382c-0.066,0.091-0.121,0.225-0.121,0.304
		c0.006,0.072-0.055,0.188-0.121,0.254c-0.067,0.067-0.121,0.146-0.121,0.183c0,0.036-0.049,0.133-0.122,0.23
		c-0.066,0.091-0.121,0.2-0.121,0.242c0,0.036-0.049,0.14-0.103,0.219c-0.062,0.079-0.17,0.2-0.243,0.272
		c-0.072,0.073-0.134,0.188-0.14,0.261c0,0.079-0.109,0.285-0.242,0.455c-0.134,0.176-0.243,0.34-0.243,0.364
		c0,0.03-0.055,0.121-0.121,0.218c-0.072,0.092-0.127,0.225-0.121,0.304c0,0.073-0.109,0.272-0.243,0.437
		c-0.133,0.17-0.242,0.352-0.242,0.413c0.006,0.054-0.055,0.157-0.121,0.224c-0.067,0.067-0.128,0.183-0.121,0.261
		c0,0.073-0.104,0.242-0.243,0.395c-0.133,0.14-0.242,0.303-0.242,0.363c0,0.055-0.055,0.177-0.122,0.273
		c-0.072,0.091-0.127,0.213-0.121,0.273c0,0.055-0.042,0.121-0.097,0.151c-0.055,0.024-0.164,0.157-0.243,0.304
		c-0.078,0.139-0.146,0.309-0.146,0.375c0,0.067-0.146,0.304-0.321,0.534c-0.182,0.225-0.346,0.503-0.37,0.618
		s-0.078,0.256-0.127,0.304c-0.049,0.049-0.14,0.188-0.206,0.304c-0.061,0.115-0.194,0.376-0.298,0.576
		c-0.103,0.2-0.23,0.406-0.285,0.455c-0.054,0.049-0.097,0.115-0.091,0.151c0,0.036-0.048,0.128-0.109,0.212
		c-0.061,0.085-0.133,0.219-0.151,0.304c-0.018,0.085-0.133,0.255-0.248,0.382c-0.122,0.121-0.219,0.261-0.219,0.304
		c0.006,0.036-0.049,0.146-0.121,0.242c-0.067,0.091-0.122,0.225-0.122,0.304c0,0.078-0.097,0.218-0.242,0.346
		c-0.164,0.146-0.242,0.261-0.236,0.363c0,0.086-0.043,0.194-0.098,0.243c-0.054,0.048-0.115,0.146-0.133,0.212
		c-0.019,0.066-0.134,0.242-0.261,0.395c-0.128,0.151-0.243,0.334-0.268,0.412c-0.018,0.073-0.516,0.613-1.098,1.195
		s-1.152,1.098-1.262,1.146c-0.103,0.049-0.236,0.127-0.285,0.182c-0.048,0.055-0.133,0.104-0.182,0.098
		c-0.049,0-0.157,0.048-0.242,0.108c-0.085,0.067-0.292,0.177-0.455,0.249c-0.17,0.072-0.395,0.127-0.504,0.127
		c-0.103,0-0.267,0.055-0.363,0.121c-0.092,0.073-0.23,0.128-0.315,0.128s-0.261,0.049-0.395,0.115
		c-0.23,0.109-0.406,0.115-2.941,0.121c-1.486,0-3.3,0.03-4.034,0.062c-1.134,0.048-1.364,0.042-1.534-0.031
		c-0.158-0.072-0.194-0.127-0.194-0.285c0-0.109-0.055-0.285-0.121-0.382c-0.067-0.097-0.121-0.243-0.121-0.315
		c0-0.078,0.054-0.242,0.121-0.363c0.115-0.219,0.121-0.346,0.121-2.032c0-1.062-0.024-1.868-0.061-1.96
		c-0.049-0.121-0.043-0.163,0.042-0.205c0.061-0.031,0.983-0.067,2.051-0.086c1.34-0.023,2.093-0.066,2.426-0.127
		c0.267-0.055,0.576-0.098,0.68-0.098c0.14,0,0.267-0.061,0.425-0.205c0.127-0.109,0.291-0.23,0.363-0.273
		c0.128-0.061,0.14-0.109,0.14-0.595c0-0.479-0.019-0.558-0.164-0.776c-0.085-0.133-0.182-0.254-0.2-0.272
		c-0.023-0.019-0.133-0.194-0.236-0.395c-0.109-0.2-0.285-0.461-0.4-0.576s-0.212-0.272-0.212-0.346
		c0-0.079-0.036-0.176-0.079-0.212c-0.049-0.043-0.103-0.146-0.134-0.23c-0.023-0.086-0.151-0.334-0.278-0.559
		c-0.134-0.23-0.236-0.437-0.236-0.473c0-0.037-0.055-0.134-0.122-0.23c-0.072-0.092-0.236-0.31-0.363-0.485
		c-0.134-0.17-0.243-0.382-0.243-0.468c0-0.09-0.048-0.176-0.121-0.212c-0.066-0.036-0.121-0.121-0.121-0.2
		c0.006-0.072-0.055-0.188-0.121-0.255c-0.067-0.066-0.128-0.157-0.122-0.2c0-0.036-0.072-0.218-0.163-0.395
		c-0.092-0.169-0.292-0.479-0.443-0.679c-0.157-0.2-0.321-0.431-0.363-0.516c-0.043-0.085-0.115-0.17-0.158-0.2
		c-0.049-0.024-0.085-0.091-0.085-0.151c0-0.055-0.055-0.188-0.121-0.285s-0.121-0.255-0.121-0.352c0-0.104-0.085-0.261-0.243-0.437
		c-0.133-0.152-0.242-0.328-0.242-0.395s-0.121-0.279-0.273-0.474c-0.146-0.188-0.309-0.394-0.363-0.454
		c-0.049-0.055-0.14-0.098-0.2-0.085c-0.092,0.012-0.109,0.121-0.164,1.892l-0.334,0.019c-0.23,0.013-0.418-0.019-0.624-0.109
		c-0.268-0.108-0.407-0.121-1.972-0.121c-1.419,0-1.783,0.019-2.348,0.121c-0.37,0.067-0.848,0.122-1.079,0.122
		c-0.273,0-0.51,0.042-0.729,0.127c-0.17,0.072-0.467,0.194-0.648,0.279c-0.183,0.085-0.406,0.188-0.504,0.236
		c-0.091,0.049-0.218,0.085-0.285,0.085c-0.066,0-0.242,0.103-0.388,0.23c-0.151,0.121-0.37,0.291-0.485,0.376
		c-0.121,0.085-0.23,0.219-0.249,0.304c-0.018,0.084-0.091,0.261-0.163,0.394c-0.067,0.134-0.23,0.364-0.353,0.516
		c-0.218,0.267-0.224,0.291-0.267,0.91c-0.019,0.352-0.066,0.746-0.103,0.879c-0.049,0.158-0.079,1.11-0.092,2.639
		c-0.012,1.316-0.042,2.414-0.066,2.433c-0.03,0.024-0.2,0.072-0.382,0.115c-0.183,0.042-0.485,0.072-0.667,0.072
		c-0.183-0.006-1.25-0.036-2.366-0.066c-1.116-0.036-2.39-0.049-2.82-0.03c-0.437,0.018-0.88,0.061-0.988,0.091
		c-0.146,0.042-0.23,0.03-0.346-0.036c-0.14-0.085-0.152-0.115-0.115-0.443c0.023-0.188,0.048-0.382,0.061-0.424
		c0.012-0.043-0.03-0.073-0.115-0.073c-0.079,0-0.164,0.055-0.206,0.134c-0.043,0.078-0.152,0.182-0.237,0.23
		c-0.091,0.049-0.2,0.182-0.248,0.285c-0.043,0.109-0.098,0.199-0.128,0.199c-0.024,0-0.157,0.115-0.297,0.256
		c-0.14,0.145-0.57,0.582-0.952,0.97c-0.528,0.534-0.74,0.716-0.855,0.716c-0.085,0-0.17,0.043-0.2,0.098
		c-0.024,0.055-0.164,0.163-0.315,0.248s-0.327,0.2-0.395,0.261c-0.066,0.062-0.212,0.122-0.321,0.146
		c-0.103,0.019-0.321,0.121-0.485,0.23c-0.157,0.109-0.4,0.262-0.546,0.334c-0.14,0.079-0.327,0.14-0.425,0.14
		c-0.091,0-0.248,0.055-0.346,0.121c-0.103,0.067-0.224,0.121-0.272,0.121c-0.049-0.006-0.164,0.049-0.261,0.122
		c-0.091,0.066-0.255,0.121-0.376,0.121c-0.115,0-0.315,0.055-0.443,0.121c-0.157,0.085-0.339,0.121-0.618,0.121
		c-0.219,0-0.601,0.055-0.85,0.121c-0.248,0.067-0.57,0.121-0.716,0.121c-0.139,0-0.357,0.055-0.485,0.122
		c-0.199,0.108-0.339,0.121-1.346,0.121c-0.983-0.006-1.146-0.019-1.305-0.115c-0.103-0.061-0.412-0.146-0.697-0.182
		c-0.285-0.043-0.631-0.097-0.776-0.128c-0.14-0.036-0.327-0.061-0.425-0.061c-0.091,0-0.267-0.055-0.395-0.121
		c-0.121-0.066-0.291-0.121-0.376-0.121s-0.242-0.055-0.352-0.121c-0.103-0.067-0.261-0.122-0.346-0.122
		c-0.085,0.007-0.206-0.054-0.272-0.121c-0.079-0.079-0.194-0.128-0.334-0.121c-0.115,0-0.297-0.055-0.395-0.122
		c-0.103-0.066-0.225-0.121-0.272-0.121c-0.049,0-0.2-0.097-0.334-0.206c-0.133-0.108-0.34-0.23-0.455-0.261
		s-0.255-0.085-0.303-0.127c-0.049-0.037-0.213-0.182-0.364-0.315c-0.151-0.14-0.34-0.267-0.425-0.285
		c-0.085-0.024-0.278-0.17-0.431-0.321c-0.151-0.152-0.431-0.413-0.618-0.576c-0.194-0.17-0.406-0.328-0.474-0.364
		c-0.066-0.036-0.133-0.115-0.151-0.183c-0.024-0.066-0.127-0.218-0.236-0.333c-0.115-0.115-0.382-0.4-0.606-0.637
		c-0.219-0.237-0.395-0.468-0.395-0.516c0.006-0.049-0.036-0.128-0.091-0.17c-0.049-0.036-0.146-0.061-0.213-0.042
		c-0.066,0.018-0.121,0.066-0.121,0.103c0,0.042,0.024,0.103,0.061,0.14c0.043,0.043,0.037,0.133-0.03,0.285
		c-0.048,0.127-0.091,0.315-0.091,0.412c0,0.098-0.036,0.2-0.079,0.225c-0.036,0.024-0.661,0.036-1.377,0.024
		c-0.715-0.007-1.825,0.019-2.456,0.066c-0.637,0.042-1.316,0.079-1.517,0.073c-0.2,0-0.758-0.024-1.243-0.061
		c-0.485-0.037-0.916-0.092-0.965-0.121c-0.055-0.037-0.072-0.122-0.048-0.268c0.024-0.115,0.066-0.376,0.097-0.576
		s0.061-0.625,0.066-0.94c0.007-0.454-0.012-0.595-0.091-0.667c-0.055-0.049-0.097-0.146-0.091-0.212
		c0-0.067,0.049-0.17,0.109-0.237c0.055-0.061,0.097-0.193,0.097-0.303c-0.006-0.104-0.036-0.449-0.072-0.764
		c-0.043-0.316-0.073-1.244-0.073-2.063c0-0.819-0.03-1.802-0.072-2.184c-0.037-0.383-0.092-0.752-0.122-0.819
		c-0.03-0.066-0.103-0.206-0.157-0.31c-0.055-0.103-0.164-0.272-0.243-0.376c-0.072-0.108-0.188-0.193-0.254-0.193
		c-0.067,0-0.134-0.024-0.152-0.061c-0.018-0.037-0.151-0.146-0.303-0.243c-0.151-0.103-0.285-0.182-0.304-0.182
		c-0.018,0-0.103-0.055-0.2-0.121c-0.121-0.092-0.255-0.128-0.516-0.122c-0.188,0-0.448-0.042-0.576-0.091
		c-0.121-0.055-0.363-0.091-0.527-0.091c-0.17,0-0.521,0.042-0.789,0.091c-0.267,0.049-0.733,0.085-1.03,0.085
		c-0.455,0-0.576,0.024-0.716,0.128c-0.091,0.066-0.2,0.121-0.243,0.121c-0.036,0-0.321,0.121-0.618,0.272
		c-0.315,0.158-0.625,0.358-0.729,0.485c-0.103,0.115-0.212,0.206-0.242,0.206c-0.036,0-0.115,0.067-0.188,0.14
		c-0.066,0.079-0.23,0.358-0.594,1.11l-0.049,1.183c-0.03,0.648-0.049,1.389-0.036,1.638c0.012,0.249,0.012,0.716,0.006,1.03
		c-0.006,0.316-0.012,0.729-0.012,0.91c-0.007,0.182,0.006,0.795,0.023,1.365c0.03,0.861,0.019,1.055-0.061,1.164
		c-0.072,0.109-0.078,0.182-0.03,0.334c0.036,0.109,0.061,0.273,0.061,0.363c0,0.109-0.042,0.195-0.121,0.23
		c-0.072,0.037-1.037,0.062-2.505,0.062c-1.304,0-2.918-0.019-4.779-0.091l-0.146-0.213c-0.146-0.212-0.152-0.23-0.146-1.516
		c0-1.02,0.019-1.335,0.085-1.456c0.049-0.085,0.085-0.2,0.092-0.261c0-0.061-0.055-0.115-0.14-0.128
		c-0.073-0.019-0.17,0-0.213,0.043c-0.042,0.042-0.078,0.115-0.072,0.163c0,0.049-0.109,0.201-0.243,0.334
		c-0.133,0.133-0.254,0.303-0.272,0.376c-0.019,0.079-0.104,0.176-0.2,0.225c-0.091,0.048-0.425,0.34-0.74,0.643
		c-0.315,0.304-0.643,0.564-0.728,0.583c-0.085,0.012-0.206,0.078-0.273,0.151c-0.066,0.066-0.163,0.115-0.212,0.115
		c-0.049-0.007-0.134,0.042-0.182,0.097c-0.049,0.055-0.146,0.127-0.213,0.158c-0.066,0.03-0.188,0.091-0.272,0.139
		c-0.085,0.049-0.219,0.092-0.304,0.092c-0.085-0.006-0.206,0.055-0.272,0.121c-0.067,0.066-0.176,0.127-0.243,0.127
		c-0.066,0-0.17,0.043-0.236,0.104c-0.073,0.072-0.304,0.127-0.728,0.17c-0.334,0.043-0.765,0.115-0.946,0.176
		c-0.183,0.055-0.474,0.14-0.637,0.188c-0.17,0.049-0.51,0.086-0.759,0.086c-0.34,0-0.491,0.023-0.606,0.103
		c-0.14,0.104-0.418,0.109-3.791,0.109c-3.317,0-3.663-0.013-3.931-0.109c-0.189-0.068-0.463-0.103-0.818-0.103
		c-0.291,0-0.582-0.019-0.649-0.031c-0.066-0.018-0.163-0.103-0.212-0.188c-0.073-0.121-0.128-0.152-0.243-0.127
		c-0.085,0.018-0.248-0.007-0.363-0.055c-0.115-0.049-0.279-0.086-0.364-0.086c-0.085,0.007-0.194-0.035-0.242-0.09
		c-0.049-0.049-0.176-0.109-0.273-0.134c-0.103-0.019-0.255-0.085-0.352-0.146c-0.091-0.066-0.219-0.115-0.285-0.115
		s-0.194-0.055-0.291-0.121c-0.091-0.073-0.225-0.128-0.304-0.122c-0.072,0-0.146-0.024-0.163-0.061
		c-0.019-0.036-0.23-0.157-0.474-0.272c-0.236-0.115-0.588-0.346-0.771-0.516c-0.182-0.17-0.4-0.322-0.485-0.34
		c-0.103-0.019-0.278-0.2-0.569-0.588c-0.23-0.304-0.468-0.602-0.528-0.649c-0.061-0.049-0.115-0.157-0.127-0.243
		c-0.013-0.121-0.055-0.151-0.413-0.182l0.013,1.759c0.012,1.358,0,1.766-0.061,1.79c-0.036,0.018-1.662,0.042-3.609,0.061
		c-1.94,0.018-3.615,0.012-3.712-0.019c-0.176-0.048-0.182-0.061-0.2-0.474c-0.012-0.309,0.012-0.479,0.091-0.648
		c0.091-0.182,0.098-0.242,0.03-0.303c-0.042-0.037-0.151-0.073-0.242-0.073c-0.109,0.006-0.291,0.115-0.559,0.352
		c-0.218,0.188-0.521,0.413-0.685,0.497c-0.158,0.086-0.34,0.152-0.4,0.152c-0.067,0-0.158,0.036-0.2,0.078
		c-0.043,0.043-0.243,0.158-0.443,0.243c-0.236,0.109-0.467,0.163-0.655,0.163c-0.157,0-0.424,0.055-0.588,0.122
		c-0.182,0.073-0.442,0.121-0.655,0.121c-0.218,0-0.442,0.042-0.618,0.115c-0.152,0.073-0.389,0.128-0.534,0.128
		c-0.14,0-0.395,0.055-0.558,0.121c-0.298,0.115-0.443,0.121-5.022,0.121c-4.088,0-4.737-0.012-4.895-0.091
		c-0.104-0.055-0.273-0.091-0.383-0.091c-0.103,0-0.206,0.023-0.225,0.061c-0.018,0.036-0.091,0.061-0.169,0.061
		c-0.073,0-0.188-0.043-0.255-0.092c-0.091-0.066-0.291-0.09-0.759-0.09c-0.4,0-0.771-0.037-1.001-0.098
		c-0.2-0.055-0.461-0.121-0.576-0.146c-0.115-0.03-0.321-0.091-0.454-0.146c-0.134-0.049-0.37-0.091-0.534-0.098
		c-0.17,0-0.442-0.066-0.667-0.157c-0.206-0.091-0.413-0.2-0.455-0.242c-0.036-0.049-0.115-0.085-0.164-0.085
		c-0.048,0-0.182-0.061-0.291-0.14c-0.103-0.073-0.31-0.237-0.455-0.364c-0.14-0.121-0.297-0.225-0.346-0.225
		c-0.048,0-0.121-0.055-0.151-0.121c-0.036-0.066-0.115-0.121-0.176-0.121c-0.066,0-0.164,0.043-0.213,0.091
		c-0.078,0.073-0.097,0.219-0.097,0.68c0.006,0.412-0.019,0.618-0.072,0.667C36.067,22,35.249,22.012,32.423,22
		c-2.329-0.006-3.651-0.036-3.688-0.072c-0.03-0.037-0.055-3.488-0.055-8.056c0-4.391,0.013-8.006,0.024-8.03
		c0.013-0.03,1.687-0.055,3.719-0.061c2.783-0.006,3.699,0.006,3.729,0.061c0.024,0.042,0.049,0.437,0.049,0.88
		c0,0.473,0.024,0.813,0.061,0.831c0.03,0.018,0.243-0.116,0.467-0.285c0.225-0.177,0.468-0.383,0.546-0.455
		c0.073-0.079,0.177-0.14,0.23-0.14c0.049,0,0.213-0.109,0.364-0.243c0.151-0.133,0.328-0.242,0.395-0.242s0.23-0.055,0.364-0.121
		c0.133-0.067,0.357-0.121,0.497-0.121c0.157,0,0.333-0.049,0.442-0.122c0.121-0.078,0.285-0.121,0.485-0.121
		c0.164,0,0.461-0.055,0.649-0.121c0.303-0.104,0.503-0.121,1.425-0.121c0.898,0,1.146-0.019,1.475-0.115
		c0.333-0.104,0.654-0.128,2.062-0.158c0.916-0.018,2.402-0.012,3.306,0.019c1.195,0.036,1.681,0.072,1.79,0.133
		c0.108,0.062,0.527,0.098,1.516,0.122c1.129,0.03,1.401,0.055,1.56,0.14c0.109,0.054,0.321,0.103,0.473,0.103
		c0.158,0,0.37,0.055,0.497,0.121c0.14,0.073,0.347,0.122,0.534,0.122c0.17,0,0.425,0.054,0.576,0.127
		c0.151,0.066,0.34,0.115,0.425,0.115s0.218,0.055,0.303,0.121c0.085,0.067,0.2,0.121,0.255,0.121c0.061,0,0.122,0.043,0.14,0.092
		c0.019,0.048,0.134,0.115,0.255,0.151c0.134,0.036,0.376,0.194,0.564,0.364c0.182,0.169,0.388,0.321,0.454,0.346
		c0.067,0.018,0.249,0.17,0.407,0.333c0.163,0.158,0.291,0.328,0.291,0.37c-0.006,0.036,0.048,0.14,0.109,0.225
		c0.061,0.085,0.133,0.2,0.151,0.261c0.024,0.055,0.079,0.091,0.115,0.085c0.049-0.013,0.072-0.097,0.066-0.2
		c-0.012-0.097-0.018-0.2-0.024-0.236c0-0.03,0.03-0.268,0.067-0.516c0.042-0.249,0.072-0.729,0.066-1.062
		c-0.006-0.334,0.006-0.655,0.024-0.71c0.018-0.061,0.085-0.133,0.151-0.17c0.091-0.048,0.158-0.03,0.285,0.061
		c0.115,0.085,0.261,0.128,0.442,0.128c0.183,0,0.328-0.043,0.438-0.128c0.127-0.091,0.261-0.121,0.546-0.121
		c0.267,0,0.431,0.03,0.533,0.104c0.128,0.091,0.298,0.109,1.152,0.109c0.813,0,1.05-0.019,1.256-0.104
		c0.164-0.066,0.419-0.109,0.686-0.109c0.303,0,0.491,0.036,0.667,0.121c0.182,0.092,0.364,0.122,0.71,0.122
		c0.261,0,0.503,0.023,0.54,0.048c0.036,0.024,0.097,0.098,0.133,0.164c0.049,0.091,0.043,0.206-0.03,0.455
		c-0.072,0.272-0.079,0.382-0.019,0.606c0.043,0.151,0.085,0.425,0.104,0.606c0.019,0.2-0.012,0.479-0.066,0.697
		c-0.055,0.2-0.098,0.564-0.098,0.807c0,0.237,0.024,0.449,0.061,0.468c0.031,0.018,0.146-0.043,0.243-0.134
		c0.104-0.097,0.182-0.212,0.182-0.261s0.079-0.2,0.17-0.334c0.091-0.133,0.219-0.285,0.285-0.333
		c0.066-0.049,0.31-0.279,0.546-0.516c0.23-0.23,0.449-0.485,0.485-0.564c0.036-0.085,0.249-0.236,0.516-0.376
		c0.249-0.127,0.631-0.321,0.849-0.431c0.219-0.104,0.438-0.219,0.485-0.249c0.049-0.023,0.17-0.091,0.273-0.133
		c0.097-0.049,0.225-0.128,0.272-0.183c0.055-0.061,0.183-0.103,0.304-0.097c0.115,0,0.315-0.055,0.437-0.121
		c0.128-0.067,0.291-0.121,0.364-0.121c0.079,0.006,0.218-0.055,0.321-0.134c0.164-0.121,0.255-0.134,0.85-0.14
		c0.503-0.006,0.715-0.03,0.86-0.109c0.146-0.078,0.353-0.103,0.776-0.103c0.438,0,0.649-0.03,0.88-0.122
		c0.236-0.091,0.443-0.121,0.922-0.121c0.346,0,0.867-0.042,1.171-0.091c0.297-0.049,0.733-0.091,0.971-0.091
		c0.267,0,0.491,0.03,0.606,0.091c0.14,0.066,0.406,0.091,1.194,0.091c0.88,0,1.062,0.019,1.322,0.121
		c0.255,0.104,0.449,0.122,1.195,0.122c0.758,0.006,0.934,0.024,1.141,0.121c0.133,0.066,0.321,0.115,0.424,0.115
		c0.098,0,0.249,0.061,0.334,0.127c0.085,0.067,0.212,0.122,0.285,0.122c0.079,0,0.242,0.054,0.364,0.121
		c0.127,0.066,0.339,0.121,0.473,0.121c0.17-0.006,0.279,0.036,0.364,0.121c0.066,0.067,0.176,0.128,0.242,0.121
		c0.067,0,0.2,0.055,0.304,0.122c0.097,0.066,0.248,0.121,0.333,0.121s0.285,0.085,0.449,0.194c0.164,0.108,0.346,0.23,0.4,0.261
		c0.061,0.036,0.157,0.103,0.219,0.157c0.066,0.055,0.169,0.115,0.236,0.134c0.066,0.018,0.303,0.218,0.533,0.448
		c0.225,0.225,0.406,0.455,0.406,0.504c-0.006,0.049,0.055,0.146,0.122,0.212c0.066,0.067,0.121,0.177,0.121,0.243
		s0.091,0.212,0.212,0.321c0.115,0.104,0.268,0.194,0.334,0.194s0.14-0.036,0.164-0.073c0.018-0.042,0.048-0.473,0.061-0.958
		c0.012-0.485,0.018-1.031,0.018-1.213c0-0.183-0.012-0.51-0.03-1.104l0.546-0.297l0.789,0.267l0.248-0.146
		c0.249-0.14,0.261-0.14,0.413-0.036c0.085,0.055,0.206,0.103,0.261,0.103c0.061,0,0.188-0.036,0.291-0.091
		c0.134-0.066,0.388-0.091,0.971-0.091c0.643-0.006,0.807,0.013,0.879,0.091c0.049,0.055,0.158,0.098,0.243,0.098
		s0.194-0.043,0.242-0.098c0.061-0.066,0.2-0.097,0.425-0.097c0.249,0,0.37,0.036,0.467,0.127c0.098,0.085,0.183,0.109,0.273,0.079
		c0.078-0.024,0.176-0.079,0.218-0.121c0.043-0.043,0.207-0.079,0.364-0.079s0.395,0.03,0.527,0.061
		c0.134,0.037,0.255,0.079,0.273,0.098c0.019,0.018,0.042,0.473,0.091,1.995l0.194,0.019c0.157,0.006,0.218-0.019,0.272-0.122
		c0.037-0.078,0.128-0.188,0.194-0.248c0.073-0.061,0.146-0.104,0.17-0.104c0.03,0,0.14-0.061,0.242-0.14
		c0.109-0.072,0.322-0.224,0.474-0.333s0.382-0.23,0.516-0.261c0.133-0.037,0.267-0.091,0.303-0.115
		c0.03-0.03,0.188-0.122,0.346-0.207c0.164-0.084,0.364-0.157,0.455-0.157c0.098-0.006,0.279-0.055,0.413-0.121
		c0.133-0.067,0.339-0.115,0.454-0.121c0.115,0,0.315-0.055,0.438-0.122c0.127-0.066,0.346-0.121,0.484-0.121
		c0.146,0,0.419-0.055,0.607-0.121c0.327-0.115,0.503-0.121,2.79-0.121c2.286,0.006,2.462,0.012,2.687,0.121
		c0.17,0.079,0.376,0.115,0.68,0.121c0.425,0,0.455,0.013,0.746,0.243c0.164,0.133,0.357,0.242,0.425,0.242
		c0.066,0,0.146,0.055,0.182,0.121c0.036,0.067,0.121,0.121,0.194,0.121c0.078-0.006,0.193,0.055,0.261,0.122
		c0.066,0.066,0.193,0.127,0.285,0.121c0.108,0,0.248,0.072,0.394,0.212c0.128,0.115,0.358,0.291,0.516,0.395
		c0.164,0.097,0.304,0.236,0.322,0.304c0.018,0.066,0.127,0.193,0.242,0.291c0.14,0.103,0.219,0.212,0.212,0.303
		c0,0.091,0.061,0.164,0.183,0.225c0.163,0.079,0.2,0.079,0.346,0c0.109-0.061,0.236-0.236,0.352-0.479
		c0.097-0.206,0.272-0.479,0.376-0.601c0.109-0.127,0.2-0.267,0.2-0.314c0-0.049,0.073-0.17,0.164-0.262
		c0.097-0.097,0.248-0.278,0.352-0.412c0.097-0.127,0.491-0.546,0.873-0.916c0.383-0.376,0.746-0.686,0.807-0.686
		c0.062,0,0.237-0.121,0.395-0.272c0.164-0.151,0.389-0.364,0.504-0.479c0.115-0.109,0.309-0.225,0.424-0.248
		c0.115-0.024,0.334-0.14,0.485-0.262c0.152-0.115,0.31-0.254,0.353-0.309c0.048-0.055,0.224-0.146,0.394-0.206
		c0.176-0.062,0.413-0.14,0.528-0.17c0.115-0.037,0.255-0.104,0.303-0.152c0.049-0.042,0.134-0.078,0.183-0.078
		c0.048,0,0.163-0.055,0.254-0.128c0.098-0.066,0.225-0.121,0.292-0.121c0.066,0,0.193-0.055,0.284-0.121
		c0.098-0.073,0.23-0.128,0.304-0.122c0.079,0,0.249-0.054,0.382-0.121c0.176-0.085,0.364-0.121,0.68-0.121
		c0.242,0,0.606-0.03,0.807-0.066c0.2-0.037,0.485-0.091,0.637-0.115C125.091,1.608,125.922,1.596,126.79,1.602 M125.485,4.72
		c-0.479,0.036-0.825,0.097-0.94,0.157c-0.103,0.055-0.291,0.098-0.424,0.098c-0.134,0-0.328,0.055-0.443,0.121
		c-0.103,0.066-0.272,0.121-0.37,0.121c-0.097,0-0.23,0.049-0.291,0.104c-0.066,0.066-0.248,0.115-0.491,0.14
		c-0.279,0.024-0.4,0.061-0.442,0.14c-0.03,0.054-0.115,0.103-0.194,0.103s-0.23,0.098-0.37,0.243
		c-0.164,0.163-0.291,0.242-0.406,0.242c-0.109,0-0.242,0.079-0.406,0.242c-0.134,0.134-0.297,0.243-0.37,0.243
		c-0.066,0-0.188,0.066-0.261,0.151c-0.079,0.085-0.182,0.194-0.23,0.243c-0.049,0.042-0.213,0.206-0.364,0.363l-0.363,0.364
		c-0.049,0.049-0.152,0.151-0.23,0.225c-0.079,0.079-0.315,0.333-0.534,0.563c-0.212,0.237-0.389,0.461-0.389,0.504
		c0,0.036-0.108,0.212-0.242,0.376c-0.134,0.17-0.242,0.364-0.242,0.442c0.006,0.073-0.049,0.207-0.122,0.304
		c-0.066,0.091-0.121,0.194-0.121,0.225c0,0.036-0.055,0.133-0.121,0.23c-0.073,0.091-0.128,0.212-0.121,0.272
		c0,0.055-0.055,0.213-0.122,0.346c-0.091,0.176-0.121,0.364-0.121,0.698c0,0.315-0.036,0.552-0.121,0.758
		c-0.109,0.267-0.121,0.442-0.121,1.564c0,1.152,0.012,1.268,0.121,1.438c0.079,0.121,0.121,0.285,0.121,0.485
		c0,0.188,0.049,0.388,0.121,0.534c0.067,0.121,0.122,0.285,0.122,0.363c0,0.073,0.055,0.201,0.121,0.285
		c0.066,0.085,0.121,0.194,0.121,0.243c0,0.048,0.055,0.146,0.121,0.212c0.067,0.066,0.128,0.17,0.122,0.23
		c0,0.055,0.072,0.152,0.163,0.219c0.098,0.061,0.188,0.188,0.206,0.285c0.024,0.097,0.115,0.267,0.2,0.376
		c0.085,0.103,0.158,0.236,0.158,0.285c0,0.048,0.109,0.2,0.242,0.333c0.134,0.134,0.243,0.262,0.243,0.291
		c0,0.024,0.14,0.152,0.31,0.285c0.169,0.134,0.357,0.316,0.412,0.413c0.066,0.115,0.146,0.163,0.261,0.163
		c0.121,0,0.188,0.043,0.225,0.14c0.024,0.073,0.17,0.237,0.315,0.364s0.291,0.23,0.327,0.23c0.03,0,0.176,0.109,0.315,0.236
		c0.146,0.134,0.31,0.242,0.364,0.242c0.061,0,0.188,0.055,0.291,0.122c0.097,0.066,0.225,0.121,0.272,0.121
		c0.049-0.006,0.158,0.055,0.243,0.121c0.085,0.067,0.218,0.128,0.303,0.128s0.2,0.042,0.268,0.104
		c0.072,0.066,0.242,0.108,0.516,0.127c0.261,0.012,0.454,0.061,0.563,0.133c0.098,0.067,0.225,0.115,0.291,0.115
		c0.067,0,0.237,0.061,0.376,0.134c0.255,0.134,0.292,0.14,2.293,0.121c1.856-0.019,2.057-0.03,2.287-0.14
		c0.146-0.061,0.333-0.115,0.425-0.115c0.097,0,0.248-0.055,0.352-0.121c0.097-0.066,0.272-0.121,0.376-0.121
		c0.109,0,0.327-0.066,0.485-0.152c0.164-0.084,0.327-0.15,0.364-0.15c0.042,0,0.078-0.019,0.078-0.043
		c0-0.03,0.158-0.127,0.353-0.23c0.188-0.098,0.467-0.285,0.618-0.406s0.297-0.225,0.334-0.225c0.03,0,0.236-0.17,0.454-0.37
		c0.219-0.2,0.449-0.37,0.516-0.37c0.067,0,0.219-0.104,0.334-0.23s0.273-0.248,0.346-0.273c0.079-0.018,0.164-0.09,0.2-0.157
		c0.03-0.066,0.049-0.157,0.043-0.194c-0.019-0.061-0.485-0.072-2.142-0.061c-1.711,0.019-2.123,0.006-2.159-0.061
		c-0.024-0.042-0.049-0.309-0.043-0.594c0-0.346-0.023-0.54-0.078-0.589c-0.061-0.061-0.164-0.024-0.504,0.188
		c-0.236,0.145-0.57,0.376-0.746,0.516c-0.17,0.139-0.364,0.248-0.425,0.254c-0.055,0-0.242,0.079-0.406,0.183
		c-0.17,0.097-0.363,0.2-0.442,0.236c-0.073,0.03-0.225,0.061-0.334,0.061c-0.103,0-0.412,0.055-0.679,0.121
		c-0.377,0.097-0.692,0.122-1.396,0.128c-0.504,0-1.062,0.03-1.243,0.061c-0.183,0.036-0.443,0.072-0.576,0.091
		c-0.134,0.019-0.31,0.006-0.395-0.03s-0.357-0.098-0.606-0.127c-0.249-0.031-0.564-0.098-0.697-0.146
		c-0.134-0.055-0.37-0.091-0.534-0.097c-0.164,0-0.406-0.055-0.576-0.14c-0.158-0.072-0.352-0.182-0.437-0.242
		c-0.085-0.055-0.225-0.104-0.321-0.104c-0.092,0-0.285-0.085-0.438-0.182c-0.151-0.098-0.303-0.236-0.333-0.303
		c-0.037-0.067-0.158-0.164-0.273-0.213s-0.212-0.134-0.212-0.182c0-0.049-0.055-0.128-0.121-0.164
		c-0.067-0.049-0.122-0.146-0.122-0.23s-0.054-0.236-0.121-0.334c-0.066-0.097-0.121-0.236-0.121-0.303s-0.055-0.23-0.121-0.364
		c-0.085-0.182-0.115-0.376-0.121-0.759c0-0.412,0.023-0.551,0.121-0.697c0.066-0.097,0.121-0.272,0.121-0.376
		c0-0.108,0.055-0.333,0.121-0.503c0.067-0.164,0.121-0.376,0.121-0.467c0-0.098,0.043-0.23,0.104-0.304
		c0.061-0.066,0.212-0.2,0.334-0.285c0.127-0.085,0.254-0.157,0.291-0.157c0.03,0,0.151-0.067,0.255-0.152
		c0.108-0.084,0.242-0.188,0.291-0.224c0.048-0.037,0.194-0.085,0.321-0.104c0.134-0.019,0.279-0.085,0.334-0.146
		c0.061-0.061,0.163-0.109,0.236-0.104c0.079,0,0.242-0.054,0.363-0.115c0.158-0.078,0.534-0.151,1.141-0.224
		c0.497-0.055,1.698-0.122,2.669-0.146c1.231-0.031,1.813-0.067,1.941-0.122c0.108-0.048,0.576-0.091,1.183-0.115
		c0.807-0.03,1.031-0.061,1.152-0.146c0.085-0.055,0.248-0.103,0.363-0.103s0.249-0.024,0.292-0.049
		c0.036-0.024,0.108-0.151,0.157-0.285c0.061-0.188,0.066-0.285,0.013-0.412c-0.037-0.098-0.134-0.23-0.207-0.304
		c-0.078-0.072-0.297-0.182-0.485-0.249c-0.272-0.091-0.6-0.121-1.589-0.146c-1.213-0.03-1.249-0.03-1.425,0.104
		c-0.104,0.073-0.23,0.134-0.292,0.127c-0.054,0-0.127,0.049-0.157,0.109c-0.03,0.055-0.188,0.17-0.352,0.255
		c-0.158,0.085-0.358,0.2-0.443,0.261s-0.193,0.109-0.242,0.109s-0.14,0.042-0.2,0.104c-0.104,0.097-0.121,0.097-0.315,0
		c-0.115-0.062-0.273-0.109-0.352-0.109c-0.073-0.006-0.188,0.055-0.255,0.121c-0.115,0.121-0.183,0.127-1.851,0.127
		c-1.655,0-1.734-0.006-1.88-0.127c-0.091-0.073-0.242-0.127-0.364-0.127c-0.151,0-0.236,0.036-0.303,0.133
		c-0.055,0.079-0.121,0.121-0.17,0.098c-0.049-0.03-0.073-0.2-0.073-0.51c-0.006-0.382,0.019-0.504,0.122-0.637
		c0.066-0.098,0.121-0.261,0.121-0.383c0-0.157,0.055-0.272,0.225-0.461c0.127-0.14,0.309-0.339,0.412-0.448
		c0.097-0.104,0.327-0.304,0.497-0.443c0.23-0.182,0.376-0.255,0.516-0.255c0.109,0,0.291-0.054,0.395-0.121
		c0.109-0.066,0.272-0.121,0.364-0.121c0.097,0.006,0.224-0.055,0.291-0.121c0.085-0.085,0.193-0.121,0.363-0.121
		c0.134,0,0.353-0.043,0.485-0.104c0.134-0.055,0.485-0.121,0.789-0.14c0.297-0.024,0.667-0.091,0.818-0.146
		c0.243-0.091,0.54-0.104,2.729-0.085c2.208,0.019,2.475,0.03,2.639,0.121c0.157,0.098,0.352,0.109,1.486,0.109
		c1.219-0.006,1.315,0.006,1.468,0.121c0.097,0.067,0.188,0.122,0.212,0.122c0.03-0.007,0.104,0.054,0.17,0.121
		c0.066,0.066,0.176,0.127,0.243,0.127c0.066,0,0.163,0.036,0.212,0.091c0.049,0.049,0.255,0.109,0.455,0.134
		c0.212,0.024,0.425,0.091,0.516,0.164c0.085,0.066,0.278,0.261,0.431,0.424c0.151,0.17,0.303,0.37,0.346,0.455
		c0.036,0.085,0.097,0.194,0.127,0.243c0.03,0.048,0.085,0.212,0.121,0.363c0.043,0.152,0.098,0.37,0.128,0.485
		c0.03,0.122,0.061,1.753,0.061,3.719c0,1.922,0.012,3.542,0.03,3.59c0.019,0.055,0.104,0.092,0.212,0.092
		c0.109,0,0.194-0.037,0.213-0.092c0.018-0.048,0.03-0.157,0.03-0.242s0.109-0.34,0.242-0.576c0.134-0.236,0.243-0.498,0.243-0.588
		c0-0.098,0.042-0.237,0.097-0.322c0.066-0.091,0.115-0.327,0.134-0.606c0.018-0.272,0.072-0.54,0.146-0.667
		c0.091-0.182,0.109-0.352,0.109-1.092c-0.007-0.74-0.024-0.916-0.122-1.122c-0.066-0.133-0.121-0.31-0.121-0.395
		s-0.055-0.261-0.121-0.394c-0.066-0.134-0.115-0.346-0.121-0.468c0-0.127-0.055-0.333-0.122-0.454
		c-0.066-0.128-0.121-0.273-0.121-0.322c0-0.048-0.055-0.157-0.121-0.242c-0.079-0.097-0.127-0.236-0.127-0.395
		c0-0.161-0.041-0.283-0.122-0.363c-0.066-0.067-0.23-0.237-0.357-0.376c-0.188-0.2-0.243-0.31-0.243-0.474
		c0-0.176-0.036-0.236-0.218-0.346c-0.134-0.085-0.23-0.2-0.243-0.291c-0.018-0.085-0.072-0.2-0.133-0.255
		c-0.055-0.061-0.236-0.225-0.4-0.364c-0.17-0.146-0.474-0.431-0.686-0.637c-0.212-0.212-0.431-0.382-0.491-0.382
		c-0.055,0-0.219-0.109-0.364-0.243c-0.157-0.151-0.315-0.242-0.406-0.242c-0.085,0-0.297-0.073-0.473-0.164
		c-0.17-0.091-0.438-0.255-0.589-0.363c-0.151-0.115-0.333-0.2-0.412-0.2c-0.073,0-0.206-0.055-0.304-0.122
		c-0.091-0.072-0.225-0.127-0.303-0.121c-0.073,0-0.225-0.042-0.334-0.097c-0.104-0.055-0.4-0.128-0.649-0.158
		c-0.248-0.03-0.509-0.085-0.576-0.121c-0.066-0.036-0.539-0.091-1.049-0.115c-0.504-0.03-0.946-0.066-0.977-0.085
		c-0.03-0.012-0.061-0.018-0.073,0C126.256,4.653,125.904,4.689,125.485,4.72 M44.614,9.227c-0.121,0.061-0.297,0.115-0.395,0.115
		c-0.097,0-0.23,0.066-0.333,0.17c-0.134,0.133-0.17,0.236-0.2,0.558c-0.019,0.236-0.013,0.461,0.03,0.564
		c0.036,0.091,0.115,0.163,0.17,0.163c0.061,0,0.176,0.055,0.261,0.122c0.115,0.097,0.236,0.127,0.527,0.121
		c0.236,0,0.467,0.042,0.606,0.103c0.194,0.092,0.491,0.109,1.777,0.14c1.298,0.03,1.577,0.055,1.729,0.14
		c0.134,0.079,0.334,0.104,0.789,0.104c0.563,0.006,0.612-0.006,0.709-0.134l0.098-0.14c0.431,0.236,0.594,0.273,0.873,0.273
		c0.267,0,0.449,0.036,0.606,0.121c0.158,0.085,0.346,0.121,0.606,0.121c0.243,0,0.425-0.03,0.504-0.091
		c0.066-0.049,0.176-0.091,0.242-0.091c0.067-0.006,0.151,0.03,0.194,0.072c0.042,0.049,0.279,0.092,0.606,0.109
		c0.304,0.019,0.582,0.061,0.631,0.104c0.066,0.061,0.151,0.061,0.389,0.012c0.254-0.061,0.333-0.055,0.497,0.03
		c0.109,0.055,0.327,0.098,0.485,0.098c0.188,0,0.357,0.042,0.473,0.121c0.098,0.066,0.236,0.121,0.304,0.121
		c0.066,0,0.2,0.055,0.303,0.121c0.098,0.067,0.273,0.122,0.376,0.122c0.109,0,0.315,0.061,0.455,0.139
		c0.146,0.073,0.358,0.225,0.474,0.334s0.291,0.219,0.388,0.242c0.098,0.024,0.261,0.146,0.364,0.268
		c0.115,0.133,0.242,0.225,0.321,0.23c0.079,0,0.151-0.024,0.17-0.061c0.019-0.03-0.012-0.109-0.061-0.164
		c-0.049-0.061-0.091-0.176-0.091-0.261s0.036-0.255,0.091-0.376c0.072-0.188,0.079-0.249,0.012-0.334
		c-0.036-0.055-0.091-0.212-0.115-0.346c-0.024-0.14-0.012-0.479,0.019-0.764c0.042-0.358,0.042-0.564,0-0.68l-0.066-0.17
		c-1.153,0.055-1.76,0.073-2.093,0.073c-0.334,0.006-1.237,0-2.002-0.013c-0.771-0.006-1.602,0.006-1.85,0.03
		c-0.249,0.024-0.837,0.013-1.305-0.024c-0.667-0.048-0.873-0.091-0.964-0.17c-0.061-0.061-0.164-0.212-0.225-0.333
		c-0.061-0.128-0.134-0.23-0.164-0.23c-0.024,0-0.121-0.061-0.218-0.14c-0.098-0.073-0.23-0.188-0.304-0.261
		c-0.066-0.073-0.225-0.146-0.34-0.164c-0.115-0.024-0.297-0.079-0.394-0.127c-0.14-0.073-0.546-0.104-1.82-0.128
		c-0.903-0.018-1.789-0.042-1.971-0.055c-0.183-0.006-0.474,0.007-0.638,0.037C44.978,9.081,44.741,9.159,44.614,9.227
		 M77.671,10.313c-0.091,0-0.236,0.036-0.333,0.084c-0.092,0.049-0.383,0.109-0.649,0.134c-0.437,0.043-0.516,0.073-0.788,0.285
		c-0.17,0.134-0.353,0.285-0.419,0.34c-0.061,0.061-0.17,0.127-0.242,0.157c-0.067,0.03-0.188,0.122-0.261,0.207
		c-0.079,0.084-0.158,0.224-0.177,0.309c-0.023,0.085-0.103,0.261-0.182,0.395c-0.072,0.134-0.182,0.285-0.236,0.334
		c-0.085,0.078-0.098,0.261-0.091,1.364l0.006,1.273c0.279,0.491,0.382,0.649,0.418,0.667c0.031,0.019,0.062,0.079,0.062,0.141
		c0,0.054,0.2,0.291,0.442,0.527s0.595,0.516,0.788,0.625c0.188,0.103,0.389,0.193,0.438,0.193c0.048,0,0.163,0.055,0.254,0.121
		c0.164,0.121,0.268,0.128,2.232,0.14c2.032,0.013,2.068,0.007,2.274-0.121c0.122-0.079,0.315-0.14,0.438-0.14
		c0.133,0,0.303-0.055,0.394-0.121c0.098-0.072,0.219-0.127,0.273-0.121c0.061,0,0.182-0.055,0.272-0.121
		c0.098-0.073,0.194-0.121,0.23-0.121c0.03,0,0.158-0.109,0.273-0.25c0.115-0.139,0.31-0.369,0.431-0.503
		c0.14-0.163,0.23-0.346,0.267-0.521c0.024-0.151,0.085-0.364,0.127-0.467c0.049-0.109,0.092-0.449,0.098-0.758
		c0.006-0.407-0.019-0.625-0.085-0.776c-0.055-0.122-0.115-0.479-0.14-0.85l-0.036-0.637c-0.364-0.328-0.479-0.491-0.491-0.576
		c-0.013-0.104-0.085-0.183-0.23-0.249c-0.115-0.055-0.298-0.182-0.395-0.285c-0.104-0.097-0.249-0.194-0.334-0.218
		c-0.085-0.019-0.193-0.079-0.242-0.128c-0.049-0.055-0.128-0.097-0.17-0.091c-0.036,0-0.176-0.055-0.304-0.121
		c-0.176-0.098-0.346-0.121-0.77-0.121c-0.413-0.007-0.607-0.031-0.789-0.122c-0.206-0.097-0.382-0.115-1.098-0.121
		c-0.776,0-0.867,0.013-0.977,0.121C77.884,10.258,77.756,10.313,77.671,10.313 M36.195,15.037l0.012,1.432l0.328,0.4
		c2.492,0.029,3.384,0.066,3.591,0.109c0.315,0.054,0.418,0.048,0.606-0.025c0.17-0.066,0.442-0.09,0.988-0.09
		c0.54,0.006,0.801,0.029,0.91,0.09c0.085,0.049,0.242,0.086,0.346,0.092c0.109,0,0.212-0.024,0.23-0.061
		c0.019-0.037,0.127-0.061,0.242-0.061c0.183,0,0.219,0.023,0.249,0.17c0.024,0.09,0.066,0.188,0.109,0.224
		c0.036,0.036,0.14,0.17,0.23,0.304c0.091,0.133,0.17,0.267,0.17,0.303c0,0.037,0.072,0.134,0.163,0.225
		c0.098,0.091,0.23,0.17,0.304,0.17c0.079,0,0.212,0.055,0.304,0.121c0.097,0.073,0.248,0.121,0.352,0.121
		c0.097,0,0.248,0.055,0.333,0.121c0.146,0.122,0.219,0.128,2.457,0.128l2.305-0.006c1.031-0.521,1.383-0.722,1.443-0.776
		c0.079-0.079,0.109-0.2,0.109-0.498c0-0.327-0.024-0.418-0.14-0.527c-0.078-0.078-0.176-0.139-0.218-0.139
		c-0.037,0-0.104-0.055-0.134-0.122c-0.036-0.073-0.121-0.121-0.212-0.121c-0.085,0-0.268-0.049-0.413-0.115
		c-0.193-0.085-0.467-0.122-1.194-0.146c-0.516-0.019-1.135-0.079-1.365-0.127c-0.236-0.055-0.582-0.098-0.776-0.098
		c-0.188,0-0.448-0.043-0.576-0.098c-0.176-0.078-0.563-0.108-1.74-0.15c-0.838-0.031-1.656-0.086-1.82-0.122
		c-0.17-0.036-0.807-0.079-1.425-0.097c-0.953-0.024-1.152-0.049-1.305-0.146c-0.103-0.061-0.248-0.115-0.333-0.115
		s-0.255-0.054-0.383-0.121c-0.121-0.066-0.321-0.121-0.437-0.121s-0.315-0.055-0.442-0.121c-0.121-0.066-0.291-0.121-0.376-0.121
		s-0.219-0.055-0.304-0.121c-0.085-0.067-0.2-0.121-0.261-0.121c-0.055,0-0.176-0.055-0.272-0.122
		c-0.092-0.073-0.231-0.121-0.315-0.121c-0.109,0-0.292-0.127-0.638-0.455c-0.267-0.248-0.516-0.455-0.552-0.455
		s-0.085,0.019-0.115,0.043C36.201,13.588,36.189,14.249,36.195,15.037 M128.925,14.68c-0.036,0-0.176,0.054-0.304,0.121
		c-0.193,0.103-0.34,0.121-1.062,0.121c-0.601,0-0.97,0.036-1.346,0.121c-0.298,0.066-0.746,0.121-1.062,0.121
		c-0.443,0-0.583,0.024-0.729,0.121c-0.103,0.067-0.267,0.121-0.363,0.121c-0.104,0-0.292,0.08-0.425,0.17
		c-0.134,0.092-0.261,0.188-0.285,0.225c-0.024,0.031-0.049,0.268-0.043,0.516c0,0.443,0.007,0.461,0.207,0.637
		c0.115,0.098,0.248,0.219,0.303,0.262c0.049,0.036,0.206,0.115,0.346,0.17c0.146,0.055,0.358,0.108,0.474,0.127
		c0.115,0.018,0.339-0.012,0.497-0.066c0.212-0.073,0.521-0.098,1.152-0.098c0.765,0,0.892-0.018,1.05-0.121
		c0.097-0.066,0.254-0.121,0.346-0.121c0.097,0,0.278-0.055,0.412-0.121c0.134-0.067,0.291-0.121,0.346-0.121
		c0.061-0.007,0.17-0.067,0.242-0.141c0.073-0.072,0.255-0.236,0.407-0.357c0.151-0.127,0.278-0.267,0.278-0.303
		c-0.006-0.043,0.055-0.134,0.122-0.201c0.066-0.066,0.139-0.23,0.157-0.363c0.024-0.134,0.036-0.395,0.03-0.576
		c0-0.182-0.036-0.37-0.079-0.412c-0.042-0.043-0.121-0.079-0.176-0.073c-0.055,0-0.17,0.055-0.255,0.121
		C129.076,14.625,128.967,14.68,128.925,14.68 M231.176,5.041c0.364,0,0.776,0.024,0.91,0.061s1.128,0.079,2.214,0.098
		c1.553,0.023,2.025,0.048,2.214,0.121c0.17,0.061,0.612,0.103,1.426,0.133c0.934,0.037,1.219,0.067,1.364,0.146
		c0.104,0.061,0.315,0.103,0.497,0.103c0.23,0,0.37,0.036,0.485,0.121c0.098,0.073,0.219,0.128,0.273,0.122
		c0.061,0,0.182,0.054,0.272,0.121c0.098,0.072,0.23,0.127,0.304,0.121c0.079,0,0.242,0.073,0.364,0.164
		c0.127,0.097,0.242,0.188,0.261,0.212c0.018,0.03,0.139,0.066,0.272,0.091c0.134,0.019,0.31,0.091,0.395,0.152
		c0.085,0.061,0.285,0.224,0.455,0.352c0.163,0.133,0.327,0.242,0.363,0.242c0.03-0.006,0.194,0.194,0.364,0.437
		c0.164,0.243,0.376,0.516,0.467,0.613c0.098,0.091,0.206,0.157,0.243,0.146c0.061-0.019,0.072-0.315,0.048-2.529l0.255-0.158
		c0.236-0.146,0.298-0.157,0.686-0.121c0.23,0.019,0.795,0.055,1.243,0.073c0.668,0.03,0.904,0.018,1.274-0.067
		c0.321-0.078,0.533-0.091,0.728-0.061c0.151,0.024,0.34,0.049,0.425,0.043c0.085,0,0.248-0.019,0.363-0.043
		c0.164-0.03,0.243-0.012,0.346,0.085c0.14,0.128,0.14,0.128,0.334,0.006c0.158-0.091,0.31-0.115,0.686-0.121
		c0.382,0,0.527,0.024,0.667,0.121c0.182,0.115,0.182,0.115,0.376,0c0.109-0.066,0.243-0.108,0.291-0.091
		c0.079,0.024,0.092,0.31,0.104,1.983c0.012,1.498,0.036,1.953,0.091,1.972c0.043,0.012,0.091-0.043,0.109-0.115
		c0.019-0.079,0.085-0.194,0.151-0.261c0.067-0.067,0.121-0.146,0.121-0.183c0-0.03,0.055-0.127,0.122-0.212
		c0.066-0.085,0.121-0.188,0.121-0.225c0-0.042,0.146-0.242,0.315-0.442c0.176-0.2,0.346-0.364,0.382-0.364
		c0.03,0,0.182-0.103,0.334-0.236c0.151-0.134,0.418-0.321,0.594-0.412c0.177-0.092,0.334-0.207,0.346-0.243
		c0.019-0.042,0.079-0.079,0.134-0.079c0.061,0.007,0.182-0.048,0.273-0.121c0.097-0.066,0.224-0.121,0.291-0.121
		c0.066,0,0.31-0.109,0.546-0.243c0.23-0.133,0.479-0.242,0.546-0.242c0.066,0,0.225-0.055,0.346-0.121
		c0.127-0.067,0.31-0.121,0.412-0.121c0.098,0,0.261-0.055,0.364-0.122c0.097-0.066,0.255-0.121,0.346-0.121
		c0.097,0,0.242-0.055,0.333-0.121c0.152-0.104,0.273-0.115,1.171-0.121c0.552,0,1.098-0.03,1.213-0.061
		c0.115-0.037,0.237-0.092,0.273-0.115c0.03-0.031,0.661-0.073,1.395-0.092c0.734-0.023,1.444-0.042,1.577-0.048
		c0.134-0.007,0.801,0.012,1.486,0.036c1.013,0.036,1.298,0.066,1.528,0.164c0.23,0.091,0.443,0.115,0.989,0.115
		c0.539,0,0.776,0.024,1.043,0.121c0.194,0.066,0.467,0.121,0.606,0.121c0.17,0,0.321,0.043,0.425,0.121
		c0.097,0.073,0.261,0.128,0.363,0.122c0.109,0,0.334,0.054,0.504,0.121c0.164,0.066,0.382,0.121,0.485,0.121
		c0.097,0,0.388,0.109,0.637,0.242c0.34,0.183,0.527,0.243,0.728,0.243c0.249,0,0.304,0.03,0.619,0.333
		c0.194,0.183,0.431,0.353,0.533,0.383c0.134,0.042,0.194,0.103,0.225,0.242c0.037,0.152,0.085,0.2,0.23,0.225
		c0.109,0.019,0.213,0.085,0.255,0.17c0.036,0.072,0.213,0.279,0.395,0.455c0.176,0.17,0.321,0.363,0.321,0.425
		c0,0.054,0.073,0.176,0.164,0.267c0.097,0.091,0.236,0.182,0.321,0.2c0.109,0.03,0.164,0.012,0.194-0.055
		c0.03-0.055,0.006-0.243-0.049-0.412c-0.066-0.225-0.085-0.425-0.061-0.655c0.024-0.183,0.049-0.771,0.061-1.305
		c0.006-0.588,0.043-1.024,0.085-1.104c0.049-0.093,0.127-0.14,0.236-0.14c0.098,0,0.219,0.055,0.273,0.121
		c0.103,0.109,0.182,0.122,1.062,0.122c0.716,0,1.031-0.024,1.231-0.092c0.151-0.055,0.394-0.097,0.546-0.091
		c0.151,0,0.533-0.018,0.849-0.036c0.521-0.043,0.595-0.03,0.788,0.085c0.183,0.109,0.304,0.127,0.88,0.127
		c0.461,0,0.765-0.03,0.989-0.103c0.291-0.091,0.339-0.091,0.418-0.013c0.085,0.079,0.091,0.243,0.073,1.05
		c-0.019,0.606,0,0.977,0.036,0.994c0.03,0.019,0.115,0.019,0.182,0c0.067-0.018,0.17-0.121,0.225-0.224
		c0.061-0.098,0.17-0.2,0.242-0.225c0.079-0.019,0.249-0.146,0.383-0.273c0.133-0.127,0.285-0.23,0.333-0.23
		c0.049,0,0.158-0.055,0.243-0.121c0.097-0.085,0.236-0.121,0.395-0.121c0.169,0,0.278-0.036,0.363-0.121
		c0.067-0.067,0.183-0.128,0.255-0.122c0.073,0,0.176-0.042,0.225-0.091c0.055-0.048,0.242-0.115,0.412-0.146
		c0.176-0.024,0.4-0.097,0.504-0.151c0.097-0.055,0.242-0.097,0.315-0.097c0.078,0,0.248-0.055,0.382-0.122
		c0.182-0.091,0.364-0.121,0.74-0.121c0.303,0,0.686-0.049,0.958-0.121c0.412-0.109,0.655-0.121,2.639-0.128
		c1.917,0,2.195,0.013,2.274,0.098c0.049,0.055,0.115,0.097,0.151,0.091c0.03,0,0.183,0.061,0.334,0.14s0.395,0.164,0.546,0.188
		c0.151,0.024,0.327,0.085,0.395,0.134c0.066,0.049,0.2,0.085,0.303,0.085c0.098,0,0.291,0.079,0.425,0.17s0.261,0.2,0.285,0.236
		c0.03,0.043,0.109,0.079,0.182,0.079c0.085,0,0.304,0.146,0.546,0.364c0.23,0.2,0.449,0.363,0.485,0.363
		c0.042,0,0.176,0.091,0.291,0.206c0.115,0.109,0.31,0.31,0.431,0.438c0.115,0.127,0.273,0.333,0.346,0.448
		c0.073,0.115,0.134,0.298,0.134,0.395c0,0.104,0.055,0.267,0.121,0.364c0.066,0.103,0.121,0.236,0.121,0.303
		c-0.006,0.066,0.055,0.188,0.121,0.273c0.115,0.14,0.128,0.236,0.134,1.183c0.006,0.57,0.019,2.438,0.03,4.154
		c0.013,1.717,0.024,3.464,0.019,3.882c0,0.419-0.013,1.22-0.03,1.79c-0.019,0.57-0.061,1.061-0.091,1.092
		c-0.031,0.036-1.341,0.061-3.694,0.061c-2.341,0-3.663-0.024-3.7-0.061c-0.042-0.043-0.066-1.401-0.072-4.004
		c-0.006-3.675-0.013-3.967-0.121-4.336c-0.067-0.219-0.115-0.485-0.115-0.589c0-0.115-0.073-0.31-0.17-0.455
		c-0.091-0.146-0.285-0.376-0.437-0.521c-0.152-0.14-0.328-0.255-0.395-0.255c-0.066-0.006-0.206-0.103-0.504-0.455l-0.654-0.036
		c-0.438-0.024-0.723-0.072-0.844-0.14c-0.14-0.072-0.357-0.097-0.958-0.097c-0.649,0-0.807,0.018-1.013,0.121
		c-0.134,0.066-0.34,0.121-0.455,0.121c-0.121,0-0.285,0.055-0.382,0.122c-0.092,0.072-0.225,0.127-0.298,0.121
		c-0.072,0-0.17,0.036-0.212,0.078c-0.043,0.049-0.146,0.104-0.23,0.134c-0.085,0.024-0.273,0.115-0.425,0.194
		s-0.419,0.285-0.601,0.461c-0.176,0.176-0.395,0.425-0.479,0.558c-0.084,0.134-0.212,0.406-0.278,0.606
		c-0.115,0.346-0.121,0.553-0.188,8.371l-0.546,0.036c-0.303,0.024-1.983,0.048-3.736,0.061c-2.771,0.024-3.202,0.013-3.293-0.067
		c-0.073-0.061-0.092-0.145-0.073-0.272c0.019-0.097,0.049-0.509,0.061-0.909c0.019-0.4,0.006-1.025-0.024-1.396
		c-0.036-0.479-0.085-0.691-0.151-0.759c-0.091-0.078-0.115-0.066-0.291,0.128c-0.109,0.115-0.236,0.278-0.285,0.364
		c-0.049,0.078-0.194,0.242-0.315,0.357s-0.249,0.285-0.285,0.383c-0.042,0.103-0.109,0.163-0.188,0.163
		c-0.066,0-0.169,0.049-0.23,0.109c-0.061,0.055-0.242,0.218-0.406,0.358c-0.17,0.139-0.363,0.254-0.442,0.26
		c-0.073,0-0.255,0.067-0.406,0.152c-0.152,0.084-0.273,0.182-0.273,0.212c0,0.036-0.127,0.128-0.291,0.212
		c-0.157,0.086-0.357,0.152-0.455,0.152c-0.091,0-0.363,0.104-0.606,0.23c-0.388,0.212-0.503,0.242-1.043,0.285
		c-0.334,0.023-0.697,0.084-0.807,0.127c-0.104,0.049-0.285,0.085-0.395,0.085c-0.121-0.006-0.242,0.042-0.315,0.121
		c-0.066,0.067-0.182,0.128-0.261,0.122c-0.072,0-0.225,0.048-0.334,0.108c-0.182,0.097-0.491,0.104-4.045,0.097
		c-3.494,0-3.876-0.012-4.125-0.103c-0.17-0.066-0.442-0.103-0.716-0.103c-0.315,0-0.503-0.031-0.679-0.122
		c-0.134-0.066-0.279-0.121-0.322-0.121c-0.036,0-0.248-0.055-0.467-0.121c-0.218-0.067-0.485-0.122-0.595-0.122
		c-0.103,0-0.309-0.054-0.454-0.127c-0.14-0.066-0.358-0.176-0.485-0.242c-0.121-0.061-0.291-0.115-0.376-0.115
		s-0.298-0.066-0.474-0.152c-0.17-0.084-0.425-0.236-0.558-0.333c-0.134-0.097-0.31-0.206-0.395-0.243
		c-0.085-0.029-0.291-0.212-0.455-0.395c-0.17-0.188-0.333-0.333-0.363-0.333c-0.037,0-0.17-0.115-0.31-0.255
		c-0.134-0.146-0.304-0.303-0.376-0.352c-0.073-0.049-0.17-0.188-0.207-0.303c-0.036-0.115-0.091-0.237-0.115-0.273
		c-0.023-0.03-0.139-0.17-0.248-0.297c-0.121-0.14-0.23-0.219-0.279-0.201c-0.055,0.031-0.072,0.455-0.072,1.802
		c0,1.341-0.019,1.771-0.079,1.808c-0.036,0.024-1.013,0.043-2.166,0.049c-1.152,0-2.832,0.006-3.729,0.012
		c-1.201,0.006-1.656-0.012-1.717-0.066c-0.055-0.049-0.079-0.267-0.073-0.722c0-0.521-0.018-0.667-0.091-0.698
		c-0.055-0.029-0.133-0.006-0.2,0.055c-0.055,0.055-0.17,0.128-0.255,0.164c-0.085,0.037-0.315,0.188-0.516,0.34
		s-0.484,0.357-0.637,0.455c-0.151,0.097-0.333,0.182-0.412,0.182c-0.073,0-0.236,0.049-0.364,0.115
		c-0.133,0.066-0.418,0.121-0.709,0.146c-0.268,0.019-0.589,0.073-0.716,0.128c-0.122,0.055-0.322,0.097-0.438,0.097
		s-0.357,0.055-0.533,0.121c-0.17,0.067-0.467,0.122-0.649,0.122c-0.182,0.006-0.497,0.048-0.697,0.103
		c-0.321,0.091-0.897,0.103-5.125,0.122c-4.501,0.012-4.822,0.006-5.823-0.109c-0.686-0.079-1.146-0.17-1.304-0.243
		c-0.134-0.061-0.353-0.115-0.485-0.115c-0.134,0-0.467-0.055-0.746-0.121c-0.273-0.067-0.582-0.122-0.68-0.122
		c-0.103,0-0.194-0.018-0.206-0.042c-0.012-0.03-0.176-0.14-0.364-0.242c-0.188-0.109-0.424-0.2-0.521-0.2
		c-0.121,0-0.291-0.085-0.503-0.243c-0.17-0.134-0.346-0.242-0.376-0.242c-0.037,0-0.17-0.109-0.304-0.243
		c-0.194-0.199-0.279-0.242-0.606-0.212l-0.013,0.667c-0.012,0.443-0.042,0.691-0.091,0.746c-0.061,0.061-0.831,0.066-7.399-0.018
		l-0.067-0.152c-0.036-0.084-0.061-0.437-0.061-0.788c0.007-0.353,0.024-3.846,0.043-7.764c0.03-6.441,0.024-7.14-0.061-7.278
		c-0.079-0.128-0.085-0.158-0.019-0.194c0.049-0.024,0.128-0.049,0.176-0.049c0.049,0,0.14,0.049,0.194,0.109
		c0.104,0.097,0.115,0.097,0.236-0.019c0.109-0.103,0.158-0.115,0.406-0.066c0.158,0.036,0.438,0.055,0.619,0.049
		c0.188-0.007,0.431,0.023,0.558,0.078c0.164,0.067,0.455,0.092,1.031,0.092c0.546,0,0.904-0.03,1.11-0.092
		c0.163-0.048,0.376-0.091,0.467-0.091c0.097,0,0.182,0.03,0.2,0.061c0.019,0.037,0.104,0.061,0.194,0.061
		c0.097,0.007,0.212-0.036,0.261-0.091s0.157-0.097,0.242-0.091c0.085,0,0.23,0.055,0.334,0.121
		c0.115,0.079,0.285,0.122,0.467,0.122c0.2,0,0.346-0.043,0.455-0.122c0.121-0.091,0.242-0.121,0.655-0.091l0.03,0.952
		c0.018,0.521,0.055,0.971,0.079,1.001c0.03,0.024,0.248-0.157,0.484-0.406c0.243-0.249,0.546-0.51,0.68-0.57
		c0.134-0.066,0.279-0.151,0.321-0.2c0.043-0.042,0.115-0.079,0.152-0.079c0.042,0.007,0.127-0.054,0.193-0.121
		c0.098-0.103,0.194-0.127,0.504-0.121c0.352,0,0.4-0.019,0.576-0.188c0.109-0.108,0.255-0.218,0.327-0.242
		c0.079-0.03,0.285-0.055,0.455-0.055c0.188,0,0.4-0.042,0.504-0.103c0.139-0.079,0.437-0.109,1.364-0.146
		c0.831-0.03,1.256-0.072,1.426-0.139c0.157-0.062,0.467-0.092,0.879-0.098c0.353-0.006,0.825-0.042,1.062-0.085
		C230.315,5.084,230.806,5.047,231.176,5.041 M231.055,9.099c-0.649,0.03-1.219,0.091-1.407,0.152
		c-0.17,0.048-0.4,0.091-0.516,0.091c-0.151,0-0.236,0.048-0.357,0.2c-0.104,0.127-0.176,0.303-0.2,0.527
		c-0.03,0.206-0.019,0.395,0.018,0.485c0.043,0.097,0.194,0.212,0.431,0.321c0.2,0.091,0.455,0.164,0.559,0.164
		c0.109,0,0.278,0.049,0.382,0.109c0.158,0.091,0.425,0.108,2.153,0.133c1.723,0.03,1.995,0.043,2.153,0.14
		c0.151,0.085,0.346,0.104,1.183,0.104c0.782,0,1.062,0.018,1.273,0.097c0.188,0.073,0.601,0.115,1.335,0.151
		c0.582,0.024,1.334,0.079,1.668,0.115c0.334,0.037,0.801,0.085,1.043,0.109c0.236,0.024,0.467,0.079,0.516,0.115
		c0.043,0.043,0.243,0.104,0.443,0.146c0.2,0.037,0.418,0.104,0.484,0.152c0.067,0.048,0.219,0.085,0.334,0.085
		c0.17,0,0.279,0.061,0.516,0.272c0.164,0.151,0.327,0.297,0.364,0.321c0.03,0.03,0.127,0.073,0.212,0.104
		c0.085,0.024,0.255,0.151,0.376,0.279c0.128,0.133,0.255,0.224,0.291,0.206c0.037-0.019,0.061-0.553,0.061-1.407
		c0-1.025-0.018-1.407-0.072-1.48c-0.055-0.072-0.23-0.115-0.595-0.146c-0.285-0.03-1.268-0.049-2.184-0.055
		c-0.916,0-1.844,0.006-2.063,0.019c-0.218,0.019-1.024,0-1.789-0.024c-1.292-0.049-1.401-0.066-1.51-0.182
		c-0.062-0.067-0.17-0.219-0.243-0.334c-0.072-0.115-0.2-0.23-0.285-0.255c-0.079-0.024-0.194-0.127-0.255-0.23
		c-0.055-0.097-0.163-0.194-0.242-0.206c-0.073-0.012-0.382-0.066-0.68-0.121c-0.303-0.049-0.722-0.109-0.939-0.121
		c-0.219-0.019-0.516-0.079-0.668-0.128c-0.151-0.049-0.272-0.091-0.272-0.085c0,0-0.098,0.03-0.213,0.061
		S231.656,9.068,231.055,9.099 M262.323,10.313c-0.279,0-0.442,0.036-0.588,0.121c-0.109,0.066-0.268,0.121-0.353,0.121
		c-0.084,0-0.267,0.061-0.412,0.14c-0.14,0.079-0.352,0.23-0.467,0.34c-0.115,0.108-0.285,0.236-0.382,0.285
		c-0.092,0.048-0.194,0.169-0.225,0.267c-0.037,0.103-0.158,0.255-0.273,0.352c-0.14,0.109-0.212,0.212-0.212,0.315
		c0,0.085-0.043,0.273-0.098,0.425c-0.054,0.151-0.078,0.357-0.061,0.455c0.019,0.097,0.007,0.278-0.023,0.394
		c-0.031,0.122-0.037,0.431-0.007,0.729c0.03,0.284,0.098,0.637,0.152,0.788c0.054,0.151,0.133,0.34,0.182,0.425
		c0.042,0.085,0.097,0.224,0.121,0.321c0.019,0.091,0.061,0.164,0.098,0.164c0.03,0,0.078,0.091,0.097,0.199
		c0.019,0.104,0.109,0.285,0.2,0.4c0.085,0.115,0.236,0.243,0.34,0.285c0.097,0.037,0.225,0.115,0.272,0.17
		c0.049,0.055,0.146,0.104,0.213,0.098c0.066,0,0.176,0.055,0.242,0.121s0.176,0.127,0.242,0.127c0.067,0,0.17,0.043,0.237,0.104
		c0.091,0.085,0.285,0.109,1.122,0.146c0.624,0.024,1.122,0.079,1.31,0.134c0.164,0.055,0.413,0.097,0.546,0.097
		c0.146,0,0.285-0.042,0.358-0.109c0.085-0.079,0.255-0.108,0.728-0.134c0.485-0.023,0.643-0.054,0.728-0.133
		c0.062-0.061,0.188-0.109,0.285-0.109c0.098,0,0.188-0.023,0.207-0.061c0.018-0.036,0.127-0.104,0.242-0.151
		c0.115-0.049,0.255-0.128,0.31-0.164c0.055-0.042,0.212-0.188,0.352-0.327c0.134-0.134,0.297-0.268,0.352-0.285
		c0.061-0.024,0.152-0.146,0.206-0.268c0.055-0.127,0.115-0.242,0.14-0.26c0.024-0.019,0.115-0.158,0.206-0.316
		c0.164-0.291,0.164-0.291,0.164-1.576c0.006-1.226,0-1.298-0.121-1.413c-0.066-0.067-0.121-0.164-0.121-0.213
		c0-0.048-0.043-0.157-0.104-0.242s-0.176-0.279-0.261-0.443c-0.121-0.224-0.225-0.321-0.473-0.454
		c-0.183-0.092-0.37-0.213-0.425-0.273c-0.061-0.061-0.146-0.109-0.194-0.109s-0.176-0.048-0.272-0.109
		c-0.104-0.061-0.279-0.127-0.395-0.146c-0.115-0.018-0.255-0.078-0.304-0.133c-0.048-0.055-0.157-0.098-0.242-0.091
		c-0.085,0-0.219-0.049-0.304-0.104c-0.127-0.091-0.321-0.109-1.304-0.127c-1.043-0.013-1.177,0-1.396,0.108
		C262.796,10.27,262.589,10.306,262.323,10.313 M221.065,15.31c0.007,1.116,0.03,1.554,0.085,1.632
		c0.073,0.109,0.092,0.109,0.322,0.019c0.151-0.062,0.418-0.097,0.697-0.097c0.303,0,0.499,0.029,0.588,0.09
		c0.128,0.079,0.152,0.079,0.243,0c0.097-0.078,0.278-0.084,1.353-0.048c0.686,0.024,1.517,0.042,1.85,0.042
		c0.334,0,0.989-0.023,1.456-0.055l0.849-0.049c0.261,0.486,0.334,0.674,0.334,0.734c0,0.055,0.127,0.242,0.291,0.419
		c0.206,0.236,0.328,0.315,0.449,0.321c0.097,0,0.212,0.043,0.261,0.091c0.049,0.049,0.164,0.109,0.255,0.128
		c0.097,0.023,0.272,0.091,0.394,0.151c0.213,0.108,0.413,0.115,2.506,0.115c1.916,0,2.311-0.013,2.499-0.097
		c0.127-0.049,0.346-0.115,0.484-0.152c0.146-0.03,0.304-0.091,0.358-0.127c0.049-0.043,0.14-0.127,0.194-0.182
		s0.146-0.152,0.193-0.213c0.049-0.061,0.098-0.273,0.109-0.473c0.024-0.364,0.024-0.364-0.255-0.649
		c-0.151-0.164-0.327-0.291-0.388-0.291c-0.055,0-0.188-0.055-0.285-0.115c-0.158-0.104-0.346-0.115-1.486-0.14
		c-1.043-0.024-1.353-0.049-1.547-0.133c-0.133-0.055-0.333-0.098-0.442-0.098c-0.104,0-0.285-0.049-0.395-0.104
		c-0.163-0.091-0.431-0.115-1.649-0.145c-0.952-0.025-1.517-0.062-1.638-0.115c-0.104-0.043-0.606-0.092-1.189-0.115
		c-0.758-0.025-1.03-0.062-1.115-0.128c-0.079-0.067-0.322-0.097-0.844-0.122c-0.563-0.023-0.771-0.054-0.886-0.139
		c-0.103-0.066-0.267-0.104-0.484-0.104c-0.279,0-0.383-0.03-0.631-0.193c-0.164-0.109-0.346-0.225-0.4-0.262
		c-0.061-0.036-0.158-0.109-0.219-0.163c-0.066-0.062-0.2-0.109-0.297-0.109c-0.115,0-0.304-0.085-0.516-0.242
		c-0.183-0.134-0.346-0.243-0.364-0.243c-0.018,0-0.097-0.055-0.182-0.121s-0.225-0.121-0.31-0.121s-0.176,0.018-0.206,0.042
		C221.077,13.77,221.059,14.473,221.065,15.31"/>
</g>
</svg>
