<?xml version="1.0" encoding="utf-8"?>
<!-- Generator: Adobe Illustrator 15.0.0, SVG Export Plug-In . SVG Version: 6.00 Build 0)  -->
<!DOCTYPE svg PUBLIC "-//W3C//DTD SVG 1.1//EN" "http://www.w3.org/Graphics/SVG/1.1/DTD/svg11.dtd">
<svg version="1.1" id="레이어_1" xmlns="http://www.w3.org/2000/svg" xmlns:xlink="http://www.w3.org/1999/xlink" x="0px"
	 y="0px" width="100px" height="32px" viewBox="0 0 100 32" enable-background="new 0 0 100 32" xml:space="preserve">
<path fill="#191919" d="M89.076,0.57c-2.827,1.469-2.589,4.57,0.511,6.651c1.99,1.336,3.545,1.321,4.203-0.04
	c0.688-1.418-0.027-3.323-1.4-3.735c-1.371-0.411-2.004,0.466-1.045,1.451c0.558,0.575,0.603,0.74,0.25,0.918
	c-0.647,0.329-1.832-0.564-2.116-1.597c-0.325-1.178,0.862-2.291,2.442-2.291c1.197,0,2.695,0.966,3.283,2.116
	c0.484,0.95,0.311,3.097-0.51,6.296c-0.326,1.275-0.713,2.044-1.678,3.339c-2.342,3.146-5.936,5.582-8.225,5.573
	c-3.046-0.012-5.209-2.326-3.932-4.208c0.622-0.915,1.063-1.029,3.99-1.04c2.865-0.01,3.423-0.119,3.974-0.772
	c1.168-1.388,0.579-4.429-1.129-5.836c-1.935-1.594-5.535-1.083-7.444,1.057c-1.479,1.655-2.009,3.314-2.023,6.33
	c-0.008,1.716,0.037,2.175,0.299,3.009c0.832,2.656,2.631,4.104,5.262,4.232c2.856,0.139,4.586-0.721,7.732-3.842
	c2.431-2.411,3.74-4.282,4.447-6.35c1.086-3.178,1.324-5.366,0.781-7.186c-0.644-2.16-1.802-3.265-4.338-4.138
	C91.333,0.14,89.853,0.166,89.076,0.57 M6.39,0.68C3.536,0.972,1.222,4.347,0.578,9.156c-0.19,1.421-0.1,10.447,0.141,14.083
	c0.349,5.254,0.575,6.248,1.639,7.185c1.73,1.522,3.683,0.875,3.683-1.224c0-0.643-0.35-1.145-1.147-1.647
	c-1.205-0.761-1.324-1.666-1.44-10.881C3.36,9.129,3.416,8.361,4.18,6.852c1.2-2.372,4.922-3.69,7.183-2.543
	c2.023,1.025,2.68,2.09,2.762,4.472c0.087,2.551-0.478,5.021-1.55,6.776c-0.767,1.255-1.361,1.597-2.33,1.339
	c-1.488-0.396-2.733-2.613-2.03-3.617c0.196-0.28,0.294-0.302,0.999-0.219c0.664,0.078,0.81,0.053,0.97-0.166
	c0.323-0.442,0.23-1.131-0.219-1.635c-0.377-0.421-0.473-0.456-1.251-0.452c-1.42,0.008-2.298,0.959-2.768,3
	c-0.331,1.436-0.324,4.04,0.014,5.521c0.854,3.74,3.687,6.914,6.928,7.761c1.193,0.312,2.821,0.224,3.688-0.201
	c1.109-0.543,1.413-1.089,1.409-2.528c-0.005-1.805-0.852-3.309-2.36-4.193c-1.707-1-3.575-0.264-3.575,1.41
	c0,1.467,0.588,1.842,1.85,1.182c0.884-0.465,1.201-0.432,1.516,0.156c0.19,0.355,0.067,1.265-0.233,1.724
	c-0.324,0.494-1.236,0.808-2.03,0.698c-2.665-0.366-5.535-3.729-4.88-5.715c0.227-0.686,0.521-0.807,2.234-0.922
	c1.79-0.119,2.309-0.35,3.375-1.502c3.056-3.301,3.683-9.378,1.333-12.918C13.701,1.993,9.654,0.344,6.39,0.68 M78.392,4.409
	c-0.119,0.135-0.322,0.559-0.45,0.943c-0.429,1.285-0.789,1.616-1.075,0.986c-0.176-0.384-0.438-0.527-0.747-0.408
	c-0.159,0.062-0.21,0.321-0.21,1.083v1.002l-0.58,0.206c-1.117,0.395-1.08,0.922,0.105,1.53c0.451,0.232,0.756,0.504,0.895,0.803
	c0.318,0.687,0.66,0.596,0.777-0.207c0.137-0.941,0.248-1.091,0.967-1.292c0.352-0.098,0.674-0.236,0.717-0.307
	c0.176-0.284-0.097-0.788-0.502-0.929c-0.455-0.159-0.462-0.089,0.102-1.28C79.136,4.958,79.138,3.565,78.392,4.409 M34.05,5.91
	c-1.634,0.441-2.958,1.536-3.853,3.186c-0.451,0.83-0.47,0.928-0.465,2.334c0.006,1.641,0.145,2.193,1.023,4.089
	c0.58,1.251,1.099,2.084,1.761,2.828c0.206,0.23,0.605,0.703,0.888,1.049s0.552,0.66,0.598,0.698
	c0.377,0.313,2.267,2.933,2.555,3.541c1.097,2.319,0.666,4.972-0.949,5.843c-1.82,0.98-3.229,0.844-4.61-0.447
	c-1.57-1.47-2.195-3.314-1.47-4.348c0.668-0.951,1.283-1.08,1.956-0.406c0.752,0.752,0.406,1.379-0.517,0.938
	c-0.634-0.303-0.989-0.289-1.166,0.041c-0.476,0.889,1.291,1.758,2.577,1.268c0.705-0.268,1.17-2.074,0.764-2.966
	c-0.33-0.726-1.695-1.351-2.966-1.36c-1.326-0.01-2.449,0.619-3.189,1.786c-1.051,1.657-0.048,4.854,2.036,6.489
	c1.27,0.996,2.306,1.293,4.477,1.279c2.79-0.016,4.464-0.637,6.023-2.234c1.407-1.441,1.836-2.723,1.678-5.008
	c-0.148-2.148-0.291-2.359-4.635-6.86c-1.483-1.537-2.83-2.964-2.991-3.172c-0.889-1.14-1.34-3.128-0.998-4.395
	c0.224-0.829,1.285-2.058,2.149-2.488c1.719-0.857,3.175-0.192,3.175,1.451c0,0.722-0.372,1.653-0.701,1.757
	c-0.357,0.113-1.166-0.252-1.848-0.835c-0.852-0.729-1.643-0.576-1.643,0.318c0,0.495,0.631,1.722,1.169,2.272
	c0.555,0.567,0.896,0.689,1.922,0.689c2.412,0,3.896-1.271,3.896-3.335c0-1.486-0.626-2.436-2.217-3.365
	C37.102,5.742,35.517,5.514,34.05,5.91 M47.599,6.677c-4.349,0.915-8.412,7.094-7.246,11.02c0.66,2.225,3.184,4.842,5.775,5.99
	c1.9,0.844,4.908-0.049,4.908-1.455c0-0.85-0.425-1.068-2.515-1.299c-2.129-0.234-2.992-0.578-3.984-1.59
	c-1.018-1.037-1.326-1.855-1.326-3.529c0-3.001,1.937-6.375,4.119-7.172c1.701-0.622,2.591,0.065,2.587,1.994
	c-0.004,1.511-0.43,1.919-1.352,1.292c-0.921-0.625-1.627-0.456-2.205,0.53c-0.623,1.063-0.454,2.354,0.413,3.165
	c0.521,0.486,2.483,0.513,3.362,0.045c0.771-0.411,1.688-1.44,2.137-2.396c0.516-1.099,0.551-3.534,0.063-4.443
	C51.411,7.102,49.565,6.263,47.599,6.677 M22.634,7.25c-3.101,0.731-5.022,4.025-4.801,8.232c0.094,1.788,0.336,2.646,1.026,3.635
	c1.047,1.498,2.514,2.203,4.858,2.334c1.517,0.084,2.325-0.17,3.885-1.223c1.156-0.779,1.711-1.484,1.558-1.979
	c-0.241-0.772-0.926-0.723-1.972,0.146c-1.361,1.128-1.97,1.419-2.968,1.419c-2.271,0-3.819-1.84-3.615-4.297
	c0.111-1.337,0.193-1.37,3.361-1.319c2.59,0.041,2.708,0.031,3.314-0.286c0.732-0.382,1.258-1.254,1.258-2.085
	c0-0.758-0.632-2.642-1.081-3.222c-0.46-0.594-1.091-1.048-1.814-1.306C25.052,7.088,23.434,7.062,22.634,7.25 M58.433,7.991
	c-3.293,0.951-5.194,3.69-5.396,7.772c-0.185,3.756,0.888,6.256,3.294,7.686c1.424,0.847,2.172,1.021,4.066,0.947
	c1.761-0.066,2.434-0.275,3.902-1.207c1.789-1.134,2.314-2.027,2.314-3.934c0-1.641-0.27-2.182-1.377-2.762
	c-1.688-0.883-5.852-0.148-6.671,1.178c-0.384,0.621-0.329,1.943,0.104,2.529c0.571,0.771,1.109,1.012,2.27,1.012
	c1.596-0.002,2.316-0.535,2.225-1.648c-0.041-0.494-0.064-0.517-0.533-0.498c-0.269,0.012-0.758,0.104-1.088,0.205
	c-0.957,0.297-1.455-0.167-0.798-0.742c1.009-0.88,2.774-0.875,3.527,0.01c0.616,0.724,0.304,1.979-0.786,3.168
	c-2.016,2.203-6.396,1.08-7.807-1.998c-0.473-1.03-0.603-2.651-0.256-3.18c0.556-0.849,0.824-0.905,4.342-0.908
	c3.072-0.003,3.24-0.017,3.773-0.317c0.78-0.439,1.049-1.04,1.049-2.356c0-2.201-0.813-3.672-2.537-4.591
	C61.036,7.813,59.562,7.664,58.433,7.991 M85.406,8.967c0.528,0.242,1.004,1.042,0.955,1.606c-0.063,0.746-0.538,1.007-2.123,1.17
	c-2.679,0.276-3.532-0.378-2.31-1.772C82.95,8.808,84.244,8.435,85.406,8.967 M24.906,9.684c0.499,0.478,0.755,1.081,0.646,1.517
	c-0.137,0.546-0.916,0.814-2.592,0.893c-1.32,0.062-1.514,0.04-1.813-0.204c-0.469-0.382-0.313-0.882,0.535-1.708
	C22.778,9.115,24.099,8.911,24.906,9.684 M60.651,10.603c0.452,0.279,0.881,1.019,0.896,1.546c0.024,0.885-0.867,1.236-3.142,1.237
	c-1.315,0.001-1.537-0.034-1.78-0.279c-0.49-0.489-0.24-1.217,0.658-1.921C58.544,10.2,59.679,10.003,60.651,10.603 M71.704,11.013
	c-0.688,0.117-1.148,0.324-2.191,0.989c-0.623,0.397-0.713,0.416-1.645,0.33c-1.215-0.112-1.387,0.031-1.371,1.14
	c0.01,0.599,0.146,1.029,0.676,2.115c0.994,2.043,1.19,2.707,1.19,4.01c0,2.123-0.629,3.682-2.353,5.829
	c-1.144,1.425-1.42,1.952-1.42,2.705c0,1.276,1.955,1.778,3.348,0.856c0.716-0.474,1.895-2.256,2.087-3.156
	c0.567-2.644,0.657-4.943,0.349-8.774c-0.32-3.939,3.459-5.064,4.91-1.463c0.34,0.842,0.377,1.106,0.371,2.614
	c-0.004,0.922-0.105,2.272-0.227,3.004c-0.473,2.88-0.219,4.332,0.759,4.332c0.623,0,0.831-0.133,1.134-0.727
	c0.27-0.529,0.279-0.76,0.229-5.259c-0.056-4.993-0.057-5.001-0.793-6.431C75.878,11.426,73.976,10.629,71.704,11.013
	 M95.232,17.153c-0.194,0.183-0.394,0.719-0.597,1.606c-0.168,0.733-0.33,1.334-0.362,1.334s-0.185-0.126-0.338-0.279
	c-0.659-0.659-1.335-0.223-1.222,0.788l0.072,0.645l-1.013-0.092c-1.147-0.104-1.683,0.039-1.824,0.484
	c-0.153,0.484,0.317,0.963,1.306,1.32c1.094,0.396,1.094,0.395,0.891,0.955c-0.092,0.254-0.166,0.605-0.166,0.785
	c0,0.309,0.033,0.318,0.757,0.233c0.896-0.104,0.909-0.086,0.747,1.127c-0.066,0.49-0.102,1.281-0.078,1.759
	c0.037,0.78,0.072,0.873,0.357,0.913c0.365,0.052,0.588-0.37,0.871-1.657c0.095-0.428,0.254-0.89,0.355-1.027
	c0.171-0.234,0.208-0.236,0.505-0.029c0.685,0.479,1.097,0.146,1.097-0.885v-0.568h1.299c1.467,0,1.635-0.086,1.635-0.845
	c0-0.667-0.275-0.897-1.408-1.183l-0.92-0.23l0.273-0.557c0.406-0.818,0.188-1.238-0.644-1.238c-0.336,0-0.64-0.029-0.677-0.066
	c-0.038-0.037,0.02-0.557,0.122-1.154C96.597,17.456,96.069,16.373,95.232,17.153 M95.787,21.771c0.175,0,0.239,0.159,0.272,0.66
	c0.033,0.543,0.104,0.691,0.391,0.837c0.332,0.167,0.335,0.177,0.045,0.179c-0.43,0.002-0.742,0.367-0.742,0.865
	c0,0.387-0.033,0.416-0.361,0.334c-0.772-0.193-1.066,0.162-1.247,1.512c-0.05,0.375-0.146,0.814-0.212,0.978
	c-0.176,0.438-0.174-0.657,0.005-1.597c0.192-1.018,0.098-1.252-0.509-1.252c-0.27,0-0.61,0.064-0.76,0.146
	c-0.263,0.142-0.264,0.131-0.041-0.334c0.362-0.762,0.178-1.165-0.724-1.578c-0.42-0.19-0.765-0.368-0.765-0.396
	c0-0.025,0.548-0.036,1.217-0.024l1.215,0.021l0.131-0.446c0.174-0.595,0.946-0.707,1.498-0.218
	C95.397,21.629,95.661,21.771,95.787,21.771 M86.813,22.792c-0.602,0.207-1.123,0.949-1.123,1.599c0,1.116,1.631,1.899,2.385,1.146
	c1.008-1.01,1.389-2.297,0.799-2.709C88.509,22.571,87.505,22.554,86.813,22.792 M80.103,23.026
	c-0.377,0.702,0.248,1.293,1.076,1.019c0.565-0.188,0.641-0.954,0.109-1.155C80.714,22.67,80.265,22.722,80.103,23.026
	 M88.318,23.673c0.034,0.346-0.049,0.513-0.396,0.805c-0.767,0.645-1.455,0.352-1.111-0.477
	C87.188,23.09,88.239,22.862,88.318,23.673 M82.824,23.59c-0.272,0.3-0.444,1.624-0.249,1.901c0.063,0.086,0.316,0.201,0.568,0.256
	c0.398,0.086,0.518,0.039,0.943-0.387c0.57-0.572,0.635-1.125,0.195-1.685C83.921,23.216,83.202,23.173,82.824,23.59 M83.734,24.629
	c0,0.325-0.33,0.567-0.571,0.418c-0.207-0.128-0.145-0.507,0.115-0.698C83.587,24.124,83.734,24.214,83.734,24.629"/>
</svg>
