<?xml version="1.0" encoding="utf-8"?>
<!-- Generator: Adobe Illustrator 15.0.0, SVG Export Plug-In . SVG Version: 6.00 Build 0)  -->
<!DOCTYPE svg PUBLIC "-//W3C//DTD SVG 1.1//EN" "http://www.w3.org/Graphics/SVG/1.1/DTD/svg11.dtd">
<svg version="1.1" id="레이어_1" xmlns="http://www.w3.org/2000/svg" xmlns:xlink="http://www.w3.org/1999/xlink" x="0px"
	 y="0px" width="466px" height="766px" viewBox="0 -0.5 466 766" enable-background="new 0 -0.5 466 766" xml:space="preserve">
<g>
	<path fill="#191919" d="M465.805,765.202c-10.111-3.683-20.016-7.264-29.896-10.896c-60.451-22.2-120.881-44.425-181.357-66.549
		c-2.742-1.016-3.58-2.285-3.58-5.181c0.076-169.901,0.076-339.802,0.025-509.703c0-2.49,0.609-4.14,2.666-5.766
		C323.158,112.37,392.602,57.557,462.071,2.743c1.092-0.863,2.209-1.65,3.76-2.794v765.228L465.805,765.202z M0.17,765.202V-0.203
		c6.909,5.436,13.41,10.515,19.863,15.62c63.651,50.217,127.304,100.459,191.008,150.599c2.997,2.362,4.09,4.724,4.09,8.56
		c-0.102,168.758-0.102,337.516,0.025,506.299c0,4.242-1.093,6.07-5.156,7.544c-68.631,25.02-137.187,50.216-205.766,75.362
		c-1.271,0.481-2.566,0.914-4.039,1.422L0.17,765.202z"/>
</g>
</svg>
