<?xml version="1.0" encoding="utf-8"?>
<!-- Generator: Adobe Illustrator 15.0.0, SVG Export Plug-In . SVG Version: 6.00 Build 0)  -->
<!DOCTYPE svg PUBLIC "-//W3C//DTD SVG 1.1//EN" "http://www.w3.org/Graphics/SVG/1.1/DTD/svg11.dtd">
<svg version="1.1" id="레이어_1" xmlns="http://www.w3.org/2000/svg" xmlns:xlink="http://www.w3.org/1999/xlink" x="0px"
	 y="0px" width="378px" height="150px" viewBox="0 0 378 150" enable-background="new 0 0 378 150" xml:space="preserve">
<path d="M80.251,5.651c-7.3,7.1-8.899,13.2-6,22.9c0.3,1.2-1.399,3-5.8,5.9c-20,13.6-31.301,28.9-33.9,46.2
	c-1.1,6.5-1,8.6,0.4,14.398c2.199,8.602,5.5,13,12.5,16.102c9.699,4.5,23.699,2.199,37.6-6.2c3.2-1.9,6-3.5,6.2-3.5
	c0.899,0-4,8.8-9.2,16.6c-6.899,10.5-17.8,20.7-26.3,24.802c-6,2.799-7.5,3.1-16.101,3.1c-8.101,0-10.199-0.4-14.399-2.5
	c-6.899-3.5-9-6.7-9.101-13.7c0-5.5,0.101-5.7,3.2-6.5c4.399-1.101,7.3-5.2,7.3-10c0-2.2-0.5-4.8-1-5.899
	c-1.601-2.801-6.3-4.899-11.399-4.899c-8.399,0-13.899,7.399-13.899,18.399c0,9.601,5.399,17.101,16.101,22.5
	c17.1,8.601,42.1,6.301,63.899-6c9.699-5.399,25.8-21.199,32.699-31.801c6.5-10,13.801-25.199,13.9-29.3l0.199-3.3l-7.699,0.1
	c-13.5,0.2-20.2,5.5-24.601,19.301c-2,6.398-6.5,10.299-14.899,12.698c-8.9,2.601-14.7,0.302-18.4-7.3
	c-1.899-3.898-2.1-5.6-1.699-14.898c0.399-9.701,0.699-10.9,4.601-18.602c2.3-4.6,6.899-11.8,10.199-16.1l6.2-7.8l4.101,3.3
	c9.1,7.3,17.699,10.6,30.199,11.5c13,0.9,29.801-2.7,36.801-7.8l2.899-2.1l-1.301,2.4c-0.6,1.2-8,13.8-16.399,27.8
	c-18.5,31.1-23.699,40.6-27,49.3c-5.899,15.8-1,24.602,13.2,23.4c8.601-0.7,15.3-4.7,27.699-17c8.101-8,10.2-9.5,11.301-8.5
	c0.8,0.699,3.3,1.398,5.601,1.699c4.199,0.601,4.199,0.699,4.699,5.301c0.301,2.6,0.899,5,1.301,5.398c0.399,0.4,2.8,1.2,5.399,1.9
	c4.601,1.199,4.8,1.4,5.399,5.3c1,7.5-0.101,7.2,30.5,7.2c23.4,0,27.5-0.2,28.799-1.6c1.201-1.201,1.602-3.802,1.602-11.302
	c0-10.8,0.602-12.1,5.602-12.1c2.299,0,3.898-0.8,5.299-2.601c1.9-2.399,2.102-4,2.102-15.5c0-16.899-1.102-19.899-7.701-19.899
	c-3.699,0-5.299-2.101-5.299-6.9c0-3.6-3.102-6.1-7.602-6.1c-3.398,0-4.398-1.3-4.398-6c0-1.9-0.9-3.6-2.602-4.9
	c-2.5-2-3.898-2.1-27.898-2.1c-31.901,0-30.5-0.7-30.5,14.5c0,11.2-0.199,11.5-5.899,11.5c-5.399,0-6.101,2.1-6.101,18.1v14.4
	l-11,10.8c-15.399,15.102-24,18.602-24,9.8c0-6.198,8.101-21.5,31.5-59.6c17.899-29.1,29.5-48.5,29.5-49.1c0-0.3-5.3-0.3-11.699,0.1
	c-9.101,0.6-12.101,1.1-13,2.4c-1,1.3-1.2,0.8-1.301-3.1c0-9-8.601-14.9-23.601-16.3c-13.199-1.3-31.399,2.8-51.6,11.5
	c-4.801,2.1-9,3.5-9.2,3.2c-0.2-0.4-0.7-2.5-1-4.7c-1.2-7.4,2.8-15.5,9.601-19.7c4-2.4,4.8-3.8,2.3-3.8
	C86.251,0.451,83.15,2.851,80.251,5.651 M139.35,18.451c4.5,2.7,5.601,5.3,5.101,12.1c-0.601,7.8-4,12.2-13.301,16.9
	c-6.699,3.3-7.399,3.5-17.5,3.5c-12.5-0.1-19.3-2.3-26.199-8.5l-4.301-4l2.5-2c8.899-7.4,21.601-14.9,30.5-18.1
	C123.251,15.851,135.15,15.851,139.35,18.451 M232.049,74.051c1.102,0.4,1.602,1.9,1.602,4.3c0,5.199,1.898,7.301,7.102,8
	l4.398,0.601v37l-4.199,0.3c-5.102,0.4-7.301,2.9-7.301,8.3v3.601l-9.102,0.801c-11.6,0.9-35.899,0.5-38.098-0.7
	c-1.2-0.601-1.801-2-1.801-4.5c0-4.601-2.399-7.3-6.5-7.3c-1.8,0-3.8-0.6-4.399-1.4c-0.8-0.898-1.101-6.8-0.899-18.699l0.3-17.399
	l4.2-0.601c5.899-0.801,7.3-2.301,7.3-8v-4.899h22.9C220.151,73.451,231.151,73.751,232.049,74.051 M251.85,62.651
	c0.301,0.7,4.9,16.8,10.199,35.8c5.4,19,10.9,38.2,12.301,42.8l2.4,8.3l10.699-0.3l10.701-0.3l8-29.2
	c4.398-16,8.299-29.398,8.6-29.8c0.299-0.3,4.299,13,8.9,29.5l8.398,30h21.199l2.699-9.3c14.201-49.9,21.701-76.601,21.701-77.5
	c0-0.8-3.201-1.2-10.301-1.2h-10.199l-7.4,29.7c-4,16.398-7.6,30.1-8,30.5c-0.301,0.398-4.199-13-8.5-29.7l-7.898-30.5h-10.301
	c-8.898,0-10.301,0.2-10.801,1.7c-0.301,1-3.699,14.399-7.6,29.8c-3.898,15.399-7.301,28.7-7.602,29.5c-0.5,1.2-7-22.9-15.799-58.3
	l-0.6-2.7h-10.602C253.949,61.451,251.549,61.751,251.85,62.651"/>
</svg>
