<?xml version="1.0" encoding="utf-8"?>
<!-- Generator: Adobe Illustrator 15.0.0, SVG Export Plug-In . SVG Version: 6.00 Build 0)  -->
<!DOCTYPE svg PUBLIC "-//W3C//DTD SVG 1.1//EN" "http://www.w3.org/Graphics/SVG/1.1/DTD/svg11.dtd">
<svg version="1.1" id="레이어_1" xmlns="http://www.w3.org/2000/svg" xmlns:xlink="http://www.w3.org/1999/xlink" x="0px"
	 y="0px" width="634px" height="235px" viewBox="-0.388 -0.375 634 235" enable-background="new -0.388 -0.375 634 235"
	 xml:space="preserve">
<path fill="#191919" d="M378.527,137.191l0.024,80.264c0,0-5.904,6.756-14.258,16.8V63.026l13.903,7.693
	c0.297,45.592,0.255,61.998,0.255,61.998c0.11,0.055,36.217,19.369,36.452,19.479c5.17-6.414,10.29-12.75,15.391-19.103
	c8.128-10.124,16.478-20.07,22.957-31.42c6.63-11.615,10.728-23.885,11.201-37.357c0.325-9.244-0.927-18.11-5.137-26.388
	c-9.347-18.072-28.945-28.428-49.142-25.966c-15.434,1.752-28.851,7.646-40.157,18.26c-10.639,9.868-17.957,22.792-20.947,36.991
	c-0.105,0.488-0.229,0.973-0.378,1.449c-0.044,0.142-0.196,0.25-0.45,0.558c-1.898-8.086-4.978-15.848-9.137-23.036
	c-8.343-14.354-20.55-24.062-35.859-30.01c-9.178-3.568-18.706-5.457-28.599-4.476c-10.853,1.077-20.66,4.559-27.74,13.412
	c-6.875,8.598-5.972,18.449,2.84,24.926c5.662,4.159,53.03,28.199,70.456,36.869c12.11,6.025,18.063,19.821,14.043,33.967
	c-1.368,4.526-3.517,8.779-6.35,12.566c-6.94,9.46-14.39,18.546-21.64,27.78c-0.405,0.516-0.83,1.018-1.468,1.794l-78.396-41.979
	c-2.07,4.256-3.767,8.521-6.098,12.408c-10.88,18.142-26.858,27.75-48.163,27.88c-26.001,0.175-49.501-15.465-59.38-39.518
	c-1.648-3.969-3.066-8.033-4.625-12.14c-1.375,3.289-2.572,6.638-4.135,9.808c-11.102,22.526-29.159,36.12-53.676,40.969
	c-12.089,2.391-23.786,0.833-34.31-6.042C0.367,144.181-4.277,125.872,4.14,108.452c1.313-2.719,3.904-8.41,17.971-21.838
	C34.46,75.026,47.6,64.308,61.436,54.54c0.504,0.278,34.536,17.92,34.939,18.101c-0.5-4.12-0.742-7.831-1.426-11.46
	c-3.008-15.941-9.636-30.07-21.509-41.395C66.502,13.169,58.558,8.04,48.869,6.856c-8.164-0.997-15.64-0.06-22.131,3.364
	c-8.072,4.257-11.214,9.51-11.491,10.205l-0.661,1.66L1.111,22.071c2.199-2.547,3.807-4.705,5.707-6.563
	C19.456,3.144,34.647-1.719,52.077,0.737c26,3.661,42.696,18.973,52.527,42.62c1.325,3.187,2.336,6.503,3.482,9.734
	c2.016-4.477,3.71-9.086,6.063-13.332c12.517-22.596,31.294-36.566,57.24-39.302c15.941-1.681,29.925,3.342,38.931,17.356
	c8.256,12.847,7.386,26.29-0.415,39.168c-2.002,3.306-5.927,10.113-24.04,25.905c-13.687,11.934-26.97,21.7-30.999,24.836
	l-10.985-5.5c-9.903-5.148-13.238-6.977-22.274-11.741c-0.355-0.187-0.735-0.324-1.697-0.743c0.416,3.79,0.632,7.207,1.19,10.567
	c2.109,12.74,6.187,24.74,14.504,34.857c8.94,10.877,19.912,18.683,34.252,20.555c13.145,1.716,23.825-3.331,32.468-12.936
	c7.966-8.753,12.987-19.784,14.358-31.539l75.074,39.779l21.264-26.873c8.611-11.388,7.825-27.274-1.697-36.29
	c-2.076-1.92-4.414-3.536-6.944-4.8c-19.435-9.892-38.945-19.632-58.388-29.508c-3.248-1.693-6.392-3.58-9.414-5.65
	c-10.185-6.821-12.513-17.813-5.746-27.998c6.188-9.313,15.238-14.729,25.83-17.621c12.9-3.521,25.74-2.529,38.402,1.301
	c15.368,4.646,28.857,12.421,39.508,24.639c7.22,8.053,11.99,18,13.748,28.672c0.342-1.086,0.574-1.649,0.696-2.236
	c3.846-18.475,14.336-32.279,29.89-42.519c11.574-7.731,25.177-11.866,39.096-11.885c13.229-0.07,26.085,1.89,37.356,9.63
	c12.325,8.245,21.027,20.895,24.323,35.352c0.128,0.53,0.3,1.05,0.56,1.95c1.315-3.544,2.342-6.786,3.697-9.884
	c7.781-17.786,21.31-29.021,39.819-34.315C540.702-2.07,558.92-0.678,574.9,6.892c16.16,7.47,26.622,20.11,31.979,37.04
	c2.296,7.49,3.456,15.282,3.441,23.116c0.122,13.906-0.231,27.828,0.308,41.717c0.282,8.066,1.354,16.086,3.199,23.943
	c2.525,10.511,9.237,18.485,18.074,24.643c0.41,0.285,0.83,0.556,1.235,0.848c0.05,0.035,0.037,0.157,0.087,0.406
	c-2.792,0.322-5.441,0.6-8.11-0.909c-13.027-7.356-21.318-18.06-23.746-33.015c-0.128-0.42-0.293-0.828-0.492-1.22
	c-0.957,1.543-1.744,2.854-2.57,4.14c-13.005,20.213-31.42,31.983-55.274,34.869c-14.424,1.745-28.284-0.228-40.689-8.428
	c-15.002-9.917-20.545-26.874-16.825-41.673c1.827-7.508,5.819-14.313,11.479-19.57c16.364-15.195,45.396-40.795,45.396-40.795
	c34.707,19.607,51.536,27.881,52.433,28.317c0-4.867,0.12-9.411-0.023-13.946c-0.334-10.529-2.182-20.713-7.882-29.807
	c-7.931-12.646-18.824-21.35-33.831-23.808c-20.194-3.307-38.399,1.218-53.761,15.134c-9.514,8.617-15.012,19.689-17.707,32.065
	c-0.997,4.578-0.488,9.462-1.087,14.153c-1.677,13.163-6.59,25.197-13.234,36.594c-7.895,13.538-18.44,25.057-28.197,37.177
	c-4.068,5.053-8.195,10.06-12.337,15.138L378.527,137.191z M499.955,127.955c0.075,1.264,0.071,2.354,0.216,3.423
	c2.498,18.572,19.462,29.17,36.315,28.27c11.108-0.595,20.87-4.892,29.391-11.81c6.209-4.991,11.601-10.923,15.978-17.579
	c0,0,12.521-19.156,13.006-43.563c0.001-0.044,0.03-1.594,0.032-1.593l-40.638-21.706l-19.954,17.838
	c-8.507,8.07-17.084,16.088-25.211,24.532C503.327,111.728,500.059,119.665,499.955,127.955L499.955,127.955z M119.666,77.45
	c0.068,2.559,0.123,5.116,0.165,7.675c0,0,20.188,10.472,24.8,12.739c9.641-8.471,19.75-15.369,28.367-23.123
	c6.486-5.649,16.818-15.117,23.252-25.253c4.107-6.47,6.137-13.451,5.186-21.125c-2.181-17.582-19.178-28.046-36.242-22.279
	c-13.016,4.396-22.548,13.272-37.253,36.566C127.941,42.651,119.236,60.966,119.666,77.45L119.666,77.45z M71.605,64.121
	c-0.907,0.719-13.34,11.002-18.585,15.502c-8.652,7.425-17.55,14.6-25.783,22.467c-8.227,7.858-13.105,17.463-12.283,29.391
	c0.752,10.931,7.128,20.096,16.857,23.547c7.393,2.623,14.749,2.178,22-0.46c12.044-4.38,21.069-12.619,28.172-22.987
	c2.791-4.038,5.196-8.329,7.187-12.816c8.574-19.835,7.304-41.516,7.306-41.547C96.475,77.217,88.12,72.906,71.605,64.121
	L71.605,64.121z"/>
</svg>
