<?xml version="1.0" encoding="utf-8"?>
<!-- Generator: Adobe Illustrator 15.0.0, SVG Export Plug-In . SVG Version: 6.00 Build 0)  -->
<!DOCTYPE svg PUBLIC "-//W3C//DTD SVG 1.1//EN" "http://www.w3.org/Graphics/SVG/1.1/DTD/svg11.dtd">
<svg version="1.1" id="레이어_1" xmlns="http://www.w3.org/2000/svg" xmlns:xlink="http://www.w3.org/1999/xlink" x="0px"
	 y="0px" width="9294px" height="10024px" viewBox="0.887 -0.732 9294 10024" enable-background="new 0.887 -0.732 9294 10024"
	 xml:space="preserve">
<g>
	<path fill="#191919" d="M2734.208,10017.608c-11.154-2.484-24.845-6.746-30.423-9.471c-5.577-2.723-20.789-10.039-33.803-16.254
		c-46.101-22.025-88.823-73.529-106.25-128.092c-17.028-53.311-17.12-55.576-17.12-419.154c0-362.938,0.119-365.879,16.893-415.863
		c4.039-12.037,12.56-31.836,18.934-44.002c14.954-28.537,57.18-71.395,81.582-82.803c45.135-21.102,54.264-24.977,68.497-29.074
		c21.332-6.141,137.38-6.148,162.254,0c24.479,6.041,85.539,35.809,100.63,49.059c24.844,21.814,54.15,62.398,64.439,89.234
		c23.36,60.922,22.539,44.914,22.518,438.527l-0.018,354.93l-9.229,33.535c-9.34,33.941-24.328,69.883-34.068,81.695
		c-2.928,3.553-12.392,15.152-21.03,25.777c-24.843,30.559-77.007,60.84-123.81,71.875c-27.661,6.521-130.864,6.578-159.994,0.09
		L2734.208,10017.608z M2855.927,9850.728c20.872-9.484,33.649-26.426,40.186-53.285c5.128-21.072,5.558-54.605,4.62-361.258
		c-1.094-357.609-0.72-349.363-16.988-373.918c-21.904-33.061-94.806-39.949-126.675-11.967
		c-12.521,10.994-24.553,34.486-24.553,47.939c0,4.383-1.521,8.91-3.38,10.059c-2.217,1.371-3.38,117.715-3.38,338.029
		s1.163,336.658,3.38,338.029c1.86,1.148,3.38,5.504,3.38,9.676c0,12.035,16.532,41.994,27.474,49.785
		c14.293,10.176,24.748,12.605,55.344,12.85C2834.651,9856.821,2846.249,9855.124,2855.927,9850.728L2855.927,9850.728z
		 M5563.502,10018.407c-9.295-1.902-17.832-4.893-18.97-6.648c-1.138-1.758-3.074-2.969-4.304-2.691
		c-1.23,0.277-10.664-2.652-20.961-6.504c-22.205-8.309-49.599-25.332-69.385-43.115c-17.871-16.061-44.285-56.049-53.769-81.395
		c-3.962-10.588-8.358-20.791-9.771-22.674c-4.026-5.361-10.125-37.586-13.765-72.715c-4.362-42.125-4.397-633.477-0.04-676.057
		c3.398-33.213,9.232-63.408,13.387-69.295c1.313-1.861,5.91-12.508,10.217-23.664c12.478-32.309,41.627-73.867,63.586-90.648
		c23.983-18.33,45.641-30.725,63.209-36.176c7.437-2.309,15.043-5.32,16.9-6.695c1.859-1.373,11.747-4.598,21.973-7.164
		c38.597-9.691,182.535-3.967,182.535,7.258c0,1.404,4.184,3.594,9.297,4.871c15.485,3.859,31.729,12.303,57.528,29.906
		c27.54,18.789,49.655,45.508,66.271,80.057c5.812,12.084,11.605,22.76,12.875,23.721c5.258,3.986,16.305,58.465,19.522,96.281
		c4.437,52.137,4.537,605.035,0.121,658.34c-4.522,54.59-11.788,83.561-29.429,117.359c-27.614,52.902-56.518,83.121-98.572,103.053
		c-10.461,4.959-23.338,11.203-28.615,13.877c-5.277,2.676-10.982,4.006-12.676,2.959c-1.695-1.047-3.081-0.557-3.081,1.092
		C5737.587,10021.458,5603.53,10026.595,5563.502,10018.407L5563.502,10018.407z M5692.045,9845.169
		c22.666-14.023,31.944-32.883,35.983-73.148c1.741-17.361,2.672-172.041,2.11-350.77l-1.002-319.715l-7.824-19.369
		c-4.918-12.176-12.381-23.127-20.092-29.482c-42.287-34.857-114.416-23.123-137.267,22.332
		c-11.705,23.279-12.556,51.691-11.565,386.52l0.973,329.578l7.555,18.59c4.684,11.525,12.092,22.195,19.488,28.074
		c20.65,16.406,31.076,19.385,64.502,18.434C5672.327,9855.431,5677.363,9854.251,5692.045,9845.169L5692.045,9845.169z
		 M1911.109,9446.329v-563.367l168.17,1.445c160.046,1.375,169.556,1.805,196.899,8.918
		c64.418,16.758,100.721,42.777,130.731,93.701c27.498,46.658,33.057,76.715,33.06,178.736c0,83.449-3.58,113.309-17.641,146.967
		c-13.507,32.33-54.236,77.674-79.689,88.717l-16.357,7.098l15.298,5.807c23.964,9.096,37.03,18.49,59.585,42.836
		c25.36,27.373,35.21,46.055,46.688,88.557c8.58,31.77,8.754,34.625,8.804,143.961c0.049,109.676-0.098,112.094-8.744,143.926
		c-14.567,53.633-29.37,77.885-72.425,118.66c-22.485,21.293-55.173,36.197-104.378,47.59c-28.08,6.5-43.11,7.148-195.211,8.43
		l-164.789,1.387V9446.329z M2234.269,9835.96c18.931-10.16,30.661-27.143,36.51-52.861c6.392-28.098,7.67-162.111,1.86-195.025
		c-11.617-65.826-35.122-81.283-129.137-84.922l-53.238-2.061v343.125l66.76-1.316c54.01-1.063,68.763-2.389,77.245-6.941V9835.96z
		 M2193.621,9334.888c9.184-2.727,23.207-9.746,31.165-15.598c29.301-21.547,35.874-49.307,33.667-142.164
		c-2.08-87.486-7.97-103.266-45.395-121.602c-14.608-7.156-21.888-8.123-69.556-9.23l-53.238-1.24v294.793h43.33
		C2161.833,9339.847,2182.74,9338.12,2193.621,9334.888L2193.621,9334.888z M3197.306,9446.38v-562.871h147.131
		c173.63,0,202.521,2.621,256.813,23.305c22.762,8.672,30.845,14.008,55.513,36.643c23.625,21.678,40.23,48.57,50.651,82.025
		c13.97,44.852,16.416,72.516,14.798,167.324c-1.306,76.514-2.442,91.316-8.778,114.395c-7.488,27.273-22.11,59.195-35.268,76.992
		c-8.767,11.855-37.568,34.684-54.932,43.535c-11.227,5.725-11.606,6.387-4.88,8.523c4.011,1.273,18.545,10.025,32.296,19.449
		c35.674,24.449,51.418,51.57,66.178,114.008c6.19,26.18,6.92,43.289,8.224,192.676c0.787,90.168,2.784,169.266,4.438,175.773
		s5.565,23.242,8.69,37.184c3.124,13.945,6.424,27.254,7.333,29.578c1.297,3.316-18.287,4.225-91.178,4.225h-92.828l-6.227-22.818
		c-5.545-20.32-6.422-41.861-8.016-196.9c-1.262-122.621-2.946-176.084-5.7-180.846c-2.15-3.719-5.72-13.605-7.931-21.971
		c-6.174-23.338-15.066-35.111-34.555-45.748c-16.988-9.27-20.271-9.797-69.424-11.137l-51.594-1.406l0.135,239.57l0.135,239.566
		l-90.514,0.898l-90.513,0.898V9446.38L3197.306,9446.38z M3483.338,9357.026c6.725-2.049,17.336-7.17,23.58-11.379
		c12.649-8.525,29.961-39.5,30.05-53.77c0.034-5.002,1.577-10.037,3.437-11.186c2.09-1.291,3.38-30.953,3.38-77.746
		c0-46.791-1.29-76.453-3.38-77.746c-1.859-1.148-3.395-6.182-3.414-11.184c-0.04-11.307-13.685-40.926-22.428-48.688
		c-15.318-13.598-31.902-17.281-84.862-18.855l-51.55-1.531v319.434l46.48-1.809c25.563-0.996,51.979-3.488,58.707-5.539V9357.026z
		 M3841.25,9446.325v-562.816l114.084,0.035l114.084,0.035l18.246,74.172c10.035,40.793,19.347,75.391,20.69,76.883
		c1.345,1.492,7.333,24.008,13.31,50.035c19.314,84.117,44.399,182.254,49.381,193.188c2.668,5.857,4.853,12.359,4.853,14.449
		c0,9.496,54.153,227.563,57.567,231.813c1.498,1.867,3.367,8.713,4.15,15.211c0.784,6.5,1.668-138.391,1.966-321.984l0.541-333.803
		h158.834l0.865,562.818l0.864,562.816h-185.98l-21.468-87.043c-11.808-47.871-22.748-88.629-24.312-90.572
		c-1.564-1.943-5.894-17.154-9.621-33.803c-9.85-44-49.651-200.063-55.568-217.879c-2.777-8.365-16.72-63.117-30.982-121.668
		c-14.261-58.555-26.93-107.992-28.153-109.861s-10.039-34.582-19.589-72.695l-17.365-69.295l-0.381,401.408l-0.383,401.408H3841.25
		V9446.36V9446.325z M4945.475,10006.89c-1.24-1.24-2.253-218.07-2.253-481.846V9045.45l-89.58,1l-89.581,1.004v-163.945h547.727
		l-0.905,81.441l-0.905,81.441l-92.135-0.459l-92.137-0.459l0.868,481.836l0.868,481.836h-89.859
		c-49.422,0-90.873-1.016-92.112-2.254L4945.475,10006.89z M6318.997,9446.31v-563.342l169.859,1.445
		c145.189,1.236,173.05,2.275,191.83,7.15c25.74,6.68,52.709,16.426,70.297,25.398c17.543,8.951,60.514,52.996,70.234,71.988
		c26.225,51.242,38.021,152.01,28.33,242.018c-7.721,71.693-22.892,107.943-59.889,143.086
		c-13.839,13.146-31.471,26.768-39.18,30.268c-7.791,3.535-11.225,6.398-7.73,6.439c7.777,0.09,46.105,20.215,46.105,24.207
		c0,1.6,1.547,2.91,3.438,2.91c6.415,0,33.029,30.842,43.243,50.115c26.005,49.063,35.502,102.035,35.86,200.025
		c0.483,132.137-19.873,202.59-73.178,253.273c-28.853,27.432-35.492,31.771-67.83,44.314
		c-50.711,19.672-65.793,21.055-246.603,22.621l-164.789,1.426L6318.997,9446.31z M6645.864,9835.86
		c12.933-7.016,24.688-21.99,34.638-44.125c7.052-15.686,7.28-19.871,6.287-114.93c-0.692-66.238-2.306-100.869-4.91-105.41
		c-2.133-3.717-6.59-13.32-9.903-21.336c-7.065-17.09-19.877-28.852-37.681-34.586c-7.021-2.262-14.543-5.52-16.718-7.242
		c-2.176-1.723-28.389-4.039-58.248-5.15l-54.293-2.02l-0.907,171.518l-0.905,171.518l65.914-1.186
		C6623.727,9841.927,6636.911,9840.716,6645.864,9835.86L6645.864,9835.86z M6607.686,9334.122
		c27.129-7.611,45.375-25.5,54.538-53.469c9.412-28.73,9.733-148.422,0.478-178.609c-13.584-44.305-40.353-57.203-115.256-55.539
		l-42.689,0.949l-0.768,146.195l-0.767,146.199h42.03c29.211,0,48.256-1.746,62.434-5.725V9334.122z M6968.01,9446.325v-562.816
		h486.76v163.945l-152.112-0.977l-152.115-0.977v294.348h240v162.254h-240v341.408h304.226v165.635h-486.76L6968.01,9446.325z
		 M7527.184,10001.536c0.855-4.182,3.104-17.492,4.993-29.576s5.646-35.662,8.345-52.395s6.613-41.83,8.699-55.775
		c2.086-13.943,8.92-58.816,15.187-99.717c6.267-40.902,12.431-81.814,13.694-90.92c1.267-9.104,3.59-18.992,5.162-21.973
		c1.574-2.98,6.89-32.037,11.813-64.572c4.925-32.535,10.293-67.521,11.931-77.748c10.883-67.977,13.99-88.076,20.381-131.828
		c7.131-48.832,11.936-76.91,21.399-125.072c2.74-13.943,8.894-50.451,13.674-81.127s10.173-64.902,11.981-76.055
		c1.809-11.156,8.676-56.029,15.263-99.719c6.586-43.691,13.097-86.281,14.467-94.648l2.492-15.211l122.099-0.887l122.099-0.887
		l2.05,7.648c1.126,4.205,2.068,11.738,2.094,16.742c0.035,5.004,1.391,9.926,3.033,10.941c1.641,1.016,4.002,10.613,5.244,21.328
		s3.705,27.848,5.471,38.072s13.175,83.24,25.354,162.254c12.181,79.014,23.69,149.746,25.58,157.182
		c4.234,16.672,8.631,43.402,28.352,172.395c28.58,186.934,32.8,212.932,35.41,218.158c1.43,2.861,3.502,11.225,4.605,18.592
		c8.918,59.547,27.676,181.746,34.485,224.658c4.573,28.818,9.207,58.123,10.298,65.127l1.984,12.73l-90.705-0.898l-90.705-0.902
		l-3.973-23.662c-3.383-20.146-7.727-51.529-24.331-175.775l-2.259-16.902l-98.188-0.895l-98.188-0.895l-7.733,60.051
		c-4.254,33.027-8.84,61.57-10.19,63.43c-1.353,1.859-5.272,24.297-8.711,49.859l-6.253,46.479h-167.957L7527.184,10001.536z
		 M7899.224,9618.72c-1.126-7.436-3.347-17.324-4.933-21.971c-1.586-4.648-4.604-22.902-6.707-40.564
		c-2.103-17.662-5.313-42.76-7.133-55.773c-3.863-27.617-35.016-260.42-40.482-302.537c-2.052-15.803-5.008-31.166-6.57-34.143
		c-1.563-2.973-4.633-20.467-6.821-38.871c-3.974-33.416-6.735-44.5-6.735-27.041c0,5.08-4.613,43.744-10.252,85.916
		c-5.64,42.17-14.817,112.422-20.396,156.111c-13.237,103.67-12.862,101.047-20.11,140.283c-3.437,18.59-8.041,48.252-10.231,65.914
		c-2.192,17.662-5.827,44.281-8.079,59.156l-4.093,27.041h154.592L7899.224,9618.72z M8296.461,9527.306V9045.36l-91.27,1.047
		l-91.27,1.047v-163.945h547.604v163.945l-89.568-1.004l-89.57-1l-0.855,481l-0.857,481.004l-92.113,0.898l-92.113,0.9
		L8296.461,9527.306z M3540.702,7633.649l-530.972-533.24l-0.015-701.404l-0.014-701.403l534.084,534.076l534.084,534.076
		l493.523-493.515l493.521-493.513L3986.604,4700.411c-593.07-593.073-1078.311-1079.838-1078.311-1081.699
		c0-4.412,693.612-698.021,698.023-698.021c1.852,0,108.33,104.957,236.621,233.237l233.256,233.237l499.43-499.438l499.43-499.438
		l-493.522-493.513l-493.522-493.515l-1343.66,1343.656L1400.69,4088.575l495.21,495.219l495.211,495.219l-0.017,701.385
		l-0.018,701.385l-1194.912-1194.91C538.961,4629.674,1.25,4090.444,1.25,4088.582c0-4.371,4083.979-4088.427,4088.451-4088.529
		c1.858-0.043,382.141,379.717,845.073,843.91l841.694,843.99l841.447-843.912C7080.713,379.89,7461.829,0.13,7464.84,0.13
		c4.85,0,1803.388,1799.822,1803.492,1804.778c0.035,1.09,4.785,8.839,10.584,17.219l10.543,15.235l2.533,579.25l2.531,579.25
		l-550.58,550.591l-550.58,550.592l532.393,531.845c292.818,292.516,540.373,538.617,550.121,546.895l17.729,15.047l0.168,577.889
		l0.17,577.889l-61.842,58.621c-67.684,64.158-1685.789,1680.279-1731.669,1729.549L7472.1,8165.2l-524.156-523.94l-524.16-523.938
		V5714.504l523.104,523.095l523.104,523.095l496.049-496.06l496.052-496.061L7407.445,4713.931
		c-580.055-580.053-1054.646-1056.167-1054.646-1058.031c0-4.414,693.609-698.024,698.024-698.024
		c1.851,0,101.862,98.49,222.251,218.868l218.887,218.867l491.828-491.828l491.83-491.828l-505.355-505.347l-505.355-505.346
		L6121.25,2744.919L4777.592,4088.575l499.942,500.283l499.942,500.285l1.946,687.972l1.946,687.972l-850.908,850.901
		c-468,467.997-852.68,850.901-854.848,850.901c-2.167,0-242.878-239.957-534.912-533.238V7633.649z"/>
</g>
</svg>
