<?xml version="1.0" encoding="utf-8"?>
<!-- Generator: Adobe Illustrator 15.0.0, SVG Export Plug-In . SVG Version: 6.00 Build 0)  -->
<!DOCTYPE svg PUBLIC "-//W3C//DTD SVG 1.1//EN" "http://www.w3.org/Graphics/SVG/1.1/DTD/svg11.dtd">
<svg version="1.1" id="레이어_1" xmlns="http://www.w3.org/2000/svg" xmlns:xlink="http://www.w3.org/1999/xlink" x="0px"
	 y="0px" width="721px" height="351px" viewBox="0 0 721 351" enable-background="new 0 0 721 351" xml:space="preserve">
<g>
	<path fill="#E3B4C8" d="M685.091,4.746c-3.55,2.982-7.076,7.903-7.838,10.93c-1.154,4.616-2.048,5.14-5.53,3.267
		c-13.042-6.989-28.414,1.284-32.834,17.657c-3.224,11.997,0.218,22.472,13.149,39.998c9.167,12.434,10.888,16.243,10.888,24.32
		c0,5.27-1.48,13.13-3.311,17.506c-9.992,23.907,25.127,2.722,43.265-26.104c13.587-21.621,17.506-33.531,17.637-53.824
		c0.108-16.918-2.199-26.28-8.47-32.115c-2.526-2.352-5.684-3.876-9.016-4.813c-7.771-2.198-10.059-1.415-17.919,3.156
		 M123.95,43.698C78.836,54.65,52.839,94.255,55.887,147.273c0.915,15.785,2.134,19.617,13.348,42.088
		c10.276,20.576,12.347,26.605,12.347,36.078c0,9.471-1.046,12.408-5.356,16.723c-6.576,6.574-8.187,6.619-15.307,0.457
		c-4.442-3.855-6.162-8.166-8.014-20.141c-1.59-10.344-3.744-16.463-6.685-19.055c-9.624-8.469-33.183-1.131-41.369,12.85
		c-5.966,10.23-5.792,50.928,0.326,70.564c11.605,37.299,44.2,61.205,83.675,61.424c28.545,0.152,51.517-9.492,70.567-29.635
		c19.03-20.119,27.608-43.219,26.28-70.785c-0.979-20.379-4.985-29.195-26.824-59.068c-8.774-11.998-17.506-26.39-19.422-31.986
		c-7.12-20.881-2.504-48.925,10.255-62.446c8.688-9.21,22.166-13.478,31.245-9.906c4.137,1.625,3.041,3.396-3.288,5.313
		c-18.354,5.552-28.522,21.032-28.545,43.48c0,16.396,6.249,28.393,18.464,35.295c11.519,6.531,29.678,6.75,39.933,0.501
		c4.028-2.46,7.62-4.159,7.99-3.789c0.371,0.37-1.763,8.992-4.746,19.162c-13.217,45.006-17.462,89.529-10.713,111.979
		c11.779,39.105,44.482,47.488,73.137,18.725c6.599-6.641,15.352-18.42,19.422-26.215c4.072-7.771,8.47-14.871,9.755-15.742
		c4.202-2.83,7.794,5.4,7.794,17.877c0,21.75,14.741,41.412,31.027,41.412c9.362,0,21.076-6.248,31.201-16.635
		c5.923-6.082,9.842-6.459,11.758-1.133c9.23,25.672,39.867,40.15,62.358,29.482c10.256-4.879,13.936-10.953,24.733-41.109
		c37.886-105.6,83.545-199.225,97.175-199.225c9.994,0,5.443,14.633-23.167,74.399c-31.811,66.475-36.948,81.367-36.884,107.037
		c0.043,15.33,1.066,22.23,4.463,29.766c5.422,11.996,17.593,24.951,29.22,31.092c10.539,5.574,29.548,6.055,39.259,1.002
		c9.646-5.008,24.996-22.273,35.533-39.996c18.159-30.551,60.116-131.185,58.701-140.722c-0.806-5.378-11.234-13.63-14.609-11.562
		c-1.328,0.806-10.669,17.832-20.793,37.819c-10.125,19.988-21.47,40.021-25.192,44.508c-6.706,8.055-14,10.645-15.698,5.527
		c-1.98-5.898,3.048-25.127,12.541-48.098c25.301-61.161,28.721-76.859,21.86-100.417c-9.079-31.245-30.373-48.925-56.001-46.465
		c-20.554,1.98-35.729,20.119-61.052,72.94c-8.753,18.246-17.157,33.204-18.683,33.204c-6.053,0.043-4.854-7.294,4.528-27.696
		c12.455-27.106,13.326-31.223,9.341-44.896c-3.549-12.236-15.241-25.563-25.91-29.59c-17.462-6.575-26.629,1.089-35.099,29.372
		c-28,93.669-37.732,117.771-57.372,142.136c-9.994,12.41-17.267,15.871-21.403,10.211c-1.654-2.287-3.025-7.49-3.025-11.563
		c0-16.199,20.662-65.972,42.239-101.79c4.441-7.359,7.796-15.809,7.772-19.51c-0.087-14.151-14.696-36.404-28.697-43.721
		c-7.902-4.137-21.381-3.896-27.674,0.521c-7.097,4.966-20.836,35.272-39.366,86.768c-24.212,67.28-37.384,93.428-46.464,92.1
		c-15.153-2.178-5.378-41.369,27.695-111.108c11.475-24.169,12.148-30.831,4.747-46.747c-9.886-21.251-31.854-30.919-45.615-20.075
		c-3.179,2.504-10.06,13.434-15.285,24.299c-6.327,13.166-10.669,15.822-13.021,7.969c-9.863-33.028-38.016-50.122-81.823-49.687
		c-10.232,0.108-23.537,1.394-29.567,2.853"/>
</g>
</svg>
