<?xml version="1.0" encoding="utf-8"?>
<!-- Generator: Adobe Illustrator 15.0.0, SVG Export Plug-In . SVG Version: 6.00 Build 0)  -->
<!DOCTYPE svg PUBLIC "-//W3C//DTD SVG 1.1//EN" "http://www.w3.org/Graphics/SVG/1.1/DTD/svg11.dtd">
<svg version="1.1" id="레이어_1" xmlns="http://www.w3.org/2000/svg" xmlns:xlink="http://www.w3.org/1999/xlink" x="0px"
	 y="0px" width="721px" height="211px" viewBox="0 0 721 211" enable-background="new 0 0 721 211" xml:space="preserve">
<g>
	<path fill="#E7CB82" d="M716.45,20.55c-1.75-1.73-2.13-1.93-3.891-2.11c-1.14-0.11-3.029,0.03-4.529,0.34
		c-2.28,0.47-2.96,0.83-5.58,2.89c-2.931,2.3-6.37,5.98-7.49,8.04c-0.31,0.56-1.2,2-1.97,3.19c-1.48,2.28-4.88,8.06-4.88,8.29
		c0,0.08-0.86,1.73-1.9,3.66c-1.99,3.68-2.26,4.28-4.37,9.74c-0.71,1.83-1.84,4.75-2.52,6.48c-0.681,1.73-1.351,3.54-1.49,4.03
		c-0.14,0.48-0.74,1.94-1.32,3.24c-0.93,2.06-2.01,5.58-3.68,12.08c-0.25,0.99-1.37,4.1-2.49,6.91c-1.109,2.8-2.03,5.48-2.03,5.94
		c-0.01,1.15-3.119,11.12-3.909,12.53c-0.45,0.8-1.381,4.181-1.82,6.63c-0.39,2.13-1.19,3.811-1.82,3.811
		c-0.189,0-0.479-0.53-0.67-1.17c-0.18-0.65-1.47-3.521-2.859-6.391c-1.391-2.87-2.78-5.87-3.091-6.66c-0.3-0.79-0.97-2.55-1.5-3.91
		c-0.52-1.36-1.649-3.87-2.5-5.58c-0.859-1.71-2.08-4.24-2.72-5.63s-1.71-3.7-2.38-5.14c-0.67-1.44-1.21-2.93-1.21-3.31
		c0-0.44,1.18-1.67,3.15-3.3c4.35-3.6,10.71-10.04,13.1-13.27c4.01-5.41,6.01-10.04,6.32-14.65c0.569-8.2-4.42-15.06-14.62-20.11
		c-7.971-3.94-21.49-7-35.67-8.07c-2.67-0.21-6.88-0.53-9.36-0.72c-5.89-0.46-28.16-0.46-37.08,0c-3.86,0.2-11.15,0.59-16.2,0.86
		s-9.3,0.41-9.45,0.33c-0.63-0.38-0.079-1.14,3.33-4.6c1.98-2.02,3.601-3.93,3.601-4.27c0-0.81-1.19-0.79-6.66,0.08
		c-2.38,0.38-5.47,0.8-6.89,0.93l-2.561,0.24l-1.18-2.06c-0.65-1.13-1.68-2.63-2.3-3.32c-0.61-0.69-1.761-2.32-2.551-3.61
		c-1.619-2.64-2.199-3.04-2.649-1.81h-0.021c-1.64,4.39-3.439,10.48-3.819,12.95c-0.25,1.58-1.48,3.44-2.71,4.11
		c-0.83,0.45-2.601,1.15-7.92,3.11c-2.761,1.02-3.761,1.59-3.891,2.23c-0.08,0.38,0.29,0.6,1.26,0.75
		c4.311,0.68,10.53,3.54,11.511,5.3c0.33,0.6,0.46,2.99,0.47,8.59c0.02,10.02,0.07,10.13,3.37,6.69c1.29-1.35,2.89-3.35,3.55-4.44
		c0.65-1.09,1.8-2.71,2.55-3.59c0.74-0.89,1.62-2.13,1.94-2.76c0.319-0.63,0.76-1.26,0.979-1.4c0.66-0.44,3.181-0.31,4.75,0.24
		c0.801,0.28,3.07,0.77,5.04,1.09c1.96,0.32,4.04,0.74,4.62,0.92c1.41,0.45,2.05-0.08,1.66-1.38c-0.67-2.21-1.61-3.92-3.1-5.67
		c-2.24-2.63-2.15-2.89,1.17-3.17c4.14-0.35,36.37-0.26,41.52,0.12c2.48,0.18,7.01,0.51,10.08,0.73c7.92,0.56,9.55,0.87,10.91,2.01
		c0.63,0.54,1.15,1.15,1.15,1.37c0,0.27-1.721,0.46-5.07,0.58c-3.53,0.12-5.26,0.33-5.67,0.67c-0.36,0.29-0.95,0.4-1.5,0.26
		c-0.55-0.14-1.92,0.11-3.51,0.63c-1.431,0.48-4.391,1.06-6.57,1.3c-2.82,0.31-4.43,0.67-5.58,1.28c-0.95,0.49-2.59,0.93-3.96,1.06
		c-3.34,0.32-8.22,1.22-9.9,1.82c-0.79,0.28-3.38,1-5.76,1.61c-2.37,0.6-5.69,1.49-7.38,1.97c-1.68,0.48-4.92,1.31-7.19,1.83
		c-2.279,0.53-4.569,1.18-5.09,1.45c-1.25,0.65-4.28,4.04-4.28,4.79c0,0.33,2.631,3.22,5.851,6.42c5.11,5.09,6.16,5.97,8.31,6.93
		c1.36,0.61,2.67,1.1,2.91,1.1c0.45,0,2.01-1.47,2.01-1.89c0-0.13-0.819-1.23-1.83-2.43c-2.079-2.51-2.1-2.77-0.25-5.56
		c0.83-1.24,1.94-2.24,3.7-3.32c1.391-0.85,2.721-1.48,2.96-1.39c0.24,0.09,1.94-0.55,3.78-1.4c1.84-0.86,4.48-1.97,5.86-2.47
		c1.39-0.5,4.14-1.59,6.12-2.42c4.51-1.88,4.659-1.93,5.739-1.65c1.351,0.33,3.311,3.14,3.61,5.15c0.28,1.81-0.32,16.91-0.9,22.97
		c-0.43,4.41-1.3,11.46-1.76,14.18c-0.18,1.11-0.52,3.72-0.76,5.8c-0.46,4.14-1.04,7.73-2.11,12.95c-0.569,2.77-0.88,3.55-1.63,4.14
		c-0.85,0.67-2.39,1.41-11.01,5.32c-5.93,2.689-15.47,6.8-18.57,8c-1.37,0.53-2.97,1.18-3.569,1.45
		c-0.591,0.27-3.351,1.38-6.12,2.46c-2.771,1.08-6.38,2.49-8.021,3.13c-1.64,0.64-3.08,1.06-3.21,0.939
		c-0.22-0.229,0.18-2.43,1.17-6.35c0.271-1.09,0.601-2.88,0.73-3.96c0.14-1.09,0.45-2.97,0.7-4.17c0.289-1.45,0.39-4.16,0.27-8.1
		c-0.24-8.54-1.6-14.9-4.21-19.77c-0.271-0.5-0.6-1.47-0.75-2.16c-0.48-2.27-5.44-10.09-8.521-13.44c-2.409-2.62-6.1-5.64-6.88-5.64
		c-0.51,0-1.34,1.2-1.34,1.94c0,0.67,1.61,4.37,3.26,7.48c1.21,2.31,2.57,7.8,3.391,13.73c0.479,3.5,0.52,5.14,0.229,9.17
		c-0.199,2.71-0.46,6.79-0.59,9.04c-0.21,3.59-0.46,4.79-2,9.5c-0.979,2.95-1.77,5.53-1.77,5.72c0,0.2-0.471,0.95-1.04,1.69
		c-0.57,0.72-1.221,1.96-1.431,2.75c-0.47,1.7-4.979,9.58-6.42,11.21c-0.87,0.99-2.22,1.54-10.189,4.18
		c-5.05,1.66-11.12,3.63-13.5,4.37c-2.37,0.75-5.21,1.66-6.3,2.01c-1.811,0.62-6.721,2.11-13.141,3.99
		c-1.38,0.42-2.92,0.9-3.42,1.08c-0.5,0.17-1.87,0.59-3.06,0.92c-1.19,0.32-2.891,0.79-3.78,1.04s-4.13,1.19-7.2,2.07
		s-7.2,2.04-9.18,2.58c-1.98,0.54-5.26,1.46-7.3,2.02c-5.851,1.66-5.36,1.82-13.301-4.04c-5.27-3.91-11.779-10.14-13.18-12.66
		c-0.5-0.88-1.29-2.25-1.77-3.01c-0.78-1.24-3.2-6.17-4.41-8.93c-0.431-0.99-1.021-3.41-2.49-10.08
		c-1.09-4.98-1.39-10.28-0.94-16.51c0.87-11.94,1.15-13.34,4.12-21.4c3.771-10.19,6.67-15.4,11.86-21.31
		c5.04-5.74,6.03-6.62,13.85-12.4c0.67-0.49,1.801-1.08,2.521-1.32c0.72-0.23,3.83-1.93,6.89-3.78l5.58-3.35l19.4-4.76l8.84,0.12
		c8.78,0.13,8.87,0.14,12.979,1.33c8.44,2.45,9.82,2.96,12.181,4.47c1.319,0.86,3.38,2.15,4.56,2.88c1.19,0.72,3.141,2.2,4.32,3.29
		c1.189,1.08,2.439,2.07,2.78,2.18c0.33,0.11,0.71,0.53,0.84,0.92c0.12,0.4,1.13,1.69,2.229,2.89c2.53,2.72,3.46,2.8,3.62,0.26
		c0.09-1.42-0.12-2.09-1.33-4.22c-1.899-3.37-6.359-8.81-10.52-12.83c-5.7-5.53-13.15-9.87-22.471-13.11
		c-6.75-2.34-8.92-2.8-16.55-3.52c-5.67-0.53-6.479-0.52-11.16,0.05c-2.77,0.33-6.979,0.84-9.35,1.12
		c-5.44,0.65-6.22,0.81-7.61,1.61c-0.63,0.36-2.47,0.99-4.109,1.41c-3.601,0.91-9.44,3.79-13.84,6.84
		c-1.78,1.24-4.61,3.16-6.29,4.29c-3.74,2.51-11.92,10.27-15.23,14.44c-1.77,2.23-3.33,4.88-5.64,9.57
		c-6.431,13.02-7.65,16.31-9.021,24.26c-0.91,5.25-1.5,5.48-3.25,1.3c-0.41-0.99-0.89-2.13-1.069-2.52
		c-0.181-0.4-0.471-1.3-0.65-2.01c-0.18-0.7-0.8-2-1.36-2.88c-1.609-2.49-1.72-2.67-2.55-4.16c-1.51-2.74-8.2-9.85-9.27-9.85
		c-0.18,0-0.63-0.27-0.99-0.6c-0.62-0.55-0.71-0.55-1.38,0.06c-0.96,0.86-0.91,2.06,0.16,4.09c1.29,2.45,3.44,7.21,3.44,7.61
		c0,0.19,0.3,1.28,0.68,2.42c0.38,1.14,1.04,4.39,1.47,7.22c0.74,4.78,0.76,5.56,0.37,10.8c-1.061,14.35-0.88,13.18-2.87,19.15
		c-1.02,3.07-2.07,5.82-2.33,6.12c-0.67,0.76-1.85,3.22-2.15,4.47c-0.14,0.58-0.78,1.88-1.44,2.88c-0.65,1.01-1.8,2.88-2.55,4.17
		c-1.56,2.66-2.47,3.84-7.64,9.931c-3.61,4.26-4.97,5.449-16.35,14.3c-3.84,2.99-12.73,6.52-21.01,8.35
		c-1.58,0.351-3.82,0.86-4.98,1.13c-4.1,0.96-15.83,0.33-23.85-1.29c-7.42-1.489-18.51-8.359-26.83-16.619
		c-2.35-2.341-4.28-4.36-4.28-4.49c0-0.141-0.62-1.24-1.38-2.45c-1.92-3.03-5.26-10.06-5.92-12.46c-2.71-9.71-3.67-18.6-2.76-25.56
		c0.19-1.48,0.51-4.8,0.71-7.38c0.26-3.36,0.62-5.39,1.27-7.2c0.5-1.38,1.32-3.73,1.82-5.22c2.11-6.16,3.7-9.58,7.36-15.84
		c1.48-2.52,7.74-9.81,10.5-12.23c3.37-2.95,9.79-7.54,10.87-7.78c0.61-0.13,3.62-1.76,6.69-3.6c4.08-2.46,6.22-3.52,7.92-3.93
		c1.29-0.31,4.21-1.04,6.48-1.61c10.4-2.64,9.61-2.53,18.34-2.52c8.32,0,10.13,0.22,15.86,1.94c0.89,0.26,2.92,0.86,4.5,1.32
		c1.59,0.47,3.56,1.26,4.38,1.76c0.82,0.5,2.89,1.76,4.6,2.79c2.94,1.78,6.78,4.85,8.81,7.05c3.32,3.6,5.48,5.67,5.74,5.5
		c0.5-0.31,0.79-3.37,0.4-4.25c-1.8-4.09-4.71-7.88-10.61-13.8c-4.48-4.5-7.63-6.82-13.67-10.05c-3.36-1.79-5.07-2.48-12.07-4.86
		c-5.14-1.75-6.78-2.08-13.32-2.75c-5.61-0.57-10.61-0.45-15.33,0.37c-1.57,0.27-4.06,0.6-5.55,0.74c-4.53,0.4-6.95,0.93-8.52,1.84
		c-0.83,0.48-1.88,0.88-2.34,0.88c-3.65,0.02-11.1,4.06-22.8,12.37c-3.79,2.69-11.77,10.48-14.42,14.07
		c-2.46,3.34-6.63,11.36-10.22,19.64c-2.31,5.32-2.65,6.35-3.47,10.62c-0.31,1.58-0.79,4.01-1.07,5.4
		c-0.95,4.65-1.27,11.52-0.71,14.94c0.27,1.68,0.61,4.03,0.74,5.22c0.87,7.71,4.02,18.76,6.94,24.29
		c4.73,8.97,8.72,14.399,16.23,22.1c3.96,4.05,11.64,10.08,15.15,11.9c1.08,0.56,2.62,1.439,3.42,1.96c0.8,0.51,1.86,1.14,2.35,1.39
		c0.5,0.25,1.39,0.76,1.98,1.13c3.9,2.42,7.61,3.98,15.12,6.4c2.78,0.89,5.69,1.88,6.48,2.2c2.4,0.96,20.87,1.37,25.38,0.55
		c1.29-0.23,4.37-0.771,6.84-1.2c2.72-0.47,5.36-1.17,6.66-1.77c1.19-0.54,2.97-1.19,3.96-1.44c0.99-0.25,4.13-1.61,6.96-3.02
		c4.07-2.03,6.15-3.36,9.88-6.32c5.15-4.08,6.65-5.521,12.86-12.3c3.99-4.351,7.57-9.09,7.57-10.021c0-0.25,0.46-1.13,1.04-1.96
		c1.229-1.8,2.729-5.26,3.42-7.899c0.27-1.051,0.979-2.62,1.569-3.511c0.601-0.88,1.19-2.17,1.33-2.859
		c0.13-0.7,0.55-2.561,0.92-4.141c0.37-1.59,0.931-4.14,1.261-5.67c0.689-3.29,1.449-3.75,1.8-1.08
		c0.79,6.051,4.64,15.45,9.399,22.95c4.83,7.601,13.08,16.58,20.12,21.87c2.181,1.64,3.96,3.19,3.96,3.46
		c0,0.57-14.51,4.271-35.47,9.05c-1.87,0.42-4.39,1-5.58,1.271c-1.18,0.27-3.7,0.84-5.58,1.25c-1.87,0.42-4.39,0.989-5.58,1.26
		c-1.18,0.27-3.85,0.83-5.94,1.26c-2.08,0.42-4.75,0.99-5.94,1.271c-1.18,0.279-2.97,0.66-3.96,0.84
		c-3.31,0.609-13.29,2.58-15.66,3.1c-1.28,0.271-4.28,0.851-6.66,1.271c-2.37,0.42-5.05,0.93-5.94,1.13
		c-0.88,0.21-2.99,0.6-4.68,0.89c-1.68,0.29-4.92,0.86-7.2,1.26c-2.27,0.4-5.02,0.87-6.12,1.061c-7.48,1.21-9.48,1.54-11.88,1.96
		c-1.48,0.26-3.43,0.59-4.32,0.71c-0.88,0.12-3.07,0.46-4.86,0.72c-1.78,0.28-5.67,0.86-8.64,1.26c-2.97,0.41-6.94,0.98-8.82,1.271
		c-1.87,0.27-6.17,0.84-9.54,1.25c-3.36,0.41-8.06,0.979-10.44,1.29c-2.37,0.3-5.86,0.68-7.74,0.87c-1.87,0.18-5.2,0.51-7.38,0.72
		c-8.06,0.8-14.84,1.42-17.64,1.61c-1.58,0.109-6.44,0.43-10.8,0.729c-19.82,1.34-49.03,1.34-62.28,0
		c-2.97-0.3-6.29-0.63-7.38-0.729c-4.96-0.48-15-2.28-19.98-3.59c-11.22-2.96-19.79-7.58-22.96-12.37
		c-5.03-7.601-2.3-16.13,8.79-27.521c5.25-5.38,5.56-5.38,4.66-0.069c-0.24,1.39-0.46,4.26-0.49,6.38l-0.05,3.85l1.57,3.04
		c1.12,2.19,2.3,3.79,4.19,5.69c3.03,3.05,4.85,3.84,8.92,3.88c2.18,0.02,2.96-0.181,6.46-1.681c3.82-1.63,4.14-1.85,8.16-5.72
		c3.87-3.729,6.12-6.59,9.19-11.66c0.54-0.89,1.35-2.02,1.79-2.52c0.45-0.49,1.07-1.38,1.39-1.98c1.02-1.91,4.56-10.49,4.56-11.06
		c0-0.71,1.22-4.54,2.38-7.42c0.5-1.261,0.83-2.511,0.72-2.78c-0.1-0.28,0.04-1.19,0.31-2.04c0.66-1.99,1.55-7.56,1.83-11.43
		c0.12-1.69,0.47-3.94,0.78-5.021c0.69-2.46,0.43-5.81-0.83-10.49c-0.61-2.28-1.02-5.1-1.26-8.61c-0.19-2.88-0.5-6.08-0.69-7.13
		c-0.27-1.51-0.22-2.2,0.23-3.33c0.39-0.97,0.5-1.93,0.34-2.97c-0.21-1.37-0.12-1.65,0.72-2.43c0.53-0.48,1.57-1.69,2.32-2.68
		c0.75-0.99,3.74-4.47,6.65-7.73c2.92-3.26,5.44-6.29,5.6-6.72c0.17-0.44,1.24-1.49,2.38-2.33c2.38-1.76,5.17-4.48,6.95-6.76
		c0.67-0.87,1.8-1.81,2.5-2.1c0.71-0.29,2.75-1.94,4.53-3.67c1.78-1.73,4.29-3.77,5.58-4.54c1.29-0.76,2.97-1.85,3.74-2.4
		c1.63-1.17,2.58-1.34,2.2-0.38c-0.76,1.92-1.78,4.94-3.73,11.07c-1.2,3.76-2.76,8.62-3.46,10.8c-0.7,2.18-1.27,4.59-1.27,5.36
		c0,0.76-0.47,2.87-1.05,4.68c-0.58,1.8-1.33,4.17-1.67,5.26c-0.6,1.9-1.77,7.08-2.2,9.72c-0.11,0.69-0.74,3.04-1.39,5.22
		c-0.65,2.18-1.54,6.31-1.97,9.18c-0.42,2.871-1.01,6.6-1.29,8.28c-0.28,1.681-0.83,5.03-1.23,7.44s-0.73,5.6-0.73,7.08
		c0,1.49-0.35,4.87-0.77,7.5c-0.76,4.64-0.77,5.14-0.35,15.06c0.24,5.641,0.59,11.561,0.76,13.141c0.18,1.58,0.33,4.109,0.35,5.62
		l0.01,2.75l-2.55,1.569c-4.29,2.66-5.83,4.09-7.26,6.74c-1.32,2.45-1.33,2.45-0.88,4.59c0.24,1.17,0.58,2.34,0.74,2.601
		c0.17,0.26,1.76,1.68,3.53,3.159l3.23,2.681l1.05-0.62c0.57-0.34,1.13-0.84,1.23-1.11c0.2-0.52-0.64-2.41-1.24-2.779
		c-0.64-0.4-0.41-2.551,0.36-3.24c0.39-0.36,0.72-0.86,0.72-1.12c0-0.25,0.52-0.851,1.17-1.32c2.03-1.479,10.18-5.3,11.33-5.3
		c0.61,0,1.96-0.39,3-0.88c2.09-0.97,6.42-1.87,7.32-1.53c0.46,0.19,0.57,0.79,0.57,3.07c0,2.26,0.13,2.939,0.66,3.42
		c0.87,0.79,1.78,0.75,3.19-0.1c1.51-0.91,1.78-1.521,2.01-4.44c0.1-1.33,0.38-2.66,0.61-2.93c0.7-0.851,4.95-1.61,8.24-1.48
		c1.65,0.07,3.14,0.25,3.3,0.42c0.17,0.181,0.35,0.78,0.41,1.37c0.1,0.84,0.52,1.311,2.1,2.271c1.84,1.109,2.14,1.189,4.14,0.979
		c1.82-0.189,2.36-0.42,3.42-1.46c1.13-1.12,1.26-1.44,1.26-3.17c0-2.521-0.52-3.08-4.85-5.2l-3.43-1.67l-6.65,0.08
		c-4.84,0.04-6.72-0.05-6.92-0.37c-0.15-0.229-0.28-2.14-0.28-4.25c0-2.88,0.17-4.33,0.71-5.899c0.53-1.54,0.72-3.03,0.72-5.61
		c0-1.94,0.18-3.98,0.4-4.54c0.45-1.17,1.61-7.85,1.95-11.28c0.38-3.84,3.14-19.649,4.52-25.92c0.19-0.88,0.59-3.07,0.88-4.85
		c1.33-8.11,2.59-13.59,5.38-23.4c0.5-1.78,1.25-4.46,1.65-5.94c0.41-1.48,0.97-3.51,1.25-4.5c0.29-0.99,0.85-3.02,1.26-4.5
		c0.41-1.48,0.97-3.51,1.25-4.5c0.27-0.99,0.67-2.7,0.86-3.8c0.2-1.1,1.27-4.1,2.39-6.66s2.75-6.53,3.63-8.8
		c0.87-2.28,1.83-4.6,2.13-5.16c0.3-0.56,0.54-1.18,0.54-1.39c0-0.2,0.24-0.87,0.53-1.5c0.91-1.98,3.07-7.51,3.07-7.87
		c0-0.2-0.5-0.99-1.1-1.75c-1.28-1.62-4.14-3.07-4.85-2.48c-0.81,0.68-5.07,9.76-6.65,14.21c-0.85,2.38-1.84,4.98-2.21,5.78
		c-0.37,0.81-0.67,1.86-0.68,2.34c-0.01,0.49-0.25,1.29-0.53,1.78c-0.28,0.49-0.52,1.51-0.53,2.26c-0.01,0.75-0.25,1.74-0.55,2.19
		c-0.3,0.45-0.94,2.11-1.42,3.67c-0.48,1.57-1.28,3.99-1.78,5.38c-0.49,1.39-1.13,4.02-1.43,5.85c-0.31,1.96-0.85,3.85-1.3,4.57
		c-0.42,0.68-0.92,2.26-1.11,3.51c-0.32,2.06-0.82,3.95-1.84,6.95c-0.5,1.47-1.24,4.38-2.14,8.46c-0.41,1.88-1.08,4.06-1.48,4.84
		c-0.55,1.08-0.67,1.83-0.52,3.14c0.12,0.96-0.01,2.83-0.29,4.17c-0.75,3.7-1.87,8.89-2.73,12.69c-1.17,5.189-1.73,8.16-2.15,11.52
		c-0.21,1.68-0.69,5.41-1.07,8.28s-0.79,6.11-0.92,7.2s-0.4,2.29-0.6,2.66c-0.19,0.369-0.49,2.149-0.66,3.96
		c-0.17,1.8-0.56,5.39-0.87,7.96c-0.3,2.569-0.55,5.909-0.55,7.42c0,3.08-0.64,4.359-2.43,4.81c-1.6,0.42-7.79,1.17-8.25,1.01
		c-0.72-0.26-0.76-1.319-0.27-6.569c0.57-5.98,0.99-8.561,2.01-12.25c0.66-2.4,0.7-2.95,0.32-4.9c-0.41-2.05-0.38-2.37,0.53-5
		c0.8-2.31,0.91-3.03,0.61-3.99c-0.23-0.77-0.23-1.71-0.01-2.729c0.19-0.851,0.38-2.21,0.42-3c0.03-0.8,0.36-2.08,0.73-2.86
		c0.4-0.84,0.7-2.35,0.74-3.77c0.05-1.601,0.35-2.96,0.91-4.17c0.58-1.25,0.93-2.86,1.12-5.221c0.35-4.439,0.78-6.55,1.56-7.74
		c0.39-0.59,0.83-2.51,1.14-4.98c0.88-6.97,1.18-8.27,3.68-15.72c1.37-4.08,1.84-5.35,2.23-6.03c0.48-0.84,1.41-3.52,1.84-5.31
		c0.19-0.79,0.73-2.49,1.2-3.78c0.47-1.29,1.05-3.47,1.3-4.86c0.24-1.39,0.89-3.44,1.44-4.57c0.55-1.13,1.43-3.31,1.95-4.86
		c0.52-1.55,1.32-3.54,1.78-4.43s0.93-2.15,1.05-2.79c0.19-1.02,0.56-1.97,2.04-5.31c0.17-0.4,0.81-1.87,1.41-3.28
		c0.6-1.4,2.07-3.99,3.26-5.73c1.19-1.75,2.17-3.33,2.17-3.52c0-0.44-2.94-3.09-3.45-3.12c-0.22,0-0.67-0.32-1.01-0.69
		c-0.34-0.38-1.62-1.12-2.84-1.65c-1.23-0.54-2.75-1.21-3.37-1.48c-0.62-0.28-1.68-0.51-2.34-0.51c-2.71,0-3.79,0.64-7.91,4.66
		c-2.21,2.15-5.45,4.94-7.22,6.19c-13.72,9.74-25.16,19.2-30.7,25.36c-1.76,1.96-3.4,3.69-3.65,3.84c-0.51,0.31-5.72,6.34-8,9.26
		c-0.85,1.09-1.7,1.97-1.89,1.95c-0.18-0.02-0.49-0.06-0.67-0.09c-0.6-0.1-1.56-3.68-1.37-5.11c0.12-0.88,0-1.64-0.33-2.11
		c-0.9-1.29-1.5-3.48-1.92-7.02c-0.29-2.41-1-5.16-2.35-9.12c-4.61-13.55-5.04-15.06-4.96-17.53c0.04-1.27-0.14-2.02-0.64-2.66
		c-0.38-0.49-0.7-1.18-0.7-1.55c0-1.55-0.92-4.03-1.62-4.34c-0.4-0.19-1-0.81-1.33-1.4c-0.85-1.48-1.76-1.39-7.89,0.74
		c-3.76,1.3-5.72,1.79-7.16,1.8c-1.09,0-2.54,0.17-3.24,0.37c-0.69,0.2-2.31,0.6-3.59,0.88c-2.34,0.51-4.51,0.99-13.68,3.06
		c-9.29,2.1-9.33,2.11-15.12,3.99c-1.09,0.35-3.93,1.23-6.3,1.95c-2.38,0.72-4.97,1.53-5.76,1.79c-0.8,0.27-3.63,1.17-6.3,1.99
		c-6.44,2-7.25,2.37-8.85,4l-1.36,1.39l0.49,1.54c1.13,3.58,3.81,7.29,9.51,13.15c2.66,2.74,3.59,3.13,4.65,1.95
		c0.88-0.96,0.72-2.19-0.49-3.98c-2.54-3.77-0.82-6.66,6.49-10.86c1.09-0.63,2.23-1.34,2.52-1.58c0.3-0.24,1.43-0.81,2.52-1.26
		c1.69-0.71,3.09-1.33,8.1-3.62c1.03-0.47,13.69-4.67,14.09-4.67c1.18,0.02,1.23,0.58,0.5,5.42c-0.41,2.66-0.97,5.97-1.24,7.36
		c-0.28,1.38-0.76,3.81-1.07,5.4c-1.19,6.15-2,9.85-2.75,12.61c-1.28,4.77-2.2,8.2-2.48,9.35c-0.15,0.59-0.76,2.53-1.36,4.32
		c-0.6,1.78-1.25,3.88-1.45,4.68c-0.2,0.79-0.87,2.81-1.47,4.5c-0.61,1.68-1.69,4.68-2.41,6.66c-0.71,1.98-1.5,3.92-1.76,4.32
		c-0.26,0.39-0.76,1.61-1.11,2.7c-0.35,1.08-1.26,3.19-2.02,4.68c-0.76,1.479-2.82,5.939-4.58,9.899c-1.78,4-4.06,8.49-5.14,10.11
		c-1.08,1.6-3.33,5.05-5.01,7.67c-4.39,6.83-12.99,17.74-15.84,20.1c-2.54,2.091-11.08,7.881-14.61,9.91
		c-2.5,1.431-7.98,2.79-11.26,2.79c-1.17,0-3.37-0.39-4.99-0.87c-5.12-1.529-7.45-3.439-11.16-9.12c-1.46-2.229-2.89-4.05-3.18-4.05
		c-0.63,0-0.69,2.431-0.18,7.261c0.29,2.77,0.5,3.399,1.79,5.399c2.15,3.33,6.76,7.28,11.17,9.601l3.67,1.909l4.2,0.04
		c3.12,0.021,4.61-0.13,5.78-0.569c0.86-0.33,2-0.601,2.52-0.61c1.44,0,8.9-3.39,11.74-5.33c1.39-0.95,3.49-2.28,4.68-2.95
		s2.98-1.8,3.98-2.5c1.87-1.31,8.08-6.85,10.9-9.729c1.63-1.66,8.4-10.431,10.91-14.13c0.77-1.13,1.71-2.221,2.09-2.42
		c0.38-0.2,1.18-1.4,1.77-2.66c0.59-1.261,2.29-4.09,3.77-6.28c1.47-2.19,2.93-4.73,3.24-5.64c0.31-0.91,1.06-2.391,1.67-3.29
		c0.6-0.891,1.09-1.681,1.09-1.761c0-0.069,0.77-1.489,1.71-3.149c2.41-4.24,3.19-5.95,3.67-8.021c0.51-2.169,1.41-4.1,3.25-6.939
		c0.76-1.18,1.48-2.52,1.62-3c0.13-0.47,0.45-1.42,0.71-2.12c0.26-0.69,0.84-2.47,1.28-3.96c0.88-3,1.6-4.84,3.29-8.5
		c1.16-2.49,1.54-3.78,2.1-7.2c0.17-1.02,0.55-2.24,0.86-2.7c0.72-1.12,2.04-6.21,2.04-7.87c0-0.72,0.17-1.48,0.39-1.7
		c0.66-0.65,1.78-5.12,2.15-8.57c0.2-1.78,0.6-3.87,0.91-4.65c0.35-0.91,0.47-1.9,0.32-2.77c-0.17-0.99-0.06-1.67,0.4-2.44
		c0.61-1.03,0.6-1.2-0.04-3.89c-0.66-2.78-0.69-2.83-3.72-5.73c-3.26-3.12-3.62-4.1-1.52-4.1c0.59,0,1.81-0.25,2.71-0.55
		c1.94-0.66,2.95-0.3,3.29,1.19c0.77,3.34,2.39,9.3,2.88,10.61c0.7,1.86,2.24,6.57,3.99,12.15c0.71,2.28,1.5,4.79,1.77,5.58
		c0.26,0.79,0.63,2.01,0.82,2.7c0.19,0.7,0.7,2.48,1.13,3.96c1.41,4.82,3.02,12.36,4,18.66l0.74,4.8l-1.63,2.4
		c-1.79,2.63-2.57,3.75-5.83,8.34c-1.19,1.68-2.86,4.28-3.7,5.76c-0.85,1.49-1.69,2.94-1.87,3.24
		c-7.65,12.94-9.51,16.61-11.46,22.55c-1.63,4.96-2.31,6.431-3.12,6.74c-1.03,0.4-9.28,6.04-14.04,9.59
		c-10.41,7.79-16.87,14.681-20.08,21.42c-1.86,3.891-2.21,5.28-2.22,8.841c-0.01,3.449,0.21,4.359,1.91,7.88
		c1.5,3.109,6.52,8.149,9.95,9.979c7.51,4.021,13.02,5.98,23.04,8.19c16.32,3.6,45.78,5.35,70.2,4.17
		c21.76-1.061,26.28-1.37,40.14-2.72c3.08-0.301,6.56-0.631,7.74-0.73c1.19-0.11,4.11-0.42,6.48-0.69
		c2.38-0.279,7.24-0.84,10.8-1.25c3.57-0.409,8.18-0.979,10.26-1.279c2.09-0.29,5-0.7,6.48-0.9c10.12-1.37,15.59-2.189,32.22-4.85
		c3.86-0.61,9.96-1.66,15.66-2.69c2.28-0.41,5.44-0.979,7.02-1.26c2.83-0.51,7.96-1.47,13.69-2.561c1.58-0.31,4.09-0.779,5.58-1.06
		c2.82-0.53,6.32-1.229,10.71-2.15c1.43-0.3,3.78-0.79,5.21-1.079c5.7-1.181,14.82-3.15,20.97-4.53c2.78-0.63,5.79-1.26,6.7-1.431
		c0.92-0.149,2.29-0.46,3.06-0.67c0.771-0.21,2.86-0.72,4.641-1.13c3.51-0.8,5.14-1.18,12.16-2.85c2.52-0.601,6.649-1.58,9.18-2.18
		c2.52-0.591,5.08-1.24,5.68-1.431c0.61-0.2,1.82-0.51,2.7-0.68c0.89-0.18,4.2-1.01,7.37-1.86c7.939-2.1,7.37-2.069,9.62-0.569
		c1.069,0.699,2.739,1.619,3.72,2.04c0.97,0.409,2.1,0.89,2.49,1.069c1.66,0.73,4.479,1.78,6.67,2.49c1.28,0.42,4.12,1.35,6.3,2.07
		l3.96,1.31l9.72,0.34c9.21,0.33,9.95,0.311,14.221-0.439c2.47-0.42,5.92-1.021,7.659-1.311c1.75-0.3,4.101-0.95,5.221-1.46
		c1.13-0.51,3.149-1.229,4.479-1.6c2.03-0.58,5.98-2.45,11.25-5.33c1.87-1.01,9.61-7.32,12.24-9.96
		c7.271-7.3,13.87-15.311,13.87-16.82c0-0.26,0.39-1.01,0.87-1.66c0.479-0.649,1.22-2.05,1.649-3.12
		c0.79-1.93,0.801-1.939,3.721-3.039c1.609-0.61,4.229-1.601,5.819-2.2c1.58-0.601,3.771-1.42,4.86-1.83
		c10.75-3.98,36.33-14.59,37.24-15.45c0.51-0.48,1.63-0.39,1.84,0.16c0.1,0.26-0.29,1.92-0.87,3.689
		c-0.59,1.761-1.4,4.681-1.81,6.48c-0.42,1.8-1.5,4.96-2.41,7.02c-0.91,2.061-2.11,4.971-2.67,6.45
		c-1.351,3.61-3.551,8.57-6.21,14.04c-1.61,3.3-3.19,5.8-5.92,9.36c-2.051,2.67-4.32,5.43-5.04,6.12
		c-0.721,0.689-1.65,1.64-2.061,2.09c-1.87,2.08-5.189,5.189-6.33,5.95c-3.899,2.6-6.34,4-8.68,4.979
		c-2.15,0.91-2.96,1.07-4.45,0.92c-2.71-0.279-4.81-1.24-5.46-2.51c-0.79-1.53-0.36-8.17,0.62-9.41c0.37-0.47,1.32-2.14,2.12-3.72
		c1.74-3.44,2.67-4.45,3.39-3.68c0.271,0.29,0.76,1.359,1.09,2.39c0.53,1.62,0.82,1.97,2.17,2.62c1.48,0.72,1.681,0.729,3.851,0.24
		c2.2-0.511,2.399-0.65,5.43-3.891c1.73-1.85,3.15-3.58,3.15-3.85c0-0.26-0.221-0.91-0.51-1.44c-0.28-0.52-0.62-1.42-0.74-2
		c-0.221-1.05-4.15-5.26-4.9-5.26c-0.21,0-1.08-0.48-1.939-1.08l-1.57-1.08l-3.1,1.51c-1.711,0.82-3.79,2.091-4.62,2.811
		s-2.12,1.68-2.87,2.13c-0.75,0.46-1.58,1.25-1.851,1.78c-0.279,0.529-1.17,1.72-1.989,2.649c-1.67,1.891-3.98,5.561-3.98,6.32
		c0,0.26-0.34,1.24-0.76,2.15c-0.63,1.399-0.76,2.39-0.78,6.06c-0.02,3.83,0.08,4.56,0.771,5.89c1.46,2.811,3.58,5.311,5.689,6.71
		c1.73,1.15,2.58,1.46,4.8,1.73c1.49,0.189,3.511,0.34,4.5,0.34c2.41,0.01,6.761-1.27,8.28-2.43c0.68-0.521,2-1.08,2.94-1.26
		c0.949-0.181,1.92-0.61,2.18-0.98c1.19-1.67,3.21-3.43,4.12-3.61c1.12-0.229,6.42-5.51,6.42-6.39c0-0.29,0.75-1.06,1.66-1.71
		c0.91-0.66,1.95-1.76,2.3-2.46c0.35-0.69,1-1.58,1.44-1.98c0.439-0.39,1.02-1.149,1.289-1.68c0.28-0.53,1.11-1.67,1.87-2.54
		c0.75-0.87,2.07-3.03,2.931-4.8c0.859-1.771,2.109-4.13,2.779-5.24c0.67-1.12,1.21-2.45,1.21-2.97c0-0.561,0.49-1.49,1.21-2.3
		c1.16-1.29,3.83-6.84,3.83-7.95c0-0.3,0.311-0.88,0.681-1.29s0.92-1.55,1.229-2.54c1.2-3.87,2.811-8.22,3.32-8.94
		c0.29-0.42,0.53-1.199,0.53-1.739s0.47-2.4,1.04-4.15c0.569-1.75,1.31-4.14,1.649-5.33c0.34-1.189,1.05-3.54,1.57-5.22l0.96-3.061
		l5.58-2.819c6.32-3.19,14.22-7.32,15.3-7.99c1.74-1.09,2.21-1,3.15,0.63c0.489,0.85,1.319,2.68,1.859,4.06
		c0.53,1.39,1.12,2.85,1.29,3.24c0.181,0.4,0.75,1.77,1.26,3.06c0.511,1.29,1.08,2.67,1.271,3.06c0.18,0.4,0.81,1.94,1.39,3.42
		c1.5,3.86,3.801,9.351,4.7,11.2c0.42,0.87,1.15,2.96,1.61,4.64c0.47,1.681,1.68,4.92,2.689,7.181c1.021,2.27,1.851,4.38,1.851,4.68
		c0.01,0.31,0.25,0.87,0.54,1.26c0.3,0.391,0.529,1.09,0.529,1.57c0,0.47,0.23,1.38,0.521,2c0.28,0.62,1.11,2.59,1.85,4.37
		c0.73,1.78,1.95,4.64,2.69,6.359c0.74,1.711,1.47,3.65,1.609,4.32c0.141,0.66,0.62,1.93,1.07,2.82c0.44,0.89,0.92,2.26,1.07,3.04
		c0.14,0.79,0.55,2,0.899,2.7c0.36,0.71,0.75,1.77,0.881,2.369c0.13,0.601,0.59,1.521,1.029,2.051c0.75,0.89,1.11,0.989,5.07,1.37
		c2.36,0.229,5.04,0.3,5.979,0.18c1.15-0.16,2.381-0.04,3.761,0.36c3.33,0.97,3.72,0.079,2.069-4.601
		c-1.06-2.95-1.64-11.189-1.13-15.93c0.21-1.98,0.53-5.54,0.71-7.92c0.551-7.28,1.681-9.15,3.23-5.32c0.46,1.14,1.24,2.97,1.71,4.06
		c0.49,1.091,1.03,2.311,1.2,2.7c0.17,0.4,0.37,1.12,0.42,1.61c0.109,0.95,3.25,3.6,4.26,3.61c0.69,0,2.5-1.82,2.5-2.5
		c0-0.431-2.71-8.261-4.67-13.521c-0.9-2.4-2.71-7.49-3.44-9.7c-0.71-2.109-0.5-5.16,0.551-7.939c0.369-0.99,1.02-3.34,1.449-5.221
		c0.431-1.88,1.65-6.09,2.73-9.359c2.16-6.54,2.42-7.34,5.38-16.74c4.11-13.02,6.71-20.53,8.64-24.94
		c1.08-2.48,1.971-4.91,1.971-5.41s0.39-1.58,0.88-2.41c0.49-0.83,1.55-3.03,2.359-4.89c0.82-1.87,1.82-4.04,2.23-4.83
		s0.87-1.84,1.03-2.34c0.83-2.59,1.819-4.82,2.819-6.3c0.61-0.91,1.11-1.72,1.11-1.81c0-0.59,3.21-4.64,4.02-5.05
		c1.561-0.81,1.891-0.65,2.94,1.44c1.12,2.22,3.03,3.62,4.54,3.33c5.15-0.99,6.86-2.37,9.02-7.28c0.801-1.82,1.44-3.68,1.44-4.14
		C720.51,25.44,718.74,22.81,716.45,20.55z M112.58,130.94c0.13-0.631,0.45-1.4,0.71-1.71c0.26-0.32,0.85-1.461,1.29-2.551
		c0.45-1.08,1.03-2.22,1.28-2.52c0.69-0.82,4.87-9.12,4.87-9.67c0-0.26,0.96-1.811,2.14-3.44c1.17-1.63,2.34-3.439,2.59-4.02
		c0.26-0.58,0.85-1.58,1.34-2.23h-0.01c0.48-0.65,1.05-1.13,1.27-1.05c0.61,0.2,0.91,3.32,1.09,11.25c0.12,5.15,0.04,7.47-0.26,8.06
		c-0.28,0.551-2.19,1.75-5.47,3.431c-8.32,4.279-9.53,4.93-9.74,5.27c-0.11,0.181-0.45,0.32-0.76,0.32
		C112.48,132.08,112.4,131.83,112.58,130.94z M105.78,147.92c0.27-0.5,0.6-1.55,0.75-2.34c0.44-2.48-0.02-2.07,8.44-7.58
		c1.33-0.87,7.24-4.43,9.36-5.65c0.69-0.39,1.58-0.939,1.97-1.21c0.39-0.279,1.02-0.5,1.4-0.5c0.64,0,0.68,0.2,0.49,2.431
		c-0.11,1.33-0.45,3.399-0.76,4.59c-0.3,1.189-0.89,3.62-1.3,5.399c-1.38,6.021-1.87,7.5-3.84,11.66
		c-2.77,5.851-5.08,9.521-7.9,12.57c-2.87,3.11-3.82,3.67-6.21,3.67c-1.65,0-1.89-0.12-3.05-1.47c-1.06-1.24-1.29-1.82-1.49-3.87
		C103.13,160.4,104.3,150.68,105.78,147.92z M482.76,157.32c-3.13,2.39-12.229,5.89-19.49,7.489c-1.979,0.44-4.529,1.03-5.659,1.311
		c-2.681,0.67-8.79,0.66-15.4-0.021c-6.25-0.63-7.56-0.83-7.56-1.21c0-0.39,2.08-1.34,3.6-1.659c0.69-0.141,3.2-0.82,5.58-1.49
		c2.37-0.67,5.54-1.561,7.02-1.98c3.881-1.08,13.271-3.84,17.101-5.04c1.189-0.359,4.51-1.39,7.38-2.26
		c2.87-0.88,7.08-2.19,9.36-2.91c2.27-0.729,4.869-1.54,5.76-1.81c0.89-0.271,2.27-0.74,3.06-1.04c1.811-0.69,2.34-0.71,2.34-0.101
		C495.85,146.98,489.72,152,482.76,157.32z M621.62,28.93h0.01c0.15-0.42,0.43-0.52,0.86-0.34c0.34,0.15,1.84,0.56,3.319,0.91
		c4.37,1.05,6.54,1.67,8.641,2.5c1.09,0.42,2.439,0.94,3.01,1.15c3.18,1.18,7.53,4.04,9.75,6.42c6.23,6.66,4.271,15.99-5.65,26.94
		c-2.119,2.34-2.489,2.13-4.069-2.29c-0.561-1.59-1.55-3.69-2.2-4.68c-0.64-0.99-3.05-6.1-5.36-11.34
		c-3.96-9.02-6.1-13.74-7.8-17.16C621.72,30.21,621.5,29.27,621.62,28.93z M610.2,90.13c-0.66,0.49-1.3,0.91-1.431,0.91
		c-0.119,0-1.079,0.54-2.119,1.2c-1.051,0.66-3.521,2.06-5.5,3.1c-1.98,1.05-4.471,2.39-5.53,2.99c-1.561,0.87-1.99,0.99-2.24,0.59
		c-0.18-0.3-0.11-0.79,0.19-1.25c0.27-0.41,0.609-2.12,0.739-3.78c0.131-1.67,0.46-3.84,0.721-4.83c0.27-0.99,0.83-4.72,1.25-8.28
		c0.42-3.57,1-7.13,1.279-7.93c0.32-0.88,0.53-2.79,0.53-4.86c0.01-1.88,0.11-3.78,0.23-4.22v-0.01c0.12-0.44,0.35-0.81,0.51-0.81
		c0.38,0,1.78,1.97,1.78,2.51c0,0.23,0.59,1.66,1.31,3.19c0.71,1.52,1.75,3.74,2.311,4.93c0.55,1.18,1.279,3.11,1.609,4.28
		c0.34,1.16,1.08,2.86,1.65,3.76c0.569,0.9,1.04,2,1.04,2.45c0,0.45,0.479,1.37,1.069,2.04c0.591,0.67,1.23,1.64,1.431,2.16
		C611.35,89.12,611.26,89.32,610.2,90.13z M626.651,77.82c-0.271-0.84-1.591-4.41-1.96-5.31c-0.16-0.4-0.761-1.94-1.341-3.42
		c-0.58-1.49-1.54-3.52-2.13-4.52c-0.58-1-1.42-2.75-1.85-3.9s-1.29-3.01-1.91-4.13c-0.63-1.12-2.07-3.77-3.22-5.9
		c-1.141-2.12-2.4-4.31-2.78-4.86c-0.8-1.13-2.55-3.9-3.11-4.91c-0.199-0.36-1.229-1.12-2.29-1.68c-2.64-1.38-3.71-2.45-3.579-3.56
		c0.079-0.68,0.38-0.96,1.189-1.13c1.2-0.26,5.9-2.3,7.561-3.29c0.6-0.35,1.359-0.64,1.71-0.64c0.609,0,2.77,2.96,3.47,4.76
		c0.18,0.45,1.39,3.05,2.7,5.79c1.3,2.74,2.37,5.05,2.37,5.13s0.869,1.97,1.93,4.2c1.859,3.9,2.49,5.24,4.83,10.36
		c1.26,2.75,3.83,8.21,4.8,10.23c1.11,2.32,0.96,2.69-2.2,5.16C627.84,78.54,627,78.87,626.651,77.82z M656.81,131.36
		c-1.35,6.09-2.199,10.729-2.199,12.04c0,1.55-1.2,3-1.96,2.369c-0.271-0.22-0.561-0.84-0.67-1.38
		c-0.4-2.08-2.141-7.479-3.53-10.989c-2.33-5.87-2.601-6.5-3.181-7.431c-0.31-0.479-0.739-1.8-0.979-2.93
		c-0.43-2.15-4.57-10.98-5.91-12.62c-0.62-0.76-0.77-1.4-0.729-3.01c0.029-1.53-0.23-2.68-1.04-4.61c-0.591-1.41-1.08-2.7-1.08-2.87
		c0-0.17-0.561-1.28-1.261-2.46c-0.829-1.42-1.26-2.6-1.26-3.5c0-0.82-0.479-2.31-1.229-3.8c-0.681-1.35-1.16-2.65-1.07-2.89
		c0.1-0.24,1.46-1.28,3.03-2.32c1.569-1.04,2.96-2.05,3.08-2.24c0.76-1.24,1.739,0.43,5.75,9.94c0.34,0.79,0.83,1.92,1.08,2.52
		c0.26,0.59,0.979,2.3,1.619,3.78c0.631,1.48,1.711,3.92,2.4,5.4c0.69,1.48,1.66,3.59,2.16,4.68c0.51,1.09,1.79,3.82,2.85,6.07
		c1.061,2.25,2.601,6.05,3.41,8.46l1.47,4.37L656.81,131.36z M328.77,91.71c2.76-2.41,5.7-5.61,6.43-6.99
		c0.31-0.56,0.27-1.19-0.12-2.54c-0.49-1.65-0.7-1.88-2.71-2.94c-2-1.06-2.44-1.15-5.58-1.15c-2.14,0-3.87,0.19-4.64,0.51
		c-0.68,0.29-2.01,0.62-2.96,0.75c-0.95,0.14-3.32,0.56-5.27,0.94c-5.34,1.06-5.93,1.03-7.13-0.4c-0.85-1.02-3.42-5.27-6.35-10.47
		c-0.4-0.72-0.94-1.69-1.21-2.17c-0.27-0.47-0.88-1.3-1.36-1.84c-0.83-0.95-1.04-0.99-3.96-0.98c-2.91,0.03-3.21,0.1-5.24,1.36
		v-0.01l-2.16,1.33l-0.24,2.88c-0.13,1.58-0.67,4.24-1.2,5.93c-0.52,1.69-1.16,3.87-1.41,4.86c-0.26,0.99-0.91,2.85-1.46,4.14
		c-0.55,1.29-1.07,2.94-1.17,3.67c-0.1,0.74-0.37,1.5-0.6,1.7c-0.23,0.19-2.53,1.03-5.09,1.83c-5.54,1.76-13.35,4.19-14.45,4.49
		c-1.07,0.3-1.22,0.93-0.65,2.76c0.28,0.86,0.7,2.29,0.95,3.17s0.82,2.03,1.26,2.54c0.78,0.93,6.12,3.95,7.03,3.97
		c0.26,0.01,1.12,0.33,1.91,0.71c0.79,0.4,1.65,0.7,1.9,0.71c0.91,0.03,4.03,1.84,4.53,2.63c0.52,0.82,0.78,4.24,1.25,16.29
		c0.23,6.08,0.24,6.15,1.49,8.65c1.25,2.47,1.31,2.52,4.32,4.04c1.69,0.83,3.4,1.51,3.82,1.52c0.61,0,1.16-0.81,2.82-4.18
		c1.42-2.91,2.65-4.84,3.96-6.21c1.04-1.12,3.11-3.55,4.59-5.45c1.49-1.88,3.35-4,4.14-4.71l1.43-1.3l3.03,0.17
		c1.67,0.08,3.92,0.37,5.01,0.63c1.09,0.28,2.79,0.59,3.78,0.72c0.99,0.141,3.21,0.811,4.94,1.49c2.78,1.12,3.37,1.24,5.22,1.03
		c3.64-0.41,4.26-0.75,5.85-3.12c0.8-1.2,1.34-2.35,1.19-2.59c-0.62-1.021-6.01-8.41-6.59-9.04c-0.36-0.41-1.14-1.78-1.72-3.07
		c-0.59-1.29-1.97-3.54-3.09-5.01c-1.11-1.47-2.02-2.84-2.02-3.02C321.24,99.33,325.96,94.17,328.77,91.71z M323.7,87.02
		c-2.77,2.5-10.38,11.28-10.38,11.99c0,1.2,1.41,3.87,3.63,6.84c1.23,1.65,2.72,4.06,3.3,5.34c0.59,1.279,1.78,3.14,2.65,4.13
		c2.34,2.67,2.05,3.43-0.76,2c-0.77-0.391-2.04-0.721-2.81-0.721s-2.32-0.229-3.44-0.51c-1.11-0.28-3.32-0.62-4.91-0.74
		c-1.58-0.13-3.89-0.47-5.12-0.77c-2.22-0.53-2.27-0.521-3.85,0.41c-0.89,0.52-1.72,1.279-1.85,1.689
		c-0.13,0.41-0.84,1.41-1.57,2.221c-0.74,0.819-2.92,3.449-4.84,5.859c-1.91,2.41-3.87,4.62-4.33,4.931
		c-0.47,0.3-1.21,1.3-1.65,2.21c-0.44,0.909-0.99,1.59-1.21,1.52c-0.27-0.09-0.5-2.05-0.65-5.689c-0.13-3.051-0.41-7.091-0.62-8.971
		c-0.22-1.88-0.4-4.64-0.41-6.12c0-1.52-0.22-3.08-0.49-3.55c-0.25-0.47-1.82-1.59-3.47-2.479c-2.83-1.541-4.49-2.23-8.81-3.69
		c-1.47-0.5-1.8-0.75-1.8-1.45c0-0.71,0.29-0.91,1.8-1.28c1.98-0.49,10.27-3.09,11.7-3.68c0.5-0.2,1.49-0.99,2.21-1.75
		c1.08-1.14,1.34-1.72,1.5-3.36c0.1-1.09,0.52-2.71,0.92-3.6c0.39-0.89,1.04-2.76,1.42-4.14c0.39-1.39,1.11-3.9,1.61-5.58
		c0.5-1.68,1.02-3.75,1.15-4.59c0.24-1.47,0.65-1.82,1.47-1.25c0.2,0.14,1.66,2.49,3.23,5.22c2.92,5.08,6.84,10.31,8.05,10.76
		c0.37,0.14,1.55,0.13,2.61-0.03c4.31-0.63,13.19-2.28,14.77-2.76c1.79-0.54,2.81-0.65,2.81-0.3
		C325.56,85.25,324.73,86.1,323.7,87.02z"/>
</g>
</svg>
