<?xml version="1.0" encoding="utf-8"?>
<!-- Generator: Adobe Illustrator 15.0.0, SVG Export Plug-In . SVG Version: 6.00 Build 0)  -->
<!DOCTYPE svg PUBLIC "-//W3C//DTD SVG 1.1//EN" "http://www.w3.org/Graphics/SVG/1.1/DTD/svg11.dtd">
<svg version="1.1" id="레이어_1" xmlns="http://www.w3.org/2000/svg" xmlns:xlink="http://www.w3.org/1999/xlink" x="0px"
	 y="0px" width="802px" height="411px" viewBox="0 0 802 411" enable-background="new 0 0 802 411" xml:space="preserve">
<g>
	<g>
		<g>
			<g>
				<g transform="translate(-226 -169)">
					<defs>
						<rect id="SVGID_1_" x="226.5" y="169.5" width="801" height="410"/>
					</defs>
					<clipPath id="SVGID_2_">
						<use xlink:href="#SVGID_1_"  overflow="visible"/>
					</clipPath>
					<g clip-path="url(#SVGID_2_)">
						<g>
							<defs>
								<rect id="SVGID_3_" x="226.5" y="169.5" width="801" height="410"/>
							</defs>
							<clipPath id="SVGID_4_">
								<use xlink:href="#SVGID_3_"  overflow="visible"/>
							</clipPath>
							<g clip-path="url(#SVGID_4_)">
								<path fill="#191919" d="M385.46,374.805c15.073-16.574,29.705-33.585,45.428-49.549
									c9.202-9.379,18.404-18.818,26.515-29.235c6.722-8.64,7.002-15.056,0.15-20.952c-6.49-5.598-14.132-6.915-22.394-4.8
									c-16.313,4.171-31.896,10.507-47.829,15.795c-37.218,12.252-73.454,27.428-111.19,38.254
									c-9.502,2.734-19.104,4.859-29.636,4.989c0.909-1.912,1.938-3.765,3.08-5.548c7.062-9.529,15.513-17.87,23.635-26.46
									c15.143-16.024,31.886-30.322,49.49-43.662c22.363-16.962,44.697-33.924,70.592-45.368
									c10.292-4.54,20.904-7.852,32.447-7.852c4.85,0,6.681,1.177,5.78,5.986c-1,5.159-1.1,10.117,1.881,14.897
									c3.35,5.358,7.131,6.585,12.753,4.04c8.64-3.89,11.932-12.312,13.812-19.885c2-7.982,1.9-17.061-1.67-25.213
									c-2.87-6.525-8.002-10.975-15.883-10.556c-9.603,0.588-18.294,4.39-26.655,8.48c-16.493,8.093-31.676,18.43-46.01,29.824
									c-18.132,14.287-36.826,27.767-55.92,40.728c-16.524,11.163-32.087,23.685-46.528,37.436
									c-6.789,6.313-13.228,12.995-19.284,20.015c-7.07,8.391-13.412,16.961-16.003,27.937c-1.74,7.373,0.59,14.497,6.621,18.678
									c3.65,2.524,12.303,1.696,17.264-1.487c2.421-1.557,4.671-3.263,7.562-4.26c13.002-4.48,25.865-9.15,38.657-14.099
									c15.803-6.126,31.386-12.841,47.01-19.426c19.623-8.271,39.237-16.623,59.37-23.617c7.312-2.544,14.823-4.54,22.334-6.455
									c4.202-1.068,4.781,0,3.802,4.5c-0.974,4.742-2.841,9.256-5.502,13.3c-8.071,12.192-18.273,22.609-27.745,33.634
									c-13.233,15.388-26.396,30.837-39.487,46.346c-9.002,10.596-18.214,21.031-26.876,31.928
									c-12.571,15.773-24.844,31.777-37.007,47.842c-15.182,20.016-29.734,40.488-42.317,62.26
									c-6.311,10.926-15.122,19.766-24.004,28.467c-3,2.932-5.102,5.586-5.182,9.768c-0.08,3.99,1.54,4.648,5.271,3.602
									c3.763-1.088,6.889-3.721,8.602-7.244c7.631-14.477,18.413-26.689,28.255-39.551c14.554-19.006,30.006-37.355,44.318-56.502
									c13.623-18.18,28.745-35.092,43.078-52.662C365.526,397.424,375.318,385.939,385.46,374.805L385.46,374.805z
									 M237.822,323.819c15.754-23.188,37.008-40.679,59.222-57.211C276.799,285.156,258.616,305.839,237.822,323.819
									L237.822,323.819z M301.054,327.072c23.515-12.822,49.01-20.604,74.314-28.935
									C351.023,308.744,326.518,319.209,301.054,327.072z M278.88,495.873c4.71-15.525,104.02-138.909,125.663-156.08
									C364.656,392.934,321.738,443.629,278.88,495.873z"/>
								<path fill="#BF1C2D" d="M914.78,447.75c-9.602-9.389-21.644-14.418-34.006-18.809c-2.48-0.887-5.642-0.08-7.382-2.861
									l-9.853-3.264c-5.69,0.688-10.842-1.766-16.253-2.734c-9.002-1.586-18.004-2.623-27.005-4.121
									c-7.23-1.217-14.463-2.354-21.773-2.992c-7.312-0.639-14.493-1.996-21.624-2.934c0.34-1.377,0.51-2.516,0.89-3.572
									c7.551-21.381,15.934-42.455,24.555-63.426c1.521-3.672,1.45-8.032,5.42-10.916c11.684-8.481,23.905-16.094,36.158-23.667
									c23.515-14.537,46.139-30.511,71.014-42.903c5.689-2.651,10.284-7.193,13.002-12.851c1.14-2.405,0.939-3.163-1.84-3.303
									c-6.071-0.319-11.563,0.779-16.584,4.53c-12.353,9.22-24.425,18.788-37.246,27.379
									c-12.523,8.391-25.226,16.502-37.179,25.752c-6.13,4.739-12.771,8.83-19.272,13.09c-1,0.649-2.351,1.816-3.61,0.908
									c-1.26-0.908-0.711-2.514-0.49-3.722c0.476-2.527,1.117-5.021,1.921-7.463c3.289-10.097,6.66-20.174,10-30.252
									c5.912-17.86,11.174-35.919,18.395-53.36c1.82-4.4,4.229-9.638,1.67-15.036c-0.42-0.878-0.82-2.434-1.39-2.294
									c-1.077,0.379-1.961,1.168-2.46,2.195c-0.75,1.586-0.352,3.85-3.262,4.42v-8.72l-3.291,1.765
									c-3.689,1.996-8.002,3.283-8.54,8.531c-0.221,2.255-0.752,4.48-1.142,6.715c-3,17.34-7.161,34.452-10.861,51.644
									c-3.751,17.401-11.162,33.853-16.482,50.885c-2.812,8.98-8.282,14.837-15.693,19.955
									c-13.634,9.369-26.826,19.367-40.458,28.727c-10.771,7.383-19.944,17.07-32.606,21.809c-5.75,2.146-7.44,7.764-5.73,14.609
									c1.67,6.684,6.08,10.535,12.002,10.576c7.571,0.049,14.892-2.076,22.344-2.615c8.063-0.578,16.163-2.465,24.564-0.998
									c-6.658,20.75-16.676,40.266-29.655,57.77c-5.001,6.695-4.07,11.615-1.35,17.58c2,4.303,6.491,4.381,9.132,0.459
									c5.28-7.82,7.65-16.961,11.762-25.373c7.11-14.455,13.512-29.25,19.184-44.33c2.55-6.725,7.201-8.979,14.442-7.242
									c0.749,0.32,1.535,0.549,2.34,0.678c14.483-0.09,28.746,2.176,43.01,3.992c11.052,1.416,21.863,3.65,32.166,7.98
									c3.71-0.277,6.641,1.857,9.831,3.164c0.75,0.279,1.479,0.588,2.239,0.818c8.753,2.584,14.595,8.789,20.004,15.674
									c2.781,3.553,1.741,7.563,1.682,11.375c0,2.434,1.3,3.283,2.939,3.791c6.322,1.996,12.403,1.637,18.305-1.846
									c4.141-2.455,5.27-5.299,2.67-9.449C918.073,451.391,916.529,449.471,914.78,447.75L914.78,447.75z M767.182,404.777
									c-0.61,2.115-1.44,3.332-4.231,3.352c-12.361,0.051-24.153-2.893-35.877-6.295c-2.91-0.838-4.149-2.227-2.35-5.658
									c2.06-3.91,5.72-5.846,8.762-8.41c15.763-13.34,31.646-26.53,48.839-38.054c1.646-1.243,3.483-2.208,5.441-2.854
									c-2.182,10.686-6.231,19.805-9.733,29.055C774.393,385.529,770.031,394.869,767.182,404.777L767.182,404.777z"/>
								<path fill="#191919" d="M519.555,445.795c-2.25-11.764-4.8-23.467-6.691-35.291c-2.079-12.971-3.579-26.111-5.289-39.171
									c-1.002-7.753-2.412-15.475-2.853-23.258c-0.51-8.89-1.78-17.75-1.21-26.7c0.021-1.33,0.688-2.566,1.79-3.312
									c11.016-7.727,22.048-15.43,33.097-23.108c8.271-5.737,17.253-10.167,26.384-14.368c5.331-2.454,7.402-6.316,5.593-9.628
									c-2.4-4.39-5.842-7.703-10.872-9.14c-5.49-1.566-9.003,0.16-11.332,5.358c-1.95,4.668-4.786,8.914-8.353,12.502
									c-6.72,6.386-12.883,13.36-20.233,19.047c-4.641,3.582-8.672,7.982-13.842,10.856c-1.811,0.998-3.4,1.437-3.12-1.387
									c0.529-5.328-1.181-10.436-1.112-15.735c0.301-22.629-0.499-45.268,1.891-67.847c0.881-8.281,1-16.662,2.071-24.944
									c0.63-4.869,0.271-9.788-2.531-14.218c-2.8-4.43-11.422-5.497-14.253-1.167c-5.47,8.391-8.701,17.57-7,27.727
									c0.5,2.994,0.59,5.847,0.9,8.77c0.95,8.741,2,17.481,3.189,26.192c1.49,10.786,3.181,21.531,4.761,32.297
									c1.33,8.98,3.101,17.96,3.752,27.019c0.319,4.44,2.729,10.078-1.94,13.53c-20.955,15.485-41.208,31.848-61.852,47.722
									c-20.964,16.024-41.468,32.477-60.782,50.506c-3.9,3.633-7.882,7.334-12.162,10.686
									c-5.781,4.539-11.003,9.889-11.122,18.209c-0.06,3.084,1.45,3.422,3.601,2.994c6.001-1.328,11.382-4.102,15.093-9.16
									c2.983-4.313,6.384-8.322,10.151-11.973c7.282-6.674,14.844-13.061,21.904-19.955c17.593-17.191,34.396-35.2,54.21-50.007
									c13.803-10.327,27.576-20.693,41.198-31.25c3.001-2.334,4.281-0.858,4.761,1.597c1.431,6.501,2.453,13.086,3.061,19.715
									c0.94,13.52,3.811,26.76,5.401,40.18c1.471,12.422,2.87,24.943,4.7,37.275c1.24,8.361,2.911,16.672,3.621,25.074
									c0.74,8.781,4,17.221,3.271,27.758c-1.319,4.869,1.131,9.459,6.691,12.92c1.6,0.998,3,2.535,4.771,1.527
									s3.561-2.275,3.691-4.869c0.189-3.572-1.08-6.674-2.491-9.797C525.269,468.363,521.74,457.229,519.555,445.795
									L519.555,445.795z M752.01,274.371c8.24-13.59,16.672-27.039,27.074-39.182c4.291-4.988,9.211-9.678,11.531-16.203
									c2.941-8.262,0.59-11.365-5.1-12.781c-7.622-1.886-12.243-1.327-15.824,5.747c-1.285,2.79-2.734,5.502-4.34,8.121
									c-10.365,15.646-19.854,31.855-28.426,48.551c-5.552,10.756-10.353,21.951-15.453,32.926
									c-7.112,15.365-13.473,31.06-20.153,46.615c-2.881,6.685-5.202,13.849-10.453,20.146c-0.89-3.853,0.391-6.676,0.58-9.58
									c1.001-15.485,3.151-30.84,4.922-46.246c1.92-16.812,5.851-33.125,9.741-49.518c1.891-7.982,5.251-15.705,5.371-24.076
									c0.09-5.986-3.29-10.267-8.001-10.406c-5.411-0.15-11.632,5.108-11.902,10.296c-0.189,3.602-0.82,7.234-0.859,10.746
									c-0.25,19.446-1.701,38.813-3.19,58.179c-0.631,8.162-1.132,16.343-2.092,24.475c-1.45,12.272-3.29,24.505-4.88,36.766
									c-1.57,12.043-3.001,24.116-9.394,34.862c-1.319,2.227-2.38,4.699-1.52,6.984c2.15,5.658-0.57,9.848-3.07,14.518
									c-12.142,22.668-24.004,45.467-36.006,68.246c-7.072,13.469-14.232,26.939-21.005,40.5
									c-5.951,11.854-13.183,23.068-18.003,35.48c-1.7,4.398-0.521,9.906,1.93,9.848c4.111-0.08,6.182-2.834,7.132-6.766
									c2.337-9.205,5.328-18.23,8.951-27.01c7.683-19.266,18.003-37.285,26.786-56.033c10.232-21.852,21.473-43.223,33.135-64.365
									c2.911-5.287,4.771-6.477,10.563-4.988c4.14,1.076,7.149-0.27,9.352-3.633c4.061-6.227,4.74-13.389,5.05-20.484
									c0.283-5.201,1.029-10.365,2.23-15.434c2.892-12.921,9.313-24.216,15.774-35.621
									C725.734,321.594,737.986,297.508,752.01,274.371L752.01,274.371z M759.76,238.321l2.319,0.998
									c-14.651,36.648-35.195,70.392-53.538,105.223c13.411-37.186,29.745-72.946,51.219-106.19V238.321z"/>
								<path fill="#191919" d="M596.71,377.639c-0.95,10.545-0.391,21.172,6.261,30.49c3.33,4.65,9.871,7.922,16.643,4.689
									c6.433-3.063,11.532-8.041,13.792-14.967c4.461-13.588,6.302-27.716,8.304-41.845c0.77-5.467-0.682-11.584,3.159-16.143
									c2.15,6.176,4.25,12.591,6.621,18.897c2.15,5.707,5.261,10.916,10.063,14.817c3.189,2.594,7.561,5.217,10.952,2.534
									c3.689-2.922,4.18-8.401,3.84-13.11c-0.339-4.71-3.66-7.174-8.32-7.873c-3.392-0.508-5.752-2.354-7.622-5.318
									c-7.531-11.893-9.723-25.333-10.722-38.912c-0.87-11.784-0.78-23.747,1.92-35.39c1.05-4.5-0.061-9.978,7.322-11.684
									c6.371-1.507,8.001-8.81,4.56-14.428c-2.06-3.362-5.92-5.517-5.44-10.536c0.171-1.806-3-3.223-5.432-3.412
									c-1.998-0.105-4.001-0.105-6,0c-5.742,0.17-9.852,4.44-10.153,10.207c-0.119,2.404,0.381,4.75-0.739,7.244
									c-4,8.83-7.742,17.74-11.223,26.769c-7.421,19.227-14.532,38.553-20.113,58.439
									C600.606,351.019,598.038,364.252,596.71,377.639L596.71,377.639z M605.801,361.954c2.001-15.365,6.752-30.142,12.732-44.46
									c4.861-11.644,10.433-22.948,17.673-33.305c0.541-0.62,1.148-1.178,1.811-1.666c1.911,4.31,1.22,8.281,0.689,12.532
									c-0.829,6.655-0.35,13.429-1.09,20.184c-2.319,21.103-4.91,42.135-13.643,61.771c-2.33,5.227-5.82,9.977-8.881,14.857
									c-0.788,1.516-2.419,2.4-4.12,2.234c-2.22-0.18-2.68-1.996-3.101-3.383C605.092,381.396,604.385,371.578,605.801,361.954
									L605.801,361.954z M965.72,361.714c1-6.626,0.859-13.42,4.66-19.656c6.222-10.207,11.382-21.053,17.423-31.39
									c7.742-13.27,14.692-27.059,24.715-38.912c2.51-2.993,3.78-6.755,4.871-10.466c0.5-1.697,0.41-3.662-1.431-4.9
									c-1.84-1.237-2.761,0.45-4.101,1.098c-3.81,1.826-5.711,5.278-7.582,8.65c-5.51,9.898-10.361,20.205-15.632,30.183
									c-7.792,14.737-14.783,29.932-22.146,44.899c-0.869,1.766-1.54,4.849-4.319,2.055c-3-2.993-6.121-2.415-9.482-1.127
									c-5.571,2.125-10.092,5.846-14.362,9.798c-13.083,12.092-24.376,25.802-35.008,39.989
									c-5.921,7.854-11.851,15.834-15.272,25.184c-1.69,4.619-0.45,9.17,3.002,12.701c3.45,3.531,7.47,4.051,12.092,2.205
									c3.68-1.467,6.631-3.99,9.921-6.047c7.393-4.559,13.863-10.586,22.005-14.057c0.487,1.318,0.512,2.764,0.07,4.1
									c-1.38,6.037-5.222,10.646-8.603,15.574c-3,4.322-2.699,9.16,0.28,12.084c3.461,3.391,7.002,2.533,10.683,0.289
									c2.619-1.607,3.409-4.271,4-6.895c3.771-16.533,8.402-32.717,15.504-48.252C960.888,380.223,964.298,371.283,965.72,361.714
									L965.72,361.714z M945.635,389.881c-2,5.986-6.791,9.059-11.643,11.893c-9.61,5.627-19.543,10.666-30.366,13.729
									c-1.659,0.469-3.449,1.059-4.71,0c-1.47-1.197,0.221-2.742,0.67-3.99c3.17-8.791,8.621-16.293,14.464-23.418
									c7.181-8.76,15.002-16.961,24.424-23.487c4.703-3.413,9.852-6.166,15.303-8.182c2.68-0.927,4.25-0.319,3.729,2.994
									c-0.329,3.921-2.449,7.232-4,10.785C950.806,376.721,947.865,383.186,945.635,389.881L945.635,389.881z M608.951,276.456
									c2-4.988-0.05-8.181-5.32-8.071c-4.911,0.11-7.071,3.991-9.081,7.323c-11.363,19.077-19.136,39.781-27.106,60.384
									c-4.14,10.716-6,22.26-11.932,33.137c0-8.822-0.141-16.902,0-24.944c0.149-6.745-0.32-13.45,0.78-20.235
									c1-6.276,0.34-12.781-3.851-18.179c-2.661-3.432-4.521-3.292-6.461,0.489c-3.034,5.647-4.224,12.102-3.402,18.459
									c1.178,7.772,1.813,15.617,1.901,23.477c0,11.624-0.28,23.257,0.08,34.872c0.3,9.736,0.44,19.297-4,28.336
									c-1.945,3.82-2.646,8.154-2.001,12.393c0.61,3.76,2.17,6.984,6.411,8.301c2.479,0.799,4.901,1.605,6.86-0.199
									c3.191-2.934,6.183-5.688,7.003-10.766c0.67-3.992-0.32-7.395-0.45-11.037c-0.421-14.535,1.445-29.047,5.53-43.002
									c4.541-15.963,9.622-31.717,16.423-46.894c6.392-14.328,13.724-27.937,24.905-39.192
									C606.692,279.658,608.182,278.361,608.951,276.456L608.951,276.456z M1022.59,375.045c-1.92-0.999-3.801-0.839-5.751-0.938
									c-4.3-0.23-8.661,0.518-13.253-0.469c3.394-3.051,7.262-5.527,11.451-7.334c2.413-1.031,4.57-2.578,6.322-4.531
									c1.532-1.43,1.982-3.677,1.12-5.587c-0.939-2.165-2.57-2.993-5-3.103c-3.212-0.15-5.792,1.187-8.143,2.854
									c-12.056,8.544-24.059,17.166-36.006,25.861c-4.047,2.891-6.795,7.254-7.652,12.152c-0.95,5.508,0.83,10.676,8.162,10.168
									c4-0.279,7.11-2.156,10.202-4.191c7-4.59,13.803-9.348,20.683-14.039c-5.34,8.352-12.932,14.488-19.183,21.801
									c-6.085,7.182-11.691,14.754-16.783,22.67c-5.1,7.861-12.003,14.547-16.283,23.656c3.6-0.219,5.441-1.996,7.3-3.881
									c14.353-14.35,28.726-28.678,43.12-42.984c1.15-1.137,2.48-2.164,3.67-3.23c7.002-6.256,14.192-12.344,18.884-20.686
									C1027.571,379.484,1026.381,376.93,1022.59,375.045L1022.59,375.045z M873.351,426.08
									c1.39-16.744,6.712-32.498,12.233-48.184c2.529-7.204,5.341-14.288,4.9-22.109c-0.41-7.503-4.681-9.868-11.002-6.206
									c-0.908,0.334-1.855,0.545-2.82,0.628c-2.229,0.529-4.001,1.846-4.101,4.151c-0.1,2.305-1,4.52-1,6.725
									c0.189,14.079-1.192,28.133-4.12,41.907c-1.451,6.594-1.102,13.549-4.002,19.854L873.351,426.08z M861.67,429.951
									c0.773,1.449,1.061,3.111,0.819,4.738c-1.79,10.686-3.801,21.332-5.351,32.059c-0.9,6.246-3.23,12.621,0.2,19.127
									c1.562-0.797,2.741-2.184,3.279-3.852c3.231-8.611,2.63-17.881,4.871-26.641c1.901-7.453,2.08-15.365,6.002-22.27
									C868.312,431.807,865.38,429.672,861.67,429.951z M869.461,329.676c-0.12,3.991,1.55,5.856,5.582,5.537
									c5,0,11.381-6.565,11.45-11.813c0.061-3.732-1.83-5.927-5.5-6.087C875.822,317.084,869.62,324.048,869.461,329.676
									L869.461,329.676z"/>
							</g>
						</g>
					</g>
				</g>
			</g>
		</g>
	</g>
</g>
</svg>
