<?xml version="1.0" encoding="utf-8"?>
<!-- Generator: Adobe Illustrator 15.0.0, SVG Export Plug-In . SVG Version: 6.00 Build 0)  -->
<!DOCTYPE svg PUBLIC "-//W3C//DTD SVG 1.1//EN" "http://www.w3.org/Graphics/SVG/1.1/DTD/svg11.dtd">
<svg version="1.1" id="레이어_1" xmlns="http://www.w3.org/2000/svg" xmlns:xlink="http://www.w3.org/1999/xlink" x="0px"
	 y="0px" width="89px" height="42px" viewBox="0 0 89 42" enable-background="new 0 0 89 42" xml:space="preserve">
<path d="M79.567,0.51c-0.152,0.051-0.354,0.203-0.469,0.329c-0.113,0.139-0.367,0.721-0.568,1.316
	c-0.203,0.595-0.521,1.405-0.697,1.81c-0.176,0.392-0.328,0.797-0.328,0.873c0,0.089-0.178,0.532-0.393,0.987
	s-0.543,1.278-0.746,1.834c-0.203,0.557-0.531,1.468-0.734,2.025c-0.215,0.557-0.557,1.417-0.76,1.898
	c-0.201,0.481-0.557,1.316-0.758,1.835c-0.217,0.519-0.443,1.177-0.521,1.456c-0.075,0.329-0.305,0.67-0.633,0.974
	c-0.291,0.266-0.569,0.481-0.646,0.481c-0.063,0-0.33-0.19-0.582-0.417c-0.268-0.24-0.545-0.684-0.696-1.076
	c-0.127-0.354-0.24-0.759-0.24-0.886c0-0.114-0.139-0.506-0.315-0.848c-0.189-0.354-0.443-0.924-0.582-1.265
	c-0.14-0.354-0.367-0.747-0.494-0.886c-0.125-0.139-0.342-0.494-0.492-0.797c-0.141-0.291-0.531-0.886-0.861-1.329
	c-0.316-0.43-1.277-1.468-2.113-2.316c-0.848-0.835-1.949-1.81-2.455-2.151c-0.506-0.341-1.075-0.708-1.266-0.81
	c-0.189-0.102-0.633-0.38-0.975-0.595c-0.354-0.228-0.721-0.418-0.822-0.418s-0.645-0.215-1.201-0.468s-1.785-0.646-2.721-0.873
	c-0.938-0.241-2.342-0.494-3.102-0.57c-0.797-0.076-2.049-0.088-2.91-0.05c-0.834,0.05-1.746,0.139-2.023,0.189
	c-0.279,0.051-1.164,0.266-1.963,0.482c-0.797,0.215-1.936,0.595-2.53,0.848c-0.595,0.253-1.24,0.544-1.456,0.632
	c-0.202,0.102-0.607,0.316-0.886,0.468c-0.278,0.165-0.911,0.557-1.392,0.886c-0.494,0.316-1.152,0.835-1.481,1.139
	C38.3,5.634,38.149,5.85,38.149,6.142c0,0.215,0.102,0.531,0.228,0.708c0.114,0.19,0.443,0.671,0.708,1.076
	c0.266,0.417,0.658,1.063,0.86,1.442c0.215,0.38,0.481,0.861,0.607,1.076c0.127,0.215,0.443,0.975,0.696,1.708
	c0.253,0.734,0.531,1.556,0.595,1.834c0.076,0.279,0.177,0.633,0.24,0.797c0.063,0.165,0.228,0.279,0.38,0.279
	s0.747-0.494,1.544-1.304c1.012-1.012,1.542-1.43,2.43-1.911c0.633-0.342,1.403-0.696,1.746-0.797
	c0.33-0.088,0.897-0.253,1.266-0.354c0.354-0.114,1.139-0.229,1.734-0.266c0.821-0.063,1.327-0.013,2.149,0.177
	c0.597,0.139,1.367,0.342,1.709,0.443c0.354,0.102,0.771,0.253,0.948,0.329c0.177,0.076,0.658,0.329,1.074,0.569
	c0.418,0.24,1.24,0.911,1.822,1.493c0.57,0.582,1.279,1.392,1.57,1.81c0.277,0.418,0.67,1.164,0.885,1.645
	c0.203,0.481,0.455,1.165,0.557,1.519c0.142,0.481,0.166,1.189,0.142,2.911l-0.052,2.277c-0.836,1.961-1.329,2.897-1.633,3.354
	c-0.305,0.456-0.938,1.189-1.418,1.646c-0.467,0.455-1.063,0.974-1.303,1.139c-0.24,0.177-0.861,0.519-1.354,0.783
	c-0.508,0.267-1.393,0.607-1.963,0.748c-0.582,0.15-1.594,0.304-2.252,0.342c-0.722,0.037-1.48,0-1.898-0.102
	c-0.379-0.076-1.063-0.229-1.518-0.33c-0.455-0.101-1.254-0.418-1.771-0.694c-0.52-0.291-1.379-0.873-1.898-1.316
	c-0.519-0.43-1.164-1.075-1.43-1.403c-0.266-0.343-0.658-0.912-0.898-1.254c-0.228-0.354-0.494-0.859-0.583-1.14
	c-0.088-0.276-0.266-0.721-0.392-0.985c-0.139-0.255-0.329-0.822-0.43-1.267c-0.101-0.431-0.241-1.784-0.304-2.999
	c-0.114-1.86-0.203-2.506-0.595-4.049c-0.253-1.012-0.62-2.151-0.81-2.531s-0.392-0.835-0.443-1.013
	c-0.051-0.177-0.443-0.911-0.86-1.646c-0.417-0.734-1.025-1.696-1.341-2.151c-0.316-0.443-1.101-1.329-1.721-1.962
	c-0.633-0.62-1.531-1.43-2-1.771c-0.48-0.354-1.101-0.81-1.392-1.012c-0.291-0.215-0.898-0.595-1.354-0.835
	c-0.456-0.253-1.417-0.708-2.151-1.025c-0.848-0.367-2.05-0.734-3.29-1.025c-1.076-0.253-2.506-0.494-3.164-0.531
	c-0.658-0.038-1.936-0.025-2.847,0.05c-1.152,0.076-2.139,0.253-3.291,0.557c-0.898,0.24-1.81,0.519-2.024,0.632
	c-0.203,0.102-0.721,0.316-1.139,0.481c-0.417,0.152-1.215,0.532-1.771,0.835c-0.557,0.304-1.265,0.734-1.582,0.962
	C8.855,4.319,8.311,4.725,7.97,5.002C7.615,5.269,6.944,5.851,6.451,6.281C5.97,6.699,5.363,7.318,5.123,7.647
	c-0.241,0.341-0.62,0.81-0.835,1.063C4.084,8.977,3.68,9.521,3.401,9.938c-0.278,0.417-0.658,1.037-0.835,1.392
	c-0.177,0.342-0.443,0.86-0.582,1.139c-0.139,0.278-0.43,0.961-0.645,1.519c-0.215,0.557-0.468,1.417-0.57,1.897
	c-0.101,0.481-0.266,1.316-0.379,1.835c-0.126,0.52-0.266,1.52-0.329,2.214c-0.076,0.873-0.051,1.733,0.063,2.784
	c0.088,0.834,0.291,2.063,0.443,2.721c0.152,0.658,0.354,1.431,0.443,1.707c0.088,0.279,0.342,0.963,0.531,1.521
	c0.203,0.558,0.519,1.252,0.709,1.543c0.189,0.306,0.341,0.582,0.341,0.633c0,0.063,0.266,0.531,0.595,1.052
	c0.342,0.53,0.924,1.354,1.329,1.834c0.392,0.494,1.214,1.379,1.834,1.975c0.607,0.595,1.367,1.277,1.683,1.52
	c0.316,0.24,0.861,0.646,1.202,0.885c0.354,0.254,1.202,0.748,1.898,1.113c0.696,0.355,1.303,0.646,1.367,0.646
	c0.05,0,0.531,0.189,1.075,0.43c0.607,0.266,1.747,0.582,3.063,0.848c1.923,0.394,2.252,0.432,4.049,0.394
	c1.658-0.024,2.278-0.103,3.986-0.455c1.303-0.278,2.48-0.606,3.29-0.949c0.696-0.278,1.354-0.569,1.455-0.633
	c0.102-0.051,0.506-0.267,0.886-0.469c0.38-0.189,0.987-0.558,1.329-0.798c0.354-0.239,1.038-0.733,1.519-1.102
	c0.493-0.365,0.987-0.848,1.126-1.088c0.152-0.253,0.203-0.531,0.165-0.734c-0.038-0.177-0.291-0.567-0.557-0.873
	c-0.266-0.315-0.595-0.746-0.734-0.974c-0.139-0.228-0.544-0.886-0.898-1.468s-0.874-1.596-1.165-2.253
	c-0.278-0.658-0.557-1.431-0.595-1.708c-0.05-0.279-0.165-0.633-0.266-0.797c-0.101-0.152-0.304-0.279-0.456-0.279
	c-0.19,0.014-0.633,0.367-1.303,1.076c-0.557,0.582-1.266,1.252-1.582,1.492c-0.316,0.229-1.025,0.658-1.582,0.949
	c-0.633,0.33-1.519,0.646-2.367,0.836c-0.898,0.215-1.721,0.328-2.404,0.328c-0.582,0-1.278-0.063-1.556-0.127
	c-0.279-0.074-0.874-0.201-1.329-0.304c-0.456-0.088-1.278-0.403-1.834-0.685c-0.557-0.276-1.304-0.732-1.658-0.998
	c-0.367-0.268-1.063-0.938-1.544-1.493c-0.544-0.607-1.139-1.47-1.493-2.151c-0.43-0.81-0.671-1.48-0.848-2.341
	c-0.139-0.696-0.24-1.709-0.24-2.405c0-0.658,0.088-1.721,0.203-2.341c0.126-0.696,0.392-1.531,0.683-2.151
	c0.253-0.557,0.759-1.379,1.101-1.848c0.354-0.456,1.063-1.215,1.582-1.67c0.519-0.468,1.354-1.075,1.835-1.341
	c0.494-0.266,1.544-0.67,2.341-0.898c0.949-0.266,1.834-0.43,2.531-0.468c0.924-0.038,1.291,0.013,2.657,0.38
	c0.987,0.266,1.936,0.62,2.531,0.949c0.519,0.278,1.379,0.898,1.898,1.379c0.531,0.468,1.189,1.164,1.493,1.519
	c0.291,0.367,0.595,0.81,0.658,0.987c0.076,0.177,0.266,0.544,0.443,0.822c0.177,0.278,0.493,1.088,0.696,1.797
	c0.316,1.063,0.405,1.683,0.494,3.328c0.076,1.114,0.189,2.544,0.278,3.163c0.076,0.621,0.354,1.797,0.62,2.595
	c0.266,0.798,0.747,1.999,1.063,2.657c0.316,0.658,0.822,1.568,1.101,2.025c0.291,0.455,0.987,1.365,1.569,2.023
	c0.582,0.657,1.417,1.544,1.86,1.961c0.456,0.418,1.038,0.938,1.316,1.141c0.266,0.201,0.911,0.683,1.442,1.049
	c0.519,0.354,0.987,0.658,1.05,0.658c0.051,0,0.354,0.164,0.696,0.381c0.329,0.201,0.936,0.479,1.354,0.633
	c0.417,0.139,1.05,0.404,1.392,0.568c0.354,0.164,1.038,0.366,1.519,0.442c0.494,0.076,1.367,0.267,1.961,0.405
	c0.873,0.215,1.494,0.266,3.228,0.266c1.76,0,2.354-0.051,3.229-0.266c0.594-0.152,1.416-0.329,1.834-0.405
	c0.418-0.063,1.418-0.379,2.215-0.694c0.797-0.316,1.859-0.799,2.34-1.076c0.494-0.267,1.457-0.86,2.152-1.316
	c0.936-0.619,1.379-0.835,1.709-0.835c0.34-0.013,0.631,0.14,1.313,0.658c0.47,0.366,1.015,0.771,1.203,0.886
	c0.178,0.127,0.633,0.316,1,0.418c0.354,0.102,1.012,0.189,1.455,0.189c0.43,0,1.149-0.113,1.606-0.254
	c0.646-0.189,0.973-0.393,1.492-0.886c0.355-0.342,0.822-0.937,1.037-1.304c0.203-0.354,0.443-1.023,0.52-1.48
	c0.127-0.646,0.113-1-0.012-1.646c-0.09-0.455-0.305-1.05-0.482-1.328c-0.176-0.278-0.582-0.785-0.897-1.127
	c-0.366-0.379-0.873-0.746-1.34-0.961c-0.418-0.188-0.86-0.456-0.987-0.582c-0.152-0.16-0.228-0.431-0.228-0.812
	c0-0.315,0.088-0.859,0.2-1.201c0.103-0.354,0.367-0.811,0.607-1.051c0.279-0.277,0.52-0.404,0.785-0.404
	c0.215,0,0.721,0.113,1.139,0.253c0.418,0.151,0.938,0.38,1.139,0.507c0.216,0.139,0.521,0.253,0.697,0.253
	c0.176,0,0.441-0.089,0.607-0.188c0.15-0.103,0.568-0.621,0.91-1.141c0.354-0.52,0.633-0.999,0.633-1.074
	c0-0.076,0.203-0.432,0.455-0.798c0.254-0.354,0.531-0.823,0.633-1.038c0.09-0.216,0.393-0.732,0.646-1.15
	c0.266-0.431,0.656-1.088,0.885-1.456c0.215-0.379,0.52-0.886,0.658-1.126c0.152-0.24,0.545-0.923,0.887-1.519
	c0.34-0.595,0.822-1.417,1.074-1.835c0.254-0.417,0.836-1.379,1.305-2.151c0.455-0.772,0.961-1.62,1.113-1.898
	c0.152-0.278,0.418-0.734,0.594-1.013c0.178-0.278,0.557-0.937,0.861-1.455c0.303-0.519,0.734-1.253,0.961-1.62
	c0.24-0.354,0.432-0.684,0.432-0.721c0-0.038,0.164-0.304,0.365-0.607c0.203-0.291,0.432-0.696,0.52-0.911
	c0.076-0.215,0.113-0.506,0.076-0.671c-0.051-0.165-0.342-0.443-0.709-0.658c-0.342-0.215-1.012-0.519-1.48-0.696
	c-0.479-0.19-0.975-0.405-1.112-0.494c-0.14-0.088-0.597-0.291-1.013-0.443c-0.418-0.165-1.075-0.456-1.454-0.658
	c-0.382-0.203-0.785-0.367-0.888-0.367c-0.102,0-0.557-0.189-1.012-0.43c-0.457-0.228-0.963-0.456-1.139-0.494
	C79.985,0.435,79.72,0.447,79.567,0.51"/>
</svg>
