<?xml version="1.0" encoding="utf-8"?>
<!-- Generator: Adobe Illustrator 15.0.0, SVG Export Plug-In . SVG Version: 6.00 Build 0)  -->
<!DOCTYPE svg PUBLIC "-//W3C//DTD SVG 1.1//EN" "http://www.w3.org/Graphics/SVG/1.1/DTD/svg11.dtd">
<svg version="1.1" id="레이어_1" xmlns="http://www.w3.org/2000/svg" xmlns:xlink="http://www.w3.org/1999/xlink" x="0px"
	 y="0px" width="125px" height="40px" viewBox="0 0 125 40" enable-background="new 0 0 125 40" xml:space="preserve">
<g>
	<g>
		<path fill="#191919" d="M124.835,24.398h-8.795v8.795h8.795V24.398z M124.835,6.808h-8.795v8.795h8.795V6.808z M79.673,26.254
			c0,4.784,1.436,7.496,3.49,9.676C85.509,38.416,89.715,40,94.356,40c4.084,0,7.608-0.969,10.352-3.212
			c2.713-2.22,3.98-5.515,3.98-8.89c0-5.109-2.285-7.899-5.822-9.703c-2.756-1.404-7.395-2.656-9.294-3.284
			c-1.871-0.619-4.097-1.716-4.097-4.05c0-2.202,1.799-3.553,4.563-3.553c1.814,0,2.908,0.662,3.637,1.444
			c1.219,1.309,1.133,3.394,1.133,4.313h9.176c0-3.99-0.487-7.14-3.414-9.711C102.329,1.389,98.843,0,94.462,0
			c-3.492,0-7.123,0.729-9.953,2.943c-1.98,1.55-3.798,4.149-4.043,8.281c-0.134,2.249,0.311,5.146,2.365,7.572
			c2.1,2.479,5.635,3.67,7.178,4.102l4.914,1.381c3.422,0.919,4.82,1.986,4.82,4.265c0,2.427-2.448,3.873-5.208,3.792
			c-1.7-0.05-3.368-0.673-4.353-1.77c-0.888-0.987-1.332-2.086-1.332-4.313H79.673z M0.165,0.88v8.03h10.363v30.21h9.178V8.91
			h10.363V0.88H0.165z M65.056,29.668L60.771,0.88H49.93l-4.286,28.788L41.965,0.88h-9.177l5.906,38.24h12.42l4.235-28.503
			l4.236,28.503h12.419l5.906-38.24h-9.176L65.056,29.668z"/>
	</g>
</g>
</svg>
