<?xml version="1.0" encoding="UTF-8"?>
<svg id="_레이어_1" data-name="레이어_1" xmlns="http://www.w3.org/2000/svg" version="1.1" viewBox="0 0 60 100">
  <!-- Generator: Adobe Illustrator 30.3.0, SVG Export Plug-In . SVG Version: 2.1.3 Build 182)  -->
  <path d="M51.3218.0909c-2.1373.2744-4.496,1.024-6.8081,2.165-2.1681,1.0698-3.6681,2.1563-5.2583,3.8089-2.5501,2.6505-4.0611,5.7011-4.6352,9.355-.1985,1.2651-.2001,4.2359-.0024,5.5745.1629,1.1054.3614,2.0242.6405,2.9652.1795.6057.1866.68.0727.7512-.8864.5551-2.184,1.4533-2.6837,1.8566-.8231.665-2.3105,2.1618-2.9873,3.0063-1.2137,1.5142-2.4805,3.6246-3.2641,5.4385-.3305.7654-.408.8872-.5432.8556-.087-.0206-.5495-.0095-1.0279.0229s-.8816.0506-.8967.0403c-.015-.0111.0878-.3337.2285-.7172,1.7562-4.7917,4.5411-8.69,7.666-10.7332.3258-.2135.6278-.4183.6705-.4562.1487-.1313-.4792.1162-1.3426.5306-3.8856,1.8621-7.2406,5.8244-9.2941,10.9775-.1882.4721-.3803.869-.4262.8816-1.5356.4373-2.6339.8382-3.9552,1.4423-3.8184,1.7459-7.2785,4.4794-9.6728,7.6399-2.2986,3.0356-3.7306,6.5297-4.1354,10.0919-.1305,1.1481-.0498,3.2071.1653,4.2303.8263,3.9259,3.1217,6.7385,6.6143,8.1056,1.8345.718,3.5645.9829,6.0363.9243,2.5287-.0601,4.7443-.491,7.7886-1.515.8255-.2775,1.5063-.4989,1.5118-.491.0467.064,1.1987,3.7417,1.4525,4.6391.3748,1.3244.8049,3.3993.9987,4.8234.185,1.3577.1858,4.0769.0016,5.2187-.3748,2.3192-1.1102,4.4359-2.2037,6.3487-2.0487,3.5812-4.8779,6.2894-8.3239,7.9673-1.3031.6342-2.4251,1.0216-3.8144,1.315-.884.1866-1.1837.2135-2.4322.2119-1.2802-.0016-1.5-.0221-2.1911-.2072-1.4897-.3993-2.6797-1.0864-3.6357-2.0994-2.4085-2.5532-2.4228-6.476-.0395-11.1641,1.8621-3.6642,4.7229-6.8255,8.1301-8.9857l.6903-.4373v-.4286c0-.627-.0767-.6413-1.2572-.2372-3.0727,1.0517-5.5888,2.626-7.904,4.9467-2.5327,2.5382-4.1758,5.4093-4.8257,8.4338-.2372,1.1054-.3021,3.3313-.1281,4.4272.5701,3.6017,2.9241,6.3368,6.5788,7.6431,1.6344.5843,3.8476.8532,5.7572.6998,5.3294-.4278,10.4517-2.8031,14.2495-6.6072,2.9114-2.9162,4.6423-6.1858,5.2978-10.0089.1747-1.0184.2428-4.1125.117-5.3492-.2839-2.8047-.8532-5.0875-2.4923-9.9891-.4578-1.3687-.8326-2.5129-.8326-2.5414s.4357-.2878.9686-.5749c2.8094-1.5158,5.2899-3.3574,7.4533-5.535,6.918-6.9623,9.2419-16.2468,6.2459-24.951-.5337-1.5498-.8342-2.2243-2.5864-5.7975-.869-1.7736-1.5617-3.2728-1.5387-3.3329.0443-.1147,1.2936-.4357,2.3856-.6136.8263-.1344,3.9733-.1336,4.8234,0,2.0037.3171,3.7132.7741,5.3373,1.4272.8334.3353,1.0058.3803,1.0967.2902.0593-.0593.0822-.1494.0498-.2016-.1218-.1977-1.7467-1.2003-2.6718-1.6486-2.3864-1.1576-4.6012-1.7182-7.1331-1.8068-1.6344-.0569-2.8118.072-4.5933.5029-.1487.0364-.1866-.0364-.3867-.7377-.5915-2.0772-.7116-2.9794-.7109-5.3247,0-1.4628.0348-2.15.14-2.8063.4989-3.1202,1.636-5.8284,3.3329-7.9388.5938-.7385,1.8645-1.9554,2.6347-2.524,1.6194-1.1948,3.9022-2.1808,5.8292-2.5176,1.0501-.1834,2.4813-.1139,3.3384.1629,1.7325.5598,2.9225,1.9546,3.2617,3.8255.1265.699.1075,2.1626-.038,2.928-.2831,1.4873-1.0785,3.3582-2.0227,4.7593-1.0706,1.5893-2.9889,3.8318-4.1418,4.8423-.7559.6626-1.9665,1.5071-2.5912,1.8084-.3708.1787-.525.4657-.2507.4657.2167,0,3.1233-1.4525,3.8682-1.9325,3.7599-2.4243,6.6151-5.5247,7.9016-8.5808,1.0256-2.437,1.088-4.5458.1898-6.4048-.2617-.5408-.4539-.7994-1.005-1.3482-.5622-.5606-.8129-.7441-1.4328-1.0493-1.485-.7322-3.4538-1.0082-5.4085-.7567M35.5241,27.2164c-.7963.5938-2.5232,2.3049-3.2554,3.2261-.68.8548-1.6447,2.282-2.1753,3.2174-.4341.7646-1.3063,2.554-1.262,2.5888.0142.0111.3353.1154.714.2317s1.0754.4056,1.549.6421c2.4481,1.2256,4.0848,3.0221,4.6992,5.157.1487.5179.1763.7994.1716,1.7625-.0047.9765-.0372,1.2644-.2151,1.9373-.8113,3.0632-3.8389,6.4285-7.7126,8.5745-.408.2261-.937.4974-1.1758.6025l-.4341.1921.0538.5337c.2333,2.3041.7947,4.8605,1.7095,7.7838.2839.9069.3305,1.0003.4815.971.2657-.0514,1.8337-.941,2.9122-1.6534,3.6112-2.384,6.2142-5.2749,8.021-8.9098,2.7501-5.5326,3.0822-12.0315.9228-18.0837-.4365-1.2248-.9465-2.3548-2.5398-5.6283-.7725-1.5878-1.4778-3.0553-1.5672-3.2617s-.1803-.3756-.2016-.3756-.3345.2206-.6966.4902M24.1283,37.2743c-.3519.0538-.6468.1407-.6856.2032-.1827.2957-.8658,3.2467-1.1829,5.1104-.5748,3.3827-.7488,5.5927-.7528,9.5732-.0016,1.7902.019,3.2767.0451,3.3036.0269.0269.4784-.1328,1.0042-.355l.9552-.4033-.0467-2.5841c-.0941-5.244.4412-9.6784,1.6447-13.6145.1795-.5867.344-1.1299.3661-1.2058.034-.1194-.0142-.1368-.3455-.1305-.2119.0047-.6626.0506-1.0026.102M28.3206,37.4562c-.0206.0356-.2016.5677-.4025,1.1837-.7014,2.1531-1.2074,4.5498-1.5182,7.1829-.1415,1.1987-.2633,7.2351-.1463,7.2351.0348,0,.3882-.2475.786-.5503,3.6499-2.7802,6.0996-6.9899,5.8616-10.0761-.174-2.2551-1.3909-3.9188-3.4396-4.7016-.7093-.2712-1.0888-.3621-1.141-.2728M19.9778,38.5039c-1.1647.5084-2.248,1.1141-3.6136,2.0234-5.6489,3.7599-8.8165,8.6394-9.2925,14.3159-.3044,3.6294.9939,7.2951,3.3692,9.5131,2.025,1.8906,4.515,2.8276,7.7419,2.913,1.5885.0419,2.6007-.0585,4.1868-.4143.9156-.2056,3.1273-.8777,3.1273-.9512,0-.0198-.1234-.5076-.2744-1.0841-.5978-2.2796-1.0327-4.5371-1.3426-6.9615-.0988-.7733-.1961-1.4217-.2151-1.4415-.0198-.0198-.389.0498-.8216.155s-.8832.2111-1.0026.2372c-.2681.0577-.2673.0364-.0554,1.9025.257,2.2622.6531,4.4936,1.1007,6.2063.1589.6065.121.8295-.1091.6389-.359-.2981-1.4288-2.456-1.9309-3.8959-.3321-.9504-.8089-2.7912-.9599-3.7013-.1534-.9251-.053-.8374-.8888-.7781-1.0754.0759-2.2211.0743-2.3437-.0032-.0585-.0372-.0941-.132-.0791-.2103.0221-.1154.2277-.185,1.0556-.3574.5654-.1178,1.2232-.2657,1.4628-.3281l.4349-.1139-.0095-.4681c-.0055-.2578-.0498-.9908-.0988-1.6297-.1676-2.1824-.1012-5.9035.1526-8.4852.2214-2.2559.7037-5.0029,1.1703-6.6618.1249-.446.2056-.8105.1787-.8097-.0269,0-.4507.1763-.9425.3906" fill="#191919" fill-rule="evenodd"/>
</svg>
