<?xml version="1.0" encoding="utf-8"?>
<!-- Generator: Adobe Illustrator 15.0.0, SVG Export Plug-In . SVG Version: 6.00 Build 0)  -->
<!DOCTYPE svg PUBLIC "-//W3C//DTD SVG 1.1//EN" "http://www.w3.org/Graphics/SVG/1.1/DTD/svg11.dtd">
<svg version="1.1" id="레이어_1" xmlns="http://www.w3.org/2000/svg" xmlns:xlink="http://www.w3.org/1999/xlink" x="0px"
	 y="0px" width="200px" height="46px" viewBox="0 0 200 46" enable-background="new 0 0 200 46" xml:space="preserve">
<g>
	<path d="M55.052,27.769c0,2.387-0.471,4.742-1.384,6.952c-0.913,2.209-2.268,4.212-3.947,5.891
		c-1.708,1.679-3.711,3.005-5.921,3.918c-2.209,0.913-4.565,1.354-6.951,1.354c-9.956-0.059-17.997-8.336-17.909-18.409
		c0.088-9.926,8.336-17.85,18.527-17.791C47.069,9.743,55.111,18.02,55.052,27.769 M49.072,27.828
		c0.03-1.591-0.294-3.181-0.883-4.654c-0.619-1.473-1.502-2.827-2.651-3.947c-1.12-1.149-2.445-2.032-3.918-2.651
		c-1.502-0.619-3.063-0.913-4.683-0.913c-6.716,0-12.018,5.449-11.988,12.254c0,1.59,0.324,3.151,0.942,4.624
		c0.619,1.443,1.502,2.769,2.622,3.888c1.12,1.119,2.445,2.003,3.917,2.621c1.473,0.59,3.034,0.914,4.625,0.914
		C43.624,39.964,49.131,34.426,49.072,27.828 M55.082,14.691c2.386,0,4.654-0.059,6.892,0.059c0.413,0,1.031,0.619,1.178,1.09
		c1.591,5.302,3.152,10.604,4.713,15.935c0.147,0.502,0.324,0.973,0.619,1.826c1.62-5.508,3.122-10.604,4.595-15.729
		c0.913-3.181,0.913-3.181,4.212-3.181h4.625c-0.442,1.414-0.854,2.71-1.267,3.977c-2.356,7.07-4.713,14.138-7.01,21.208
		c-0.295,0.942-0.678,1.354-1.738,1.325c-2.386-0.088-4.801,0-7.217-0.088c-0.118,0-0.235-0.029-0.354-0.088
		c-0.118-0.04-0.235-0.099-0.354-0.178c-0.098-0.078-0.196-0.166-0.294-0.265c-0.079-0.079-0.147-0.177-0.206-0.294
		c-2.828-8.277-5.567-16.555-8.306-24.831c-0.02-0.059-0.03-0.118-0.03-0.177c-0.02-0.079-0.029-0.147-0.029-0.206
		c-0.02-0.059-0.029-0.118-0.029-0.177V14.691z M154.58,8.299c-5.596-0.354-10.869-0.177-15.906,1.649
		c-1,0.354-1.826,1.149-2.768,1.62c-0.354,0.206-0.824,0.118-1.268,0.177c0.059-0.442-0.059-1.09,0.207-1.326
		c0.156-0.137,0.324-0.275,0.5-0.412l0.531-0.354c0.195-0.118,0.393-0.226,0.588-0.324c0.178-0.098,0.373-0.196,0.59-0.294
		c4.889-1.915,10.045-2.209,15.199-1.797c2.15,0.147,3.445-0.235,4.477-2.18c0.707-1.325,1.768-2.474,2.799-3.593
		c0.588-0.648,1.354-1.738,2.268-0.942c0.412,0.353,0.295,1.737,0,2.474c-0.59,1.65-1.473,3.182-2.326,4.949
		c2.621,0.354,5.066,0.766,7.568,0.972c5.125,0.441,10.311,0.766,15.258-1.208c1.385-0.56,2.945-0.972,3.27-2.828
		c0-0.147,0.502-0.235,0.797-0.324c0.088,0.324,0.412,0.825,0.293,0.972c-0.588,0.766-1.178,1.591-1.973,2.092
		c-0.648,0.373-1.316,0.707-2.004,1.001c-0.686,0.295-1.393,0.54-2.119,0.736c-0.727,0.197-1.463,0.344-2.211,0.442
		c-0.746,0.098-1.492,0.147-2.238,0.147c-4.652-0.059-9.307-0.294-13.932-0.795c-2.268-0.265-3.74-0.118-4.859,2.209
		c-0.354,0.687-0.717,1.365-1.09,2.032c-0.373,0.648-0.766,1.296-1.18,1.944c-0.393,0.648-0.814,1.276-1.266,1.885
		c-0.432,0.628-0.883,1.237-1.355,1.826c-2.738,3.505-3.947,7.541-4.771,11.752c-0.098,0.511-0.186,1.021-0.266,1.532
		c-0.078,0.529-0.146,1.061-0.205,1.59c-0.059,0.511-0.107,1.031-0.148,1.562c-0.039,0.53-0.059,1.061-0.059,1.591
		c0,0.295,0.01,0.579,0.029,0.854c0.039,0.295,0.09,0.59,0.148,0.885c0.059,0.274,0.127,0.559,0.205,0.854l0.295,0.824
		c0.5,1.297,1.385,2.328,3.064,1.621c-0.207,1.09-0.885,1.384-1.975,0.941c-0.334-0.137-0.648-0.323-0.941-0.559
		c-0.275-0.217-0.521-0.472-0.738-0.766c-0.215-0.275-0.393-0.58-0.529-0.914c-0.137-0.354-0.227-0.707-0.266-1.061
		c-0.059-0.628-0.107-1.256-0.146-1.885s-0.068-1.267-0.088-1.914c-0.02-0.629-0.02-1.258,0-1.886c0-0.628,0.01-1.267,0.029-1.914
		c0.059-1.474,0.5-2.917,0.824-4.772c-2.387,1.709-4.477,3.24-6.627,4.713c-0.236,0.178-0.473,0.344-0.707,0.501
		c-0.236,0.177-0.48,0.334-0.736,0.472c-0.256,0.156-0.512,0.305-0.766,0.441c-0.256,0.138-0.521,0.275-0.795,0.412
		c-1.504,0.678-2.652,0-2.828-1.648c-0.02-0.275-0.029-0.541-0.029-0.796c-0.02-0.274-0.029-0.54-0.029-0.796V29.89
		c0.02-0.274,0.029-0.54,0.029-0.795c-0.59,0.707-1.268,1.531-1.975,2.326c-0.471,0.531-0.883,1.09-1.443,1.474
		c-0.588,0.353-1.236,0.441-1.855,0.647c-0.176-0.678-0.588-1.354-0.5-2.003c0.088-0.942,0.5-1.826,0.529-2.945
		c-1.826,1.915-3.682,3.858-5.479,5.803c-1.885,2.003-3.711,4.095-5.625,6.038c-0.217,0.236-0.453,0.451-0.707,0.648
		c-0.236,0.216-0.482,0.422-0.736,0.618c-0.236,0.196-0.492,0.384-0.766,0.56c-0.256,0.177-0.521,0.344-0.797,0.501
		c-2.65,1.532-4.859,0.56-5.301-2.444c-0.098-0.511-0.168-1.021-0.207-1.532s-0.059-1.03-0.059-1.562c0-0.51,0.02-1.021,0.059-1.531
		c0.039-0.51,0.109-1.021,0.207-1.531c2.063-10.545,5.803-20.472,12.283-29.161c1.119-1.532,2.563-2.828,3.977-4.094
		c0.795-0.707,2.002-1.208,2.797-0.295c0.502,0.589,0.766,1.974,0.441,2.651c-1.473,2.798-3.004,5.626-4.889,8.159
		c-2.504,3.329-5.242,6.48-8.041,9.573c-2.799,3.122-3.652,6.923-4.566,10.722c-0.137,0.609-0.264,1.228-0.383,1.855
		c-0.098,0.629-0.186,1.258-0.264,1.886c-0.08,0.647-0.139,1.286-0.178,1.915c-0.039,0.628-0.068,1.266-0.088,1.914
		c-0.029,3.122,1.768,4.064,4.271,2.268c2.031-1.443,3.799-3.27,5.537-5.037c2.061-2.12,3.918-4.418,5.949-6.538
		c1.561-1.591,3.24-3.093,4.92-4.595c0.205-0.178,0.588-0.148,0.912-0.207c0.029,0.383,0.236,0.854,0.088,1.179
		c-0.676,1.354-1.473,2.651-2.148,4.006c-0.08,0.157-0.148,0.313-0.207,0.472l-0.178,0.471c-0.059,0.177-0.117,0.344-0.176,0.501
		s-0.107,0.313-0.146,0.472l0.264,0.265c0.561-0.472,1.18-0.854,1.65-1.414c1.561-1.886,3.033-3.829,4.564-5.773
		c0.207-0.265,0.354-0.647,0.648-0.766c0.266-0.118,0.914-0.177,1.031,0c0.059,0.079,0.098,0.167,0.117,0.265
		c0.039,0.099,0.061,0.197,0.061,0.295c0.02,0.098,0.02,0.196,0,0.295l-0.061,0.295c-0.588,1.295-1.443,2.503-1.826,3.828
		c-0.324,1.09-0.176,2.357-0.205,3.535c1.002-0.354,2.15-0.501,3.004-1.061c2.709-1.709,5.303-3.564,7.924-5.391
		c0.059-0.059,0.127-0.117,0.205-0.176c0.061-0.079,0.109-0.158,0.148-0.236c0.059-0.078,0.107-0.167,0.146-0.266
		c0.039-0.078,0.068-0.166,0.088-0.265C149.16,19.728,151.34,13.984,154.58,8.299 M116.053,19.757
		c2.504-2.946,5.125-5.803,7.512-8.866c1.619-2.121,2.975-4.478,4.33-6.805c0.412-0.677,0.383-1.649,0.588-2.68
		C124.859,2.556,119.293,10.773,116.053,19.757 M157.967,8.889c-1.236-0.678-1.855-0.236-2.326,0.795
		c-0.559,1.208-1.236,2.356-1.797,3.535c-0.854,1.797-1.648,3.593-2.504,5.39l0.354,0.177L157.967,8.889z M161.385,2.025
		l-0.531-0.354l-3.945,5.655l0.264,0.413c0.531-0.118,1.355-0.088,1.563-0.413C159.705,5.589,160.529,3.792,161.385,2.025
		 M-0.118,14.779h6.834v20.647H17.32v5.627H-0.118V14.779z"/>
	<path d="M187.188,34.014c0.971-0.442,1.797-0.678,2.504-1.179c2.414-1.679,4.742-3.445,7.156-5.154
		c0.178-0.117,0.363-0.235,0.561-0.354c0.176-0.117,0.363-0.226,0.559-0.324c0.197-0.117,0.395-0.226,0.59-0.324
		c0.197-0.098,0.393-0.186,0.59-0.265c0.264-0.147,0.646-0.089,0.971-0.089c-3.652,2.651-7.127,5.303-10.75,7.747
		c-0.678,0.501-2.033,0.825-2.621,0.472c-0.59-0.383-0.826-1.649-0.885-2.563c-0.088-1.297,0.117-2.592,0.178-3.889l-0.412-0.265
		c-0.707,0.618-1.563,1.119-2.121,1.826c-1.061,1.354-1.945,2.827-2.945,4.212c-0.236,0.354-0.707,0.53-1.061,0.795
		c-0.119-0.471-0.443-1.001-0.295-1.384c0.588-1.591,1.324-3.151,1.973-4.742c0.158-0.354,0.305-0.717,0.441-1.09
		c0.158-0.354,0.305-0.717,0.443-1.09c0.117-0.373,0.244-0.747,0.383-1.12l0.354-1.119c0.529-1.885-0.09-2.856-2.063-2.739
		c-3.357,0.236-6.686,0.795-10.104,1.208c0.561,4.301-0.854,7.6-3.063,10.663c-0.059,0.098-0.127,0.187-0.207,0.265
		c-0.059,0.098-0.127,0.187-0.205,0.266l-0.236,0.235c-0.078,0.059-0.156,0.128-0.236,0.206c-0.412,0.236-0.971,0.501-1.324,0.354
		c-0.098-0.059-0.188-0.128-0.266-0.206c-0.078-0.079-0.146-0.167-0.207-0.265c-0.059-0.099-0.107-0.207-0.146-0.324
		c-0.039-0.118-0.059-0.236-0.059-0.354c0.176-1.562,0.471-3.123,0.766-4.831c-1.414,1.267-2.828,2.533-4.242,3.771
		c-1.383,1.207-2.709,2.475-4.182,3.534c-1.709,1.208-3.123,0.472-3.182-1.62c-0.117-3.151,1.031-5.949,2.65-8.571
		c0.236-0.383,1.031-0.412,1.563-0.618c0,0.137-0.01,0.275-0.029,0.412c-0.02,0.118-0.041,0.246-0.061,0.383
		c-0.02,0.118-0.049,0.246-0.088,0.383c-0.02,0.118-0.049,0.246-0.088,0.383c-0.766,1.886-1.709,3.741-2.387,5.656
		c-0.293,0.854-0.146,1.885-0.205,2.856l0.383,0.235c0.766-0.441,1.619-0.795,2.297-1.354c1.914-1.62,3.771-3.299,5.627-4.978
		c1.502-1.355,2.975-2.828,4.535-4.124c0.383-0.324,1.119-0.294,1.797-0.442c0-0.146-0.088-0.647-0.176-1.236
		c-0.473-0.059-0.885-0.089-1.326-0.177c-0.766-0.177-1.355-0.678-0.914-1.443c0.236-0.383,1.326-0.707,1.533-0.53
		c1.236,1.119,2.473,0.442,3.74,0.265c2.77-0.413,5.508-0.972,8.277-1.09c2.768-0.088,3.887,1.532,3.328,4.242
		c-0.236,1.148-0.678,2.238-1.061,3.534c0.471-0.295,0.883-0.53,1.236-0.766c1.65-0.942,2.711-0.412,2.711,1.473
		c0,1.237-0.148,2.445-0.207,3.682c0.02,0.138,0.029,0.266,0.029,0.383l0.059,0.413c0,0.118,0.01,0.245,0.031,0.383
		C187.119,33.769,187.148,33.896,187.188,34.014 M169.633,26.12c-1.768,2.12-3.152,4.447-3.594,7.246
		C168.07,31.362,169.338,29.007,169.633,26.12 M84.478,20.317V14.75h21.149v5.567H84.478z M105.656,25.177v5.538h-21.12v-5.538
		H105.656z M84.537,35.575h21.059v5.508H84.537V35.575z M159.205,19.669c-0.383-0.648-0.854-1.119-0.766-1.384
		c0.088-0.413,0.648-0.678,1.002-1.001c0.264,0.324,0.795,0.677,0.766,0.972C160.117,18.667,159.676,19.05,159.205,19.669"/>
</g>
</svg>
