<?xml version="1.0" encoding="utf-8"?>
<!-- Generator: Adobe Illustrator 15.0.0, SVG Export Plug-In . SVG Version: 6.00 Build 0)  -->
<!DOCTYPE svg PUBLIC "-//W3C//DTD SVG 1.1//EN" "http://www.w3.org/Graphics/SVG/1.1/DTD/svg11.dtd">
<svg version="1.1" id="레이어_1" xmlns="http://www.w3.org/2000/svg" xmlns:xlink="http://www.w3.org/1999/xlink" x="0px"
	 y="0px" width="815px" height="119px" viewBox="1.5 0.5 815 119" enable-background="new 1.5 0.5 815 119" xml:space="preserve">
<g>
	<path fill="#191919" d="M575.571,70.218c-6.48-23.771-12.324-45.207-18.133-66.5h-70.676c-2.793,37.688-5.573,75.039-8.36,112.541
		h46.835l5.284-68.561h1.683l21.33,68.647h37.386c10.568-23.118,21.048-46,31.527-68.843l1.542,0.209
		c-1.676,22.721-3.366,45.448-5.048,68.392h47.078c2.779-37.743,5.525-74.899,8.299-112.468h-70.63
		C594.608,25.152,585.5,46.708,575.571,70.218L575.571,70.218z M308.306,72.411c3.535-2.087,6.886-3.836,9.997-5.943
		c18.847-12.786,21.25-36.895,5.075-50.476c-6.986-5.866-15.531-9.565-24.59-10.646c-34.375-4.423-68.905-0.681-104.405-2.302
		c-2.847,38.43-5.6,75.627-8.387,113.234h48.066c1.043-12.68,2.052-24.988,3.07-37.366h23.323
		c9.423,12.788,18.718,25.354,27.361,37.063h54.965c-6.367-8.076-11.905-15.163-17.5-22.21
		C319.632,86.642,313.972,79.523,308.306,72.411L308.306,72.411z M275.797,50.781c-11.84,0.49-23.714,0.147-36.639,0.147
		c0.492-6.69,0.956-12.901,1.422-19.262c12.264,0,23.826-0.27,35.372,0.121c5.142,0.168,10.05,2.194,10.196,8.493
		C286.309,46.999,281.894,50.531,275.797,50.781L275.797,50.781z M800.822,56.952c-4.865-2.652-10.044-4.688-15.414-6.058
		c-13.609-3.257-27.402-5.78-41.06-8.87c-5.513-1.252-11.584-1.764-15.246-6.865c2.693-6.729,4.78-8.25,13.395-8.58
		c9.896-0.384,19.602,0,22.631,11.811h45.099c0.727-16.428-7.855-27.236-26.252-32.58c-19.979-5.795-40.387-5.943-60.795-2.645
		c-10.771,1.742-21.062,4.979-29.665,11.986c-18.268,14.873-15.394,36.868,5.998,46.195c3.186,1.449,6.492,2.615,9.882,3.486
		c12.788,3.028,25.652,5.641,38.367,8.83c6.313,1.588,13.536,1.4,18.1,7.12c-0.902,8.474-3.588,10.884-13.018,11.94
		c-18.659,2.093-25.889-1.28-30.062-14.014h-47.939c-0.209,0.98-0.342,1.975-0.396,2.976c0.559,15.11,9.854,25.81,29.099,31.558
		c27.939,8.338,55.956,7.457,83.654-1.548c7.849-2.551,14.956-6.555,20.604-12.727C821.17,84.392,818.256,66.192,800.822,56.952
		L800.822,56.952z M345.308,4.054c-0.673,9.703-1.347,18.783-2.021,28.636h42.562c-2.02,28.308-4.038,55.86-5.997,83.401h47.299
		c2.113-27.965,4.133-55.33,6.273-83.832h42.843c0.788-10.034,1.461-18.898,2.174-28.205H345.308z M124.864,116.394h48.195
		c2.793-37.622,5.566-74.995,8.347-112.441H133.15C130.404,41.554,127.658,78.522,124.864,116.394L124.864,116.394z M51.26,116.318
		l70.18-64.226c1.082-15.641,2.133-30.892,3.365-48.377L1.841,116.318H51.26z"/>
</g>
</svg>
