<?xml version="1.0" encoding="utf-8"?>
<!-- Generator: Adobe Illustrator 15.0.0, SVG Export Plug-In . SVG Version: 6.00 Build 0)  -->
<!DOCTYPE svg PUBLIC "-//W3C//DTD SVG 1.1//EN" "http://www.w3.org/Graphics/SVG/1.1/DTD/svg11.dtd">
<svg version="1.1" id="레이어_1" xmlns="http://www.w3.org/2000/svg" xmlns:xlink="http://www.w3.org/1999/xlink" x="0px"
	 y="0px" width="1012px" height="532px" viewBox="0 0 1012 532" enable-background="new 0 0 1012 532" xml:space="preserve">
<g>
	<path fill="#A2BF99" d="M830.481,0h8.127c13.016,4.055,22.26,7.542,28.709,20.545c5.697,11.487,3.689,29.414,3.746,42.133
		l0.178,67.611c17.545-4.766,39.303-1.944,54.914,7.194c45.664,26.726,47.693,86.713,47.748,132.839l0.188,39.326l0.021,141.668
		c13.084,2.092,21.908,5.455,30.502,16.575c6.359,8.226,8.27,20.326,6.6,30.506c-1.615,10.46-7.408,19.817-16.051,25.928
		c-6.445,4.573-12.354,6.443-20.043,7.675H775.1c-8.799-1.393-17.924-3.37-24.508-9.904c-17.229,13.915-54.951,11.413-72.691-0.009
		c-8.635,6.448-16.885,9.612-27.626,9.506c-9.31-0.092-18.725,0.057-28.045,0.068l-80.251-0.094l-128.568-0.009h-41.637
		c-10.658-0.001-27.201,1.426-36.253-4.233c-9.65,2.967-19.705,4.404-29.8,4.26c-21.937-0.354-43.133-7.987-60.257-21.702
		c-5.619-4.537-10.279-9.483-15.308-14.64c-3.941,21.928-15.73,35.864-39.69,36.223c-4.77,0.072-9.699,0.044-14.49,0.047
		l-40.621,0.03c-6.624,0.009-17.423-0.242-23.697,0.457H36.929c-23.18-3.411-33.333-15.214-36.716-37.713v-4.338
		c1.142-3.769,1.571-9.931,3.175-13.428c5.84-12.742,13.05-26.053,19.85-38.261c8.738-15.612,17.295-31.327,25.666-47.14
		l67.04-126.297c-4.918,3.415-11.526,5.431-17.43,6.265c-10.618,1.595-21.433-1.127-30.03-7.559
		c-7.859-5.945-13.046-14.758-14.429-24.515c-0.866-6.351-0.206-11.38-0.087-17.723l0.61-28.211
		c0.247-9.811-0.675-22.56,1.215-32.003c1.115-5.845,3.589-11.345,7.223-16.056c6.46-8.435,15.2-13.141,25.591-14.483
		c9.257-2.552,16.859,2.65,24.733,3.317c30.271,2.555,61.005,0.473,91.352,1.167c16.038,0.368,36.569-2.946,49.96,7.287
		c14.758-9.52,34.188-14.521,51.597-13.891c30.071,1.087,48.242,10.475,68.614,31.959c14.806-6.677,28.288-1.765,41.247-10.558
		c2.544-1.726,6.214-7.533,8.676-9.985c7.708-7.677,17.832-11.445,28.629-11.668c7.594-0.281,18.167,2.868,23.608,8.091
		c5.772-2.666,11.096-4.971,17.349-6.302c30.405-6.474,63.539,6.75,77.938,34.886c13.525-9.197,16.973-8.281,33.005-9.38
		c12.255-0.84,17.571-7.825,24.489-16.495c-32.17-25.549-27.353-79.996,0.536-106.835c19.013-18.297,45.586-19.302,64.486-0.146
		c14.922,15.125,17.627,34.924,17.318,55.028c7.047-8.932,14.961-12.364,25.834-14.285c-0.418-11.353,0.66-20.206,7.486-29.7
		c6.049-8.346,15.314-13.781,25.551-14.99c16.652-1.868,22.016,1.488,31.287-14.894C807.067,4.728,821.254,1.413,830.481,0
		 M245.144,316.199l94.546,0.019c12.305-0.021,24.753,0.298,37.025,0.076c0.071-49.756-6.137-148.806-73.995-148.928
		c-14.114-0.025-27.551,6.741-37.276,16.761c-38.543,40.643-44.543,106.005-43.294,159.425
		c1.026,43.871,10.484,99.022,42.72,131.011c16.976,16.847,41.293,23.007,63.453,12.886c24.807-14.391,36.389-43.187,44.949-69.21
		c0.886-2.696,3.313-9.612,3.394-12.014c-0.851,0.131-1.25,0.594-1.502,1.474c-4.314,15.002-8.938,28.261-16.05,42.255
		c-8.523,16.775-15.167,27.188-31.746,36.65c-11.724,4.311-23.493,6.266-35.395,0.81c-13.793-6.322-24.154-22.466-29.102-36.315
		c-13.144-36.787-16.573-77.902-17.162-116.699C245.63,329.074,244.769,321.011,245.144,316.199 M832.143,38.973
		c-21.105,32.728-52.426,25.105-55.59,28.476l0.266,0.672c1.697,0.432,5.014,0.294,6.859,0.23
		c14.25-0.491,29.932,0.205,29.973,18.99c0.041,19.526-0.041,39.473-0.041,59.197l-0.066,136.722l-0.158,127.002
		c0.031,13.319,0.934,26.083,0.463,39.739c-0.557,16.178,2.855,37.99-20.113,40.112c-3.531,0.271-16.162-1.344-17.367,1.542
		l0.377,0.696c5.289,0.865,91.59,0.365,93.123-0.184l-0.232-0.886c-7.57-3.914-28.701,5.676-35.078-14.64
		c-3.928-12.506-2.238-41.412-2.234-55.687c0.008-42.758-0.363-85.336,3.102-127.992c1.057-11.711,2.814-23.515,4.465-35.161
		c0.477-3.363,1.125-6.628,1.248-10.028c-2.023,2.491-6.793,40.243-6.928,45.607c-0.484-0.231-0.869-0.243-1.064-0.771
		c-1.84-4.959-0.805-53.812-0.803-63.24l0.012-121.489C832.35,85.262,832.694,61.51,832.143,38.973 M39.361,492.46l151.51,0.069
		c0.073-16.902,3.267-37.883,3.114-54.128c0.548-2.317,1.433-21.841,1.291-24.602l-0.292,0.041
		c-0.923,4.707-1.406,11.107-1.896,15.998c-2.585,28.242-7.19,57.928-41.313,59.813c-30.009,1.658-60.729,0.858-90.827,0.837
		c1.841-6.206,10.333-20.339,13.615-26.403l29.562-54.936l125.709-235.27c-5.773-0.209-12.072-0.369-17.816,0.024
		c-23.216-0.285-46.813-0.004-70.071-0.041c-9.523,0.075-19.048-0.141-28.559-0.646c-4.428-0.197-15.173,0.127-18.145-2.931
		c-0.607-0.638-1.179-1.308-1.713-2.008c0.058,9.545-0.125,19.09-0.545,28.625c-0.216,4.976-0.922,18.943-0.323,23.588
		c-0.12,2.715-0.601,9.346-0.074,11.665c1.304-1.087,1.41-5.34,1.361-6.977c1.637-11.931,3.173-27.303,10.434-37.145
		c7.519-10.194,21.962-11.04,33.5-11.899c14.619-1.089,29.443-0.633,44.105-0.665c8.345-0.019,18.019,0.58,26.243-0.32
		c-5.4,11.596-12.966,24.796-19.185,36.078c-6.462,11.817-12.821,23.691-19.077,35.619
		c-33.743,62.504-67.122,125.205-100.134,188.099c-7.063,13.702-15.021,27.236-22.006,41.038
		C45.096,481.383,41.767,486.934,39.361,492.46 M734.653,172.815l37.514,0.025c5.068-0.01,16.328,0.21,20.971-0.58l0.256-0.806
		c-7.186-2.098-47.861-1.415-58.076-1.283l4.42-34.384c1.074-8.587,1.924-17.09,3.641-25.567
		c-2.227,4.537-3.984,10.377-5.908,15.184c-6.883,17.189-16,35.356-34.775,41.674c-4.285,1.441-6.572,1.698-10.811,2.473
		c-2.609,0.477-11.361,0.789-12.779,1.57c0.602,1.011,0.771,0.903,1.9,1.186c8.107,2.036,26.629-2.736,31.26,6.048
		c4.213,7.992,0.088,25.626-1.229,34.96l-5.002,37.311L690.803,364.3c-4.482,33.75-11.447,68.477-7.035,102.478
		c2.535,19.544,26.266,31.697,42.971,23.364c14.219-7.999,23.984-33.579,29.215-48.835l4.191-12.074
		c0.803-2.595,1.553-4.717,2.506-7.239c1.008-3.086,4.648-14.265,4.234-16.841l-0.125,0.75l-0.355,0.025
		c-1.873,4.443-3.338,9.846-4.625,14.488c-0.652,2.807-1.744,5.712-2.301,8.174c-1.348,3.938-2.895,8.182-4.104,12.135
		c-6.775,16.636-13.744,38.106-29.32,48.503c-23.646,9.456-25.861-31.312-25.303-45.659c1.254-32.144,6.525-64.734,10.857-96.639
		l14.277-107.733c2.922-21.929,6.35-44.424,8.768-66.382 M492.993,174.51c19.31-12.237,31.207-2.229,34.168,17.602
		c4.709,31.54-1.521,64.236-5.969,95.324c-2.615,18.654-5.133,37.32-7.552,56l-9.064,67.022c-2.29,18.257-4.379,36.569-7.44,54.715
		c-2.961,17.541-11.53,27.283-30.421,25.385c-2.086-0.209-9.117-0.783-10.056,1.347c1.853,1.566,78.602-0.131,87.392,0.576
		c1.472,0.117,4.443,0.011,5.592-1.171l-0.185-0.784c-10.362-1.125-29.758,4.823-32.991-12.943
		c-1.714-12.23,1.203-25.602,2.832-37.825c8.69-65.969,17.955-131.879,25.91-197.939c0.718-21.162,3.516-47.54-11.575-64.701
		c-11.073-12.592-28.482-12.461-41.719-3.687c-15.464,12.374-23.609,29.117-31.23,47.024l0.196,0.668
		c2.166-3.285,4.743-9.579,6.604-13.381C472.98,196.512,482.577,181.854,492.993,174.51 M581.5,492.339l0.228,0.018
		c1.921,0.13,12.225,0.206,13.864,0.072c6.918-0.563,53.801,1.156,56.035-0.769l-0.104-0.804c-1.817-0.689-5.167-0.942-6.978-0.689
		c-31.698,4.44-28.161-17.497-25.156-40.13c1.045-7.871,2.601-18.168,3.77-26.522l8.857-66.239
		c8.655-63.084,16.938-126.219,24.848-189.401c-7.307,12.843-28.928,23.909-43.373,25.482c-2.658,0.29-14.107,1.484-15.553,2.172
		l-0.215,0.733c5.099,1.878,20.015-1.587,26.33,2.132c6.2,3.652,8.777,8.677,8.112,16.122c-1.566,17.538-4.241,35.14-6.631,52.611
		l-10.135,75.638l-9.281,69.355c-2.1,16.277-4.188,32.813-6.696,49.028c-0.888,5.735-2.818,13.354-5.492,18.505
		c-3.678,7.086-8.723,8.754-15.743,10.901c-3.445,0.002-17.894-0.814-19.732,1.308C560.399,492.73,578.247,492.371,581.5,492.339
		 M874.059,173.587c13.115-9.225,27.52-3.319,32.934,11.043c10.547,27.987,9.668,59.488,9.488,88.879l-0.051,35.067l0.342,90.459
		l0.105,43.044c0.008,23.97,3.346,52.143-29.914,48.512c-1.27-0.138-6.398-0.196-7.234,0.631l0.121,0.955
		c1.74,0.351,19.174,0.302,21.84,0.33l45.109,0.059c6.432-0.003,18.869,0.4,24.881-0.219l0.424-0.663l-0.299-1.006
		c-1.197-0.262-3.596-0.355-4.68-0.247c-28.133,2.817-32.791-10.85-31.973-35.588c0.209-6.323-0.266-19.766-0.309-27.396
		l0.408-125.448c0.027-36.766,3.725-86.88-16.473-119.45c-8.959-14.444-31.146-20.246-45.738-9.857
		c-5.582,4.539-10.195,9.725-13.371,16.261c-7.574,12.091-13,30.768-16.068,44.872c-0.271,1.243-1.193,5.643-1.027,6.509
		c5.207-17.926,8.121-34.408,18.096-50.887C864.877,182.326,867.676,179.016,874.059,173.587 M437.559,292.918l-0.962-0.826
		c-0.06-1.56,0.722-6.517,0.945-8.429c1.116-8.944,2.312-17.878,3.584-26.801c4.025-29.677,8.629-60.465,12.066-90.116
		c-10.886,13.386-20.38,20.981-37.078,25.359c-3.455,0.905-21.02,2.54-21.87,3.877c8.993,2.756,25.7-3.581,31.889,8.389
		c3.878,7.503,0.747,21.035-0.355,29.231l-4.386,32.569l-13.453,100.964l-8.855,66.25c-2.182,16.44-2.384,32.813-10.422,47.817
		c-7.272,13.578-32.029,7.379-34.269,10.493l-0.055-0.673l-0.439,0.518c1.732,2.157,65.236,0.417,74.207,0.943
		c1.212,0.07,18.133,0.108,19.232-0.292l-0.068-0.866c-4.559-3.544-32.146,6.218-33.598-15.989
		c-0.975-14.893,2.653-30.563,4.433-45.366c5.424-45.124,11.586-88.413,20.425-133.042c4.371-19.988,9.836-39.923,16.476-59.274
		c1.364-3.978,3.035-8.427,4.042-12.467c-6.427,11.967-12.563,35.476-16.389,49.047c-1.372,4.864-3.19,14.257-4.927,18.292
		L437.559,292.918z M657.305,108.459c9.021-6.151,13.066-13.201,15.408-23.826c1.748-7.934-0.574-26.38-10.426-27.947
		c-8.146,6.18-13.55,15.399-15.452,25.497C645.598,88.755,648.257,109.374,657.305,108.459"/>
	<path fill="#A2BF99" d="M300.316,169.501c1.495-0.133,2.994-0.204,4.495-0.214c7.737-0.089,14.334,3.383,19.793,8.804
		c24.262,25.33,28.004,66.75,29.084,100.124c0.335,11.682-0.549,32.979-15.941,34.817c-11.498,1.372-25.879,0.739-37.742,0.723
		l-54.211-0.032c0.096-37.269,6.828-89.674,26.124-122.164C278.626,180.263,287.413,172.635,300.316,169.501"/>
	
		<linearGradient id="SVGID_1_" gradientUnits="userSpaceOnUse" x1="30.3147" y1="577.123" x2="127.9397" y2="537.4267" gradientTransform="matrix(1 0 0 -1 62.3999 752.1602)">
		<stop  offset="0" style="stop-color:#000000;stop-opacity:0"/>
		<stop  offset="1" style="stop-color:#0B0B0B;stop-opacity:0.102"/>
	</linearGradient>
	<path fill="url(#SVGID_1_)" d="M93.53,168.279c0.534,0.701,1.105,1.371,1.713,2.008c2.972,3.058,13.717,2.734,18.145,2.931
		c9.511,0.506,19.035,0.722,28.559,0.646c23.258,0.037,46.855-0.244,70.071,0.041c-1.267,0.274-2.392,0.505-3.636,0.895l-0.15,0.351
		c-8.225,0.9-17.898,0.301-26.243,0.32c-14.662,0.032-29.486-0.424-44.105,0.665c-11.538,0.859-25.981,1.705-33.5,11.899
		c-7.26,9.842-8.797,25.214-10.434,37.145c-0.619-0.779-1.019-3.469-1.288-4.688c-0.598-4.645,0.109-18.612,0.324-23.588
		C93.405,187.369,93.588,177.824,93.53,168.279"/>
	<path fill="#100F10" fill-opacity="0.1059" d="M327.368,486.604c16.579-9.462,23.223-19.875,31.746-36.65
		c7.111-13.994,11.735-27.253,16.05-42.255c0.252-0.88,0.651-1.343,1.502-1.474c-0.08,2.401-2.508,9.317-3.394,12.014
		c-8.561,26.023-20.143,54.819-44.949,69.21L327.368,486.604z"/>
	<path fill="#100F10" fill-opacity="0.0941" d="M437.559,292.918l0.173-0.393c1.736-4.035,3.555-13.428,4.927-18.293
		c3.826-13.57,9.962-37.08,16.389-49.046c-1.007,4.04-2.678,8.489-4.043,12.467c-6.639,19.352-12.104,39.287-16.475,59.275
		C438.455,294.375,438.925,294.207,437.559,292.918"/>
	<path fill="#353435" fill-opacity="0.1569" d="M755.375,440.725l0.578,0.582c-5.23,15.256-14.996,40.836-29.215,48.835
		l-0.684-0.913C741.629,478.831,748.6,457.36,755.375,440.725"/>
	<path fill="#100F10" fill-opacity="0.0667" d="M492.993,174.51c-10.416,7.344-20.013,22.002-25.507,33.231
		c-1.861,3.802-4.438,10.096-6.604,13.381l-0.196-0.668c7.621-17.907,15.767-34.65,31.23-47.024L492.993,174.51z"/>
	<path fill="#353435" fill-opacity="0.1647" d="M860.67,189.446c-9.975,16.479-12.889,32.961-18.096,50.887
		c-0.166-0.866,0.756-5.266,1.027-6.509c3.066-14.104,8.494-32.781,16.068-44.872L860.67,189.446z"/>
	<path fill="#353435" fill-opacity="0.1451" d="M834.209,293.382c0.135-5.364,4.904-43.116,6.928-45.607
		c-0.123,3.4-0.771,6.665-1.248,10.028c-1.65,11.646-3.408,23.45-4.465,35.161L834.209,293.382z"/>
	<path fill="#100F10" fill-opacity="0.0196" d="M581.5,492.339c-3.253,0.032-21.102,0.392-23.045-0.478
		c1.839-2.122,16.287-1.306,19.732-1.308C579.529,491.442,580.071,491.696,581.5,492.339"/>
	<path fill="#100F10" fill-opacity="0.051" d="M859.67,188.952c3.176-6.536,7.789-11.722,13.371-16.261l1.018,0.896
		c-6.383,5.429-9.182,8.739-13.389,15.859L859.67,188.952z"/>
	<path fill="#100F10" fill-opacity="0.0667" d="M193.089,429.838c0.49-4.891,0.973-11.291,1.896-15.998l0.292-0.041
		c0.142,2.76-0.743,22.284-1.291,24.602C193.524,435.649,194.306,431.697,193.089,429.838"/>
	<path fill="#100F10" fill-opacity="0.0706" d="M761.78,420.416c1.287-4.643,2.752-10.045,4.625-14.488l0.355-0.025l0.125-0.75
		c0.412,2.576-3.227,13.755-4.234,16.841L761.78,420.416z"/>
	<path fill="#100F10" fill-opacity="0.051" d="M92.661,220.492c0.27,1.219,0.669,3.909,1.288,4.688
		c0.049,1.637-0.058,5.89-1.361,6.977C92.062,229.838,92.543,223.207,92.661,220.492"/>
	<path fill="#606268" fill-opacity="0.3333" d="M755.375,440.725c1.209-3.953,2.754-8.196,4.104-12.135l0.666,0.643l-4.191,12.074
		L755.375,440.725z"/>
	<path fill="#353435" fill-opacity="0.1765" d="M761.78,420.416l0.871,1.577c-0.953,2.522-1.703,4.645-2.506,7.239l-0.666-0.643
		C760.035,426.128,761.127,423.223,761.78,420.416"/>
</g>
</svg>
