<?xml version="1.0" encoding="utf-8"?>
<!-- Generator: Adobe Illustrator 15.0.0, SVG Export Plug-In . SVG Version: 6.00 Build 0)  -->
<!DOCTYPE svg PUBLIC "-//W3C//DTD SVG 1.1//EN" "http://www.w3.org/Graphics/SVG/1.1/DTD/svg11.dtd">
<svg version="1.1" id="레이어_1" xmlns="http://www.w3.org/2000/svg" xmlns:xlink="http://www.w3.org/1999/xlink" x="0px"
	 y="0px" width="100px" height="35px" viewBox="0 0 100 35" enable-background="new 0 0 100 35" xml:space="preserve">
<path d="M30.547,0.094c-1.645,0.316-2.777,0.771-4.024,1.61c-2.84,1.91-4.707,5.226-5.527,9.808c-0.355,1.98-0.457,3.34-0.457,5.953
	c0,2.391,0.066,3.451,0.344,5.231c0.922,6.047,3.574,10.047,7.726,11.652c2.098,0.816,4.762,0.867,6.938,0.137
	c3.75-1.254,6.441-4.582,7.652-9.457c0.59-2.375,0.809-4.434,0.809-7.594c0-2.707-0.149-4.41-0.574-6.5
	c-1.204-5.954-4.282-9.664-8.895-10.73c-0.695-0.165-0.84-0.18-2.098-0.196C31.316-0.012,31,0.008,30.547,0.094z M33.727,4.435
	c2.87,0.863,4.77,3.859,5.453,8.601c0.441,3.07,0.386,7.133-0.14,9.977c-0.83,4.453-2.872,7.285-5.685,7.879
	c-0.523,0.109-1.648,0.109-2.171,0c-1.422-0.297-2.825-1.313-3.754-2.715c-1.426-2.145-2.184-5.13-2.328-9.176
	c-0.313-8.465,1.886-13.71,6.14-14.676C31.844,4.188,33.09,4.243,33.727,4.435z M9.66,0.629C9.07,1.5,8.57,2.105,7.73,2.96
	C5.953,4.797,3.605,6.5,0.97,7.859L0,8.363l0.004,2.09c0,2.43-0.078,2.2,0.707,2.035c1.125-0.226,2.703-0.945,4.55-2.058
	c0.794-0.477,2.43-1.563,3.005-1.989c0.257-0.191,0.48-0.351,0.5-0.351c0.015,0,0.035,5.855,0.039,13.008l0.02,13.016h5.105V0.07
	l-1.934-0.02l-1.934-0.01L9.66,0.629z M76.703,5.566c-0.133,0.172-1.664,2.301-3.41,4.739c-4.385,6.126-8.773,12.25-13.168,18.37
	c-1.125,1.567-0.953,1.47-1.945,1.146c-3.375-1.078-6.008-3.801-6.996-7.211c-0.484-1.668-0.516-3.813-0.086-5.497
	c1.032-4.071,4.359-7.156,8.496-7.879c3.277-0.57,6.766,0.477,9.098,2.73c0.332,0.325,0.406,0.376,0.457,0.302
	c0.031-0.047,0.5-0.696,1.035-1.442c0.539-0.75,1.008-1.406,1.051-1.46c0.063-0.098,0.012-0.157-0.521-0.61
	c-1.729-1.473-3.905-2.559-6.069-3.05C62.641,5.25,60.5,5.224,58.57,5.618c-4.329,0.876-8.016,3.691-10,7.637
	c-2.449,4.895-1.922,10.708,1.375,15.106c0.532,0.703,1.688,1.906,2.387,2.473c0.82,0.668,1.754,1.266,2.754,1.754
	c2.055,1.012,3.965,1.457,6.285,1.46c1.715,0,3.016-0.198,4.535-0.706c3.098-1.035,5.637-2.961,7.434-5.64
	c0.453-0.673,1.293-2.204,1.293-2.353c0-0.047-0.555-0.063-2.09-0.063h-2.09l-0.191,0.297c-1.102,1.727-2.945,3.215-4.945,4.008
	c-0.535,0.215-1.477,0.492-1.516,0.445c-0.02-0.02,0.066-0.168,0.195-0.336c0.129-0.164,2.215-3.074,4.637-6.457
	c6.785-9.47,8.434-11.778,8.539-11.95c0.059-0.086,0.121-0.152,0.152-0.152c0.027,0,0.043,4.984,0.039,11.395l-0.008,11.402h2.285
	l0.645-0.891c1.16-1.617,13.441-18.75,15.191-21.195c0.188-0.258,0.371-0.5,0.41-0.528c0.051-0.047,0.063,2.332,0.051,11.293
	L95.926,33.97H100V5.333L97.879,5.32c-0.74-0.004-1.482-0.008-2.223-0.011c-0.063-0.008-0.672,0.796-1.824,2.41l-5.77,8.05
	c-1.764,2.454-3.521,4.911-5.273,7.372c-0.415,0.587-0.838,1.168-1.27,1.742c-0.02,0-0.023-4.398-0.012-9.778l0.012-9.773h-2.117
	c-1.16,0-2.195-0.02-2.293-0.035C76.949,5.263,76.914,5.29,76.703,5.566L76.703,5.566z"/>
</svg>
