<?xml version="1.0" encoding="utf-8"?>
<!-- Generator: Adobe Illustrator 15.0.0, SVG Export Plug-In . SVG Version: 6.00 Build 0)  -->
<!DOCTYPE svg PUBLIC "-//W3C//DTD SVG 1.1//EN" "http://www.w3.org/Graphics/SVG/1.1/DTD/svg11.dtd">
<svg version="1.1" id="레이어_1" xmlns="http://www.w3.org/2000/svg" xmlns:xlink="http://www.w3.org/1999/xlink" x="0px"
	 y="0px" width="699px" height="233px" viewBox="0 0 699 233" enable-background="new 0 0 699 233" xml:space="preserve">
<path fill="#191919" d="M353.176,0.001c0.398,0,0.898,0.5,1.2,1c0.3,0.5-2.802,4.9-6.801,9.6c-3.898,4.7-12.1,14.5-18,21.7
	c-6,7.3-16.198,20.2-22.6,28.7c-6.5,8.5-15.4,20.9-19.898,27.5c-4.4,6.6-11,17-14.7,23c-3.602,6-9.7,17.1-13.4,24.5
	c-3.8,7.4-8.898,18.799-11.5,25.299c-2.5,6.4-5.7,16.301-7.1,22c-1.4,5.602-2.8,14.701-3.2,20.201c-0.4,6.5-0.2,11.299,0.6,13.799
	c0.602,2.201,2.2,4.4,3.802,5.4c2.1,1.201,4.1,1.5,7.8,1.1c2.898-0.299,7.898-2,12-4.199c3.898-2,9.898-5.801,13.5-8.5
	c3.6-2.699,11-8.898,16.5-13.801c9.898-8.898,10.198-9.199,23.6-31.898c7.5-12.602,16.7-28.102,27.4-46.199l7.5-0.602
	c4.099-0.301,11.899-0.6,17.199-0.6c5.4,0,9.802,0.199,9.802,0.5c0,0.299-8.802,13-19.602,28.299
	c-10.799,15.201-19.799,28.102-20.099,28.701c-0.301,0.6,1.2-1,3.398-3.5c2.102-2.4,6.5-7.4,9.799-11.1
	c3.302-3.701,9.4-9.801,13.5-13.602c4.102-3.801,9.7-8.699,12.5-10.898c2.7-2.201,7-5.4,9.5-7.102s6.802-5,9.602-7.398
	c2.8-2.4,7.1-5,9.5-5.701c2.398-0.8,9-1.7,25.1-2.7l-6.1,10c-3.4,5.5-6.8,12-7.5,14.5c-0.8,2.5-1.7,6.5-2.102,9
	c-0.3,2.5-0.198,6.299,0.4,8.5c0.5,2.199,2,4.9,3.2,6c1.398,1.4,3.898,2.1,7.8,2.4c4.3,0.199,6.9-0.201,11-2
	c5.3-2.4,5.5-2.701,30.101-41.4l15.699-0.801c8.7-0.4,15.9-0.6,15.9-0.5c0.1,0.201-7.9,12.9-17.8,28.301c-9.8,15.4-21,33.4-24.7,40
	c-3.8,6.6-7.8,14.299-9,17c-1.3,2.799-2.5,7.299-2.9,10c-0.398,4-0.199,5.6,1.4,7.9c1.7,2.6,2.2,2.799,5.9,2.199
	c2.198-0.4,6.898-2.301,10.5-4.301c3.6-2,9.6-6.1,13.5-9.1c3.898-3.102,12.1-10.801,18.398-17.102c9.7-9.898,11.8-12.801,15-19.6
	c2-4.4,6.1-11.6,9.1-15.9s8.9-11.301,13.102-15.5c4.1-4.199,11.1-10.1,15.5-13.1c4.3-3,11.5-7.1,15.898-9.1
	c4.4-2,10.9-4.401,14.5-5.301c3.602-0.899,9.302-1.6,12.7-1.6c3.5,0,8.2,0.5,10.5,1c2.4,0.6,6.102,2.5,8.3,4.401
	c2.2,1.799,5.102,5.398,6.5,7.898c1.4,2.602,2.802,4.699,3.2,4.699c0.5,0,2.2-2.5,3.8-5.5c2.7-4.898,3.4-5.5,6.7-6
	c2.102-0.199,9.7-0.699,29.8-1.799l-2.5,3.898c-1.3,2.102-9.698,14.9-18.6,28.4c-8.8,13.5-18.7,29-22,34.5c-3.2,5.5-7.3,13.6-9.1,18
	c-2.2,5.5-3.301,9.6-3.301,13.299c0,3.301,0.5,5.701,1.5,6.701c0.899,0.9,3.399,1.5,6.5,1.5c3.699,0,6.5-0.801,10.699-3.1
	c3.2-1.701,8.7-5.102,12.301-7.701c3.601-2.5,13.101-11.199,21.101-19.199c8.1-8,20.2-21.301,27-29.5
	c6.899-8.201,13.2-16,14.2-17.301c0.898-1.199,2.199-2,2.699-1.699c0.5,0.299-0.699,2.9-2.699,5.799
	c-2.102,2.801-8.2,10.801-13.801,17.701c-5.5,6.799-15.399,18-22,24.799c-6.601,6.9-15.399,15.201-19.5,18.5
	c-4.101,3.301-10.399,7.9-14,10.301c-3.601,2.301-10,5.4-14.301,6.801c-4.898,1.6-9.898,2.6-13.699,2.6
	c-3.301,0-7.699-0.699-9.801-1.6c-2-0.801-4.8-2.5-6-3.699c-1.3-1.201-3-3.4-3.8-4.9c-0.8-1.6-1.399-5.5-1.399-14.801l-5.801,5.602
	c-3.1,3.1-8.6,7.6-12.199,10c-3.601,2.301-9.199,5.301-12.5,6.5c-3.301,1.1-9.101,2.301-13,2.699c-4.101,0.301-8.899,0-11.5-0.699
	c-2.5-0.602-6.5-2.801-8.899-4.9c-2.4-2-5.4-5.699-6.7-8.199c-1.2-2.5-2.8-7.701-3.4-11.5c-0.698-4.1-1-9.301,0.102-18l-11.8,11.5
	c-6.5,6.299-14.7,13.699-18.301,16.4c-3.601,2.6-9,6.1-12,7.6s-8,3.5-11,4.4c-3,0.898-8.199,1.6-11.5,1.6
	c-4.199,0-7.301-0.701-10.399-2.301c-2.601-1.299-5.5-3.799-7-6.1c-2-3-2.7-5.602-2.9-10.5c-0.3-4.9,0.2-8.4,1.9-13.602
	c1.3-3.799,5.6-12.6,9.5-19.5c3.899-6.898,7.1-12.6,7-12.799c0-0.102-2.101,0.6-4.601,1.6c-2.5,1.102-6.899,2.4-9.801,3.102
	c-2.8,0.6-7.6,1.1-10.5,1.1c-2.8,0-7.6-0.701-10.5-1.5c-3.6-1-6.5-2.801-9.5-5.701c-2.398-2.5-4.8-6-5.5-8.299
	c-0.6-2.201-1.199-6.6-1.199-9.701c0-3.5,0.801-7.799,2-10.799c1.101-2.701,1.801-5,1.5-5s-3.301,2.1-6.801,4.699
	c-3.398,2.5-9.1,7.201-12.6,10.201c-3.5,3.1-10.2,9.898-14.9,15.1c-4.699,5.199-12.2,14.4-16.7,20.5s-10.899,15.299-14.199,20.5
	c-3.302,5.199-7.9,13-14.801,24.799l-7.5,0.602c-4.101,0.301-11,0.6-15.3,0.6c-6.899,0-7.601-0.199-7.101-1.699
	c0.3-1,3.101-6.1,6.101-11.301c3.101-5.199,6.3-10.6,7.199-12c1.4-2,1.4-2.299,0.101-1.5c-0.801,0.5-4.601,3.602-8.499,7
	c-3.9,3.301-9.7,7.9-13,10.201c-3.301,2.199-8.301,5.199-11,6.6c-2.801,1.4-7.7,3.301-11,4.199c-4.2,1.201-8.5,1.602-14.102,1.4
	c-6.898-0.301-8.8-0.801-12.898-3.4c-3.301-2.1-5.7-4.699-7.9-8.5c-3.1-5.5-3.1-5.5-3.1-20.5c0.1-12.398,0.5-16.398,2.3-23
	c1.3-4.398,3.899-12.299,5.899-17.5c2-5.199,4.899-12.199,6.601-15.5c1.6-3.299,3.399-7,4.7-10.5l-42.5-0.1l-13.5,15.301
	c-7.4,8.398-18.2,20-24,25.799c-5.801,5.801-14.801,14.102-20,18.5c-5.2,4.301-14.2,11-20,14.801
	c-5.801,3.801-14.301,8.801-19,11.199c-4.7,2.301-12.2,5.4-16.801,6.9c-4.5,1.398-12.601,3.1-18,3.699
	c-7,0.801-11.899,0.801-17.699,0.102c-4.4-0.602-10.5-1.9-13.5-2.9s-8.2-3.6-11.5-5.801c-3.602-2.398-7.301-6-9.301-9
	c-1.801-2.699-3.801-6.799-4.399-9c-0.5-2.199-0.8-7.398-0.601-11.5c0.399-6.199,1-8.398,3.601-12.5
	c1.7-2.699,4.3-5.799,5.899-6.699c1.5-0.898,4.801-2,7.301-2.398c3.5-0.5,5.6-0.201,9.199,1.5c3.801,1.699,5.199,3,6.699,6.398
	c1.4,3.102,1.801,5.199,1.2,8.199c-0.3,2.201-1.399,5.102-2.2,6.5c-0.898,1.4-3.3,3.301-5.5,4.201c-2.1,0.898-5.1,1.898-6.699,2.199
	c-2.101,0.5-2.699,1.199-2.699,3.1c0,1.4,0.6,4,1.3,5.801c0.7,1.699,3.1,5.199,5.3,7.602c2.102,2.398,5.9,5.398,8.4,6.6
	c2.5,1.299,7.398,2.9,11,3.6c5.199,1.102,8.3,1.102,15.699,0.102c5.101-0.701,13.5-2.701,18.5-4.5
	c5.101-1.801,13.101-5.4,17.801-7.9c4.699-2.5,12.1-7.199,16.5-10.301c4.398-3.199,11.6-8.799,16-12.5
	c4.398-3.699,13.898-12.6,21-19.6c7.199-7.102,22-23,33-35.4c11-12.398,26.3-29.2,34-37.399c7.699-8.2,19.8-20.3,27-26.9
	c7.1-6.6,18.6-16.5,25.5-22c6.898-5.6,18.6-14.1,25.999-19c7.399-4.9,19.801-12,27.5-15.8c7.699-3.8,17.801-8.3,22.5-9.9
	s8.8-2.9,9.2-3L353.176,0.001L353.176,0.001z M291.475,34.501c-6.1,4-15.898,11.3-22,16.1c-6.1,4.8-23.2,21-38,35.8
	c-14.898,14.9-29.898,30.4-33.3,34.399l-6.2,7.201h41.5c4.5-8.1,8.5-14.8,11.8-20c3.4-5.2,9.5-14.2,13.602-20
	c4.1-5.8,11.1-15,15.5-20.5c4.398-5.5,11.7-14,16.1-19c4.398-4.9,12.898-13.8,18.8-19.7c5.9-6,10.4-10.8,10-10.8
	c-0.399,0-4.399,2.1-8.8,4.6C306.075,25.102,297.575,30.401,291.475,34.501 M574.476,125.402c-3.3,2.398-9,7.799-12.6,12.199
	c-3.7,4.301-8.802,11.301-11.5,15.398c-2.602,4.102-6.2,10.701-8,14.5c-1.802,3.801-4.4,10.602-5.802,15
	c-1.5,4.4-2.898,10.9-3.198,14.5c-0.4,3.801-0.102,9,0.6,12.5c1,4.602,2.1,6.801,4.6,9.301c2.9,2.699,4.102,3.199,8.4,3.199
	c2.7,0,6.7-0.699,8.7-1.6c2.1-0.801,6.2-3.4,9.2-5.699c3-2.301,8.398-7.801,12-12.201c3.698-4.398,9.1-12.1,12.198-17
	c3.102-4.898,7.302-12.6,9.4-17c2-4.398,5.1-12.1,6.7-17c2.199-6.5,3-10.898,3.1-16c0-4.299-0.6-8.398-1.7-10.699
	c-0.898-2.199-2.898-4.398-4.6-5.301c-1.601-0.799-5.4-1.5-8.3-1.398c-2.801,0-7,0.699-9.2,1.5
	C582.276,120.402,577.776,123.002,574.476,125.402 M515.976,54.001c0.4,0,0.4,3.5,0.1,7.9c-0.6,7.8-0.6,7.9,2.5,10.7
	c1.7,1.6,5,3.6,7.3,4.4c2.4,0.8,4.5,1.8,4.7,2.3c0.2,0.4-2.898,1-6.898,1.3c-4.5,0.3-9.2,1.5-12.5,3c-3.602,1.7-6.602,4.1-9.801,8.2
	c-2.5,3.1-5,5.8-5.5,6c-0.5,0.1-0.199-1.9,0.601-4.5c0.8-2.7,1.5-5.9,1.5-7.3s-0.8-3.7-2-5.2c-1.2-1.8-3.8-3.4-7-4.3
	c-2.8-0.8-5-1.8-5-2.2c0-0.5,2.7-1.1,6-1.5c3.3-0.5,7.899-1.6,10.2-2.5c2.3-1,6.199-4,8.6-6.8c2.5-2.7,4.9-6,5.5-7.2
	C514.776,55.001,515.574,54.001,515.976,54.001"/>
</svg>
