<?xml version="1.0" encoding="utf-8"?>
<!-- Generator: Adobe Illustrator 15.0.0, SVG Export Plug-In . SVG Version: 6.00 Build 0)  -->
<!DOCTYPE svg PUBLIC "-//W3C//DTD SVG 1.1//EN" "http://www.w3.org/Graphics/SVG/1.1/DTD/svg11.dtd">
<svg version="1.1" id="레이어_1" xmlns="http://www.w3.org/2000/svg" xmlns:xlink="http://www.w3.org/1999/xlink" x="0px"
	 y="0px" width="768px" height="230px" viewBox="0 0 768 230" enable-background="new 0 0 768 230" xml:space="preserve">
<path fill="#191919" d="M56.968,54.13h26.465v23.439H56.968v64.271c0,12.1,3.024,15.123,15.123,15.123c3.781,0,7.562,0,11.342-0.756
	v27.979c-6.049,0.756-13.61,1.512-21.172,1.512c-21.928,0-40.831-5.293-40.831-31.002V77.569H0.257V54.13h21.929V14.812h35.539
	L56.968,54.13z M102.337,54.13h34.026v24.196h0.756c6.806-16.636,24.196-27.978,41.588-27.978c2.269,0,5.293,0.756,7.562,1.512
	v33.271c-3.024-0.757-8.317-1.513-12.854-1.513c-26.465,0-34.782,18.903-34.782,41.587v58.225h-35.539L102.337,54.13z
	 M199.879,54.13h35.539v129.301h-35.539V54.13z M235.418,33.714h-35.539V4.226h35.539V33.714z M359.426,119.157
	c0-20.415-8.317-41.588-31.002-41.588c-23.44,0-31.002,21.173-31.002,41.588c0,21.172,8.317,40.832,31.002,40.832
	C351.865,159.989,359.426,140.329,359.426,119.157 M262.64,54.13h34.027v16.635h0.756c8.317-13.609,22.685-20.416,38.563-20.416
	c40.832,0,58.979,33.271,58.979,69.564c0,34.783-18.904,67.299-56.71,67.299c-15.88,0-30.246-6.807-38.563-19.66h-0.757v62.004
	h-35.538L262.64,54.13L262.64,54.13z M416.893,4.226h35.539v179.205h-35.539V4.226z M567.365,104.791
	c-3.023-18.147-11.342-27.978-28.732-27.978c-22.686,0-29.49,17.392-29.49,27.978H567.365L567.365,104.791z M509.143,127.476
	c0.758,22.686,12.1,33.271,31.76,33.271c14.365,0,25.709-9.074,27.977-16.637h31.758c-9.83,31.002-31.758,43.857-60.492,43.857
	c-40.83,0-66.539-27.979-66.539-68.055c0-38.563,27.221-68.809,66.539-68.809c43.857,0,65.785,37.051,62.762,77.127L509.143,127.476
	L509.143,127.476z M655.078,124.45c0,24.197,18.904,33.271,39.318,33.271c13.611,0,34.783-3.781,34.783-22.686
	c0-19.658-27.221-22.684-52.93-29.488c-26.465-6.806-53.688-17.393-53.688-50.662c0-37.051,34.783-54.441,67.297-54.441
	c37.051,0,71.834,16.636,71.834,57.467h-37.809c-1.512-21.928-16.635-27.221-35.537-27.221c-12.854,0-27.223,5.293-27.223,20.416
	c0,13.609,8.318,15.879,53.688,27.221c12.854,3.023,52.93,11.343,52.93,52.174c0,33.271-25.709,57.467-74.857,57.467
	c-39.32,0-77.127-19.658-76.371-63.516h38.564V124.45z"/>
</svg>
