<?xml version="1.0" encoding="utf-8"?>
<!-- Generator: Adobe Illustrator 15.0.0, SVG Export Plug-In . SVG Version: 6.00 Build 0)  -->
<!DOCTYPE svg PUBLIC "-//W3C//DTD SVG 1.1//EN" "http://www.w3.org/Graphics/SVG/1.1/DTD/svg11.dtd">
<svg version="1.1" id="레이어_1" xmlns="http://www.w3.org/2000/svg" xmlns:xlink="http://www.w3.org/1999/xlink" x="0px"
	 y="0px" width="151px" height="54px" viewBox="0 0 151 54" enable-background="new 0 0 151 54" xml:space="preserve">
<path fill="#0957C3" d="M57.742,0.171v48.59l7.33-36.877l11.146,0.038l-1.209,8.539c2.154-3.778,5.29-6.764,9.446-8.199
	c4.836-1.7,13.641-1.965,17.154,2.456l0.793,1.209V11.96h5.44l-0.075-7.443l12.694-2.984V11.96l10.313-0.151V4.517l12.545-2.984
	l0.037,10.429l7.181-0.076v9.521h-7.181l0.113,31.549h-12.695V21.632c0-0.037,0.113-0.075,0.039-0.151l-0.266-0.112l-9.898,0.038
	c-0.075,0-0.188,0.074-0.188,0.112v31.437h-12.619V21.519l-0.112-0.112h-4.043c-0.076,1.171-0.151,2.381-0.379,3.552l-5.517,27.997
	H85.098l5.327-27.016c0.228-1.737,0.528-3.777-1.437-4.571c-1.965-0.831-5.252-0.681-7.256-0.037
	c-4.91,1.549-6.799,6.989-8.008,11.485l-3.93,20.139H45.046v-6.271c-0.793,1.172-1.549,2.306-2.569,3.287
	c-6.234,5.855-18.514,5.025-23.313-2.343c-4.723-7.255-4.647-22.859,0.038-30.075c5.214-8.048,18.098-8.539,24.257-1.776
	l1.587,2.154V0.322L57.742,0.171z M42.212,22.235c-2.796-2.683-8.879-2.758-11.373,0.379c-2.834,3.514-2.758,13.413-1.134,17.53
	c1.398,3.627,4.572,4.724,8.199,4.271c3.967-0.529,5.819-2.722,6.65-6.498C45.462,33.761,45.462,25.373,42.212,22.235 M0.727,11.884
	h12.695l0.076,41.07H0.727V11.884z M0.462,0.549h13.224v8.804H0.462V0.549z"/>
</svg>
