<?xml version="1.0" encoding="utf-8"?>
<!-- Generator: Adobe Illustrator 15.0.0, SVG Export Plug-In . SVG Version: 6.00 Build 0)  -->
<!DOCTYPE svg PUBLIC "-//W3C//DTD SVG 1.1//EN" "http://www.w3.org/Graphics/SVG/1.1/DTD/svg11.dtd">
<svg version="1.1" id="레이어_1" xmlns="http://www.w3.org/2000/svg" xmlns:xlink="http://www.w3.org/1999/xlink" x="0px"
	 y="0px" width="706px" height="244px" viewBox="0 0 706 244" enable-background="new 0 0 706 244" xml:space="preserve">
<g>
	<path d="M80.588,201.838V39.476h39.348v12.586H95.427v59.148h23.386v12.592H95.427v65.439h24.509v12.594H80.588V201.838z
		 M148.362,201.061V38.7h23.616c9.439,0,15.926,1.8,19.447,5.399c3.527,3.601,5.284,10.045,5.284,19.34v39.802
		c0,9.288-1.765,15.739-5.284,19.339c-3.528,3.6-10.008,5.4-19.455,5.4h-8.762v73.08h-14.84H148.362L148.362,201.061z
		 M163.2,115.378h7.199c7.646,0,11.471-3.369,11.471-10.115V61.415c0-6.746-3.823-10.123-11.471-10.123H163.2v64.095V115.378z
		 M223.997,201.514V39.154h14.84v162.36H223.997L223.997,201.514z M281.771,108.576l17.985-69.71h14.846l-21.362,74.203
		l23.386,88.15h-14.839l-20.016-81.404h-0.454v81.404h-14.839V38.866h14.839v69.71H281.771L281.771,108.576z M406.869,110.29V38.548
		h14.84v162.36h-14.84v-78.02h-22.263v78.02H369.76V38.548h14.847v71.733h22.263V110.29z M449.264,200.75V38.389h14.846V200.75
		H449.264z M516.483,134.727v-12.6h26.763v76.01c-8.243,3.297-16.042,4.953-23.386,4.953c-18.59,0-27.886-9.525-27.886-28.563
		V63.663c0-17.093,8.547-25.633,25.632-25.633c17.093,0,25.64,8.54,25.64,25.633v18.216h-14.839V65.685
		c0-10.044-3.601-15.068-10.801-15.068c-7.199,0-10.792,5.025-10.792,15.068v108.62c0,10.793,3.902,16.188,11.692,16.188
		c4.349,0,7.646-0.748,9.899-2.246v-53.518h-11.923V134.727z M607.419,111.233V39.499h14.839v162.361h-14.839v-78.033h-22.264
		v78.033h-14.839V39.499h14.832v71.734H607.419L607.419,111.233z"/>
	<path d="M0.2,121.997v121.615l352.8-0.41l352.8-0.418l-0.418-121.197l-0.41-121.198H0.2V121.997z M13.484,14.5h678.204v214.17
		l-339.105,0.41L13.484,229.5V14.5z"/>
</g>
</svg>
