<?xml version="1.0" encoding="utf-8"?>
<!-- Generator: Adobe Illustrator 15.0.0, SVG Export Plug-In . SVG Version: 6.00 Build 0)  -->
<!DOCTYPE svg PUBLIC "-//W3C//DTD SVG 1.1//EN" "http://www.w3.org/Graphics/SVG/1.1/DTD/svg11.dtd">
<svg version="1.1" id="Layer_1" xmlns="http://www.w3.org/2000/svg" xmlns:xlink="http://www.w3.org/1999/xlink" x="0px" y="0px"
	 width="719px" height="603px" viewBox="0 0 719 603" enable-background="new 0 0 719 603" xml:space="preserve">
<g>
	<path fill="#DB3475" d="M485.701,279.874c1.361-7.178,4.241-13.354,7.122-19.53c0.708-1.519,1.17-3.128,0.078-4.624
		c-0.99-1.35-2.452-1.103-3.836-0.72c-2.295,0.63-3.297,0.09-3.387-2.599c-0.112-4.187-3.004-6.874-6.469-5.659
		c-4.331,1.496-8.729,3.375-12.397,6.041c-4.747,3.466-9.304,7.279-13.859,11.06c-3.589,2.958-6.379,6.783-10.092,9.473
		c-7.853,5.682-15.647,11.575-24.705,15.334c-3.531,1.463-6.873,3.408-10.665,4.186c-1.598,0.326-3.823,0.675-4.095-1.361
		c-0.36-2.745-2.115-5.106-1.732-8.056c0.247-2.317,0.226-4.646-0.078-6.952c-0.404-3.544-3.545-5.49-7.031-4.759
		c-3.646,0.765-6.469,2.992-9.461,4.995c-4.883,3.251-8.134,8.122-12.556,12.667c2.081-7.594,6.333-13.511,9.519-19.867
		c2.295-4.579,2.979-9.428,4.623-14.073c0.552-1.542-0.18-2.768-1.439-3.589c-1.223-0.771-2.787-0.746-3.981,0.067
		c-1.609,0.995-2.696,2.649-2.972,4.521c-0.473,2.441-0.19,4.859-0.09,7.302c0.169,3.858-0.73,4.895-4.5,4.771
		c-11.261-0.304-22.534,0.078-33.75,1.136c-5.85,0.519-5.749-0.056-4.117-5.748c1.88-6.524,5.963-11.914,7.74-18.619
		c3.071-11.554,8.01-22.624,12.273-33.861c2.711-7.11,4.625-14.321,4.332-22.027c-0.079-2.003-0.788-3.104-2.577-4.051
		c-5.175-2.744-10.417-2.554-15.313,0.136c-7.198,3.971-14.175,8.313-20.632,13.511c-5.749,4.624-11.386,9.429-16.954,14.221
		c-4.116,3.521-7.772,7.887-11.744,11.778c-3.96,3.894-8.348,7.504-11.937,11.61c-8.078,9.213-16.493,18.112-25.233,26.696
		c-2.317,2.271-4.995,4.24-6.648,7.042c-1.249,2.126-2.475,4.208-4.309,5.85c-4.365,3.904-7.843,8.596-11.229,13.275
		c-2.048,2.823-4.5,4.14-7.684,4.714c-6.392,1.125-12.928,2.171-18.99,4.095c-12.646,4.005-25.392,7.887-37.496,13.455
		c-2.621,1.215-5.23,2.564-7.065,4.938c-1.417,1.778-0.979,4.771,0.911,4.805c3.14,0.057,6.02,1.418,9.079,1.315
		c2.115-0.056,3.667-1.339,4.41-3.42c0.271-0.754,0.349-1.563,1.158-2.059c5.333-3.251,10.598-6.638,16.695-8.381
		c5.006-1.418,9.968-2.869,14.794-5.007c5.187-2.307,10.879-3.556,16.772-5.399c-0.911,3.634-3.487,5.522-4.995,8.065
		c-6.771,11.464-16.232,21.082-22.77,32.692c-3.297,5.838-8.944,10.023-11.115,16.594c-0.146,0.314-0.383,0.585-0.675,0.775
		c-4.522,3.488-4.163,8.729-4.871,13.568c-0.271,1.191,0.337,2.406,1.451,2.901c1.327,0.63,2.261-0.293,3.015-1.137
		c3.465-3.893,7.233-7.661,9.214-12.566c2.295-5.479,4.938-10.811,7.92-15.951c5.647-10.002,13.298-18.552,18.766-28.653
		c3.094-5.716,7.594-10.768,11.307-16.234c0.878-1.294,1.822-2.563,3.646-3.004c8.225-1.946,16.368-4.319,24.638-6.019
		c13.489-2.769,26.798-6.367,40.376-8.72c7.628-1.315,15.231-2.711,23.58-3.42c-2.621,3.949-3.354,7.978-4.747,11.779
		c-4.241,11.396-8.741,22.69-12.544,34.244c-4.13,12.556-8.122,25.133-10.451,38.183c-1.17,6.604-2.823,13.106-4.274,19.665
		c-0.338,1.542-0.585,3.646,1.451,4.142c1.945,0.472,2.992-1.204,3.892-2.824c1.509-2.724,0.8-5.692,1.192-8.539
		c1.958-13.771,5.007-27.371,9.102-40.657c4.884-16.346,12.364-31.759,17.596-47.937c2.609-8.077,6.862-10.867,15.075-11.283
		c9.696-0.474,19.373-2.139,29.104-2.769c1.216-0.079,2.757-0.687,3.566,0.563c0.696,1.08-0.326,2.147-0.877,3.173
		c-2.353,4.387-4.646,8.819-6.998,13.196c-1.879,3.543-3.026,7.503-6.177,10.395c-1.192,1.091-1.79,3.016-1.598,4.838
		c0.169,1.608,0.326,3.408,2.171,4.017c1.846,0.606,2.948-0.416,4.039-1.891c7.211-9.73,16.29-17.741,24.638-26.427
		c0.944-1.023,2.002-1.946,3.127-2.768c2.036-1.417,3.646-0.663,3.771,1.756c0.18,2.666-0.091,5.354-0.788,7.931
		c-2.16,7.504,2.081,12.589,9.844,11.385c5.13-0.798,10.001-2.732,14.839-4.734c4.051-1.677,7.043-4.805,10.744-6.919
		c2.171-1.237,3.149-1.541,2.992,1.631c-0.18,3.634,1.575,4.983,5.242,4.433c1.249-0.247,2.476-0.606,3.656-1.091
		c4.117-1.508,7.908-3.252,11.159-6.604c3.095-3.173,7.324-5.23,10.98-7.863c5.726-4.129,11.396-8.349,17.111-12.487
		c0.72-0.518,1.697-1.249,2.508-0.585c0.811,0.675,0.338,1.743,0,2.609c-1.563,4.117-3.139,8.234-4.713,12.363
		c-1.813,4.715-4.31,8.551-8.91,11.476c-5.816,3.689-10.891,8.55-16.2,13.005c-9.765,8.201-19.418,16.516-28.26,25.718
		c-3.038,3.161-5.647,6.772-8.91,9.675c-5.355,4.748-9.248,10.71-13.657,16.166c-7.369,9.169-14.828,18.439-20.363,28.925
		c-3.386,6.4-8.64,11.823-10.125,19.249c-0.292,1.598-0.753,3.149-1.384,4.646c-3.701,8.348-5.85,17.044-5.354,26.28
		c0.033,1.854,0.428,3.701,1.146,5.411c2.048,4.5,6.346,6.311,10.901,4.455c3.971-1.62,7.537-4.163,9.518-7.843
		c3.33-6.197,7.672-11.711,11.892-17.134c7.154-9.19,13.186-19.046,19.306-28.867c11.126-17.798,22.714-35.313,33.345-53.427
		c6.21-10.574,12.408-21.172,18.574-31.77c4.5-7.695,8.01-16.031,16.57-20.688c6.705-3.634,13.319-7.437,20.194-10.744
		c0.73-0.349,1.586-0.741,2.282-0.102c0.709,0.642,0.136,1.485-0.09,2.228c-0.135,0.315-0.259,0.652-0.358,0.979
		c-0.866,4.793-1.419,9.664,2.464,13.444c3.531,3.441,7.852,2.699,12.114,1.35c13.455-4.274,25.707-11.081,37.823-18.123
		c4.714-2.734,9.191-5.828,13.814-8.719c0.754-0.474,1.777-1.262,2.521-0.619c0.945,0.832,0.18,1.879-0.349,2.823
		c-2.633,4.612-4.646,9.563-5.963,14.716c-1.014,3.431-0.045,7.144,2.521,9.641c1.878,1.924,5.063,2.419,7.145,1.013
		c6.221-4.161,13.927-5.187,19.474-11.271c5.839-6.401,13.578-11.07,20.497-16.492c3.195-2.498,6.413-4.962,9.653-7.414
		c1.079-0.81,1.664-1.834,0.844-2.959c-0.945-1.294-2.048-0.518-3.026,0.191c-0.372,0.271-0.73,0.573-1.113,0.844
		c-11.262,7.718-21.252,17.224-33.479,23.569c-4.32,2.25-8.271,5.186-12.825,7.008c-1.159,0.473-2.262,0.552-3.206-0.438
		c-0.957-0.979-0.428-1.879-0.091-2.88c0.811-2.419,1.361-4.928,2.284-7.29c2.192-5.612,4.579-11.171,7.706-16.346
		c3.083-5.085,6.267-9.99,8.695-15.56c2.824-6.47,7.245-12.363,10.732-18.586c7.616-13.566,16.211-26.492,24.424-39.667
		c2.003-3.206,4.174-6.345,7.661-8.382c2.104-1.26,3.836-3.07,5.007-5.229c0.899-1.62,0.776-3.095-0.597-4.422
		c-1.372-1.327-2.79-1.261-4.354-0.181c-5.682,3.938-10.598,8.82-13.657,14.885c-5.444,10.767-12.185,20.732-17.831,31.397
		c-5.794,10.924-12.972,21.105-18.585,32.164c-2.902,5.692-6.515,10.541-12.206,13.826c-14.063,8.1-28.294,15.885-42.997,22.735
		c-5.085,2.362-10.44,4.715-16.414,3.59c-1.271-0.236-2.452-0.416-2.88-2.025c-0.99-3.724,1.563-10.845,5.951-13.41
		c-0.54,3.994,2.024,3.771,4.478,3.409c3.577-0.506,6.986-1.812,9.968-3.836c7.537-5.188,14.996-10.497,22.455-15.784
		c1.722-1.215,3.363-2.644,4.128-4.635c1.035-2.7,2.104-5.659,0.338-8.337c-1.314-1.994-3.646-3.07-6.019-2.778
		c-6.941,0.664-13.354,2.902-18.776,7.278c-6.188,5.007-12.824,9.473-17.819,15.919c-2.521,3.252-5.794,6.312-9.89,7.425
		c-5.815,1.587-10.71,4.939-16.087,7.336c-3.07,1.396-5.58,3.903-9.314,4.726L485.701,279.874z M329.394,267.712
		c-0.72,1.991-1.8,3.229-4.162,3.544c-7.785,1.047-15.581,2.16-23.31,3.611c-6.593,1.236-12.882,3.848-19.553,4.736
		c-9.226,1.236-17.844,4.982-27.079,6.3c-3.836,0.552-7.537,2.127-11.307,3.206c-0.72,0.203-1.653,0.73-2.138-0.226
		c-0.36-0.709,0.371-1.26,0.833-1.755c12.487-13.388,23.456-28.114,36.787-40.781c7.965-7.537,14.861-16.256,22.792-23.85
		c7.773-7.438,15.976-14.435,24.355-21.252c6.491-5.276,14.22-7.537,21.094-11.678c2.431-1.462,3.982-0.416,4.41,2.272
		c0.26,1.598,0.326,3.229,0.429,4.297c-0.474,8.82-2.679,16.751-5.378,24.515c-4.039,11.576-8.518,23.007-13.32,34.302
		c-1.721,4.095-2.937,8.505-4.466,12.746L329.394,267.712z M479.504,254.077c-1.34,1.991-3.297,3.634-3.409,6.312
		c0,0.36-0.474,0.811-0.821,1.035c-9.506,6.02-17.089,14.422-26.134,21.016c-2.576,1.879-5.321,3.531-8.066,5.344
		c-1.067-2.036,0.058-3.251,0.788-4.488c3.397-5.771,8.303-10.182,13.117-14.716c6.12-5.748,13.219-10.104,19.913-15.019
		c0.854-0.597,1.766-1.104,2.722-1.52c0.821-0.371,1.879-1.035,2.601-0.326c0.865,0.854-0.236,1.676-0.709,2.374L479.504,254.077
		L479.504,254.077z M460.593,314.658c-5.783,9.113-10.937,18.574-16.481,27.811c-5.366,8.955-11.307,17.527-16.954,26.28
		c-7.875,12.149-15.345,24.569-23.411,36.596c-7.199,10.723-15.75,20.353-26.055,28.282c-0.642,0.495-1.294,0.979-1.969,1.418
		c-2.205,1.508-3.354,1.417-3.656-1.744c-0.428-4.41,0.473-8.707,1.676-12.701c2.565-8.402,5.177-16.875,9.058-24.782
		c4.747-9.653,11.261-18.236,17.258-27.191c12.555-18.709,27.675-35.089,43.896-50.58c8.403-7.92,17.393-15.188,26.909-21.735
		c-3.396,6.133-6.523,12.454-10.271,18.36V314.658z M526.968,261.21c6.592-7.808,15.075-13.163,23.996-17.831
		c1.945-1.023,4.973-2.655,6.593-0.19c1.619,2.464-1.08,4.376-2.655,6.131c-5.646,6.267-12.646,10.731-20.115,14.513
		c-1.563,0.787-3.239,1.282-4.825,0.945c-0.416,0.045-0.833,0.045-1.249,0c-1.203-0.326-2.823,1.181-3.477-0.034
		c-0.676-1.327,0.889-2.509,1.732-3.521V261.21L526.968,261.21z M261.276,125.658c0.091,0.079,0.202,0.113,0.326,0.079
		c0.169-0.112,0.326-0.236,0.474-0.384c-0.202-0.201-0.384-0.539-0.585-0.641c-0.305,0.143-0.437,0.503-0.295,0.807
		c0.001,0.002,0.001,0.003,0.001,0.004c0.022,0.045,0.058,0.09,0.092,0.135H261.276L261.276,125.658z"/>
	<path fill="#DB3475" d="M92.11,180.93c3.061,0.776,6.346,0.812,9.54,0.9c1.451-0.034,2.757-0.923,3.296-2.272
		c2.205-4.983,6.729-7.278,11.081-9.775c3.433-1.969,7.167-3.229,10.88-4.567c7.842-2.824,15.132-6.976,23.052-9.651
		c1.067-0.36,2.328-1.249,3.217-0.351c0.968,0.99-0.438,1.891-0.944,2.622c-6.231,9.472-11.172,19.767-18.169,28.755
		c-3.938,5.051-5.771,11.283-9.461,16.492c-2.419,3.409-5.389,6.559-6.346,10.845c-0.146,0.439-0.416,0.833-0.776,1.138
		c-3.948,3.769-3.543,8.785-3.938,13.566c-0.102,1.237,0.327,2.317,1.587,2.823c1.339,0.54,2.351-0.271,3.06-1.136
		c3.388-4.129,7.348-8.28,8.505-13.398c1.71-7.493,5.647-13.748,8.923-20.408c4.511-9.235,11.138-17.212,15.547-26.595
		c2.262-4.849,5.896-9.157,8.448-13.973c1.801-3.408,4.141-5.727,8.201-6.132c1.813-0.181,3.601-0.899,5.321-1.587
		c13.05-5.208,26.786-8.233,40.185-12.307c11.835-3.634,23.885-6.503,36.091-8.584c0.563-0.09,1.147-0.371,1.632,0.146
		c0.371,0.394,0.19,0.844,0,1.271c-2.655,5.221-3.343,11.061-5.188,16.526c-4.858,14.288-8.629,28.891-12.408,43.48
		c-3.7,14.287-4.31,29.126-7.392,43.537c-0.067,0.574-0.067,1.159,0,1.744c0.067,1.26,0.54,2.362,1.8,2.7
		c1.26,0.337,2.184-0.474,2.893-1.463c1.607-2.25,1.507-4.805,1.215-8.427c1.159-8.168,1.665-17.438,3.477-26.571
		c2.159-10.924,4.612-21.78,7.818-32.424c2.745-9.09,6.053-18.012,8.82-27.09c1.384-4.545,2.912-9.033,4.363-13.557
		c0.845-2.633,2.824-2.745,5.029-2.531l0.09,0.034c0.067-0.045,0.124-0.079,0.202-0.102c0.731-0.36,1.497-0.643,2.284-0.845
		c11.52-2.16,23.006-4.611,34.751-5.275c1.474-0.09,3.655-1.059,4.343,0.81c0.495,1.361-1.261,2.531-2.353,3.521
		c-4.874,4.312-9.101,9.306-12.543,14.828c-2.317,3.769-1.587,7.581-0.89,11.451c0.193,1.194,1.102,2.146,2.284,2.396
		c3.184,0.742,6.322,1.519,9.585,0.337c8.122-2.936,15.243-7.83,22.792-11.857c9.709-5.186,19.114-10.911,28.688-16.346
		c0.845-0.473,2.06-1.439,2.824-0.709c1.013,0.945,0.09,2.184-0.619,3.082c-2.464,3.173-2.98,7.043-3.688,10.744
		c-1.238,6.559,1.191,9.934,6.771,9.754c2.778-0.112,5.49-0.833,7.954-2.115c8.146-4.095,14.806-10.305,22.219-15.445
		c0.845-0.586,1.665-1.688,2.712-1.261c1.237,0.519,0.495,1.846,0.474,2.802c-0.169,6.569,4.05,9.709,10.215,7.413
		c4.083-1.519,7.368-4.331,10.732-6.985c7.862-6.198,13.421-14.411,19.236-22.331c3.296-4.467,7.471-8.246,10.014-13.286
		c0.741-1.485,1.676-1.327,2.509,0.135c0.686,1.228,0.606,2.419,0.313,3.701c-2.068,9.203-3.498,18.495-2.104,27.911
		c0.99,6.672,5.287,11.723,12.848,7.459c4.895-2.778,9.395-6.221,13.354-10.228c9.664-9.675,19.632-19.057,28.653-29.361
		c0.799-0.899,2.307-1.755,0.944-3.149c-1.248-1.282-2.79-0.664-3.689,0.427c-2.654,3.24-5.704,6.064-8.708,8.979
		c-9.741,9.484-17.966,20.678-30.803,26.641c-1.945,0.911-3.712,2.238-5.814,1.237c-2.353-1.137-2.981-3.499-2.903-5.929
		c0.169-5.098,0.034-10.228,1.294-15.244c0.698-2.823,3.342-4.804,3.24-7.897c-0.191-5.579,2.588-10.271,4.59-15.165
		c4.566-11.182,10.936-21.486,15.964-32.455c3.994-8.729,7.178-17.91,12.87-25.74c2.97-4.083,5.118-8.954,10.305-11.262
		c2.284-1.022,3.454-3.769,3.409-6.469c-0.067-1.023,0.09-2.048,0.473-2.992c0.776-1.755,1.261-3.646-0.563-5.084
		c-1.722-1.373-3.488-0.722-5.176,0.201c-1.563,0.799-2.813,2.094-3.532,3.69c-1.384,3.015-2.61,6.131-4.376,8.954
		c-6.379,10.113-11.25,21.049-17.213,31.41c-7.413,12.869-14.703,25.773-23.872,37.519c-1.215,1.553-2.081,2.329-4.479,1.767
		c-3.555-0.82-7.356-0.811-10.834,1.125c-8.595,4.781-16.178,10.756-22.273,18.528c-3.635,4.624-6.842,9.688-11.003,13.793
		c-4.854,4.822-10.171,9.156-15.874,12.938c-6.008,3.96-11.835,8.481-19.137,10.191c-2.352,0.563-2.937-0.157-2.937-2.25
		c0-3.42,0.506-6.93,1.924-9.844c4.59-9.45,9.18-18.956,16.189-26.979c0.811-0.989,1.429-2.126,1.789-3.341
		c0.416-1.328,0.563-2.856-0.676-3.893c-1.113-0.945-2.386-0.519-3.623-0.034c-1.528,0.563-2.901,1.485-3.992,2.688
		c-3.421,3.804-4.241,8.844-6.277,13.287c-0.586,1.282-0.89,2.554-2.206,3.363c-5.929,3.634-11.667,7.537-17.967,10.608
		c-9.359,4.566-18.607,9.372-27.519,14.794c-5.389,3.297-11.509,4.814-17.368,6.94c-3.229,1.171-4.241-0.314-3.297-3.668
		c1.137-3.938,4.174-6.592,6.445-9.765c7.942-10.969,19.104-18.169,30.532-24.829c2.115-1.237,5.029-2.531,8.134-2.047
		c2.521,0.394,4.163-1.316,4.603-3.769c0.404-2.25-1.97-5.411-4.106-5.188c-3.06,0.326-6.367,0.688-8.786,2.801
		c-6.986,6.098-14.985,10.913-21.724,17.325c-1.069,1.024-2.081,1.563-2.555-0.63c-0.293-1.327-1.484-1.665-2.757-1.586
		c-3.577,0.214-7.153,0.518-10.73,0.641c-8.482,0.293-16.797,2.127-25.234,2.757c-1.766,0.136-4.455,2.069-5.365-0.271
		c-0.597-1.529,0.865-3.993,1.137-5.975c0.877-6.49,5.208-11.599,6.188-18.201c1.137-7.729,4.141-15.176,6.379-22.736
		c2.823-9.518,6.288-18.854,7.133-28.879c0.473-5.76-1.417-9.395-6.301-10.203c-4.33-0.709-8.481-0.136-12.396,2.261
		c-10.035,6.165-18.811,13.895-27.349,21.915c-5.704,5.366-10.958,11.194-16.134,17.021c-4.858,5.445-10.226,10.507-14.703,16.256
		c-7.109,9.135-14.435,18.066-22.174,26.662c-3.263,3.623-6.964,6.829-8.819,11.531c-0.371,0.854-0.9,1.632-1.563,2.283
		c-3.33,3.42-5.985,7.357-8.865,11.126c-2.183,2.857-3.083,6.817-7.583,8.123c-11.97,3.465-24.073,6.604-35.481,11.835
		c-2.216,1.014-4.623,1.385-6.828,2.531c-4.612,2.407-9.417,4.388-14.063,6.772c-2.947,1.519-6.074,2.936-7.932,5.983
		c-1.204,1.937-1.136,4.039,1.035,4.591L92.11,180.93z M443.482,89.456c1.215-1.957,2.452-3.903,4.129-5.445
		c0.168-0.618,0.314-1.236,0.438-1.854c0.201-0.99-0.169-2.07,0.979-2.576c0.563-0.271,1.237-0.045,1.52,0.518
		c0.046,0.09,0.078,0.18,0.091,0.271c0.326,1.227-0.417,1.766-1.418,2.385c-0.585,0.371-1.125,0.787-1.631,1.249
		c-0.598,2.306-1.418,4.578-2.16,6.862c-0.112,0.359-0.63,0.597-1.047,0.979c-0.473-0.304-0.911-0.473-1.137-0.799
		c-0.338-0.54-0.079-1.103,0.236-1.608V89.456z M406.278,111.506c1.485-0.943,2.824-2.183,1.71-4.318
		c-0.473-0.945,0-1.688,0.619-2.498c5.422-6.874,12.634-11.452,20.069-15.729c1.813-1.103,3.98-1.462,6.053-1.001
		c2.16,0.495,2.655,1.766,1.339,3.544c-4.714,6.436-9.19,13.095-14.321,19.192c-6.514,7.729-12.881,15.716-21.465,21.431
		c-0.574,0.372-1.022,0.99-1.812,0.676c-0.652-0.259-0.821-1.158-0.687-3.521C397.255,121.732,399.706,115.657,406.278,111.506
		 M174.347,135.604c10.182-12.25,18.923-25.649,29.959-37.271c8.516-8.955,15.862-19.034,24.144-28.226
		c7.322-8.066,15.21-15.604,23.612-22.534c5.456-4.533,12.33-6.334,18.124-10.171c1.059-0.696,1.768-0.213,2.025,0.945
		c0.551,2.362,1.631,4.715,1.507,7.043c-0.438,8.684-1.96,17.277-4.533,25.582c-3.42,11.047-6.66,22.151-10.643,33.053
		c-1.307,3.578-2.531,7.278-3.083,11.024c-0.709,4.804-3.836,6.3-7.841,6.84c-13.826,1.892-26.844,6.853-40.22,10.44
		c-11.498,3.082-22.681,7.188-34.109,10.438c-1.507,0.439-2.802,1.699-5.321,1.271c2.352-3.139,4.241-5.884,6.356-8.438h0.022
		V135.604z M718.848,461.426c-0.405-1.438-1.665-1.191-2.6-0.877c-3.724,1.282-7.401,2.654-11.093,4.05
		c-6.829,2.576-13.478,5.658-20.576,7.471c-1.058,0.271-2.43,0.944-3.229-0.202c-0.721-1.023,0.528-1.892,0.944-2.79
		c1.587-3.42,4.578-5.794,6.614-8.888c1.879-2.869,1.069-5.345-2.261-5.93c-3.161-0.551-6.479-0.416-9.045,1.599
		c-5.311,4.185-11.138,7.48-16.887,10.956c-7.92,4.805-15.795,9.688-24.313,13.389c-1.136,0.495-2.563,1.541-3.555,0.73
		c-1.316-1.08,0.574-2.147,0.765-3.296c0.259-1.632,1.451-2.881,2.127-4.31c2.645-5.658,8.167-8.628,12.05-13.15
		c6.119-7.122,13.928-12.668,24.143-12.882c1.282-0.056,2.554-0.225,3.802-0.506c2.115-0.439,3.207-1.822,3.186-3.949
		c0-2.261-1.633-2.925-3.499-3.06c-1.617-0.183-3.254-0.021-4.805,0.473c-7.611,2.612-14.647,6.669-20.723,11.947
		c-8.27,7.211-15.626,15.379-25.088,21.454c-8.414,5.411-17.225,9.854-26.055,14.344c-1.88,0.944-4.196,1.237-6.412,1.507
		c-2.634,0.315-3.185-0.968-2.7-3.004c0.675-2.823,1.136-5.839,2.554-8.269c5.4-9.314,11.307-18.337,19.091-25.921
		c1.44-1.416,2.655-2.88,2.689-5.072c0.033-2.07-0.833-2.926-2.914-2.903c-2.576,0.045-4.331,1.451-6.03,3.083
		c-1.462,1.417-2.632,1.856-3.465-0.664c-0.563-1.688-1.721-3.193-3.589-3.487c-3.982-0.642-7.875-1.215-12.015-0.169
		c-7.089,1.789-13.727,4.86-20.724,6.853c-2.655,0.687-5.063,2.104-6.964,4.084c-2.118,2.24-5.196,3.307-8.246,2.856
		c-2.778-0.293-5.558-0.417-8.348-0.383c-8.943,0.045-17.898,0.112-26.844,0.315c-2.463,0.056-3.51-0.474-2.541-3.128
		c1.731-4.76,3.036-9.697,6.355-13.736c0.686-0.776,1.192-1.71,1.474-2.711c2.205-10.418,7.381-19.732,11.262-29.509
		c3.409-8.606,7.064-17.066,9.012-26.156c1.103-5.13-0.833-8.28-5.906-9.675c-4.714-1.294-9.09-0.619-13.433,1.631
		c-15.424,7.954-29.014,18.383-41.749,30.083c-8.089,7.436-16.414,14.613-24.3,22.309c-8.135,7.932-15.716,16.447-24.784,23.399
		c-1.812,1.418-3.296,3.252-4.713,5.085c-1.193,1.553-1.958,3.42-3.521,4.714c-3.61,2.959-6.976,6.222-9.54,10.092
		c-3.634,5.467-8.798,7.29-15.029,8.438c-6.099,1.125-12.33,1.541-18.371,3.441c-11.139,3.498-22.523,6.21-33.379,10.62
		c-2.992,1.215-6.12,2.217-8.235,4.916c-0.956,1.08-1.147,2.633-0.494,3.915c0.607,1.248,1.755,1.372,2.97,1.327
		c1.385-0.09,2.769,0.191,4.006,0.812c3.229,1.642,6.019,0.54,7.639-2.824c0.371-0.766,0.73-1.485,1.496-1.822
		c3.701-1.643,6.693-4.545,10.677-5.737c9.067-2.712,18.168-5.354,27.202-8.189c3.42-1.08,6.94-2.317,11.396-3.082
		c-0.878,1.484-1.182,2.092-1.574,2.644c-8.979,12.746-19.813,24.099-28.306,37.192c-3.634,5.613-9.314,9.664-11.824,16.087
		c-0.259,0.676-1.158,1.092-1.71,1.677c-3.6,3.77-4.116,8.629-4.24,13.421c-0.058,2.048,1.789,3.116,3.689,1.352
		c4.174-3.882,8.921-7.763,10.586-13.196c2.216-7.2,6.772-12.791,10.653-18.854c5.479-8.551,12.488-15.997,17.978-24.604
		c3.15-4.938,7.258-9.326,10.665-14.164c1.768-2.509,3.771-4.129,7.1-4.241c2.609-0.066,5.176-1.112,7.797-1.665
		c8.28-1.731,16.515-3.848,24.874-5.027c9.742-1.373,19.237-4.117,29.114-4.85c7.257-0.528,14.365-2.599,21.724-2.688
		c2.329-0.033,2.408,0.395,1.575,2.498c-4.578,11.655-9.63,23.096-14.468,34.627c-8.583,20.485-14.052,41.952-19.608,63.383
		c-0.528,2.048-1.788,5.321,1.17,6.03c2.779,0.675,3.927-2.498,4.534-4.815c0.551-2.104,0.235-4.421,0.651-6.568
		c3.397-17.325,8.189-34.279,14.93-50.593c6.008-14.546,12.499-28.9,18.642-43.392c1.104-2.621,3.149-2.925,5.321-3.048
		c9.967-0.563,19.854-2.353,29.868-1.946c2.147,0.078,5.063-1.068,6.244,0.675c1.181,1.743-2.003,3.004-2.565,4.871
		c-0.09,0.214-0.191,0.428-0.314,0.619c-3.387,6.446-2.25,8.831,4.747,11.216c6.356,2.171,12.577,4.714,18.866,7.065
		c0.553,0.202,1.215,0.326,1.237,1.012c0.034,0.945-0.799,0.945-1.462,1.047c-9.034,1.451-18.045,3.116-27.124,4.274
		c-6.277,0.811-11.869,3.813-18.034,4.917c-1.023,0.18-2.228,1.146-1.766,2.587c0.518,1.586,1.935,1.046,2.98,0.799
		c3.938-0.945,7.841-2.036,11.778-3.004c3.589-0.877,7.155-1.766,10.924-1.89c9.731-0.315,19.417-1.418,28.969-3.297
		c3.149-0.642,7.323-3.297,9.528,2.048c0.236,0.563,1.339,1.001,2.093,1.092c3.454,0.403,6.896,0.675,10.282-0.664
		c8.686-3.433,16.234-8.865,24.222-13.534c1.059-0.618,2.139-2.036,3.363-1.417c1.463,0.754,0.315,2.283,0.226,3.453
		c-0.293,3.565,1.137,5.209,4.636,5.221c5.646,0,10.586-2.88,15.244-5.288c9.448-4.871,18.292-10.924,27.382-16.492
		c1.879-1.158,3.689-2.44,5.851-3.06c0.72-0.203,1.508-1.069,2.205-0.293c0.811,0.9-0.057,1.71-0.518,2.464
		c-1.879,3.049-3.915,6.02-5.647,9.157c-1.035,1.855-1.62,4.062,0.112,5.851c1.731,1.788,4.106,1.417,6.198,0.618
		c2.485-0.967,4.917-2.069,7.29-3.296c9.473-4.871,18.889-9.866,29.048-13.23c1.191-0.416,1.71-1.215,1.372-2.396L718.848,461.426z
		 M510.982,442.604c-1.969,4.41-3.375,9.079-5.625,13.399c-0.606,1.17-1.227,1.777-2.543,1.89c-4.162,0.35-8.313,0.776-12.465,1.204
		c-7.594,0.8-15.153,1.8-22.545,3.77c-8.403,2.261-17.179,2.44-25.604,4.759c-7.685,2.104-15.593,3.363-23.399,4.973
		c-0.293,0.057-0.643-0.136-1.654-0.404c3.016-3.129,5.851-5.964,8.562-8.844c6.12-6.479,12.298-12.902,18.248-19.519
		c2.971-3.296,6.391-6.075,9.573-9.124c10.361-9.935,20.688-19.957,31.286-29.654c8.903-8.132,18.537-15.427,28.777-21.792
		c4.949-3.082,10.913-3.712,16.009-6.592c2.16-1.215,2.217,1.203,2.352,2.621c0.664,6.806-0.799,13.297-2.856,19.743
		C524.301,414.075,517.428,428.238,510.982,442.604 M585.805,479.629c-0.618,1.068-0.821,2.137-2.407,1.812
		c-10.159-2.06-20.407-3.803-30.004-7.966c-1.136-0.473-2.081-1.438-3.094-2.205c-2.024-1.519-1.53-2.822,0-4.566
		c9-10.496,21.409-15.029,33.84-19.52c1.261-0.473,2.757-0.235,4.151-0.325c3.387-0.495,5.468,0.325,4.928,4.364
		c-0.248,1.801,0.99,2.733,2.609,3.149c2.98,0.776,3.521,2.543,2.114,5.13c-0.989,1.834-1.698,3.77-3.127,5.389
		c-3.87,4.354-6.12,9.767-9.021,14.728L585.805,479.629z M338.147,482.261c-0.765-1.541-1.879-0.775-2.947-0.28
		c-3.375,1.541-6.705,3.206-10.182,4.467c-8.146,2.936-15.683,7.537-24.457,8.719c-2.104,0.281-4.5,1.046-5.827-0.9
		c-1.418-2.036,0.821-3.6,1.924-5.085c2.262-3.07,4.849-5.905,6.209-9.563c0.585-1.541,2.263-2.925,0.664-4.714
		c-1.474-1.677-3.454-1.113-5.242-0.944c-1.146,0.168-2.238,0.596-3.194,1.26c-7.83,5.152-15.604,10.372-23.411,15.56
		c-0.832,0.551-1.812,1.586-2.768,0.765c-0.956-0.81-0.326-1.935,0.19-2.88c4.298-7.841,8.844-15.469,15.491-21.679
		c2.599-2.431,5.287-4.895,7.245-7.966c0.832-1.315,1.62-2.732,0.438-4.161c-1.013-1.216-2.374-1.509-4.071-1.249
		c-10.08,1.574-18.956,6.222-27.191,11.723c-11.823,7.92-23.073,16.718-34.639,25.031c-1.417,1.013-2.61,2.925-5.152,2.44
		c0.643-0.889,1.068-1.575,1.586-2.183c6.48-7.706,13.05-15.356,20.25-22.365c3.128-3.025,4.522-7.392,8.18-9.799
		c2.159-1.417,3.634-3.104,4.364-5.591c0.383-1.316,1.451-2.543,0.271-3.859c-1.182-1.314-2.823-1.08-4.241-0.754
		c-3.206,0.721-5.187,2.79-6.221,5.94c-1.475,4.455-1.541,4.388-5.266,1.935c-1.155-0.768-2.413-1.369-3.734-1.788
		c-4.365-1.339-8.91-1.249-13.41-1.688c-8.201-0.8-16.414,1.721-24.593-0.429c-1.951-0.494-4.017-0.259-5.806,0.664
		c-3.375,1.788-6.975,1.496-10.563,1.475c-2.263,0-2.993-0.281-1.847-3.026c2.318-5.523-0.427-9.9-6.411-9.225
		c-2.645,0.292-5.4,0.403-7.887,1.26c-10.632,3.634-21.162,7.537-30.747,13.556c-6.592,4.163-13.264,8.235-20.092,12.465
		c0.811-2.587,2.769-4.161,4.062-6.176c3.77-5.895,8.146-10.845,16.29-8.888c0.878,0.214,2.307,0.383,2.554-1.068
		c0.248-1.463-1.034-1.945-2.114-2.316c-0.775-0.248-1.587-0.36-2.408-0.35c-1.845,0-2.698-0.203-2.014-2.588
		c0.968-3.353-0.686-4.849-4.061-4.938c-3.883-0.113-5.885,2.183-6.797,5.299c-0.572,1.969-1.474,2.328-3.127,2.351
		c-7.257,0.045-14.534-0.202-21.576,1.665c-0.306-0.651-0.227-1.417,0.201-2.002c3.005-5.119,6.729-9.766,10.608-14.142
		c7.538-8.518,14.13-17.798,21.982-26.077c6.771-7.146,13.512-14.321,20.217-21.544c1.643-1.777,4.397-1.183,5.558-3.251
		c1.227-2.184,2.97-3.24,5.377-3.928c2.407-0.687,3.229-2.913,2.477-5.365c-0.754-2.441-2.881-3.701-4.872-2.555
		c-3.791,2.193-8.279,3.062-11.104,7.245c-7.346,10.867-17.212,19.665-25.525,29.769c-6.524,7.954-13.657,15.49-19.271,24.086
		c-3.949,6.019-8.978,11.217-12.544,17.472c-0.518,0.911-1.283,0.776-2.048,0.944c-7.763,1.867-15.683,3.038-23.658,3.466
		c-3.016,0.168-6.346,1.012-6.863,4.196c-0.54,3.341,2.79,4.713,5.457,5.274c3.532,0.754,5.534,3.004,7.582,5.592
		c1.834,2.329,2.06,4.151,0.103,6.729c-8.235,10.957-16.357,21.926-23.918,33.322c-7.38,11.114-14.637,22.319-21.87,33.524
		c-2.452,3.77-5.377,7.471-6.862,11.632c-3.015,8.482-8.517,15.649-11.745,24.042c-2.216,5.806-5.299,11.183-5.072,17.617
		c0.056,1.653,0.596,2.971,1.879,3.903c1.046,0.833,2.52,0.866,3.61,0.09c4.871-3.656,10.271-6.569,14.187-11.563
		c2.316-2.947,5.106-5.659,7.773-8.404c3.239-3.33,6.997-6.086,10.068-9.596c5.423-6.199,10.789-12.478,16.504-18.384
		c5.422-5.603,10.936-11.52,14.636-18c4.646-8.145,10.014-16.144,12.512-25.627c2.137-8.146,3.139-16.133,1.519-24.277
		c-0.664-3.353-0.473-7.233-3.499-9.899c-1.113-0.99-0.754-2.271,0.103-3.454c3.217-4.397,6.4-8.797,9.563-13.196
		c0.63-0.877,1.293-1.598,2.396-1.89c8.011-2.093,16.212-2.824,24.412-3.611c0.866-0.09,1.991-0.349,2.441,0.755
		c0.337,0.854-0.417,1.495-0.878,2.138c-5.839,8.043-11.43,16.29-18.642,23.242c-1.152,1.147-2.088,2.498-2.757,3.981
		c-1.71,3.646-1.71,7.278,0.157,8.336c1.71,0.979,5.884-1.293,7.605-4.331c0.968-1.721,2.216-3.263,3.701-4.566
		c9-7.83,17.854-15.808,28.091-22.072c10.632-6.514,21.353-12.679,34.178-13.59c1.001-0.067,2.317-0.709,2.757,0.551
		c0.292,0.855-0.124,2.003-0.395,2.981c-0.382,1.372-1.529,0.642-2.352,0.651c-2.609,0-5.32,0.36-5.479,3.487
		c-0.181,3.601,3.038,3.173,5.354,3.342c2.407,0.18,4.85,0.045,8.167,0.045c-1.327,1.068-1.731,1.507-2.227,1.777
		c-8.888,5.027-17.483,10.484-25.517,16.808c-1.507,1.091-2.777,2.476-3.745,4.063c-2.857,5.04-1.711,8.224,3.769,10.281
		c1.069,0.405,2.262,0.528,3.353,0.899c6.549,2.172,12.532-1.226,18.022-3.217c8.431-3.074,16.136-7.854,22.635-14.04
		c4.86-4.635,5.143-10.474,0.9-15.729c-0.371-0.473-0.9-0.82-0.697-1.45c0.281-0.879,1.113-0.709,1.755-0.709
		c9.652,0.033,19.237-1.599,28.901-1.327c4.062,0.111,8.122,0.563,12.004,1.821c2.238,0.731,3.712,2.104,1.991,4.67
		c-1.609,2.396-3.017,4.961-4.86,7.153c-8.213,9.767-16.537,19.429-24.852,29.115c-1.553,1.8-2.666,3.927-1.417,6.008
		c1.36,2.261,3.981,2.036,6.3,1.541c1.474-0.314,3.037-0.799,3.994-2.003c8.043-9.967,19.271-16.188,28.766-24.457
		c7.402-6.446,16.38-10.463,24.886-15.176c2.431-1.339,4.973-2.486,7.537-3.623c0.832-0.383,2.048-0.54,2.621,0.202
		c0.742,0.944-0.394,1.587-0.945,2.284c-5.332,6.728-10.676,13.442-15.939,20.228c-1.846,2.353-2.554,5.188-2.61,8.179
		c-0.09,3.825,2.284,5.613,5.827,4.275c2.272-0.878,4.455-1.946,6.548-3.195c7.233-4.264,14.152-9.102,22.433-12.7
		c-1.182,2.678-3.094,4.084-4.467,5.905c-2.092,2.802-4.195,5.827-2.497,9.54c1.698,3.712,5.3,3.095,8.505,3.14
		c0.697,0.011,1.396-0.045,2.081-0.17c13.027-2.599,24.548-8.954,36.259-14.736c1.047-0.563,1.711-1.43,1.138-2.588L338.147,482.261
		z M79.409,494.513c-1.418,9.775-3.185,19.417-8.675,28.104c-3.655,5.771-6.885,11.846-11.138,17.201
		c-4.883,6.152-9.787,12.296-15.267,17.966c-7.492,7.74-15.648,14.839-22.702,23.018c-3.127,3.611-7.29,6.086-10.834,9.271
		c-0.519,0.473-1.182,1.08-1.822,0.586c-0.742-0.586-0.27-1.485-0.09-2.273c2.711-11.979,7.616-22.948,14.366-33.243
		c6.355-9.675,12.015-19.8,18.169-29.62c5.422-8.618,10.665-17.438,16.817-25.493c4.95-6.502,10.834-12.318,15.503-19.113
		c1.316-1.936,2.217-0.057,2.757,0.866c2.295,3.881,3.655,8.032,2.925,12.724L79.409,494.513z M76.844,468.502
		c-0.067,0.191-0.314,0.473-0.45,0.473c-2.732-0.313-3.712-2.835-5.22-4.532c-1.091-1.228-0.36-2.51,1.361-3.083
		c3.523-1.188,7.188-1.909,10.9-2.148c-1.575,3.982-5.333,5.727-6.593,9.281L76.844,468.502L76.844,468.502z M190.334,471.326
		c-3.656,4.185-7.718,8.01-12.858,10.417c-6.593,3.061-12.972,6.771-20.779,6.693c-1.438-0.247-3.634,0.663-4.478-1.36
		c-0.844-2.025,0.36-3.894,1.553-5.411c2.925-3.758,6.626-6.84,10.856-9.034c6.12-3.206,12.441-6.131,18.214-10.023
		c3.543-2.352,5.884-2.048,8.719,1.295c2.407,2.835,0.54,5.443-1.227,7.446v-0.034V471.326L190.334,471.326z"/>
	<path fill="#DB3475" d="M622.773,412.05c-3.701,4.018-7.268,8.089-8.448,13.691c-0.259,1.249-1.182,2.711-0.046,3.532
		c1.384,1.013,2.172-0.664,3.038-1.509c2.688-2.621,4.714-6.188,8.37-7.491c3.51-1.25,4.027-4.106,4.714-5.939
		c0.404-2.386-0.293-3.186-1.418-3.771C626.441,409.192,624.493,410.193,622.773,412.05 M376.443,78.296
		c2.093,1.183,2.688-1.474,3.791-2.644c2.205-2.328,3.397-5.75,6.536-7.01c3.342-1.35,3.792-4.061,4.219-6.985
		c-0.18-1.125-0.135-2.283-1.372-2.992c-2.768-1.575-4.714-0.236-6.222,1.89c-2.902,4.118-6.592,7.842-6.626,13.444
		c0,1.438-2.171,3.239-0.314,4.297H376.443z"/>
</g>
</svg>
