<?xml version="1.0" encoding="UTF-8"?>
<svg id="_레이어_1" data-name="레이어_1" xmlns="http://www.w3.org/2000/svg" version="1.1" viewBox="0 0 290 100">
  <!-- Generator: Adobe Illustrator 30.4.0, SVG Export Plug-In . SVG Version: 2.1.4 Build 226)  -->
  <g id="Layer_2">
    <path d="M137.2712,43.1585s-.3988-.0997-.4305-.1994l.4305-.6299v.8611-.0317Z" fill="#ff1e91"/>
    <path d="M172.5751,96.5404c.4985,1.1285-2.6557,1.3596-3.1497,1.1602-1.7901-.5982-3.4851-3.7479-5.2435-4.6135l-18.5447-18.4813c-.8293-.1994-4.4776,4.4458-5.5426,5.1755-.3988.2674-.997,0-.997.1677.0997.2311.2991.562.2311.8293-.2311,1.1964-8.7603,8.4612-10.2196,9.9522-1.3596,1.3596-3.8476,5.0758-5.1755,6.0366-.1677.1314-3.4488,1.3913-3.6482,1.3913-.1314,0-2.1255-.8293-2.3566-.9608-.9608-.5302-2.6557-2.556-3.4851-3.3854-4.5138-4.5773-10.419-11.0806-16.0567-14.4977-.4305-.2674-1.7584-1.491-2.0258-1.8581-.8611-1.3279.4305-4.7132,2.1889-4.9761v-.4305l-.8611-.8611,1.4593.8293,22.193-21.7307-2.2886-2.6557c-2.1572-2.1255-7.4959-6.3357-8.9597-8.5246-.3308-.4985.0317-.997,0-1.0288-3.1497-2.2886-5.1755-4.9444-7.8947-6.9656-.4623-.3671-1.2599-.3308-1.4276-.4985-.1994-.2311-.068-.9608-.4985-1.4276-.562-.562-1.9895-.5302-2.1255-.6979-.1994-.2311.068-1.1285-.2674-1.6904-.6299-1.0605-2.5877-.3988-1.5273-3.1497.1994-.5302.9608-.0997,1.2282-.3308.1994-.1677.0997-.8611.2991-1.1964.2991-.4985,4.115-3.3491,4.9444-4.115,3.3174-3.0183,6.5668-6.7345,9.8887-9.9204,1.5273-1.4593,3.4171-2.6557,4.5138-4.5455,2.0575-.3671,4.2147-.3988,6.2722.0317l-.3671.7976c.3671.0997.6979.2311.997.4985,5.6423,5.674,12.1774,11.6109,18.1142,17.6157.9608.997,1.7901,2.556,3.3854,2.9866L169.7517,1.3875c1.6904-1.2599,2.6874.997,3.6482,1.9578,4.5455,4.5456,9.3539,8.6243,13.3693,13.6684.4623.562,1.2961.2674.8611,2.0258,1.0287-.9608,2.8551,1.0605,3.4488,1.9261.3308.4985,1.7267,3.2494,1.8581,3.7842.5982,2.2207-1.7584,3.05-1.4276,5.0758-.6617.0997-.3308-.1677-.4305-.562-.3988-1.6904-1.2282,1.1285-1.3913,1.2961-.2311.2311-.8293.3671-1.1964.7296-6.2042,6.1363-12.3088,12.3768-18.4813,18.581l.1677.5982c5.3749,5.5063,11.0489,10.7815,16.3875,16.3241,1.1964,1.2282,2.2886,2.6195,3.4488,3.8476.7614.8293,2.556,1.559,1.9261,3.0183l1.9261.4305.1994,1.7584-1.2961-.4305c0,.9608-.1314,1.491-.8611,2.1572l-.1994-.4305c-.2674,0-.1994.3988-.1994.4305-.997.7296-.4305.7976-.7296,1.2961-1.5907,2.7192-10.8495,12.5762-13.2696,14.2666-.4623.3308-.929,0-.997.068-.6299.5302-.3308,2.0575-2.2207,1.1964l-.0997,1.1964c-.2311.2311-.562.0317-.7614.0997-.068-.0997.068-.3671-.1994-.4305-.2674,0-.1994.3988-.1994.4305-.1994.1677-.2674.2311-.4305.4305,0,0-.4305-.068-.4305.1994l.4305.1994-.0317.0317.0045-.0181ZM128.1846,11.3442s-.5302.3308-1.0287,0c-1.1602-.7976-6.4037-6.9339-6.9022-6.9339-1.8898,1.3596-1.4276,3.5848-1.9578,5.5743-2.0258-.2311-4.3779.4985-5.8734,1.8898-3.6845,3.4171-7.233,7.7632-10.7181,11.4477-.4305.4623-1.0967.5982-1.491,1.0967l2.1572,3.0183,4.3144.2311c.1677.1994.3671,3.3174.5302,3.9791.3671,1.4593,3.0863,3.3174,4.1785,4.4141.8293.8293,2.7554,3.7162,3.7479,4.0153,2.556-.3988,4.677-1.627,7.0019-2.556-.0317-2.7872-2.1572-4.0788-4.2782-5.3749,3.8159-2.3566,2.4201-8.6923-1.491-10.1199-3.4171-1.2599-4.6135,3.118-1.2599,3.4488.9608.0997,1.6587-.6617,2.3204-.2311-1.5907.997-2.1889,4.0788-4.3144,3.4851-3.9791-1.1602-5.0758-6.1363-2.1255-9.0231,1.9895-1.9261,3.1497-1.1964,5.3069-1.559,1.3913-.2311,2.6874-.9291,4.115-.8293-.068.9608.6617,4.5455,1.5273,4.745,1.6587-.9291,2.6874-2.3566,4.5138-3.2177.6299-.2991,4.5138-1.6904,4.7132-1.4593s-.2991.9608.4623.7976c0-.6299.562-1.1964.3988-1.8581-.068-.1994-2.2207-2.6195-2.6874-3.186-.8293-.997-.6979-1.0605-1.1964-1.8264l.0317.0317h.0046ZM137.2712,42.2974c-1.1602-.3988-1.4276-2.3566,0-2.1572v-.8611c-2.1572,0,.929-2.6557,1.491-3.4488.6617-.9608.8611-2.1889,1.7584-2.9866l7.9626,4.745c1.3913-5.9051,6.1363-10.351,10.7815-13.9675.4985-.3988,1.2599-.4985,1.6904-.8973.8611-.7614.9608-2.4563,1.9578-3.2177.6979.6299,2.3204,1.7584,3.186,1.9261s2.6195-.6617,3.4171-.0997c.0997.068.068.562.3671.7614.4623.2991,1.3279.2991,1.6587.8293.2674.4305.2674,1.5273.4305,2.1572.0997.4623,0,1.3913.6299,1.2961.1314-.8293-.2674-1.5907-.3671-2.3566-.0317-.3671.3308-.7976.2674-1.2282-.068-.3671-.6299-.6617-.6299-.9291,0-.3988,1.0287-.7614.7296-1.491-1.7901.4305-1.3279-1.491-2.5877-2.3566l3.0183-2.1889c-1.3913-2.9866.8293-8.5609-1.559-10.9129-.3671-.3671-.3988-.5982-1.0605-.4623-.068,1.559-1.7584,1.9261-2.6195,2.7872-.4305.4305-2.3566,2.3883-2.5198,2.6557-.6979,1.0605-.7976,3.6165-.8973,4.9081-4.9081-.8973-5.9051,2.2207-8.5926,4.9761-2.2569,2.2886-4.8084,4.4458-7.1333,6.6348-.929.8973-1.7267,2.2886-3.05,2.9866-.8611.1994-2.7192-2.7872-3.6165-3.2177-1.1285-.562-3.0183.1314-4.2464-.6979.068-3.6482-1.9895-6.0728-4.7767-8.1303.3308,2.6874,2.8551,4.677,3.0183,7.5321.1994,3.2177-2.3883,6.7662-2.1889,10.0836-1.3596-.0997-3.118,1.1285-4.2782,1.9578s-2.4563,1.7584-2.5877,3.0183c1.6587-.1994,1.7267,1.5273,2.556,2.5877,1.6904,2.1255,3.2494,3.186,6.0366,1.9261l.3988,1.9578-.8293,1.4593,1.0605-.8611,3.2177,2.3566c1.7901-.7976,2.4563.3988,3.3174.5982.4623.0997.9608-.6979,1.6587-.7976.8611-.1677,1.8898.0997,2.7871,0l-.4305-4.3144h1.6587l.4623-2.1572-1.7267,1.7267c-.4623-2.8551-4.047-8.2618-6.8342-4.9081l.7614,2.1255c-1.5273.6617-1.1285,1.3913-1.6904,2.7872l1.7267.4305-.4305-2.1572,1.2961.2311-.8611-1.0605c.3988-.2311,2.5877,1.3279,2.5877,1.491-2.1572,2.3204-2.1572,3.6482-5.3069,1.4276-.997-.6979-.7614-.7296-1.1285-1.6587h.8611v-.8611c-.2674-.068-.6617.068-.8611,0l.068.0317-.0091-.0091ZM164.1774,9.1553c-.2674,0-.2674.4305,0,.4305s.2674-.4305,0-.4305M111.43,87.549c.1677,0,.562-.1677.7976.0317,1.0288.997-.4985,1.9261-.3308,2.0575l1.7267-.4305-.8611.6299.4305.4305,1.2282-.1677.2674.7614,3.6845-.3988c0,.9608.7296,4.9761,1.5273,5.1438.7614-.068,1.2961-.6299,1.9261-.997.2311-.1314.562,0,.6299,0,.1314-.068-.0997-.5982.1994-.9291.7296-.9291,1.8898-1.4276,2.488-2.0575,3.9156-4.1785,7.5638-8.5246,11.7468-12.5762.7296-.6979,1.6904-.997,2.3566-1.9578.9608-1.3596,1.5273-3.6482.6617-5.1438,1.3279-.1314,3.186-.1994,4.4141-.5302.4623-.1314.8611-.8293,1.3279-.7296.7296.1677,3.3491,3.7842,4.677,4.3779s2.7871.2674,4.1785.3308c-.6979,4.0788.8973,4.8084,3.2494,7.301,3.2494,3.4488,7.3644,6.6031,9.6893,10.7498l.7614-.3671c.1677.6979.8611,1.1964,1.4276,1.7901,2.4201,2.5877,2.3883-2.4201,2.0575-4.0153,1.2282.068,2.4563-.068,3.6482-.4623,2.7192-.9291,8.23-7.7632,10.5821-10.0519,1.5907-1.5907,3.7842-2.7192,5.1438-4.7767-1.1285-1.6904-2.9548-.8973-4.677-1.1285-.8973-1.7584.068-3.8159-1.3279-5.3432-.4305-.4985-1.1602-.6617-1.5273-1.0605-4.6453-5.0758-9.5896-9.5216-14.1986-14.6654-.5982-.6617-3.3491-2.9548-3.2177-3.6165.7614-1.1602,2.5198-2.1572,3.0863-3.3854.6617-1.4276.0317-2.8189.5302-4.2464.3671-.5982,4.4458,0,5.1755-1.2599l15.2953-15.2591c1.6904-2.5198-3.4488-3.5485-5.1755-3.2494.3671-2.7872-.929-4.5773-2.5877-6.5668-.4985-.5982-1.559-.562-.8611-2.0258-2.1255.8973-3.2857-2.5877-5.1755-3.4488-.068,4.2464-.4985,8.4929-1.3279,12.6396,1.9895.6617,2.4201,3.0183,3.6845,4.1467.5982.5302,2.2207.9291,2.3566,1.5273-2.0258,3.4171-1.559,7.4959-4.9081,10.0836-2.4201,1.8581-5.7057,1.9895-8.3615,3.4171l-1.0967-1.6904c-4.3461,4.3461-9.5216,9.1545-15.6942,10.3827v1.2599c-.8611-.4305-1.8898,0-2.1889.8611.6617,0,1.7901.4985,2.3566.3988.8973-.1677,1.0605-.9291,1.9261-.8293l-2.1572,1.2961.2991.8611h.997c-.7614,1.3913.4985,2.7554-.8611,3.6482.3671.562.7614.5302,1.2961.6299l-1.7267,1.0605c.1994.4305,1.5273.6617,1.9261.6617.4985,0-.2674-1.3279.2311-1.7267,1.627.1994.929.1314,2.1572,1.2961l-.4623-2.1572c-.6299.3671-3.0183.0997-1.6904-.6617.6299-.3671.997.1994,1.4593.2311.6299-1.5273,2.6874-1.2961,4.115-1.2961l.1994,1.2961,1.0967-.6979-.4305-1.0288c10.1516.2674,20.8017,6.8342,22.261,17.516,1.6587,12.0414-12.5399,19.143-20.5343,9.354-1.4593-1.7901-2.3883-4.0788-4.2782-5.674l2.0892-5.0441c-1.559-1.627-3.3174-2.3204-5.5743-1.9895-.1314-1.4593.0317-2.6557.8611-3.8839l-1.2599.1994c.7976-.8293-.2674-.5982-.6617-1.0967-.7976-1.0605-.8973-3.118-2.6195-2.1889-2.0892,1.1285-3.3854,3.4488-5.3749,4.7767l-.8611-4.5138.8611.2311v-.8611l-.8611-.1994c1.2599-1.0967,2.2886-2.3883,2.5877-4.0788,1.7584-.068,1.5273,1.8581,3.4171,1.2961l-1.2961-3.8839c.7296-.1994.2311.7976.6299.8611.8293.1677,1.2961.1314,1.0967-.8611l-2.0892-.4985-.4985-3.3854-1.2961.4305.4305.8293c-2.1255-.7614-2.1255,2.0258-3.7479,2.5198s-2.9548-.4305-4.115-.2674c-1.6904.1994-4.5455,1.6587-5.674,2.9548-.4623.5302-1.0605,1.8264-1.5273,2.556v-.6299l-.8611-.2311c-.068,1.0967-.3671,1.0605-1.2961,1.0605l.4305,1.5273c1.3596.2311,1.0287-1.0605,1.3596-1.627.068-.1314.3308-.068.3308-.068.068,1.9578-.3988,4.9761,2.3883,5.1755,2.3883.1677,2.2569-2.7554,2.7871-4.3144-.929.0997-1.8264-.3671-2.1572-1.2961l5.1075,1.3279-.3988,8.1303c-3.118-.6617-6.9656.3988-9.4899-1.9261s-2.1255-5.7375-1.491-8.86c.1314-.6617.3671-.562-.4305-.4305-1.2599.2311-4.1785,1.6587-5.4066,2.3566-3.0183,1.6904-5.7737,3.2177-4.2782,7.1016-6.2042.4305-4.677,9.4219-1.7267,12.7076,1.4276,1.5907,5.7737,3.8476,6.5351.7296l.562.3308-.1994-1.2599c2.1255,2.8189,4.7767-.1677,4.7767-2.7871,0-5.3749-4.6453-6.3719-9.0594-5.8054l1.7901-4.2464c4.3461-.8611,7.3962,3.118,11.5791,2.9548-1.5907,4.745.5302,9.4899-3.2177,13.3693-1.5273,1.5907-5.1755,3.1497-7.3327,3.0183-1.3913-.0997-2.6195-1.0967-4.0788-.8973-.2311-.5982,1.7584-.3671.8611-1.2961-.1994-.2311-1.0287,1.1964-1.7267.8611l1.7267-1.2961-.8611-1.2961v1.2961c-2.6557,1.3596-2.7554-.5982-4.4141-1.3913-.8611-.3988-1.9895-.4623-2.8869-.7614l1.2961-.4305c.3988-1.1964-.7976-.6299-.8973-1.1285-.1677-.9608.0997-2.3204,0-3.4171-.6617-7.6318-.1314-12.3405,6.3039-17.3528,3.186-2.4563,7.795-3.118,9.1908-6.9656,2.2207,1.9895,4.6453.8973,7.1333,0l.1994.8293h.4305c0-1.3913,1.4593-1.491,2.5877-1.7267.2311-1.3279-1.3279-1.0967-1.9578-1.7267-.6979-.6617,0-1.6587-.8293-2.1572l-2.1255.8293c-.6299-1.3913-1.6904-1.3279-2.6195-2.1255-1.9578-1.6904-3.2494-4.3144-6.2042-4.3461v-2.1255c-1.3913.9608-3.0863,1.559-4.7767,1.7267-.1677.6617.1314.6979.4305,1.0605,1.6587,2.1889,3.9156,4.047,5.7375,6.1045.2311.2674.8611,0,.6979.3308-.3671.9608-1.8898.9608-2.0892,1.1602-.1677.1677,0,.7296-.1994,1.0605-.6979,1.2282-5.9369,6.4354-7.4324,6.1725.5302,1.9578-1.3279,2.1255-2.3883,3.186-.5982.6299-.9291,1.3913-1.491,1.9578-1.7267,1.7901-5.7375,4.9761-6.1363,7.2013-.1677.9291.068,1.8581-.2991,2.7192-.6299.9608-4.5455-.3671-4.9761,1.5273-.1677.6979,5.7375,5.9731,6.6665,7.0653.8611.997,2.1572,2.2569,1.491,3.4488l1.2961-.2311-.4305,1.0967.4305.8611c.4985-.1314.8611-.4985,1.4276-.4623.3308,0,.2674.4305.2674.4985-.1994-.1994-.5302-.1994-.7614,0s-.1994.5302,0,.7614.5302.1994.7614,0,.1994-.5302,0-.7614l.2311.3308-.0228.0363ZM111.6611,10.8774c-.2674,0-.2674.4305,0,.4305s.2674-.4305,0-.4305M179.2416,11.3079c-.2674,0-.2674.4305,0,.4305s.2674-.4305,0-.4305M162.2558,13.8957v-.8611h-.4305v.8611h.4305ZM158.807,14.7613h-.8611v.4305h.8611v-.4305ZM174.2973,16.4834h-.8611l.3988.8293h-.8293v.4623h1.2961v-1.2961l-.0045.0045ZM130.8358,19.0712v-.8611h-.4305v.8611h.4305ZM173.8667,18.6406h-1.2961v1.2961l1.2961-.4305v-.8656ZM128.878,19.5063c-.2674,0-.2674.4305,0,.4305s.2674-.4305,0-.4305M174.7278,19.9368c-.8293-.1314-1.4276.4985-1.2961,1.2961h1.2961v-1.2961ZM131.7649,23.7164c-.7296-.4985,0-1.8898-2.8869-1.6587s-5.7057,4.4776-2.3566,6.2722c-2.8551,2.0258-1.8264,4.1785-1.2961,7.1016.7296.1677.8611-.2991,1.2961-.6299,3.05-2.5198,5.9731-6.0728,5.5743-10.283l.8973-.2674c.1314-.7976-.7614-.2311-1.1964-.4985l-.0317-.0317v-.0045ZM171.279,23.3539c-.5982.3671-1.0605.0997-1.7267,0v.8611l1.7267.4305v-1.2961.0045ZM173.8667,25.076v-1.2961h-.4305v1.2961h.4305ZM170.4179,25.076c-4.745-.6299-10.3193,1.7267-13.5687,5.1438-1.8581,1.9578-2.1255,3.1497-1.0605,5.606-5.606.4985-4.7132,7.3961-5.1755,11.6109,2.8189-.562,5.9051-2.2207,5.1755-5.606,2.7554.9608,4.677.2674,6.4354-1.9578,2.6874-3.3174.1994-3.4488-.3308-6.5351-.6979-3.9473.8611-3.7479,4.2147-4.4141-.2311,1.8581-.6299,3.3854.1994,5.1755,1.1964-.7614,4.4776-8.6606,4.0788-9.0231h.0317ZM169.5523,37.122c5.8054.5982,7.9626-5.9369,4.5138-9.8887-.3308,0-1.7267,3.5485-1.8264,4.1785-.1677.9608.068,3.6482-.1314,3.9473-.1314.1994-2.4563.6617-2.5198,1.7584h-.0317l-.0045.0045ZM156.4504,28.5294c-.2674,0-.2674.4305,0,.4305s.2674-.4305,0-.4305M122.8732,31.9782c-.2674,0-.2674.4305,0,.4305s.2674-.4305,0-.4305M123.5031,34.5659l.4305-2.1572h-.4305c0,.9291-1.0287,1.2961-.8611,2.1572h.8611ZM106.7168,34.5659c.1677.1994,1.1285-.7614.8611-1.2961-.1677-.1994-1.1285.7614-.8611,1.2961M139.0976,37.983c0-.2991-.2311-.5302-.5302-.5302s-.5302.2311-.5302.5302.2311.5302.5302.5302.5302-.2311.5302-.5302M150.6087,38.4136h-.8611v.8611l.8611-.8611ZM111.2306,38.8441c-.2674,0-.2674.4305,0,.4305s.2674-.4305,0-.4305M121.781,39.2792h-1.2961l.6299,2.1572.6299-2.1572h.0362ZM124.3687,39.7097h-1.2961v.1994c.3988.4623.6617.7976,1.2961.6299v-.8611.0317ZM148.0572,41.0013c0-1.6904-1.7267-1.6904-1.7267,0h1.7267ZM137.7063,41.4318v-.8611h-.4305v.8611h.4305ZM149.7477,40.5708h-1.2961v.1994c.3988.4623.6617.7976,1.2961.6299v-.8611.0317ZM150.4093,41.4318c-.2674,0-.2674.4305,0,.4305s.2674-.4305,0-.4305M163.5475,42.2974h-1.2961v.1994l.6299.6299.6299-.8611.0317.0317h.0045ZM128.2481,43.589v-.8611h-.4305v.8611h.4305ZM159.2376,44.8852h-.8611v.8611l.8611-.8611ZM160.9597,44.8852h-.8611v.4305h.8611v-.4305ZM134.2529,48.334l-2.1572-1.2961v1.7267l2.1572-.4305ZM121.5816,47.4729c-.2674,0-.2674.4305,0,.4305s.2674-.4305,0-.4305M135.5491,49.6301l.8611-.6299-.6299-.6299h-.1994v1.2961l-.0317-.0317v-.0045ZM122.8732,49.1996c-.2674,0-.2674.4305,0,.4305s.2674-.4305,0-.4305M138.3679,50.0607c-.2674,0-.2674.4305,0,.4305s.2674-.4305,0-.4305M149.9788,50.0607c-.2674,0-.2674.4305,0,.4305s.2674-.4305,0-.4305M142.0162,50.4912h-.8611v.8611l.8611-.8611ZM138.9979,50.9218h-.8611v.4305h.8611v-.4305ZM143.0812,50.89l-.8611.8611,1.0967,1.0605.8611-.8611-1.0967-1.0605ZM168.0613,50.9218c-.2674,0-.2674.4305,0,.4305s.2674-.4305,0-.4305M138.1368,53.0472c.3988.3988,1.9895-.9291,1.7267-1.7267-.7614.3988-1.8898.6617-1.7267,1.7267M137.5069,52.1816c-.2674,0-.2674.4305,0,.4305s.2674-.4305,0-.4305M139.4284,53.5095l-.8611,1.2961,1.0605.4305.6299-.8611-.8611-.8611h.0317v-.0045ZM150.3096,54.3388c0-.2991-.2311-.5302-.5302-.5302s-.5302.2311-.5302.5302.2311.5302.5302.5302.5302-.2311.5302-.5302M135.1185,55.635c.6617.6617,1.8264-1.2961.6299-1.2961-.2674,0-.8973,1.0288-.6299,1.2961M137.7063,55.2044v-.8611h-.4305v.8611h.4305ZM140.9557,54.3388c-.2674,0-.2674.4305,0,.4305s.2674-.4305,0-.4305M134.6835,56.0655v-.8611h-.4305v.8611h.4305ZM172.3395,55.2044c-.2674,0-.2674.4305,0,.4305s.2674-.4305,0-.4305M136.6413,55.635c-.2674,0-.2674.4305,0,.4305s.2674-.4305,0-.4305M130.4053,56.0655h-.8611v.4305h.8611v-.4305ZM132.2317,56.496c0-.2991-.2311-.5302-.5302-.5302s-.5302.2311-.5302.5302.2311.5302.5302.5302.5302-.2311.5302-.5302M126.2903,56.9266c-.2674,0-.2674.4305,0,.4305s.2674-.4305,0-.4305M125.0304,57.3571c-.2674,0-.2674.4305,0,.4305s.2674-.4305,0-.4305M156.6498,59.5143c.1314-1.0967.0317-2.2569-1.2961-2.1572-.3988,1.1602.5982.6979.7614.929.2991.4985-.2674,1.3279.5302,1.2282h.0045ZM161.3948,57.3571c-.5302-.2991-1.491.6979-1.2961.8611.5302.2991,1.491-.6979,1.2961-.8611M164.8119,58.6532l-.8611-.8611v.8611h.8611ZM150.8444,58.2227c-.2674,0-.2674.4305,0,.4305s.2674-.4305,0-.4305M169.1218,59.9449v-.8611h-.4305v.8611h.4305ZM175.1629,73.7129c2.3204-2.7871,2.1889-3.9156,0-6.6665-2.1889-2.7554-7.8312-6.5351-11.4115-6.7028-1.6587-.068-1.9261.6979-2.9866,1.6904-2.1572-2.0575-3.5168-2.1255-6.236-1.2282-.2991,1.1964.6299,1.4593,1.0605,2.1889.2674.4623.3308,1.0288.6617,1.491.3988.5302,3.7842,3.8839,4.1467,4.0153.2991.0997.6979.1677.9608,0,.7976-1.4276,4.3144-4.047,5.9369-4.1467,1.0287-.068,3.2177,2.3883,4.0153,3.1497-1.559.4623-6.1725,1.5907-6.8659,3.0183-.3988.8293.6979.6299,1.0605.6299.7976,0,1.7901-.1314,2.5198.068,1.0967.3308,2.3204,2.9548,4.5773,1.6587.1994.1994-1.3596,3.4488-1.7267,3.6845-.997.6979-6.6031-1.9578-8.1938-1.9578-.2674,2.5198.1677,4.2782,1.7267,6.236,2.0575,2.5877,3.5168,3.1497,6.0048.6617,1.491,4.2147,5.674.8973,6.9022-1.9261,1.2282-2.8189,1.491-5.2435-2.1572-5.8372v-.0317l.0045.0045ZM149.7477,62.1021c.3988-.3988-.929-1.9895-1.7267-1.7267.3988.7614.6617,1.8898,1.7267,1.7267M153.6316,62.5326v-.8611h-.4305v.8611h.4305ZM148.4515,62.9677v-.8611h-.4305v.8611h.4305ZM138.5673,63.3982h-1.2961v.4305h1.2961v-.4305ZM154.1255,64.6264l-.2674.8611,1.6587.4623.2674-.8611-1.6587-.4623ZM165.9041,66.4165c-.2674,0-.2674.4305,0,.4305s.2674-.4305,0-.4305M167.5311,67.2458c0-.2991-.2311-.5302-.5302-.5302s-.5302.2311-.5302.5302.2311.5302.5302.5302.5302-.2311.5302-.5302M181.7297,75.0091c0-.2991-.2311-.5302-.5302-.5302s-.5302.2311-.5302.5302.2311.5302.5302.5302.5302-.2311.5302-.5302M114.2489,82.3418c-.2674,0-.2674.4305,0,.4305s.2674-.4305,0-.4305M158.1409,84.4627c-.2674,0-.2674.4305,0,.4305s.2674-.4305,0-.4305M117.6977,93.5221c-.2674,0-.2674.4305,0,.4305s.2674-.4305,0-.4305M125.3295,93.9209c0-.2991-.2311-.5302-.5302-.5302s-.5302.2311-.5302.5302.2311.5302.5302.5302.5302-.2311.5302-.5302" fill="#ff1e91"/>
    <path d="M191.5187,77.5968h.4305s-.2311.8611-.4305,0M173.4362,95.6793c.1314.2311.562,1.1602.4305,1.2961l-1.2961-.4305s-.068-.3671,0-.4305l.4305-.4305c.1314-.0317.2991.0317.4305,0l.0045-.0045ZM153.1965,59.0838h-.4305c.2311-.6617.3988,0,.4305,0M249.1787,99.527c-1.9578.4305-7.9309.0997-10.1516,0-3.3854-.1314-7.1016.6617-10.7498.4305-1.3596-.0997-2.6557-.6617-4.0788-.4623l-.4305-33.5727c-1.2599-.2311-2.4563.4985-3.6482.4623-1.8898-.068-2.8551-.0317-4.7132,0-5.5063.068-10.8495-.6299-16.3558-.4305l-.4623-1.3279h-2.1572l1.491,1.2961c-.7614-.068-1.9895.2311-2.5877-.1994-.2991-.2311-.3988-.7976-.6617-1.0605-.4305-.4305-1.1285-.2674-1.0605-.8611,3.0183.2311,5.9731-.5982,9.0231,0-.3988-.9608-1.5907-1.0605-2.3566-1.7267-1.9578-1.5907-3.4851-4.5773-3.4171-7.1016,0-1.627.8611-2.9548,1.0287-4.3144.1994-1.4593-.6979-4.047,1.3279-4.047l-.4305,2.5877h1.7267l-.3988-2.1255c2.1572-.8611,4.5455-1.8898,6.8659-1.7584-1.491-2.4201-2.8869-4.4458-3.4488-7.301l4.745.4305c-.8293,2.9866,1.9895,2.8869,2.7871,3.8839.4985.5982.5982,1.8581,1.5273,2.7554,2.1255,2.0258,5.7375,2.6195,8.5926,2.3883l-.8611-5.1438c3.7479-.8293,8.7603-2.4201,10.6818,1.9895l-1.8581,3.1497c-.1677.0997-.6979-1.9578-1.491-2.3566-2.3883-1.1964-4.0788.8293-2.6195,3.05.1994.2991,2.5877,2.1889,3.05,2.5198,2.8189,1.9895,6.4716,3.2177,9.2225,5.3432l4.5138-5.7737c-1.2961-1.559-2.6195-.8973-4.2782-.6299v-3.8839l1.7267.4305.4305-1.491-1.2961.2311-.4305-1.2961-.1994,1.2961c-4.0153-2.6195-5.9051-7.9309-7.5638-12.2408-.8293-2.2207-.6979-4.5138-2.9866-6.0366,2.2886-1.6587,1.4276-4.115,1.7584-6.4037.5982-4.2782,3.118-9.789,7.2647-11.6788,2.2886-1.0288,5.7057-1.0967,8.1621-1.9261-.0997,2.556,1.7584,1.7584,3.0183,2.3566.2991.1314,2.2886,2.1572,2.5878,2.5877,2.7192,3.6165,2.3566,10.9492-1.0605,13.9992-.6299.562-1.5273.7296-2.1889,1.2599-.562.4623-2.556,3.4171-2.9866,3.4171l-6.2042-3.0183-.4623-5.1075c3.4488,2.8869,9.8887,3.118,10.9809-2.1255.5982-2.8869-.4985-2.1889-2.3883-3.6845l1.6587-1.7901c-1.491-4.2464-7.2013-4.2782-10.6501-2.2569l.3671,3.8159c-1.5907.0317-2.9548-.4985-3.7842,1.1602-1.7901,3.5485-.929,11.1803.4305,14.8648.7976,2.1889,1.6904,3.7842,4.1784,4.2147-.997,2.9186.4985,4.8084,2.1572,7.0653.4305.5982,1.4276,1.1964,1.7267,1.7267.4305.8293,0,.4305-.4305.4623-.7614.068-.6617.1314-.8973.997l-.7976.4623,2.7554-1.2599,1.7901,1.6904c2.1255-2.6557,5.9368-6.9339,4.0153-10.4824-1.9261-3.5485-6.4354-.4985-2.9548,2.5198-1.1602,1.0605-2.6874,1.7584-4.2782,1.491-.3671-1.9261-1.2282-2.6195-.6979-4.745,1.1964-4.745,6.2722-4.3779,10.1199-5.1438.8611,4.2147,2.556,6.8659,1.1964,11.28-.3671,1.1285-1.2961,2.0575-1.1602,3.3491l3.2857-2.0892,4.4458,1.2282c.0317-3.05,2.0575-5.7057,2.5878-8.6243h-6.9022c-1.2282-3.7479.997-7.7632-2.556-10.5821.4305-1.3913,1.8898-2.3204,2.0892-3.8476.4305-2.8189-.0997-6.8659,0-9.9204,0-.9291.4305-1.7267.4623-2.556.0997-2.3566-.0997-4.745,0-7.1016h-19.143c-.8294.1314-2.5878,1.8264-3.0183,2.5877-.3671,0-1.9895-1.0288-2.1572-1.2961-.3671-.562,0-1.7267-.4305-1.7267l-.2311.8293-2.9866-.8293c1.0967,4.1467-1.0605,8.5609,2.9186,11.4115l-2.488,4.3144v18.7124c-1.9578.0997-4.2782-.3671-6.0048.6617-.7296.4305-1.6587,2.0575-2.3566,1.8898-.7614-.7976-2.8869-2.556-3.9156-2.556h-21.7307c-.5982,2.4563,1.9261,3.2177,2.556,5.3432-4.7132,4.5138-1.7267,12.8073-2.556,18.7759l-1.2961-.8611-.4305,1.2961.4623-2.3204-.8973-.4985c.2991-1.8264.4985-4.0153,0-5.7737l1.491.8611c.2674-1.6904.0997-1.0288-1.3279-1.6904l-.1677-13.3693.8611.4305c0-.6979,0-1.4276.2991-2.0575s1.491-.4623,1.0287-2.2207l31.3838-.4623c.3671-9.0231-.4623-18.3816,0-27.3367,0-.5982.1677-2.8869.2311-3.2494.1314-.562.6617-1.0605,1.0605-1.4593l-1.2961-.2311c-.7296-.5982,3.8159-1.2962,4.3144-1.2962l.4305,1.2961V.327l12.2408-.2311c1.8581,0,9.5896-.2991,10.5821.2311.7614.3988.5302,1.491,1.2961,1.5273l-.8611-1.7267h1.2599c-.2674,1.7267,1.7584,1.3596,1.3279,3.0183l.8611-.2674.4305-1.0288c.929,10.5187.1994,21.2685.4305,31.8506,7.8947.2674,16.025-.3671,23.9196,0,.9608.0317,2.5878.068,3.3491.1314.5982.068,1.2599.7976,1.9895.7614l-1.2961.4305.8611,1.2961c-2.4201-.8293-3.8839,2.1255-5.7737.7976-.7614-.5302-.7614-1.627-1.7584-1.6587l.6299,1.7267c-3.8159-1.491-8.4249-.8293-12.4765-.6617-1.1602,1.4593-2.6557,3.6165-2.5878,5.606,0,.562.4305,1.1964.3671,1.6587-.0997.6617-1.4276,1.4593-1.1964,2.4201,3.1497.3308,5.1755,3.3854,8.5609,3.05.5302,2.2886,1.0967,3.6482,3.7162,3.8476,5.8372.4305,7.3644-7.3961,2.8551-7.9944-2.6557-.3308-3.118,1.8264-3.05,4.0788l-3.6845-2.1255c.2674-2.1572,2.0575-3.7479,1.5273-6.0366.7976-.1994,1.2961.6979,1.9895.7614.5982.068,1.559-.3988,2.5198-.3671,4.8084.2311,7.4641,4.5455,6.5033,9.0911-.562,2.6557-3.0183,4.6135-3.2494,7.301l-7.5321-1.627-.5982.5982c0,1.559-.0317,2.8869-.9608,4.1785l-2.5198,2.4201c1.6587.068,3.3174-.068,4.9443,0,1.7267.068,2.6874,1.0605,4.677-.0317.7976-.4305,1.8898-2.2207,2.5878-2.0575,1.1964,1.1964,2.7872,2.0892,4.4458,2.4563.8294.1677,1.7901-.068,2.4563.1314.7296.2311.4305,1.7584,1.9895,1.2282l-.8611-1.0605.8611-1.2961c-.3308-.7296-1.3596-.4623-1.6587-.6979-.0317,0,.2674-.4623,0-1.0288-.562-1.1602-1.7584-2.0892-2.6195-3.0183,3.6165-2.9548,2.5198-7.4324,2.556-11.6471,0-.6617.2991-1.2961.3308-1.7901,0-.9608-.6979-5.2752-.2991-5.7375l1.6587.068c.9608,1.627.2311,3.3491.2674,4.9081.2311,6.7345.8611,13.4372.2311,20.2397-.1314,1.2961-.2674,2.2886-1.6904,1.9261-.2991-.7614-.1314-2.0258-1.3279-1.6904v1.7267c-.6299.0317-1.2961-.0997-1.9578,0-4.7449.562-9.6893.068-14.6291,0-2.8551,0-4.5138.2674-7.301.4305-1.2282.068-5.7374-.4305-6.0366-.3308s-.4623.2991-.6617.5302v28.6329l-.6617-.8611-1.491.8611c.1314-1.7584-1.6904-2.4201-2.556-3.7162,1.3596-2.1255,2.6195-3.2177,2.5878-5.9731,0-1.1602-.4305-2.0575-.4623-3.0183-.068-2.1889.4623-9.0231-.3988-10.351-.4985-.7614-2.0575-1.2961-1.6904-2.488.2311-.8293,2.1572-1.8898,2.488-4.047.1314-.8611-.5302-1.6904.0317-2.0575,1.7901-.6299,3.6165.0317,5.3749.2674l4.0788-.8973c-2.1572-.7614-3.4488-3.4851-6.0366-3.4488.8611-2.5877.2311-4.6453,0-7.1016-.0997-.997.3671-3.4171-.3988-3.9156-1.4593-.9608-7.2647,1.0288-9.0594,1.5273-.2991,1.0288.2991.7296.562.9608,1.7584,1.5907,2.7192,1.1964,5.0078,1.2282.068,1.8264,1.1964,3.186,3.05,3.4171l-3.5848,2.5198c-1.8581-1.3913-3.9791-2.3204-5.8372-3.6482-.7976-.562-1.2282-1.6904-2.3883-1.4593-.997.562-.3988,1.9261-.8294,2.6195-.3988.5982-3.2857.6979-3.2857,2.3566,0,1.4276,3.4488,2.6874,4.7449,2.3883-.068,3.4851,2.6874,5.8054,3.9791,8.724,2.1889,5.0441,2.3566,10.2196,0,15.2274-1.2599,2.6874-4.3144,3.9473-3.9473,7.4641l-2.1572-.4305c-.4623.4305,2.7872,4.1467,3.186,4.7767.2311.3671.1677.997.3308,1.1602.0997.0997,2.5198.7976,2.7872.8293,1.2282.0997,3.3174-1.1285,4.4458.3308l-1.2961.4305.8611-.6299c-1.9895-.5302-1.5907.6617-2.1255,1.0967-.2674.1994-1.2961-.3671-1.7584.1994l-.1994-.4305s-.1314.3988-.1994.4305l-.0997-.0997.0226.0091ZM225.7213.9932c-.2674,0-.2674.4305,0,.4305s.2674-.4305,0-.4305M226.5869.9932c-.2674,0-.2674.4305,0,.4305s.2674-.4305,0-.4305M251.5353,1.4238c-.2674,0-.2674.4305,0,.4305s.2674-.4305,0-.4305M225.5219,4.0115c.2674-.5302-.6979-1.491-.8611-1.2961v1.2961h.8611ZM248.1183,14.3308c-.2674,0-.2674.4305,0,.4305s.2674-.4305,0-.4305M250.2392,37.5525c-.2674,0-.2674.4305,0,.4305s.2674-.4305,0-.4305M250.9054,39.2792v-.8611h-.4305v.8611h.4305ZM242.2766,39.7097v-.8611h-.4305v.8611h.4305ZM243.5727,39.7097v-.8611h-.4305v.8611h.4305ZM236.0406,39.7097c-.2674,0-.2674.4305,0,.4305s.2674-.4305,0-.4305M237.5679,40.1402l-1.2961.6617.6299,1.0605.6299-1.7267h.0317l.0045.0045ZM238.4289,42.2974l-.8611-.8611v.8611h.8611ZM278.6727,42.728c-.2674,0-.2674.4305,0,.4305s.2674-.4305,0-.4305M278.2421,43.5891c-.2674,0-.2674.4305,0,.4305s.2674-.4305,0-.4305M253.2575,45.3157c-.2674,0-.2674.4305,0,.4305s.2674-.4305,0-.4305M246.3916,46.6119c-.2674,0-.2674.4305,0,.4305s.2674-.4305,0-.4305M288.9919,46.6119c-.2674,0-.2674.4305,0,.4305s.2674-.4305,0-.4305M259.498,47.9035v-.8611h-.4305v.8611h.4305ZM247.452,47.4729c-.8294-.1314-1.4276.4985-1.2961,1.2961.8294.1314,1.4276-.4985,1.2961-1.2961M260.7896,47.9035h-.8611v.4305h.8611v-.4305ZM226.3875,63.3982v14.1986c1.5273-1.4276,2.3566-3.4171,4.0788-4.745.7614-.562,2.556-1.1285,2.8189-1.559.997-1.559-.7614-2.7871-1.7267-3.8159v-.3988c3.3854-1.6587,2.9186-4.8764,4.2782-7.9309-2.1572-1.3913-3.3491-.8973-5.5743,0-.1314-3.0863-1.1602-3.9156-3.7842-5.0441-2.4563-1.0605-11.3797-4.2464-13.5687-3.9156-.6617.0997-1.7584.8611-2.2207.7614-.6299-.1314-.6617-1.9261-3.05-2.1255-4.2464-.3671-7.6318,3.3491-7.1333,7.5638.2311,2.0892,1.9895,2.3883,3.8476,2.3883l.4305,1.491c3.0183.7296,5.3069-1.7584,4.7767-4.7767-.1677-.8611-.997-1.0605-.8611-1.9261l3.6845-.3671.562.6299,1.3279,5.4429-1.2961,1.3279-4.2782,2.8189c2.7192.2674,5.2435.8293,7.9309,0,1.4593-.4623,1.6587-1.7267,2.9866-2.1255,1.5907,1.8898,4.3461,2.8869,6.7028,2.1255l.068-.0317v.0136ZM244.5652,50.029c0-.2991-.2311-.5302-.5302-.5302s-.5302.2311-.5302.5302.2311.5302.5302.5302.5302-.2311.5302-.5302M263.8079,53.4778c.2674-2.1572-.6299-3.9791-3.0183-3.8839-.4623,2.7192,1.5273,10.1516,4.6135,10.6818,2.3883.4305,3.0183-2.8189,2.488-4.677-.6617-2.3883-1.8581-2.2886-4.115-2.1255h.0317v.0045ZM241.0167,54.3388v-1.2961h-.4305v1.2961h.4305ZM240.355,55.2044c-.2674,0-.2674.4305,0,.4305s.2674-.4305,0-.4305M252.8269,55.2044c-.2674,0-.2674.4305,0,.4305s.2674-.4305,0-.4305M238.8595,56.4961v-.8611h-.4305v.8611h.4305ZM253.5928,56.4961c0-.2991-.2311-.5302-.5302-.5302s-.5302.2311-.5302.5302.2311.5302.5302.5302.5302-.2311.5302-.5302M239.3897,58.2227c0-.2991-.2311-.5302-.5302-.5302s-.5302.2311-.5302.5302.2311.5302.5302.5302.5302-.2311.5302-.5302M241.0167,80.6151s-1.559,2.6874-1.627,3.2857c-.068.5302.7614,2.6874,1.1964,2.9866.562.3988,3.8476-1.6587,4.3462-2.1572.4305-.4985,2.0892-3.7479,2.1255-4.3461.0997-1.3279-1.2282-2.8189-1.2282-2.9866,0-.2991.9608-.7614,1.1602-1.3596,1.2961-4.2782-4.115-11.0806-7.233-13.7001-.4305-.3671-.562-.8293-1.2961-.6299-.2311,3.05-1.627,5.9369-1.2961,9.0231l2.1572-.6617,4.6453,6.0366-3.3491,2.7871c-.0997-1.9261-1.2282-4.0788-3.4488-3.8839.4623,2.7554.1314,5.9051,3.8839,5.606h-.0363ZM265.5345,65.1204v-.8611h-.4305v.8611h.4305ZM254.8844,68.5375c0-.2991-.2311-.5302-.5302-.5302s-.5302.2311-.5302.5302.2311.5302.5302.5302.5302-.2311.5302-.5302M235.4106,71.5603v-.8611h-.4305v.8611h.4305ZM237.1373,72.8519h-.8611v.4305h.8611v-.4305ZM232.8229,73.2824h-.8611l.1994,1.7267c.6617-.4623.7296-.9291.6299-1.7267h.0317ZM234.9801,76.3007v-2.5877c-.6617,0-.6299.9291-.9608,1.1602-.2991.2311-.929.1994-1.3913.5302-1.7901,1.2599-4.8084,6.9656-.6299,6.9022-2.556,3.4488,1.6587,5.4429,4.7449,5.606-1.0605-3.7842-2.2569-7.4958-3.0183-11.4115l1.2961-.1994h-.0408ZM229.8046,96.1099v1.2961c1.5907,0,1.5907-1.2961,0-1.2961.3671-.2311.4623-1.2599,1.7267-.8611v1.2961c1.1602-1.0967,2.8551,1.2961,3.6482,1.2961h6.4716s.7296-.6617.6299-1.0605c0-.1314-1.2282-1.3596-1.559-1.8898-.4985-.7976-1.2599-2.8869-1.8581-3.2857-.7976-.5302-3.3174-.0317-4.5138-.2311-1.9578-.2991-5.6423-3.2494-6.6348-5.0078l-1.3596-2.7192v13.5687s.5982.6299.6299.6299c.1677,0,2.3566-1.4276,2.7871-1.7267h.0317v-.0091ZM241.4155,92.661v-.8611h-.4305v.8611h.4305ZM243.5727,96.9709v-1.2961h-.4305v1.2961h.4305ZM244.6649,97.8365c-.2674,0-.2674.4305,0,.4305s.2674-.4305,0-.4305M225.2908,98.2308c-.2674,0-.2674.4305,0,.4305s.2674-.4305,0-.4305M247.6831,98.2308c-.2674,0-.2674.4305,0,.4305s.2674-.4305,0-.4305" fill="#ff1e91"/>
    <path d="M249.1787,99.527h.4305c-.1677.3671-.2674.3671-.4305,0M9.8734,34.1354c3.8839-.8973,8.6606-.1994,12.7076-.2311,3.6165,0,7.301-.3988,10.9492-.2311.8973-1.8898.068-3.3174,0-4.9444-.0997-3.1497.3988-6.7345.4985-9.8525.1677-5.2435-.8293-10.4507-.4623-15.7259l1.491.4623,1.3279-1.3279c.3671.2311-.1314.3988,0,.8973.3988,1.559,1.7901,2.2569,2.3883,3.6165,0,.8611-1.627,1.6904-1.9895,2.7872-1.4276,4.5138-.3308,11.91-.3308,16.6867,0,2.6195-.5302,5.8372-.4985,8.5246,0,.4623.2311.997.2311,1.491h3.4171l-.4305,1.3279,1.7267-.4305v1.2961c1.6587-.8293,2.2569.997,3.4488,1.9261l-1.7267-.6299,1.2961,1.5273-2.5877,5.3749c-.1677.1994-1.2282-1.3279-1.7267-.8611-.8611.7976.9608.8611.8611,1.0605l-1.2961,1.491c1.3596-.3308,4.1467,1.5907,4.745.2311.1994-.4305-1.0967.1314-.8611-.6299.9608-.3671,1.5273.6979,2.0258.7976s1.4276-1.0967,2.2886-.7976l-.8611-.6299,1.9261-3.2177,1.0605,1.0605-.8973.4623.4623,1.9261,2.1572-.6299-1.1285,1.4593-1.4593-.3988.8611,1.0605-1.2961,2.3566,3.4488.8611c-.068-1.2599.562-2.2207,1.491-3.0183.3671.3308.6979.5982.8973,1.0605.1314.3308-.1994,1.627.6299,1.5273-.2674-1.5907.0997-1.627,1.2961-2.3566l-2.5877-.2311,1.2961-.4305c-.8293-.9608.1314-1.9578-.0317-2.7192-.068-.2311-3.186-2.9186-3.6845-3.2177-1.2599-.8293-3.4851-1.0288-4.2147-2.2207-.562-.8973-.4305-2.1572-.8973-2.9866-1.0288-1.8898-3.3174-3.7842-4.4141-5.9051-1.5273-2.9186-2.9548-10.0202-2.6874-13.2696.2991-3.4488,2.6874-6.5034,2.1889-10.0836,4.1467-.5982,7.1333-3.4851,11.5791-2.6195l-.4305,2.1572h1.6904v-1.2961c4.9081.4305,7.0019,6.1363,6.4354,10.5187-.3988,3.0863-3.3174,5.674-4.5455,8.4612-3.6482-.5982-7.6953-.9608-10.4824-3.6845,0-.3988,2.3204-3.0183,2.7872-3.2177.7296-.3308,1.2961,1.9578,2.1889,2.0892,2.5198,1.6904,6.4036-1.491,6.6348-4.047.0997-1.1602-.8293-2.0575,0-3.186-1.1602-.2674-.5982.3308-1.0967.8973l-1.491-.4623c-.2674-.2674,2.2886-4.047-2.3883-4.7132-2.8189-.3671-5.1075.2311-6.8342,2.5877-2.3883,3.2494-5.1438,11.7106.6299,12.907-2.556,3.0863-1.1602,5.0441.5302,7.8629,1.7901,2.9866,4.6135,5.9731,7.5638,8.1303l-.1314.6617c.9608-.5302,1.3596,1.1285,2.1572.9608,1.7584-2.6874,1.0967-5.5426-2.3566-6.0366-.1314-.6617.5302-.2674.8611-.7296,1.8581-2.4201,1.5273-3.9473-.4305-6.1725l3.6845-.7976c.562.0317,1.9578,4.6453,2.1572,5.5063.1994.9608.6299,3.2177.6617,4.115.068,1.8581-.997,4.4458-.9291,6.4036,1.559.4985,2.6874,1.8581,4.4458,1.4593.562-.1314,1.2961-.8973,1.7584-.7614.4623.0997.9291,1.559,1.8264,2.0892s1.7584.562,2.7554.4623c.3308-2.5198,1.2599-4.677.8611-7.301,2.6195.4623,5.2072-1.3913,7.5638-1.6904,4.6135-.5982,9.0594,1.559,11.1486,5.5743,2.3204-.8293,4.6453-3.5848,7.1016-3.0183.4623-1.7584,1.2282-2.9866.8973-4.9081-1.4593-.1677-1.1964-1.3913-2.6195-1.0967l.4305,1.2599-2.7871,2.1889c-.6979-.6979-1.5273-1.4593-2.4201-1.8898-1.9895-.9608-11.8783-1.0288-14.3663-.6617-1.5907.2311-2.8551,1.491-3.9473,2.556-.562.1314-1.491-1.1964-2.1889-1.627-2.0258-1.3279-3.8839-.8973-6.1725-.9291-.1677-1.9895.2674-4.2464-.0997-6.1725-.2674-1.3596-2.6557-2.3566-2.488-3.0863,3.8159-2.9548,2.5198-8.5246,2.556-12.9387,0-.6617.2991-1.2961.3308-1.7901,0-1.0967-.5982-2.488-.2991-3.7479.068-.4985.6299-.1677.8973-.2674v.8611l.8611-.8611c.4623.3988.8973.8611.8611,1.491l-.8973.4305c.068,1.1285.7614,1.7901.8973,2.9866.4985,4.5138-.3308,9.3902-.2991,13.8678,0,2.0258.5982,4.4458.2991,6.6031h27.1056c-.4623.3988-.2311,2.1572.2311,2.1572.9291.0317,1.2961-1.2282,1.9261-1.5273.3988-.1677.9608.3671,1.2282.1677.2311-.1677-.2311-1.1964.9291-.7976-.5982,1.4593-.3671,2.3204,1.2961,2.5877-1.1964,1.2599-1.0288,2.2207.2311,3.4488l.1994-1.7267-.8611.4305c-.1677-.997.3671-1.7901,1.2961-2.1572-.3308,1.0967.3671,2.8551.2674,3.6845-.1314,1.1602-.2674.9291-.2311,2.556,0,2.2569.4985,16.5552-.1314,17.3529-.0997.0997-.4985.068-.5982.2311-.3308.5302.068,1.1285-.997,1.3596l.4305,1.0967,1.2961-.8611c-.0997,1.6904.6979,4.3779-1.559,4.6135-.3988.0317-.8293-.2674-1.2282-.2311-5.8372.1677-12.5082.8611-18.513.3671-1.1602-.0997-1.7267-.1994-2.1572-1.2961l-.4305,1.3279c-1.2961-.068-2.5877,0-3.8476,0-.6299,0-1.2282-.3988-1.7584-.4305-1.1285-.068-2.6874.7976-4.047.3988-.068,6.8025.0997,13.6366,0,20.4708,0,.7976-.3988,1.5273-.3988,2.1255,0,1.0288,1.3279,7.3644-1.0605,7.0336-1.4276-.1994-1.1602-1.2961-1.7901-2.0892-.6979-.8611-1.5907-1.559-2.3566-2.3883,1.491-1.2282,2.4201-2.9186,2.9866-4.745v-23.0269c1.2282-.0317,2.4563.068,3.6845,0,.8293-.0317.6617.068.6299-.8611-3.5848-.5982-6.8659-2.5198-10.3193-3.4851v-1.6904l1.2599-.1994c-.5982-.4985-1.491-1.0967-1.9895-1.6587-.2311-.2991-.0997-.6299-.1677-.6979,1.0288.2674,3.7162,1.1964,4.4776,1.7584.562.4305.6299,1.0967.7614,1.1964.068.0317.6979-.2991,1.2282-.1994,3.4171.7976,4.745,2.7871,8.162-.1677.0997,1.0967.6299,1.9895,1.5907,2.488s3.8476.2674,5.0441.068c3.6482-.5982,8.3932-3.2494,9.1908-7.165.2674-1.2282-.1994-2.4563.5302-3.5848-3.0863,0-4.3779.7976-5.8054,3.4171-1.627-1.3279-5.3749-1.7267-7.2647-1.2282-.2311.068-.8973.5302-.4623.8293.1677,1.0967,2.3566,1.6904,2.3566,3.0183-1.5273-.3988-3.3854.997-4.5455,0-1.5907-1.3279-1.3279-3.7479-1.491-3.8839-.1994-.1994-4.5455-.7976-5.5743-1.0967-2.5198-.7296-4.8764-1.8898-7.301-2.7872-.6299,2.0258-1.2961,3.4851-.4305,5.606h-2.1572c-.2674,1.3596.997.6617,1.7267,1.7267-.7614-.1994-1.7901-.3308-2.5877-.4305-.1677.6979.4623.2674.7296.5302.068.068.8973,1.7901.8973,1.8898.1314.6617-1.0967,1.627.5302,1.4276,0,1.0605-1.2961,0-1.5273,0-.3308-.0317.6979,1.1964-.4305.8611l-1.9578-2.7872.4305-.8611-1.4593.1994-.9291-1.2599-1.9261,1.491,1.2282-1.2961-.7296-1.4593.6979-.1314-.2991-1.2282c.0317.3988-1.4276,2.1572-1.559,2.1889-1.1602.1677-2.5877-1.0288-3.9791,0,.2674,3.9473-1.0288,2.8551-3.5168,3.5848-3.5485,1.0605-6.6665,3.118-10.5504,3.6845-1.1285.1677-2.3204.1677-2.9866-.8611-.2311-.3671.7614-1.1285-.6617-.8611l.2311,1.2961c-.4623.7296-2.3566.7614-1.9578-.4305h-.4305v.8293l-6.6665-1.2961c-.997-.1677-2.4201.997-3.0183.0317-.0317-2.6874-2.3883-3.4488-3.2494-5.5743-1.2961-.9291-6.4716,3.8839-7.9309,4.2464-.1994.0317-.6299-1.9261-1.9261-1.2961-.3988,1.6904,1.0288,2.4563,1.2961,3.8839l-1.491-.1677c-1.1964-.2991-.6617-2.5198-1.0967-3.4488l.8973-.4623v-.6299l-.8973-.2674v-13.5007c1.2599.3308-.0997,1.7901,1.3279,1.9261-1.6587,1.8898.0997,3.118-.4305,4.9761h1.2961c.1994-.1677-2.1255-5.1075,0-4.745l-.8611-1.0605h.8611l-.4305-1.3279.7614-.2311c-.3308-.8293-.3988-1.2961.068-2.0892l-1.2961-.4305,1.7267-.8611c-.1994,1.559,1.8264,1.7901,1.6587,3.1497-.0997.9291-1.7584,2.4563-2.1889,3.4488-.2991.6617.1314.7976.1314.9291v7.9626c1.2282-.1314,2.0892-1.2961,3.118-1.8264.5982-.2991,1.3596-.2991,1.9895-.5982,2.6195-1.2282,1.4593-2.3204,1.8581-4.6135.1677-.8973.9608-1.8264,1.0288-2.2207.068-.7976-.5982-2.1889-.1994-3.186,3.8159-.6617,6.3039-2.8551,10.419-2.0892.997.1677,1.627.8293,2.3566,1.0605,1.0288.3308,4.115.6617,4.3461,1.6904.1677.6299-.4305,1.9895.0317,3.2857.1314.3671.5302.1994.8611.7296-.3671,0-.9608.1314-1.2282-.0997l-.068-.7614h-.8611l-.2311.8973-1.0605-.4623-.4305,3.8839c1.5273.3308.0997-.8973,1.0605-1.2961.6617-.2674,1.0967.6617.6299,1.2961l.4305-1.2961,1.491.8611c.8611-.6979,1.0967-1.4593-.1994-1.2961l.8293-.4305c.2674-.1994-.2674-1.0288-.3988-1.2599,3.6482-.0997,9.3222-.1994,10.9492-4.3144.562-1.3913.068-1.6904-.1677-2.8189-.0997-.3988,1.0288.1314.8293-.5982l-3.4171.8973-.068,1.6587-1.2961.2311,1.2961.6299-4.3144-.8611c.3671-2.7872,1.5273-3.7842,3.4488-5.5743-1.9895.1677-4.2464-.5302-6.0048.6617-.6617.4623-1.6587,2.0575-2.3566,1.8898-2.2886-2.7872-4.4776-2.6195-7.795-2.5877h-3.8476c-3.2494,0-6.5034.1677-9.6893,0l.4305-1.2961-1.9578-.8611-.4305.8611-1.0967-.4305c.8611-1.7584,3.3174-.1994,4.9761-.8973.4623-.1994.9291.4305,1.0605.4623h-.8611c-.1677.9291.068.9291.4305,1.2961.0317.0317-.0317.3308.2311.3671l1.8898-.3988v-1.2961c-.2674.0317-.6979-.068-.8611,0l.068-.0317-.009-.0091ZM58.311,14.7613c-.2674,0-.2674.4305,0,.4305s.2674-.4305,0-.4305M65.6119,28.0988c-.2674,0-.2674.4305,0,.4305s.2674-.4305,0-.4305M19.7939,34.5659l.6299,1.2961.1994-.1994-.4305-1.0605h-.4305l.0317-.0317v-.0045ZM18.5023,34.9965h-1.7267v.1994c.4623.6617.9291.7614,1.7267.6299v-.8611.0317ZM34.8581,35.427h-1.2961v.4305h1.2961v-.4305ZM92.0876,35.427h-.8611v1.2961h.8611v-1.2961ZM37.8764,36.7231h-.8611v.4305h.8611v-.4305ZM47.1306,37.5525c-.2674,0-.2674.4305,0,.4305s.2674-.4305,0-.4305M36.7796,37.983c-.2674,0-.2674.4305,0,.4305s.2674-.4305,0-.4305M50.7834,39.2792l-1.2961-.2311.8611,1.9261.8611-.6299-.7976-.4305.3671-.6617v.0317l.0045-.0045ZM49.9178,41.4318v-.8611h-.4305v.8611h.4305ZM41.724,43.5891c.1677-1.0288-.3308-1.559-1.0605-2.1572l-.6299.6299v.4305l1.7267,1.0967h-.0363ZM57.2188,42.728v-.8611h-.4305v.8611h.4305ZM42.3857,42.2974c-.2674,0-.2674.4305,0,.4305s.2674-.4305,0-.4305M84.4241,45.6828c-.4305-7.0019-12.0097-1.627-10.8178,2.3883.2991,1.0288,3.3491.3308,4.3779.1677,2.5198-.4623,5.0078-1.6904,7.6318-1.627.3671-1.3913-.8973-.5982-1.2282-.8973l.0317-.0317h.0045ZM24.1083,47.0424c-2.8551-5.606-11.1486-3.8476-10.7498,2.5877,1.559.2311,3.2177-2.4201,4.1467-2.488.7614-.0317,1.4276.7976,2.5198.7976,1.2599,0,2.7554-.9608,4.0788-.8973h.0045ZM97.6936,52.8478c.3671-1.6904,0-5.7375,0-7.7632,0-.0997-.3988-.6299-.8611-.4623-.7976.2991-5.9051,3.1497-5.9731,3.5168s.4305,1.2282.3671,2.0575c-.1677,1.8898-1.2961,5.1075-1.2961,6.5034,0,1.1964.8293,2.0892.8973,3.2177l-3.7842.2991-6.1045,2.9186c2.0892,1.3279,4.1785.2311,6.236.1994,1.7901-.0317,3.8476-.0997,5.606,0,1.491.0997,3.0183,1.0605,4.4776.3988-.1314-1.3596.6617-2.6195.3988-3.9473s-2.6195-2.7192-2.4563-3.4488c.3988-.997,2.3566-2.6557,2.556-3.5168l-.068.0317.0045-.0045ZM58.311,44.8852c-.2674,0-.2674.4305,0,.4305s.2674-.4305,0-.4305M30.5437,47.9035l-1.2961.6299.1994.1994,1.0605-.4305v-.4305l.0317.0317h.0045ZM22.0508,48.7328c0-.2991-.2311-.5302-.5302-.5302s-.5302.2311-.5302.5302.2311.5302.5302.5302.5302-.2311.5302-.5302M23.3424,48.7328c0-.2991-.2311-.5302-.5302-.5302s-.5302.2311-.5302.5302.2311.5302.5302.5302.5302-.2311.5302-.5302M40.6635,49.1996c-.2674,0-.2674.4305,0,.4305s.2674-.4305,0-.4305M45.1728,50.0607l1.0605.4305.1994-.1994-1.2961-.6299v.4305l.0317-.0317h.0045ZM2.1464,50.4912H.8503v2.1572c1.3913-.4305,1.4593-.6299,1.2961-2.1572M30.9108,50.5909c-.562-.3988-2.5198.068-3.3491-.0997v1.7267l-1.2961-.4305c-.562,1.559,1.3596-.1677.8611,1.0605-.4623,1.0967-1.3596,1.7901-1.7267,2.7872-.9291-.4985-1.7901-2.0258-1.2961-2.9866h-1.2961l.8611-1.7267c-2.9866-.4305-5.4746,1.2961-8.2935,1.7901-1.4593.1677.1994,2.4563.6617,2.8189.8611.6299,3.0863,1.2961,3.9156,1.8264.3308.1994.2674.7976.3308.8293.1314.0997.6617-.3308.997-.2991,2.4563.2311,6.2722,1.1964,8.2618-.6299.2991-.2674.3671-1.0288.7976-1.1602.4623-.0997,1.1964.6299,1.7901.7614,3.05.6979,6.3039-1.8898,8.6243-3.6845.3308-.2674.7976.068.562-.9608-2.1255-.068-5.4066-1.7901-7.3327-1.0967-1.3596.4623-.9291,1.627-2.6874.2311-.2991-.2311-.2991-.6979-.3988-.7296v-.0317l.0136.0045ZM45.1728,50.4912h-.8611v.4305h.8611v-.4305ZM43.6818,50.9218c-.2674,0-.2674.4305,0,.4305s.2674-.4305,0-.4305M46.2696,50.9218c-.2674,0-.2674.4305,0,.4305s.2674-.4305,0-.4305M47.7606,50.9218c-1.5907-.1994-1.1285,1.7267-.8611,2.5877l.8611-2.5877ZM55.4921,51.7511v-.8611h-.4305v.8611h.4305ZM53.3711,53.0472v-.8611l-.8611.6299.8611.1994v.0317ZM.8503,54.7694c.1677.1994,1.1285-.7614.8611-1.2961-.1677-.1994-1.1285.7614-.8611,1.2961M53.8017,53.4778h-1.2961v.1994c.3988.4623.6617.7976,1.2961.6299v-.8611.0317ZM52.075,55.635l.4305-1.0605-.1994-.1994-.6299,1.2961h.4305l-.0317-.0317v-.0045ZM2.1464,56.0655h-.8611v.4305h.8611v-.4305ZM38.5063,56.0655c-.2674,0-.2674.4305,0,.4305s.2674-.4305,0-.4305M31.4047,57.7922h-.8611v.8611l.8611-.8611ZM34.8581,59.0838l-2.1572-.6617,1.0605,1.5273,1.0967-.8611v-.0045ZM61.9637,59.5143v-.8611h-.4305v.8611h.4305ZM1.0497,60.3799c-.2674,0-.2674.4305,0,.4305s.2674-.4305,0-.4305M25.1688,60.3799c-.2674,0-.2674.4305,0,.4305s.2674-.4305,0-.4305M78.7501,61.6716h-.8611v.4305h.8611v-.4305ZM99.4203,63.8288l-1.7267.4305v.8611s2.0258-1.0288,1.7267-1.2961v.0045ZM75.5324,65.1204c-.2674,0-.2674.4305,0,.4305s.2674-.4305,0-.4305M63.8853,91.3649c-.2674,0-.2674.4305,0,.4305s.2674-.4305,0-.4305" fill="#ff1e91"/>
    <path d="M65.4125,8.2897h-.8611s.1994-.4985.5982-.3988c.2311.0317.1994.3308.2674.3988h-.0045ZM9.8734,34.1354s-.4985.562-.8611.8611c.068-.1994-.0317-.5982,0-.8611.1677.0317.6979.0317.8611,0" fill="#ff1e91"/>
    <path d="M8.6135,35.427c-.068-.4985.4305-.3988.4305-.4305,0,0,.068.4985-.4305.4305M52.075,56.9266l-2.0258,3.7842c-.5982,2.0892-.9608,4.5138-.0997,6.5668l-1.2961-.2311c.3988,1.0288,2.2207,2.0575,3.3174,2.2886,2.1889.4985,3.2177-1.0288,2.6195-3.05-.0997-.3988-.6299-.6979-.6979-1.0605-.3308-1.3279,1.0605-2.4201,2.2569-2.1889,1.2599.2311,2.9548,4.4776,3.2857,5.7057-2.0575,1.4593-3.186,4.6453-6.2042,3.2177l-.3308.7976-.562.1314-3.2177-1.1285-3.0183-3.4171c-1.7267,2.0892-2.556,5.9051-2.1255,8.5926.1314.7976.8293,1.491.7614,2.0892-.0997.8611-1.2282,1.7267-1.2282,3.0863,0,2.5877,2.0258,6.1045,4.3144,7.3327,2.5198,1.3596,8.5926,2.4563,7.7632-1.9578,2.5877.3671,2.7872-1.9895,2.556-4.0788-.4305-3.3854-5.0758-5.0758-7.4959-2.8551-.9291.8611-.6617,2.3883-1.9261,2.1572l-1.3279-4.047c2.7192-2.488,5.7057-2.7871,9.2225-3.186.3308.068,4.2147,4.4458,4.4776,4.9761.6979,1.3913.6979,4.3461.5302,5.9369-.6617,6.8342-8.4612,9.0594-14.1986,6.8659-1.8581-.6979-3.4851-1.8264-5.5743-1.9895.3308-2.9548-1.3596-6.0366-1.7267-8.792-.1994-1.4593-.1677-4.0788,0-5.5743.3308-4.047,2.5877-7.7632,1.2961-11.842.9608.0997,1.7901-.0317,2.3566-.8611l.2311.8293,1.0605-.3988c.4305-.6617-.5982-2.0258.8611-3.8839.2674-.3308.7976-.3308.9608-.4985.0317-.068-.1677-.6299,0-1.0605.6979-1.9261,1.1964-2.1572,3.118-1.4276v-1.2961l2.1572.4305-.0997.0317.0091.0045ZM50.9783,57.3571c-.2674,0-.2674.4305,0,.4305s.2674-.4305,0-.4305M50.1172,58.2227c-.2674,0-.2674.4305,0,.4305s.2674-.4305,0-.4305M48.8256,58.6533c-.2674,0-.2674.4305,0,.4305s.2674-.4305,0-.4305M49.0567,59.5143c-.7976-.1314-1.4276.4305-1.2961,1.2961h1.2961v-1.2961ZM47.1306,60.8105c-.2674,0-.2674.4305,0,.4305s.2674-.4305,0-.4305M55.2927,64.2593l-.6299.6299.1994.1994.6299-.6299-.1994-.1994ZM43.6818,65.5554c-.2674,0-.2674.4305,0,.4305s.2674-.4305,0-.4305M46.469,65.5554h-.8611v.4305h.8611v-.4305ZM43.0201,66.4165h-.8611v.4305h.8611v-.4305ZM55.9226,67.6764v-.8611h-.4305v.8611h.4305ZM43.6818,68.5375c-.2674,0-.2674.4305,0,.4305s.2674-.4305,0-.4305M54.4316,69.4031c-.2674,0-.2674.4305,0,.4305s.2674-.4305,0-.4305M43.6818,71.5603c-.2674,0-.2674.4305,0,.4305s.2674-.4305,0-.4305M52.2744,71.5603c-.2674,0-.2674.4305,0,.4305s.2674-.4305,0-.4305M54.8621,76.3007l-.1994.1994.6299.6299.1994-.1994-.6299-.6299ZM57.6493,79.754h-.8611v.4305h.8611v-.4305ZM45.1728,88.3466l-1.2961-.4305c-.0997.7976,0,1.2599.6299,1.7267l.6299-1.2961h.0363ZM59.1766,87.9161c-.2674,0-.2674.4305,0,.4305s.2674-.4305,0-.4305" fill="#ff1e91"/>
    <path d="M36.1497,63.3982c-.3671,2.8189.4623,4.8764,2.556,6.7028-1.2599,1.9261-2.3566,3.0863-2.556,5.5426-.4623,5.0441.3308,10.7498,0,15.8936l-.8611.2674v.6299l.8611.4623v4.4776c2.1255.3671,3.5848-1.1964,4.9444-2.5877,2.5877,3.5168,6.0728,2.5198,9.9204,2.556.6617,0,1.2961.2991,1.7901.3308,1.5907,0,3.5848-.5982,5.3069-.2991-.2311.8611-3.05,2.4563-3.6482,2.4563s-1.1285-.9608-1.9261-.7296l.2311.8611c-5.2435-.1994-10.5821.1314-15.9253-.1994-1.0967-.068-1.8581.6617-2.7872-.8611l1.2961-1.9261h-1.2599c0-2.1255-.4623-4.2147.8293-6.0366l-1.3279-.2311c.0997-2.7192-.068-5.4429,0-8.162.1314-4.9444.3308-9.8887.1314-14.7289,0-.6299.4305-1.627-.3671-1.8264-.4623-.0997-1.7267.4305-2.556.4623-6.0366.1677-12.2091-.3988-18.1142-.4623-1.2599,0-5.9731.7296-6.7028-.2311-.1994-.2674-.5302-1.7584-.3988-1.8898,2.488.3671,5.2435-.4623,6.0366-3.0183,3.3491,4.047,6.6031,2.7192,10.9492,2.6557,2.5198,0,5.2072-.0997,7.7632-.1314,1.8581,0,3.7162,1.0967,5.8054.0317l.0091-.0091ZM9.8734,65.5554c.2991-.5302-.6979-1.491-.8611-1.2961-.2991.5302.6979,1.491.8611,1.2961M20.8544,64.2593c-.2674,0-.2674.4305,0,.4305s.2674-.4305,0-.4305M17.4055,65.1204c-.2674,0-.2674.4305,0,.4305s.2674-.4305,0-.4305M35.7192,69.8336c.2674-.5302-.6979-1.491-.8611-1.2961v1.2961h.8611ZM61.5286,97.4015l-.8611,1.7267.8611-1.2961,1.2961.4305-.7976.8973.3671.7976h-5.606c.4623-.8293,4.1785-3.05,4.745-2.5877v.0317h-.0045ZM288.362,34.5342l-.8973.2629-.3988,1.065-.8611-1.5273,2.1572.1994ZM255.6458,96.1099c-.0997.8611-.997-.0997-.6299,1.2961l-1.5273-.4305,2.1572-.8611v-.0045ZM34.3981,1.02l1.7883-.0861.0512,1.0587-1.7883.0866-.0512-1.0591ZM3.0075,63.8288c.1994.1677-.7614,1.1285-1.2961.8611v-1.2961l1.2961.4305v.0045Z" fill="#ff1e91"/>
    <circle cx="4.7342" cy="35.8258" r=".5302" fill="#ff1e91"/>
    <path d="M289.6219,37.122h-.8294l.4305-1.2599h.3988v1.2599Z" fill="#ff1e91"/>
    <circle cx="245.7616" cy="6.5675" r=".5302" fill="#ff1e91"/>
    <path d="M64.1164,98.2671l-.6299,1.2961-.1994-.1994c.562-.4305.1677-.562,0-1.0605h.8611l-.0317-.0317v-.0045ZM253.9237,99.1282h1.2961v.4305h-1.2961v-.4305ZM191.0881,34.1354h.8611v.4305h-.8611v-.4305ZM278.8721,37.983h.8611v.4305h-.8611v-.4305ZM191.9492,60.8105h.4305v.8611h-.4305v-.8611ZM36.7796.1276c.2674,0,.2674.4305,0,.4305s-.2674-.4305,0-.4305M254.1231.5582c.2674,0,.2674.4305,0,.4305s-.2674-.4305,0-.4305M49.6866,45.7463c.2674,0,.2674.4305,0,.4305s-.2674-.4305,0-.4305M.2204,41.0013c.2674,0,.2674.4305,0,.4305s-.2674-.4305,0-.4305M192.1486,62.5326c.2674,0,.2674.4305,0,.4305s-.2674-.4305,0-.4305M287.6958,62.9677c.2674,0,.2674.4305,0,.4305s-.2674-.4305,0-.4305M192.5792,63.8288c.2674,0,.2674.4305,0,.4305s-.2674-.4305,0-.4305M2.3413,38.4136c.2674,0,.2674.4305,0,.4305s-.2674-.4305,0-.4305M4.4985,64.6898c.2674,0,.2674.4305,0,.4305s-.2674-.4305,0-.4305M289.4225,37.983c.2674,0,.2674.4305,0,.4305s-.2674-.4305,0-.4305M191.7181,65.1204c.2674,0,.2674.4305,0,.4305s-.2674-.4305,0-.4305M3.2069,65.5554c.2674,0,.2674.4305,0,.4305s-.2674-.4305,0-.4305M288.5614,37.5525c.2674,0,.2674.4305,0,.4305s-.2674-.4305,0-.4305M98.7541,70.6947c.2674,0,.2674.4305,0,.4305s-.2674-.4305,0-.4305M190.422,36.2564c.2674,0,.2674.4305,0,.4305s-.2674-.4305,0-.4305M3.2069,35.8258c.2674,0,.2674.4305,0,.4305s-.2674-.4305,0-.4305M190.8525,34.9965c.2674,0,.2674.4305,0,.4305s-.2674-.4305,0-.4305M55.7232,55.635c.2674,0,.2674.4305,0,.4305s-.2674-.4305,0-.4305M66.0425,96.1099c.2674,0,.2674.4305,0,.4305s-.2674-.4305,0-.4305M41.724.9932l-1.2961-.4305V.1276c1.4276-.4623,2.4201.4623,3.4488.6979.8611.1677,1.4593-.7614,2.3566-.6979l17.1534.0997c.9291.3308,1.0605,1.1602,1.2282,2.0258l1.2282.068-.3308.7976.7614.3308v3.3491l-1.7267.6979v-1.2961l-.8611.1994c.9608-1.2282-.2991-2.6557,0-4.0788-.8973-.0997-1.4593.6617-2.1572,1.0288-.2311.1314-.6617-.1314-.7614-.068-.2674.2311-.9608,2.1572-1.1602,2.0575l-1.491-1.491,1.2961-1.0605c-1.9261-.068-3.8839.0997-5.8054,0-5.3069-.2311-10.3827.068-15.5945-.2991-.4305,0-.6299.2311-.9608.2991-.068-.6979-.0997-1.9261.6617-2.1572.3671-.0997,1.2282-.2311,1.0605.4305l-1.2961.8611c1.4276.1677,2.0575-.4305,1.2961-1.7267l3.0183.8611-.068-.068v.0045ZM44.1123,1.4238c-.2674,0-.2674.4305,0,.4305s.2674-.4305,0-.4305M63.0559,1.4238c-.2674,0-.2674.4305,0,.4305s.2674-.4305,0-.4305M255.8452,98.6659c.2674,0,.2674.4305,0,.4305s-.2674-.4305,0-.4305M133.4236,49.6302h.4305v.8611h-.4305v-.8611ZM151.7055,52.1816c.2674,0,.2674.4305,0,.4305s-.2674-.4305,0-.4305" fill="#ff1e91"/>
  </g>
</svg>